<?xml version="1.0" encoding="UTF-8" standalone="no"?>
<!-- Created by diasvg.py -->
<svg width="29.250cm" height="15.250cm" viewBox="0.875 0.875 30.125 16.125"
 xmlns="http://www.w3.org/2000/svg"
 xmlns:xlink="http://www.w3.org/1999/xlink">
<path stroke="none" fill="#68C668" stroke-width="0.250" d="M 1.833,7.000 L 5.167,7.000 C 5.627,7.000 6.000,7.672 6.000,8.500 C 6.000,9.328 5.627,10.000 5.167,10.000 L 1.833,10.000 C 1.373,10.000 1.000,9.328 1.000,8.500 C 1.000,7.672 1.373,7.000 1.833,7.000 "/>
<path stroke="#559E55" fill="none" stroke-width="0.250"  d="M 1.833,7.000 L 5.167,7.000 C 5.627,7.000 6.000,7.672 6.000,8.500 C 6.000,9.328 5.627,10.000 5.167,10.000 L 1.833,10.000 C 1.373,10.000 1.000,9.328 1.000,8.500 C 1.000,7.672 1.373,7.000 1.833,7.000 "/>
<text x="3.500" y="8.870"  fill="#FFFFFF" text-anchor="middle" font-size="1.06" font-family="Source Code Pro for Powerline" font-style="normal" font-weight="600">
fad4c</text>
<path stroke="none" fill="#68C668" stroke-width="0.250" d="M 9.833,7.000 L 13.167,7.000 C 13.627,7.000 14.000,7.672 14.000,8.500 C 14.000,9.328 13.627,10.000 13.167,10.000 L 9.833,10.000 C 9.373,10.000 9.000,9.328 9.000,8.500 C 9.000,7.672 9.373,7.000 9.833,7.000 "/>
<path stroke="#559E55" fill="none" stroke-width="0.250"  d="M 9.833,7.000 L 13.167,7.000 C 13.627,7.000 14.000,7.672 14.000,8.500 C 14.000,9.328 13.627,10.000 13.167,10.000 L 9.833,10.000 C 9.373,10.000 9.000,9.328 9.000,8.500 C 9.000,7.672 9.373,7.000 9.833,7.000 "/>
<text x="11.500" y="8.870"  fill="#FFFFFF" text-anchor="middle" font-size="1.06" font-family="Source Code Pro for Powerline" font-style="normal" font-weight="600">
96aa1</text>
<path stroke="none" fill="#B552B5" stroke-width="0.250" d="M 17.833,13.000 L 21.167,13.000 C 21.627,13.000 22.000,13.672 22.000,14.500 C 22.000,15.328 21.627,16.000 21.167,16.000 L 17.833,16.000 C 17.373,16.000 17.000,15.328 17.000,14.500 C 17.000,13.672 17.373,13.000 17.833,13.000 "/>
<path stroke="#895089" fill="none" stroke-width="0.250"  d="M 17.833,13.000 L 21.167,13.000 C 21.627,13.000 22.000,13.672 22.000,14.500 C 22.000,15.328 21.627,16.000 21.167,16.000 L 17.833,16.000 C 17.373,16.000 17.000,15.328 17.000,14.500 C 17.000,13.672 17.373,13.000 17.833,13.000 "/>
<text x="19.500" y="14.870"  fill="#FFFFFF" text-anchor="middle" font-size="1.06" font-family="Source Code Pro for Powerline" font-style="normal" font-weight="600">
dfc0a</text>
<path stroke="none" fill="#68C668" stroke-width="0.250" d="M 17.833,7.000 L 21.167,7.000 C 21.627,7.000 22.000,7.672 22.000,8.500 C 22.000,9.328 21.627,10.000 21.167,10.000 L 17.833,10.000 C 17.373,10.000 17.000,9.328 17.000,8.500 C 17.000,7.672 17.373,7.000 17.833,7.000 "/>
<path stroke="#559E55" fill="none" stroke-width="0.250"  d="M 17.833,7.000 L 21.167,7.000 C 21.627,7.000 22.000,7.672 22.000,8.500 C 22.000,9.328 21.627,10.000 21.167,10.000 L 17.833,10.000 C 17.373,10.000 17.000,9.328 17.000,8.500 C 17.000,7.672 17.373,7.000 17.833,7.000 "/>
<text x="19.500" y="8.870"  fill="#FFFFFF" text-anchor="middle" font-size="1.06" font-family="Source Code Pro for Powerline" font-style="normal" font-weight="600">
af50e</text>
<path stroke="none" fill="#5151ED" stroke-width="0.250" d="M 25.833,7.000 L 29.167,7.000 C 29.627,7.000 30.000,7.672 30.000,8.500 C 30.000,9.328 29.627,10.000 29.167,10.000 L 25.833,10.000 C 25.373,10.000 25.000,9.328 25.000,8.500 C 25.000,7.672 25.373,7.000 25.833,7.000 "/>
<path stroke="#4343AD" fill="none" stroke-width="0.250"  d="M 25.833,7.000 L 29.167,7.000 C 29.627,7.000 30.000,7.672 30.000,8.500 C 30.000,9.328 29.627,10.000 29.167,10.000 L 25.833,10.000 C 25.373,10.000 25.000,9.328 25.000,8.500 C 25.000,7.672 25.373,7.000 25.833,7.000 "/>
<text x="27.500" y="8.870"  fill="#FFFFFF" text-anchor="middle" font-size="1.06" font-family="Source Code Pro for Powerline" font-style="normal" font-weight="600">
c56ef</text>
<line x1="9.000" y1="8.500" x2="6.655" y2="8.500" stroke="#BFBFBF" stroke-width="0.250" />
<polygon fill="#BFBFBF" stroke="none" stroke-width="0.250" points="6.280,8.500 6.780,8.250 6.655,8.500 6.780,8.750 "/>
<polygon fill="none" stroke="#BFBFBF" stroke-width="0.250"  points="6.280,8.500 6.780,8.250 6.655,8.500 6.780,8.750 "/>
<line x1="17.000" y1="8.500" x2="14.655" y2="8.500" stroke="#BFBFBF" stroke-width="0.250" />
<polygon fill="#BFBFBF" stroke="none" stroke-width="0.250" points="14.280,8.500 14.780,8.250 14.655,8.500 14.780,8.750 "/>
<polygon fill="none" stroke="#BFBFBF" stroke-width="0.250"  points="14.280,8.500 14.780,8.250 14.655,8.500 14.780,8.750 "/>
<line x1="25.000" y1="8.500" x2="22.655" y2="8.500" stroke="#BFBFBF" stroke-width="0.250" />
<polygon fill="#BFBFBF" stroke="none" stroke-width="0.250" points="22.280,8.500 22.780,8.250 22.655,8.500 22.780,8.750 "/>
<polygon fill="none" stroke="#BFBFBF" stroke-width="0.250"  points="22.280,8.500 22.780,8.250 22.655,8.500 22.780,8.750 "/>
<line x1="27.500" y1="10.000" x2="22.507" y2="14.086" stroke="#BFBFBF" stroke-width="0.250" />
<polygon fill="#BFBFBF" stroke="none" stroke-width="0.250" points="22.216,14.323 22.445,13.813 22.507,14.086 22.762,14.200 "/>
<polygon fill="none" stroke="#BFBFBF" stroke-width="0.250"  points="22.216,14.323 22.445,13.813 22.507,14.086 22.762,14.200 "/>
<line x1="16.923" y1="14.437" x2="12.007" y2="10.414" stroke="#BFBFBF" stroke-width="0.250" />
<polygon fill="#BFBFBF" stroke="none" stroke-width="0.250" points="11.716,10.177 12.262,10.300 12.007,10.414 11.945,10.687 "/>
<polygon fill="none" stroke="#BFBFBF" stroke-width="0.250"  points="11.716,10.177 12.262,10.300 12.007,10.414 11.945,10.687 "/>
<path stroke="none" fill="#4D4D4D" stroke-width="0.250" d="M 9.833,1.000 L 13.167,1.000 C 13.627,1.000 14.000,1.672 14.000,2.500 C 14.000,3.328 13.627,4.000 13.167,4.000 L 9.833,4.000 C 9.373,4.000 9.000,3.328 9.000,2.500 C 9.000,1.672 9.373,1.000 9.833,1.000 "/>
<path stroke="#272727" fill="none" stroke-width="0.250"  d="M 9.833,1.000 L 13.167,1.000 C 13.627,1.000 14.000,1.672 14.000,2.500 C 14.000,3.328 13.627,4.000 13.167,4.000 L 9.833,4.000 C 9.373,4.000 9.000,3.328 9.000,2.500 C 9.000,1.672 9.373,1.000 9.833,1.000 "/>
<text x="11.500" y="2.870"  fill="#FFFFFF" text-anchor="middle" font-size="1.06" font-family="Source Code Pro for Powerline" font-style="normal" font-weight="600">
c34a6</text>
<line x1="9.000" y1="2.500" x2="4.007" y2="6.586" stroke="#BFBFBF" stroke-width="0.250" />
<polygon fill="#BFBFBF" stroke="none" stroke-width="0.250" points="3.716,6.823 3.945,6.313 4.007,6.586 4.262,6.700 "/>
<polygon fill="none" stroke="#BFBFBF" stroke-width="0.250"  points="3.716,6.823 3.945,6.313 4.007,6.586 4.262,6.700 "/>
</svg>