<?xml version="1.0" encoding="UTF-8" standalone="no"?>
<!-- Created with Inkscape (http://www.inkscape.org/) -->

<svg
   xmlns:dc="http://purl.org/dc/elements/1.1/"
   xmlns:cc="http://creativecommons.org/ns#"
   xmlns:rdf="http://www.w3.org/1999/02/22-rdf-syntax-ns#"
   xmlns:svg="http://www.w3.org/2000/svg"
   xmlns="http://www.w3.org/2000/svg"
   xmlns:sodipodi="http://sodipodi.sourceforge.net/DTD/sodipodi-0.dtd"
   xmlns:inkscape="http://www.inkscape.org/namespaces/inkscape"
   width="549"
   height="435.75391"
   id="svg2"
   version="1.1"
   inkscape:version="0.48.4 r9939"
   sodipodi:docname="fast-forward.svg">
  <sodipodi:namedview
     id="base"
     pagecolor="#ffffff"
     bordercolor="#666666"
     borderopacity="1.0"
     inkscape:pageopacity="0.0"
     inkscape:pageshadow="2"
     inkscape:zoom="1"
     inkscape:cx="242.55763"
     inkscape:cy="230.99294"
     inkscape:document-units="px"
     inkscape:current-layer="layer1"
     showgrid="false"
     inkscape:window-width="1366"
     inkscape:window-height="744"
     inkscape:window-x="0"
     inkscape:window-y="24"
     inkscape:window-maximized="1"
     fit-margin-top="0"
     fit-margin-left="0"
     fit-margin-right="0"
     fit-margin-bottom="0"
     showguides="true"
     inkscape:guide-bbox="true" />
  <defs
     id="defs4">
    <marker
       inkscape:stockid="Arrow1Mend"
       orient="auto"
       refY="0"
       refX="0"
       id="Arrow1Mend"
       style="overflow:visible">
      <path
         inkscape:connector-curvature="0"
         id="path3869"
         d="M 0,0 5,-5 -12.5,0 5,5 0,0 z"
         style="fill-rule:evenodd;stroke:#000000;stroke-width:1pt"
         transform="matrix(-0.4,0,0,-0.4,-4,0)" />
    </marker>
    <marker
       inkscape:stockid="Arrow1SendXj"
       orient="auto"
       refY="0"
       refX="0"
       id="Arrow1SendXj"
       style="overflow:visible">
      <path
         inkscape:connector-curvature="0"
         id="path5637"
         d="M 0,0 5,-5 -12.5,0 5,5 0,0 z"
         style="fill:#666666;fill-rule:evenodd;stroke:#666666;stroke-width:1pt"
         transform="matrix(-0.2,0,0,-0.2,-1.2,0)" />
    </marker>
    <marker
       inkscape:stockid="Arrow1SendX"
       orient="auto"
       refY="0"
       refX="0"
       id="Arrow1SendX"
       style="overflow:visible">
      <path
         inkscape:connector-curvature="0"
         id="path5634"
         d="M 0,0 5,-5 -12.5,0 5,5 0,0 z"
         style="fill:#666666;fill-rule:evenodd;stroke:#666666;stroke-width:1pt"
         transform="matrix(-0.2,0,0,-0.2,-1.2,0)" />
    </marker>
    <marker
       inkscape:stockid="Arrow1SendV"
       orient="auto"
       refY="0"
       refX="0"
       id="Arrow1SendV"
       style="overflow:visible">
      <path
         inkscape:connector-curvature="0"
         id="path5631"
         d="M 0,0 5,-5 -12.5,0 5,5 0,0 z"
         style="fill:#666666;fill-rule:evenodd;stroke:#666666;stroke-width:1pt"
         transform="matrix(-0.2,0,0,-0.2,-1.2,0)" />
    </marker>
    <marker
       inkscape:stockid="Arrow1Send"
       orient="auto"
       refY="0"
       refX="0"
       id="Arrow1Send"
       style="overflow:visible">
      <path
         inkscape:connector-curvature="0"
         id="path4825"
         d="M 0,0 5,-5 -12.5,0 5,5 0,0 z"
         style="fill-rule:evenodd;stroke:#000000;stroke-width:1pt"
         transform="matrix(-0.2,0,0,-0.2,-1.2,0)" />
    </marker>
    <marker
       inkscape:stockid="Arrow1SendV"
       orient="auto"
       refY="0"
       refX="0"
       id="Arrow1SendV-0"
       style="overflow:visible">
      <path
         inkscape:connector-curvature="0"
         id="path5631-5"
         d="M 0,0 5,-5 -12.5,0 5,5 0,0 z"
         style="fill:#666666;fill-rule:evenodd;stroke:#666666;stroke-width:1pt"
         transform="matrix(-0.2,0,0,-0.2,-1.2,0)" />
    </marker>
    <marker
       inkscape:stockid="Arrow1Sendf"
       orient="auto"
       refY="0"
       refX="0"
       id="Arrow1Sendf"
       style="overflow:visible">
      <path
         inkscape:connector-curvature="0"
         id="path4517"
         d="M 0,0 5,-5 -12.5,0 5,5 0,0 z"
         style="fill:#4d4d4d;fill-rule:evenodd;stroke:#4d4d4d;stroke-width:1pt"
         transform="matrix(-0.2,0,0,-0.2,-1.2,0)" />
    </marker>
    <marker
       inkscape:stockid="Arrow1SendfE"
       orient="auto"
       refY="0"
       refX="0"
       id="Arrow1SendfE"
       style="overflow:visible">
      <path
         inkscape:connector-curvature="0"
         id="path4775"
         d="M 0,0 5,-5 -12.5,0 5,5 0,0 z"
         style="fill:#5098ff;fill-rule:evenodd;stroke:#5098ff;stroke-width:1pt"
         transform="matrix(-0.2,0,0,-0.2,-1.2,0)" />
    </marker>
    <marker
       inkscape:stockid="Arrow1Sendfz"
       orient="auto"
       refY="0"
       refX="0"
       id="Arrow1Sendfz"
       style="overflow:visible">
      <path
         inkscape:connector-curvature="0"
         id="path4948"
         d="M 0,0 5,-5 -12.5,0 5,5 0,0 z"
         style="fill:#5099ff;fill-rule:evenodd;stroke:#5099ff;stroke-width:1pt"
         transform="matrix(-0.2,0,0,-0.2,-1.2,0)" />
    </marker>
    <marker
       inkscape:stockid="Arrow1SendfzF"
       orient="auto"
       refY="0"
       refX="0"
       id="Arrow1SendfzF"
       style="overflow:visible">
      <path
         inkscape:connector-curvature="0"
         id="path3951"
         d="M 0,0 5,-5 -12.5,0 5,5 0,0 z"
         style="fill:#ff5050;fill-rule:evenodd;stroke:#ff5050;stroke-width:1pt"
         transform="matrix(-0.2,0,0,-0.2,-1.2,0)" />
    </marker>
  </defs>
  <metadata
     id="metadata7">
    <rdf:RDF>
      <cc:Work
         rdf:about="">
        <dc:format>image/svg+xml</dc:format>
        <dc:type
           rdf:resource="http://purl.org/dc/dcmitype/StillImage" />
        <dc:title />
      </cc:Work>
    </rdf:RDF>
  </metadata>
  <g
     transform="translate(18,57.813293)"
     inkscape:label="Layer 1"
     inkscape:groupmode="layer"
     id="layer1">
    <path
       style="opacity:0.1;color:#000000;fill:#ffffff;fill-opacity:1;fill-rule:nonzero;stroke:none;stroke-width:5;marker:none;visibility:visible;display:inline;overflow:visible;enable-background:accumulate"
       d="m -11.701923,-57.813293 536.403843,0 c 3.48914,0 6.29808,2.808942 6.29808,6.298077 l 0,249.403846 c 0,3.48913 -2.80894,6.29808 -6.29808,6.29808 l -536.403843,0 C -15.191058,204.18671 -18,201.37776 -18,197.88863 l 0,-249.403846 c 0,-3.489135 2.808942,-6.298077 6.298077,-6.298077 z"
       id="rect4599" />
    <path
       style="fill:#999999;fill-opacity:1;stroke:#808080;stroke-width:4;stroke-miterlimit:4;stroke-opacity:0.97254902"
       d="m 6.9999995,229 112.6475105,0 c 2.77,0 5,2.23 5,5 l 0,38.44062 c 0,2.77 -2.23,5 -5,5 l -112.6475105,0 c -2.77,0 -5,-2.23 -5,-5 l 0,-38.44062 c 0,-2.77 2.23,-5 5,-5 z"
       id="rect4162-1" />
    <g
       style="font-size:22px;font-style:normal;font-variant:normal;font-weight:normal;font-stretch:condensed;text-align:center;line-height:125%;letter-spacing:0px;word-spacing:0px;writing-mode:lr-tb;text-anchor:middle;fill:#ffffff;fill-opacity:1;stroke:none;font-family:Roboto Condensed;-inkscape-font-specification:'Roboto Condensed, Condensed'"
       id="text3123">
      <path
         d="m 43.917999,254.80481 c -0.759121,0.9668 -1.647141,1.4502 -2.664062,1.45019 -1.138676,1e-5 -2.044599,-0.47981 -2.717774,-1.43945 -0.673178,-0.95963 -1.009766,-2.21646 -1.009765,-3.77051 -10e-7,-1.6328 0.365233,-2.94334 1.095703,-3.93164 0.737627,-0.98826 1.74023,-1.4824 3.007812,-1.48242 1.317702,2e-5 2.34537,0.57293 3.083008,1.71875 0.744783,1.13869 1.117178,2.71779 1.117188,4.73731 l 0,0.59082 c -1e-5,1.73308 -0.132497,3.13672 -0.397461,4.21093 -0.257822,1.07423 -0.640959,1.94076 -1.149414,2.59961 -0.508471,0.65886 -1.156583,1.16016 -1.944336,1.50391 -0.787766,0.33659 -1.772465,0.50488 -2.954102,0.50488 l 0,-1.67578 0.333008,0 c 1.346349,-0.0286 2.366856,-0.43685 3.061523,-1.22461 0.701816,-0.79492 1.081373,-2.05891 1.138672,-3.79199 m -2.341797,-0.19336 c 0.458328,1e-5 0.905919,-0.18977 1.342774,-0.56934 0.436842,-0.38671 0.777011,-0.89159 1.020508,-1.51464 l 0,-0.83789 c -8e-6,-1.29622 -0.225594,-2.35253 -0.676758,-3.16895 -0.451178,-0.82355 -0.995449,-1.23534 -1.632813,-1.23535 -0.687504,1e-5 -1.235355,0.34018 -1.643554,1.02051 -0.401045,0.67319 -0.601566,1.55046 -0.601563,2.63183 -3e-6,1.08139 0.196937,1.96583 0.59082,2.65332 0.393877,0.68035 0.927405,1.02052 1.600586,1.02051"
         style=""
         id="path3121" />
      <path
         d="m 55.154327,245.83508 0,1.68653 -0.311523,0 c -1.267584,0.0287 -2.259445,0.45834 -2.975586,1.28906 -0.71615,0.82358 -1.127933,2.06609 -1.235352,3.72754 0.694658,-0.87369 1.582678,-1.31054 2.664063,-1.31055 1.152988,1e-5 2.066073,0.47625 2.739258,1.42871 0.680329,0.94532 1.020498,2.18783 1.020508,3.72754 -1e-5,1.63998 -0.375986,2.9362 -1.12793,3.88867 -0.7448,0.95248 -1.747403,1.42871 -3.007813,1.42871 -1.267582,0 -2.288089,-0.56217 -3.061523,-1.68652 -0.773439,-1.12435 -1.160158,-2.61751 -1.160156,-4.47949 l 0,-0.7627 c -2e-6,-2.14843 0.232745,-3.86001 0.698242,-5.13476 0.465492,-1.27473 1.149411,-2.22004 2.051758,-2.83594 0.9095,-0.62303 2.037428,-0.9453 3.383789,-0.9668 l 0.322265,0 m -2.180664,7.04688 c -0.51563,1e-5 -0.991866,0.19695 -1.428711,0.59082 -0.436852,0.39389 -0.751956,0.89519 -0.945312,1.5039 l 0,0.78418 c -3e-6,1.26759 0.222002,2.30242 0.666016,3.1045 0.451167,0.79492 1.002599,1.19238 1.654296,1.19238 0.708978,0 1.263991,-0.32585 1.665039,-0.97754 0.401034,-0.65885 0.601555,-1.52539 0.601563,-2.59961 -8e-6,-1.05989 -0.200529,-1.92284 -0.601563,-2.58887 -0.401048,-0.67317 -0.938157,-1.00975 -1.611328,-1.00976"
         style=""
         id="path3123" />
      <path
         d="m 59.171906,255.14856 c -2e-6,-1.79036 0.333006,-3.15461 0.999023,-4.09277 0.673174,-0.93814 1.63639,-1.40722 2.889648,-1.40723 1.11002,1e-5 1.976556,0.45118 2.59961,1.35352 l 0,-6.01563 1.901367,0 0,16.5 -1.740234,0 -0.09668,-1.24609 c -0.623054,0.97396 -1.514655,1.46093 -2.674805,1.46093 -1.203128,0 -2.14844,-0.46549 -2.835937,-1.39648 -0.68034,-0.93815 -1.027671,-2.25944 -1.041992,-3.96387 l 0,-1.19238 m 1.901367,1.08496 c -3e-6,1.30339 0.193356,2.26302 0.580078,2.87891 0.386715,0.60872 1.016922,0.91308 1.890625,0.91308 0.945306,0 1.650709,-0.47623 2.116211,-1.42871 l 0,-5.86523 c -0.486986,-0.93098 -1.188809,-1.39648 -2.105469,-1.39649 -0.873702,1e-5 -1.50391,0.30796 -1.890625,0.92383 -0.386722,0.60873 -0.583662,1.54688 -0.59082,2.81445 l 0,1.16016"
         style=""
         id="path3125" />
      <path
         d="m 76.466827,261.48645 c -0.11459,-0.25065 -0.196947,-0.67318 -0.24707,-1.26758 -0.673183,0.98828 -1.532558,1.48242 -2.578125,1.48242 -1.052738,0 -1.876305,-0.29362 -2.470703,-0.88086 -0.587241,-0.5944 -0.880861,-1.4287 -0.880859,-2.50293 -2e-6,-1.18163 0.40104,-2.11978 1.203125,-2.81445 0.80208,-0.69465 1.901362,-1.04914 3.297851,-1.06347 l 1.396485,0 0,-1.23536 c -8e-6,-0.69465 -0.153979,-1.18879 -0.461915,-1.48242 -0.307949,-0.29361 -0.777024,-0.44042 -1.407226,-0.44043 -0.572921,1e-5 -1.038416,0.17189 -1.396484,0.51563 -0.358077,0.33659 -0.537113,0.76628 -0.53711,1.28906 l -1.901367,0 c -10e-7,-0.59439 0.175454,-1.16015 0.526367,-1.69727 0.350909,-0.54426 0.823565,-0.97036 1.417969,-1.27832 0.594397,-0.30793 1.256831,-0.4619 1.987305,-0.46191 1.188795,1e-5 2.091138,0.29721 2.707031,0.8916 0.623038,0.58725 0.941723,1.44663 0.956055,2.57813 l 0,5.86523 c 0.0072,0.89518 0.128897,1.6722 0.365234,2.33106 l 0,0.17187 -1.976563,0 m -2.535156,-1.51465 c 0.46549,0 0.9095,-0.1289 1.332031,-0.38672 0.42252,-0.25781 0.730462,-0.58007 0.923829,-0.96679 l 0,-2.77149 -1.074219,0 c -0.902349,0.0143 -1.614914,0.21843 -2.137696,0.61231 -0.522789,0.38672 -0.784182,0.93099 -0.784179,1.63281 -3e-6,0.65886 0.132483,1.13867 0.397461,1.43945 0.26497,0.29362 0.712561,0.44043 1.342773,0.44043"
         style=""
         id="path3127" />
      <path
         d="m 89.207062,254.81555 c -10e-6,2.306 -0.336598,4.03191 -1.009766,5.17774 -0.673185,1.13867 -1.729499,1.708 -3.168945,1.708 -1.396489,0 -2.43848,-0.54785 -3.125977,-1.64355 -0.687501,-1.0957 -1.045574,-2.74284 -1.074218,-4.94141 l 0,-2.68554 c -2e-6,-2.2845 0.336586,-3.98892 1.009765,-5.11329 0.680336,-1.12433 1.73665,-1.6865 3.168945,-1.68652 1.410801,2e-5 2.452792,0.53355 3.125977,1.60059 0.680329,1.06707 1.038402,2.68198 1.074219,4.84472 l 0,2.73926 m -1.901367,-2.71777 c -8e-6,-1.65429 -0.182625,-2.87173 -0.547852,-3.65235 -0.365241,-0.78774 -0.948899,-1.18162 -1.750977,-1.18164 -0.780603,2e-5 -1.353519,0.38674 -1.71875,1.16016 -0.365237,0.76629 -0.555016,1.92644 -0.569335,3.48047 l 0,3.22266 c -4e-6,1.64714 0.189775,2.88607 0.569335,3.71679 0.379554,0.82357 0.959631,1.23536 1.740235,1.23535 0.773431,10e-6 1.342766,-0.39029 1.708008,-1.17089 0.365227,-0.7806 0.555005,-1.97298 0.569336,-3.57715 l 0,-3.2334"
         style=""
         id="path3129" />
    </g>
    <path
       style="fill:#999999;fill-opacity:1;stroke:#808080;stroke-width:4;stroke-miterlimit:4;stroke-opacity:0.97254902"
       d="m 197.99997,229 112.64751,0 c 2.77,0 5,2.23 5,5 l 0,38.44062 c 0,2.77 -2.23,5 -5,5 l -112.64751,0 c -2.77,0 -5,-2.23 -5,-5 l 0,-38.44062 c 0,-2.77 2.23,-5 5,-5 z"
       id="rect3921" />
    <path
       style="fill:#999999;fill-opacity:1;stroke:#808080;stroke-width:4;stroke-miterlimit:4;stroke-opacity:0.97254902"
       d="m 389,229 112.64751,0 c 2.77,0 5,2.23 5,5 l 0,38.44062 c 0,2.77 -2.23,5 -5,5 l -112.64751,0 c -2.77,0 -5,-2.23 -5,-5 L 384,234 c 0,-2.77 2.23,-5 5,-5 z"
       id="rect3923" />
    <g
       style="font-size:22px;font-style:normal;font-variant:normal;font-weight:normal;font-stretch:condensed;text-align:center;line-height:125%;letter-spacing:0px;word-spacing:0px;writing-mode:lr-tb;text-anchor:middle;fill:#ffffff;fill-opacity:1;stroke:none;font-family:Roboto Condensed;-inkscape-font-specification:'Roboto Condensed, Condensed'"
       id="text3925">
      <path
         d="m 231.70605,261.48645 0,-10.08691 -1.51464,0 0,-1.53614 1.51464,0 0,-1.34277 c 0.0215,-1.18163 0.31869,-2.10187 0.89161,-2.76074 0.58007,-0.666 1.39648,-0.99901 2.44921,-0.99903 0.37956,2e-5 0.76269,0.0609 1.14942,0.18262 l -0.0967,1.61133 c -0.27214,-0.0644 -0.56218,-0.0967 -0.87012,-0.0967 -1.08138,10e-6 -1.62207,0.76987 -1.62207,2.30957 l 0,1.0957 1.98731,0 0,1.53614 -1.98731,0 0,10.08691 -1.90137,0"
         style=""
         id="path3134" />
      <path
         d="m 246.02539,254.81555 c -10e-6,2.306 -0.3366,4.03191 -1.00977,5.17774 -0.67318,1.13867 -1.72949,1.708 -3.16894,1.708 -1.39649,0 -2.43848,-0.54785 -3.12598,-1.64355 -0.6875,-1.0957 -1.04557,-2.74284 -1.07422,-4.94141 l 0,-2.68554 c 0,-2.2845 0.33659,-3.98892 1.00977,-5.11329 0.68034,-1.12433 1.73665,-1.6865 3.16895,-1.68652 1.4108,2e-5 2.45279,0.53355 3.12597,1.60059 0.68033,1.06707 1.0384,2.68198 1.07422,4.84472 l 0,2.73926 m -1.90137,-2.71777 c 0,-1.65429 -0.18262,-2.87173 -0.54785,-3.65235 -0.36524,-0.78774 -0.9489,-1.18162 -1.75097,-1.18164 -0.78061,2e-5 -1.35352,0.38674 -1.71875,1.16016 -0.36524,0.76629 -0.55502,1.92644 -0.56934,3.48047 l 0,3.22266 c 0,1.64714 0.18977,2.88607 0.56934,3.71679 0.37955,0.82357 0.95963,1.23536 1.74023,1.23535 0.77343,10e-6 1.34277,-0.39029 1.70801,-1.17089 0.36522,-0.7806 0.555,-1.97298 0.56933,-3.57715 l 0,-3.2334"
         style=""
         id="path3136" />
      <path
         d="m 248.30273,255.14856 c 0,-1.79036 0.33301,-3.15461 0.99903,-4.09277 0.67317,-0.93814 1.63639,-1.40722 2.88965,-1.40723 1.11002,1e-5 1.97655,0.45118 2.59961,1.35352 l 0,-6.01563 1.90136,0 0,16.5 -1.74023,0 -0.0967,-1.24609 c -0.62306,0.97396 -1.51466,1.46093 -2.67481,1.46093 -1.20312,0 -2.14844,-0.46549 -2.83593,-1.39648 -0.68034,-0.93815 -1.02767,-2.25944 -1.042,-3.96387 l 0,-1.19238 m 1.90137,1.08496 c 0,1.30339 0.19336,2.26302 0.58008,2.87891 0.38671,0.60872 1.01692,0.91308 1.89062,0.91308 0.94531,0 1.65071,-0.47623 2.11622,-1.42871 l 0,-5.86523 c -0.48699,-0.93098 -1.18881,-1.39648 -2.10547,-1.39649 -0.87371,1e-5 -1.50391,0.30796 -1.89063,0.92383 -0.38672,0.60873 -0.58366,1.54688 -0.59082,2.81445 l 0,1.16016"
         style=""
         id="path3138" />
      <path
         d="m 259.2168,255.14856 c 0,-1.79036 0.333,-3.15461 0.99902,-4.09277 0.67317,-0.93814 1.63639,-1.40722 2.88965,-1.40723 1.11002,1e-5 1.97655,0.45118 2.59961,1.35352 l 0,-6.01563 1.90137,0 0,16.5 -1.74024,0 -0.0967,-1.24609 c -0.62305,0.97396 -1.51465,1.46093 -2.6748,1.46093 -1.20313,0 -2.14844,-0.46549 -2.83594,-1.39648 -0.68034,-0.93815 -1.02767,-2.25944 -1.04199,-3.96387 l 0,-1.19238 m 1.90136,1.08496 c 0,1.30339 0.19336,2.26302 0.58008,2.87891 0.38672,0.60872 1.01692,0.91308 1.89063,0.91308 0.9453,0 1.65071,-0.47623 2.11621,-1.42871 l 0,-5.86523 c -0.48699,-0.93098 -1.18881,-1.39648 -2.10547,-1.39649 -0.8737,1e-5 -1.50391,0.30796 -1.89063,0.92383 -0.38672,0.60873 -0.58366,1.54688 -0.59082,2.81445 l 0,1.16016"
         style=""
         id="path3140" />
      <path
         d="m 274.68555,261.70129 c -1.44662,0 -2.55665,-0.42968 -3.33008,-1.28906 -0.77344,-0.86653 -1.16732,-2.13411 -1.18164,-3.80273 l 0,-1.40723 c 0,-1.73306 0.37597,-3.09016 1.12793,-4.07129 0.75911,-0.98827 1.81542,-1.48241 3.16894,-1.48242 1.36067,1e-5 2.3776,0.43328 3.05078,1.2998 0.67317,0.86655 1.01692,2.21648 1.03125,4.04981 l 0,1.24609 -6.48828,0 0,0.26856 c 0,1.24609 0.23275,2.15202 0.69825,2.71777 0.47265,0.56576 1.1494,0.84864 2.03027,0.84863 0.55859,10e-6 1.04915,-0.10384 1.47168,-0.31152 0.42968,-0.21484 0.83072,-0.55143 1.20312,-1.00977 l 0.98828,1.20313 c -0.82357,1.16016 -2.08041,1.74023 -3.7705,1.74023 m -0.21485,-10.41992 c -0.78776,1e-5 -1.37142,0.27215 -1.75097,0.81641 -0.37956,0.53712 -0.59441,1.37501 -0.64453,2.51367 l 4.57617,0 0,-0.25781 c -0.0501,-1.10286 -0.25066,-1.89062 -0.60157,-2.36328 -0.34375,-0.47265 -0.87012,-0.70898 -1.5791,-0.70899"
         style=""
         id="path3142" />
    </g>
    <g
       style="font-size:22px;font-style:normal;font-variant:normal;font-weight:normal;font-stretch:condensed;text-align:center;line-height:125%;letter-spacing:0px;word-spacing:0px;writing-mode:lr-tb;text-anchor:middle;fill:#ffffff;fill-opacity:1;stroke:none;font-family:Roboto Condensed;-inkscape-font-specification:'Roboto Condensed, Condensed'"
       id="text3929">
      <path
         d="m 423.57617,255.14856 c 0,-1.79036 0.33301,-3.15461 0.99903,-4.09277 0.67317,-0.93814 1.63638,-1.40722 2.88964,-1.40723 1.11002,1e-5 1.97656,0.45118 2.59961,1.35352 l 0,-6.01563 1.90137,0 0,16.5 -1.74023,0 -0.0967,-1.24609 c -0.62306,0.97396 -1.51466,1.46093 -2.67481,1.46093 -1.20313,0 -2.14844,-0.46549 -2.83594,-1.39648 -0.68034,-0.93815 -1.02767,-2.25944 -1.04199,-3.96387 l 0,-1.19238 m 1.90137,1.08496 c 0,1.30339 0.19336,2.26302 0.58008,2.87891 0.38671,0.60872 1.01692,0.91308 1.89062,0.91308 0.94531,0 1.65071,-0.47623 2.11621,-1.42871 l 0,-5.86523 c -0.48698,-0.93098 -1.18881,-1.39648 -2.10547,-1.39649 -0.8737,1e-5 -1.50391,0.30796 -1.89062,0.92383 -0.38672,0.60873 -0.58366,1.54688 -0.59082,2.81445 l 0,1.16016"
         style=""
         id="path3145" />
      <path
         d="m 440.97852,254.80481 c -0.75913,0.9668 -1.64715,1.4502 -2.66407,1.45019 -1.13867,1e-5 -2.0446,-0.47981 -2.71777,-1.43945 -0.67318,-0.95963 -1.00977,-2.21646 -1.00977,-3.77051 0,-1.6328 0.36524,-2.94334 1.09571,-3.93164 0.73762,-0.98826 1.74023,-1.4824 3.00781,-1.48242 1.3177,2e-5 2.34537,0.57293 3.08301,1.71875 0.74478,1.13869 1.11718,2.71779 1.11718,4.73731 l 0,0.59082 c 0,1.73308 -0.13249,3.13672 -0.39746,4.21093 -0.25782,1.07423 -0.64095,1.94076 -1.14941,2.59961 -0.50847,0.65886 -1.15658,1.16016 -1.94434,1.50391 -0.78776,0.33659 -1.77246,0.50488 -2.9541,0.50488 l 0,-1.67578 0.33301,0 c 1.34635,-0.0286 2.36686,-0.43685 3.06152,-1.22461 0.70182,-0.79492 1.08138,-2.05891 1.13868,-3.79199 m -2.3418,-0.19336 c 0.45833,1e-5 0.90592,-0.18977 1.34277,-0.56934 0.43684,-0.38671 0.77701,-0.89159 1.02051,-1.51464 l 0,-0.83789 c -10e-6,-1.29622 -0.22559,-2.35253 -0.67676,-3.16895 -0.45118,-0.82355 -0.99545,-1.23534 -1.63281,-1.23535 -0.6875,1e-5 -1.23536,0.34018 -1.64356,1.02051 -0.40104,0.67319 -0.60156,1.55046 -0.60156,2.63183 0,1.08139 0.19694,1.96583 0.59082,2.65332 0.39388,0.68035 0.92741,1.02052 1.60059,1.02051"
         style=""
         id="path3147" />
      <path
         d="m 446.59668,261.48645 0,-10.08691 -1.51465,0 0,-1.53614 1.51465,0 0,-1.34277 c 0.0215,-1.18163 0.31868,-2.10187 0.8916,-2.76074 0.58008,-0.666 1.39648,-0.99901 2.44922,-0.99903 0.37955,2e-5 0.76269,0.0609 1.14941,0.18262 l -0.0967,1.61133 c -0.27214,-0.0644 -0.56218,-0.0967 -0.87011,-0.0967 -1.08139,10e-6 -1.62208,0.76987 -1.62207,2.30957 l 0,1.0957 1.9873,0 0,1.53614 -1.9873,0 0,10.08691 -1.90137,0"
         style=""
         id="path3149" />
      <path
         d="m 453.55762,261.48645 0,-10.08691 -1.51465,0 0,-1.53614 1.51465,0 0,-1.34277 c 0.0215,-1.18163 0.31868,-2.10187 0.8916,-2.76074 0.58007,-0.666 1.39648,-0.99901 2.44922,-0.99903 0.37955,2e-5 0.76269,0.0609 1.14941,0.18262 l -0.0967,1.61133 c -0.27214,-0.0644 -0.56218,-0.0967 -0.87012,-0.0967 -1.08138,10e-6 -1.62207,0.76987 -1.62207,2.30957 l 0,1.0957 1.98731,0 0,1.53614 -1.98731,0 0,10.08691 -1.90136,0"
         style=""
         id="path3151" />
      <path
         d="m 463.58008,261.70129 c -1.44662,0 -2.55665,-0.42968 -3.33008,-1.28906 -0.77344,-0.86653 -1.16732,-2.13411 -1.18164,-3.80273 l 0,-1.40723 c 0,-1.73306 0.37597,-3.09016 1.12793,-4.07129 0.75911,-0.98827 1.81542,-1.48241 3.16894,-1.48242 1.36067,1e-5 2.3776,0.43328 3.05079,1.2998 0.67316,0.86655 1.01691,2.21648 1.03125,4.04981 l 0,1.24609 -6.48829,0 0,0.26856 c 0,1.24609 0.23275,2.15202 0.69825,2.71777 0.47265,0.56576 1.14941,0.84864 2.03027,0.84863 0.55859,10e-6 1.04915,-0.10384 1.47168,-0.31152 0.42968,-0.21484 0.83072,-0.55143 1.20312,-1.00977 l 0.98829,1.20313 c -0.82358,1.16016 -2.08041,1.74023 -3.77051,1.74023 m -0.21485,-10.41992 c -0.78776,1e-5 -1.37142,0.27215 -1.75097,0.81641 -0.37956,0.53712 -0.59441,1.37501 -0.64453,2.51367 l 4.57617,0 0,-0.25781 c -0.0501,-1.10286 -0.25066,-1.89062 -0.60156,-2.36328 -0.34376,-0.47265 -0.87013,-0.70898 -1.57911,-0.70899"
         style=""
         id="path3153" />
    </g>
    <path
       inkscape:connection-start-point="d4"
       inkscape:connection-start="#rect3921"
       style="fill:none;stroke:#666666;stroke-width:5;stroke-linecap:butt;stroke-linejoin:miter;stroke-miterlimit:4;stroke-opacity:1;stroke-dasharray:none;marker-end:url(#Arrow1SendV);display:inline"
       d="m 192.99997,253.22031 -68.35246,0"
       id="path4264-8"
       inkscape:connector-type="polyline"
       inkscape:connector-curvature="0"
       sodipodi:nodetypes="cc"
       inkscape:connection-end="#rect4162-1"
       inkscape:connection-end-point="d4" />
    <path
       inkscape:connection-start-point="d4"
       inkscape:connection-start="#rect3923"
       sodipodi:nodetypes="cc"
       inkscape:connector-curvature="0"
       inkscape:connector-type="polyline"
       id="path4020"
       d="m 384,253.22031 -68.35252,0"
       style="fill:none;stroke:#666666;stroke-width:5;stroke-linecap:butt;stroke-linejoin:miter;stroke-miterlimit:4;stroke-opacity:1;stroke-dasharray:none;marker-end:url(#Arrow1SendV);display:inline"
       inkscape:connection-end="#rect3921"
       inkscape:connection-end-point="d4" />
    <path
       style="fill:#b380ff;fill-opacity:1;stroke:#9955ff;stroke-width:4;stroke-miterlimit:4;stroke-opacity:0.97254902"
       d="m 389,327.5 112.64751,0 c 2.77,0 5,2.23 5,5 l 0,38.44062 c 0,2.77 -2.23,5 -5,5 l -112.64751,0 c -2.77,0 -5,-2.23 -5,-5 L 384,332.5 c 0,-2.77 2.23,-5 5,-5 z"
       id="rect4022" />
    <g
       style="font-size:22px;font-style:normal;font-variant:normal;font-weight:normal;font-stretch:condensed;text-align:center;line-height:125%;letter-spacing:0px;word-spacing:0px;writing-mode:lr-tb;text-anchor:middle;fill:#ffffff;fill-opacity:1;stroke:none;font-family:Roboto Condensed;-inkscape-font-specification:'Roboto Condensed, Condensed'"
       id="text3123-9">
      <path
         d="m 387.05814,351.40341 c -10e-6,-1.69009 0.4082,-3.0257 1.22461,-4.00683 0.82356,-0.98827 1.90852,-1.48241 3.25488,-1.48243 1.34635,2e-5 2.42772,0.47983 3.24414,1.43946 0.82356,0.95964 1.24608,2.26661 1.26758,3.9209 l 0,1.2246 c -1e-5,1.68295 -0.40822,3.01498 -1.22461,3.9961 -0.81642,0.98112 -1.90496,1.47168 -3.26563,1.47168 -1.34636,0 -2.42773,-0.47624 -3.24414,-1.42871 -0.80924,-0.95247 -1.22819,-2.24154 -1.25683,-3.86719 l 0,-1.26758 m 1.90136,1.0957 c 0,1.19597 0.23275,2.1377 0.69825,2.8252 0.47265,0.68034 1.10644,1.02051 1.90136,1.02051 1.67578,0 2.53873,-1.21029 2.58887,-3.63086 l 0,-1.31055 c -1e-5,-1.18879 -0.23634,-2.12694 -0.70898,-2.81445 -0.47267,-0.69465 -1.10646,-1.04198 -1.90137,-1.04199 -0.78061,1e-5 -1.40723,0.34734 -1.87988,1.04199 -0.4655,0.68751 -0.69825,1.62208 -0.69825,2.80371 l 0,1.10644"
         style=""
         id="path3157" />
      <path
         d="m 403.30032,347.9122 c -0.26498,-0.0501 -0.55143,-0.0752 -0.85937,-0.0752 -0.97396,10e-6 -1.6543,0.53353 -2.04102,1.60058 l 0,8.31445 -1.90136,0 0,-11.62304 1.84765,0 0.0322,1.18164 c 0.50846,-0.93098 1.22818,-1.39647 2.15918,-1.39649 0.30077,2e-5 0.55142,0.0501 0.75195,0.15039 l 0.0107,1.84766"
         style=""
         id="path3159" />
      <path
         d="m 407.25345,357.75204 -1.90137,0 0,-11.62304 1.90137,0 0,11.62304 m 0.15039,-14.70605 c 0,0.32228 -0.0895,0.59083 -0.26856,0.80566 -0.17904,0.21486 -0.45117,0.32228 -0.8164,0.32227 -0.35808,10e-6 -0.62663,-0.10741 -0.80567,-0.32227 -0.17903,-0.21483 -0.26855,-0.48338 -0.26855,-0.80566 0,-0.32225 0.0895,-0.59439 0.26855,-0.81641 0.17904,-0.22199 0.44759,-0.33299 0.80567,-0.333 0.35807,1e-5 0.62662,0.1146 0.80566,0.34375 0.1862,0.22202 0.2793,0.49057 0.2793,0.80566"
         style=""
         id="path3161" />
      <path
         d="m 409.85306,351.41415 c 0,-1.81184 0.32942,-3.17967 0.98828,-4.10351 0.65885,-0.93098 1.62207,-1.39647 2.88965,-1.39649 1.18163,2e-5 2.08039,0.5049 2.69629,1.51465 l 0.0967,-1.2998 1.71875,0 0,11.73047 c -10e-6,1.43945 -0.36883,2.54231 -1.10645,3.30859 -0.73764,0.77343 -1.76531,1.16015 -3.08301,1.16016 -0.57292,-10e-6 -1.21745,-0.14324 -1.93359,-0.42969 -0.70899,-0.2793 -1.24252,-0.62663 -1.60059,-1.04199 l 0.77344,-1.31055 c 0.78776,0.77343 1.65787,1.16015 2.61035,1.16016 1.58268,-10e-6 2.3955,-0.86296 2.43848,-2.58887 l 0,-1.51465 c -0.61589,0.90951 -1.48959,1.36426 -2.62109,1.36426 -1.20313,0 -2.14128,-0.45117 -2.81446,-1.35352 -0.67318,-0.9095 -1.02409,-2.21288 -1.05273,-3.91015 l 0,-1.28907 m 1.90137,1.08496 c -1e-5,1.30339 0.18977,2.26303 0.56933,2.87891 0.38672,0.60873 1.01692,0.91309 1.89063,0.91309 0.9453,0 1.65429,-0.4834 2.12695,-1.4502 l 0,-5.81152 c -0.49415,-0.95247 -1.19597,-1.4287 -2.10547,-1.42871 -0.8737,10e-6 -1.50391,0.30795 -1.89062,0.92383 -0.38673,0.60873 -0.58367,1.54688 -0.59082,2.81445 l 0,1.16015"
         style=""
         id="path3163" />
      <path
         d="m 423.10892,357.75204 -1.90137,0 0,-11.62304 1.90137,0 0,11.62304 m 0.15039,-14.70605 c -1e-5,0.32228 -0.0895,0.59083 -0.26856,0.80566 -0.17904,0.21486 -0.45117,0.32228 -0.8164,0.32227 -0.35808,10e-6 -0.62663,-0.10741 -0.80567,-0.32227 -0.17904,-0.21483 -0.26855,-0.48338 -0.26855,-0.80566 0,-0.32225 0.0895,-0.59439 0.26855,-0.81641 0.17904,-0.22199 0.44759,-0.33299 0.80567,-0.333 0.35807,1e-5 0.62662,0.1146 0.80566,0.34375 0.1862,0.22202 0.27929,0.49057 0.2793,0.80566"
         style=""
         id="path3165" />
      <path
         d="m 427.87845,346.129 0.0537,1.25683 c 0.73763,-0.9811 1.67936,-1.47166 2.82519,-1.47168 2.05534,2e-5 3.09733,1.37143 3.12598,4.11426 l 0,7.72363 -1.89062,0 0,-7.63769 c -10e-6,-0.9095 -0.15398,-1.55403 -0.46192,-1.93359 -0.30079,-0.38671 -0.75554,-0.58007 -1.36426,-0.58008 -0.47266,10e-6 -0.89876,0.15756 -1.27832,0.47265 -0.3724,0.31512 -0.67318,0.7269 -0.90234,1.23536 l 0,8.44335 -1.90137,0 0,-11.62304 1.79395,0"
         style=""
         id="path3167" />
      <path
         d="m 437.26712,359.09482 -1.61133,0 5.48926,-16.9834 1.60059,0 -5.47852,16.9834"
         style=""
         id="path3169" />
      <path
         d="m 446.69876,346.129 0.043,1.07422 c 0.70898,-0.85937 1.64355,-1.28905 2.80371,-1.28907 1.29622,2e-5 2.20214,0.56219 2.71777,1.68653 0.73046,-1.12434 1.74739,-1.68651 3.05079,-1.68653 2.14126,2e-5 3.23696,1.33563 3.2871,4.00684 l 0,7.83105 -1.89062,0 0,-7.64843 c -1e-5,-0.84505 -0.1504,-1.47167 -0.45117,-1.87989 -0.3008,-0.41535 -0.80926,-0.62303 -1.52539,-0.62304 -0.57293,10e-6 -1.03842,0.22201 -1.39649,0.66601 -0.35808,0.44402 -0.56576,1.00978 -0.62304,1.69727 l 0,7.78808 -1.91211,0 0,-7.73437 c -0.0215,-1.61132 -0.67677,-2.41698 -1.96582,-2.41699 -0.95964,10e-6 -1.6364,0.47982 -2.03028,1.43945 l 0,8.71191 -1.89062,0 0,-11.62304 1.7832,0"
         style=""
         id="path3171" />
      <path
         d="m 467.43118,357.75204 c -0.11459,-0.25065 -0.19694,-0.67317 -0.24707,-1.26757 -0.67318,0.98828 -1.53256,1.48242 -2.57812,1.48242 -1.05274,0 -1.87631,-0.29362 -2.47071,-0.88086 -0.58724,-0.5944 -0.88086,-1.42871 -0.88085,-2.50293 -1e-5,-1.18164 0.40104,-2.11979 1.20312,-2.81445 0.80208,-0.69466 1.90136,-1.04915 3.29785,-1.06348 l 1.39649,0 0,-1.23535 c -10e-6,-0.69465 -0.15398,-1.18879 -0.46192,-1.48242 -0.30795,-0.29361 -0.77702,-0.44042 -1.40722,-0.44043 -0.57293,1e-5 -1.03842,0.17188 -1.39649,0.51562 -0.35808,0.3366 -0.53711,0.76629 -0.53711,1.28906 l -1.90137,0 c 0,-0.59439 0.17546,-1.16014 0.52637,-1.69726 0.35091,-0.54426 0.82357,-0.97037 1.41797,-1.27832 0.5944,-0.30793 1.25683,-0.4619 1.98731,-0.46192 1.18879,2e-5 2.09113,0.29722 2.70703,0.89161 0.62303,0.58725 0.94172,1.44662 0.95605,2.57812 l 0,5.86523 c 0.007,0.89519 0.1289,1.67221 0.36524,2.33106 l 0,0.17187 -1.97657,0 m -2.53515,-1.51464 c 0.46549,0 0.9095,-0.12891 1.33203,-0.38672 0.42252,-0.25781 0.73046,-0.58008 0.92383,-0.9668 l 0,-2.77148 -1.07422,0 c -0.90235,0.0143 -1.61492,0.21843 -2.1377,0.6123 -0.52279,0.38672 -0.78418,0.93099 -0.78418,1.63281 0,0.65886 0.13249,1.13868 0.39746,1.43946 0.26497,0.29362 0.71256,0.44043 1.34278,0.44043"
         style=""
         id="path3173" />
      <path
         d="m 477.62552,354.77646 c -10e-6,-0.4082 -0.15398,-0.75911 -0.46192,-1.05274 -0.30794,-0.29361 -0.90234,-0.63736 -1.7832,-1.03125 -1.02409,-0.42252 -1.7474,-0.78417 -2.16992,-1.08496 -0.41537,-0.30077 -0.72689,-0.64094 -0.93457,-1.0205 -0.20768,-0.38672 -0.31153,-0.84505 -0.31152,-1.375 -10e-6,-0.94531 0.34374,-1.72949 1.03125,-2.35254 0.69465,-0.6302 1.57909,-0.9453 2.65332,-0.94532 1.1315,2e-5 2.041,0.32944 2.72851,0.98829 0.68749,0.65886 1.03124,1.50391 1.03125,2.53515 l -1.89062,0 c -1e-5,-0.52278 -0.17547,-0.96679 -0.52637,-1.33203 -0.35092,-0.37239 -0.79851,-0.55858 -1.34277,-0.55859 -0.5586,1e-5 -0.99903,0.14682 -1.32129,0.44043 -0.31511,0.28646 -0.47266,0.67318 -0.47266,1.16015 0,0.38673 0.11458,0.69825 0.34375,0.93457 0.23633,0.23634 0.7985,0.54786 1.68652,0.93457 1.4108,0.55144 2.37044,1.09213 2.87891,1.62207 0.50846,0.52279 0.76269,1.18881 0.7627,1.99805 -10e-6,1.00977 -0.34734,1.81901 -1.042,2.42773 -0.69466,0.60157 -1.62565,0.90235 -2.79296,0.90235 -1.2103,0 -2.19141,-0.34733 -2.94336,-1.04199 -0.75196,-0.69466 -1.12794,-1.57552 -1.12793,-2.64258 l 1.91211,0 c 0.0215,0.64453 0.21842,1.14941 0.59082,1.51465 0.37239,0.36523 0.89517,0.54785 1.56836,0.54785 0.6302,0 1.11001,-0.13965 1.43945,-0.41895 0.32942,-0.28645 0.49413,-0.66959 0.49414,-1.14941"
         style=""
         id="path3175" />
      <path
         d="m 484.47903,343.31454 0,2.81446 1.75098,0 0,1.53613 -1.75098,0 0,7.20801 c 0,0.45833 0.0752,0.80566 0.22559,1.04199 0.15039,0.23633 0.4082,0.35449 0.77344,0.35449 0.25064,0 0.50488,-0.043 0.76269,-0.1289 l -0.0215,1.61132 c -0.42969,0.14323 -0.87012,0.21485 -1.32129,0.21485 -0.75196,0 -1.32487,-0.26856 -1.71875,-0.80567 -0.39388,-0.5371 -0.59082,-1.29622 -0.59082,-2.27734 l 0,-7.21875 -1.77246,0 0,-1.53613 1.77246,0 0,-2.81446 1.89062,0"
         style=""
         id="path3177" />
      <path
         d="m 492.63235,357.96689 c -1.44661,0 -2.55664,-0.42969 -3.33007,-1.28906 -0.77344,-0.86654 -1.16732,-2.13412 -1.18164,-3.80274 l 0,-1.40723 c -10e-6,-1.73306 0.37597,-3.09015 1.12793,-4.07128 0.75911,-0.98827 1.81542,-1.48241 3.16894,-1.48243 1.36067,2e-5 2.3776,0.43328 3.05078,1.29981 0.67317,0.86654 1.01692,2.21648 1.03125,4.0498 l 0,1.2461 -6.48828,0 0,0.26855 c 0,1.2461 0.23275,2.15202 0.69824,2.71778 0.47266,0.56575 1.14941,0.84863 2.03028,0.84863 0.55858,0 1.04914,-0.10384 1.47168,-0.31153 0.42968,-0.21484 0.83072,-0.55143 1.20312,-1.00976 l 0.98828,1.20312 c -0.82357,1.16016 -2.08041,1.74024 -3.77051,1.74024 m -0.21484,-10.41992 c -0.78776,1e-5 -1.37142,0.27214 -1.75098,0.8164 -0.37956,0.53712 -0.5944,1.37501 -0.64453,2.51367 l 4.57618,0 0,-0.25781 c -0.0501,-1.10285 -0.25066,-1.89061 -0.60157,-2.36328 -0.34375,-0.47265 -0.87012,-0.70897 -1.5791,-0.70898"
         style=""
         id="path3179" />
      <path
         d="m 503.58939,347.9122 c -0.26498,-0.0501 -0.55144,-0.0752 -0.85938,-0.0752 -0.97396,10e-6 -1.6543,0.53353 -2.04101,1.60058 l 0,8.31445 -1.90137,0 0,-11.62304 1.84765,0 0.0322,1.18164 c 0.50846,-0.93098 1.22819,-1.39647 2.15918,-1.39649 0.30078,2e-5 0.55143,0.0501 0.75195,0.15039 l 0.0107,1.84766"
         style=""
         id="path3181" />
    </g>
    <path
       style="opacity:0.3;fill:#d43c00;fill-opacity:1;stroke:#aa3000;stroke-width:4;stroke-miterlimit:4;stroke-opacity:0.97254902"
       d="m 6.9999995,135.5 112.6475105,0 c 2.77,0 5,2.23 5,5 l 0,38.44062 c 0,2.77 -2.23,5 -5,5 l -112.6475105,0 c -2.77,0 -5,-2.23 -5,-5 l 0,-38.44062 c 0,-2.77 2.23,-5 5,-5 z"
       id="rect4045" />
    <g
       style="font-size:22px;font-style:normal;font-variant:normal;font-weight:normal;font-stretch:condensed;text-align:center;line-height:125%;letter-spacing:0px;word-spacing:0px;writing-mode:lr-tb;text-anchor:middle;opacity:0.3;fill:#ffffff;fill-opacity:1;stroke:none;font-family:Roboto Condensed;-inkscape-font-specification:'Roboto Condensed, Condensed'"
       id="text4047">
      <path
         d="m 35.7593,155.2408 0.04297,1.07422 c 0.70898,-0.85937 1.64355,-1.28905 2.803711,-1.28906 1.296217,1e-5 2.20214,0.56218 2.717773,1.68652 0.73046,-1.12434 1.747386,-1.68651 3.050782,-1.68652 2.141262,1e-5 3.236964,1.33562 3.287109,4.00683 l 0,7.83106 -1.890625,0 0,-7.64844 c -1.3e-5,-0.84505 -0.150404,-1.47167 -0.451172,-1.87988 -0.300794,-0.41536 -0.809257,-0.62304 -1.525391,-0.62305 -0.572927,1e-5 -1.038421,0.22201 -1.396484,0.66601 -0.358082,0.44402 -0.565764,1.00978 -0.623047,1.69727 l 0,7.78809 -1.912109,0 0,-7.73438 c -0.02149,-1.61132 -0.676765,-2.41698 -1.96582,-2.41699 -0.95964,1e-5 -1.636397,0.47983 -2.030274,1.43945 l 0,8.71192 -1.890625,0 0,-11.62305 1.783203,0"
         style=""
         id="path3185" />
      <path
         d="m 56.491722,166.86385 c -0.114591,-0.25065 -0.196947,-0.67318 -0.24707,-1.26758 -0.673184,0.98828 -1.532558,1.48242 -2.578125,1.48242 -1.052738,0 -1.876305,-0.29362 -2.470703,-0.88086 -0.587241,-0.5944 -0.880861,-1.42871 -0.88086,-2.50293 -1e-6,-1.18164 0.40104,-2.11979 1.203125,-2.81445 0.80208,-0.69466 1.901363,-1.04915 3.297852,-1.06348 l 1.396484,0 0,-1.23535 c -7e-6,-0.69465 -0.153978,-1.18879 -0.461914,-1.48242 -0.307949,-0.29361 -0.777024,-0.44042 -1.407226,-0.44043 -0.572922,1e-5 -1.038416,0.17188 -1.396485,0.51562 -0.358076,0.3366 -0.537112,0.76629 -0.537109,1.28907 l -1.901367,0 c -2e-6,-0.5944 0.175454,-1.16015 0.526367,-1.69727 0.350909,-0.54426 0.823565,-0.97037 1.417969,-1.27832 0.594397,-0.30793 1.256831,-0.4619 1.987304,-0.46191 1.188796,1e-5 2.091139,0.29721 2.707032,0.8916 0.623038,0.58725 0.941722,1.44662 0.956054,2.57812 l 0,5.86524 c 0.0072,0.89518 0.128897,1.6722 0.365235,2.33105 l 0,0.17188 -1.976563,0 m -2.535156,-1.51465 c 0.465489,0 0.909499,-0.12891 1.332031,-0.38672 0.42252,-0.25781 0.730462,-0.58008 0.923828,-0.9668 l 0,-2.77148 -1.074219,0 c -0.902348,0.0143 -1.614913,0.21843 -2.137695,0.6123 -0.52279,0.38673 -0.784183,0.931 -0.78418,1.63281 -3e-6,0.65886 0.132484,1.13868 0.397461,1.43946 0.264971,0.29362 0.712561,0.44043 1.342774,0.44043"
         style=""
         id="path3187" />
      <path
         d="m 66.686058,163.88826 c -7e-6,-0.4082 -0.153978,-0.75911 -0.461914,-1.05273 -0.307949,-0.29362 -0.902349,-0.63737 -1.783203,-1.03125 -1.024092,-0.42253 -1.747399,-0.78418 -2.169922,-1.08497 -0.415367,-0.30077 -0.72689,-0.64094 -0.93457,-1.0205 -0.207684,-0.38671 -0.311525,-0.84505 -0.311524,-1.375 -1e-6,-0.94531 0.343748,-1.72949 1.03125,-2.35254 0.694659,-0.6302 1.579098,-0.9453 2.653321,-0.94531 1.131504,1e-5 2.041008,0.32943 2.728515,0.98828 0.687492,0.65886 1.031241,1.50391 1.03125,2.53515 l -1.890625,0 c -7e-6,-0.52277 -0.175462,-0.96678 -0.526367,-1.33203 -0.350918,-0.37238 -0.798508,-0.55858 -1.342773,-0.55859 -0.558599,1e-5 -0.999028,0.14682 -1.32129,0.44043 -0.315107,0.28647 -0.472659,0.67318 -0.472656,1.16015 -3e-6,0.38673 0.11458,0.69825 0.34375,0.93457 0.236324,0.23634 0.798498,0.54786 1.686524,0.93457 1.4108,0.55144 2.370435,1.09213 2.878906,1.62207 0.508455,0.5228 0.762686,1.18881 0.762695,1.99805 -9e-6,1.00977 -0.347339,1.81901 -1.041992,2.42774 -0.694669,0.60156 -1.625657,0.90234 -2.792969,0.90234 -1.21029,0 -2.191409,-0.34733 -2.943359,-1.04199 -0.751955,-0.69466 -1.127931,-1.57552 -1.12793,-2.64258 l 1.91211,0 c 0.02148,0.64453 0.218421,1.14942 0.59082,1.51465 0.372392,0.36523 0.895178,0.54785 1.568359,0.54785 0.630203,0 1.11002,-0.13965 1.439453,-0.41895 0.329421,-0.28645 0.494134,-0.66959 0.494141,-1.14941"
         style=""
         id="path3189" />
      <path
         d="m 73.539574,152.42635 0,2.81445 1.750976,0 0,1.53613 -1.750976,0 0,7.20801 c -4e-6,0.45834 0.07519,0.80567 0.225586,1.04199 0.150386,0.23633 0.408198,0.3545 0.773437,0.35449 0.250646,1e-5 0.504878,-0.043 0.762695,-0.1289 l -0.02148,1.61133 c -0.429693,0.14322 -0.870122,0.21484 -1.321289,0.21484 -0.751957,0 -1.324873,-0.26856 -1.71875,-0.80566 -0.393882,-0.53711 -0.590822,-1.29623 -0.59082,-2.27735 l 0,-7.21875 -1.772461,0 0,-1.53613 1.772461,0 0,-2.81445 1.890625,0"
         style=""
         id="path3191" />
      <path
         d="m 81.692894,167.07869 c -1.446619,0 -2.556644,-0.42969 -3.330078,-1.28906 -0.773439,-0.86654 -1.167319,-2.13411 -1.181641,-3.80274 l 0,-1.40722 c -10e-7,-1.73307 0.375975,-3.09016 1.12793,-4.07129 0.759112,-0.98827 1.815426,-1.48241 3.168945,-1.48242 1.360671,1e-5 2.377597,0.43327 3.050781,1.2998 0.673168,0.86655 1.016918,2.21648 1.03125,4.0498 l 0,1.2461 -6.488281,0 0,0.26855 c -3e-6,1.2461 0.232744,2.15202 0.698242,2.71778 0.472653,0.56575 1.14941,0.84863 2.030274,0.84863 0.558587,0 1.049147,-0.10384 1.47168,-0.31152 0.429679,-0.21485 0.830721,-0.55143 1.203125,-1.00977 l 0.988281,1.20313 c -0.823576,1.16015 -2.080411,1.74023 -3.770508,1.74023 M 81.47805,156.65877 c -0.787765,1e-5 -1.371423,0.27214 -1.750976,0.8164 -0.379561,0.53712 -0.594404,1.37501 -0.644532,2.51368 l 4.576172,0 0,-0.25782 c -0.05014,-1.10285 -0.250658,-1.89061 -0.601562,-2.36328 -0.343757,-0.47264 -0.870123,-0.70897 -1.579102,-0.70898"
         style=""
         id="path3193" />
      <path
         d="m 92.649925,157.024 c -0.26498,-0.0501 -0.551438,-0.0752 -0.859375,-0.0752 -0.973962,1e-5 -1.6543,0.53353 -2.041015,1.60058 l 0,8.31446 -1.901368,0 0,-11.62305 1.847657,0 0.03223,1.18164 c 0.50846,-0.93098 1.228186,-1.39647 2.15918,-1.39648 0.300775,1e-5 0.551426,0.0501 0.751953,0.15039 l 0.01074,1.84765"
         style=""
         id="path3195" />
    </g>
    <path
       style="opacity:0.3;fill:#7dbb62;fill-opacity:1;stroke:#67aa4a;stroke-width:3.24199057;stroke-miterlimit:4;stroke-opacity:0.97254902"
       d="m 17.673483,46.589806 91.300537,0 c 2.24508,0 4.05249,1.807409 4.05249,4.052488 l 0,31.156029 c 0,2.245078 -1.80741,4.052488 -4.05249,4.052488 l -91.300537,0 c -2.245079,0 -4.052488,-1.80741 -4.052488,-4.052488 l 0,-31.156029 c 0,-2.245079 1.807409,-4.052488 4.052488,-4.052488 z"
       id="rect4051" />
    <g
       style="font-size:20px;font-style:normal;font-variant:normal;font-weight:normal;font-stretch:condensed;text-align:center;line-height:125%;letter-spacing:0px;word-spacing:0px;writing-mode:lr-tb;text-anchor:middle;opacity:0.3;fill:#ffffff;fill-opacity:1;stroke:none;font-family:Roboto Condensed;-inkscape-font-specification:'Roboto Condensed, Condensed'"
       id="text4047-5">
      <path
         d="m 51.277855,74.040619 -1.796875,0 0,-6.572266 -5.722656,0 0,6.572266 -1.78711,0 0,-14.21875 1.78711,0 0,6.113281 5.722656,0 0,-6.113281 1.796875,0 0,14.21875"
         style=""
         id="path3199" />
      <path
         d="m 61.209496,67.468353 -5.029297,0 0,5.039063 5.859375,0 0,1.533203 -7.646485,0 0,-14.21875 7.548828,0 0,1.542969 -5.761718,0 0,4.570312 5.029297,0 0,1.533203"
         style=""
         id="path3201" />
      <path
         d="m 70.945824,70.329681 -4.804688,0 -1.103515,3.710938 -1.835938,0 4.580078,-14.21875 1.533203,0 4.589844,14.21875 -1.835937,0 -1.123047,-3.710938 m -4.335938,-1.542968 3.876953,0 -1.943359,-6.464844 -1.933594,6.464844"
         style=""
         id="path3203" />
      <path
         d="m 75.838402,74.040619 0,-14.21875 3.388672,0 c 1.660149,1.4e-5 2.949211,0.520847 3.867187,1.5625 0.917959,1.035168 1.376943,2.4935 1.376953,4.375 l 0,2.382812 c -1e-5,1.881515 -0.465504,3.336592 -1.396484,4.365235 -0.930998,1.022136 -2.281908,1.533203 -4.052734,1.533203 l -3.183594,0 m 1.787109,-12.675781 0,11.142578 1.435547,0 c 1.256504,10e-7 2.174472,-0.358071 2.753906,-1.074219 0.579419,-0.722653 0.875643,-1.79036 0.888672,-3.203125 l 0,-2.519531 c -8e-6,-1.497386 -0.289721,-2.59439 -0.86914,-3.291016 -0.572924,-0.703113 -1.442064,-1.054675 -2.607422,-1.054687 l -1.601563,0"
         style=""
         id="path3205" />
    </g>
    <path
       inkscape:connection-end-point="d4"
       inkscape:connection-end="#rect4045"
       style="opacity:0.3;fill:none;stroke:#666666;stroke-width:5;stroke-linecap:butt;stroke-linejoin:miter;stroke-miterlimit:4;stroke-opacity:1;stroke-dasharray:none;marker-end:url(#Arrow1SendV);display:inline"
       d="m 63.323753,85.850811 0,49.649189"
       id="path4074"
       inkscape:connector-type="polyline"
       inkscape:connector-curvature="0"
       sodipodi:nodetypes="cc"
       inkscape:connection-start="#rect4051"
       inkscape:connection-start-point="d4" />
    <path
       inkscape:connection-start-point="d4"
       inkscape:connection-start="#rect4045"
       style="opacity:0.3;fill:none;stroke:#666666;stroke-width:5;stroke-linecap:butt;stroke-linejoin:miter;stroke-miterlimit:4;stroke-opacity:1;stroke-dasharray:none;marker-end:url(#Arrow1SendV);display:inline"
       d="m 63.323753,183.94062 0,45.05938"
       id="path4080"
       inkscape:connector-type="polyline"
       inkscape:connector-curvature="0"
       sodipodi:nodetypes="cc"
       inkscape:connection-end="#rect4162-1"
       inkscape:connection-end-point="d4" />
    <path
       sodipodi:nodetypes="cc"
       inkscape:connector-curvature="0"
       inkscape:connector-type="polyline"
       id="path4082"
       d="m 445.32375,327.5 0,-50.05938"
       style="fill:none;stroke:#666666;stroke-width:5;stroke-linecap:butt;stroke-linejoin:miter;stroke-miterlimit:4;stroke-opacity:1;stroke-dasharray:none;marker-end:url(#Arrow1SendV);display:inline"
       inkscape:connection-start="#rect4022"
       inkscape:connection-start-point="d4"
       inkscape:connection-end="#rect3923"
       inkscape:connection-end-point="d4" />
    <path
       style="fill:#d43c00;fill-opacity:1;stroke:#aa3000;stroke-width:4;stroke-miterlimit:4;stroke-opacity:0.97254902"
       d="m 389,135.5 112.64751,0 c 2.77,0 5,2.23 5,5 l 0,38.44062 c 0,2.77 -2.23,5 -5,5 l -112.64751,0 c -2.77,0 -5,-2.23 -5,-5 L 384,140.5 c 0,-2.77 2.23,-5 5,-5 z"
       id="rect3059" />
    <g
       style="font-size:22px;font-style:normal;font-variant:normal;font-weight:normal;font-stretch:condensed;text-align:center;line-height:125%;letter-spacing:0px;word-spacing:0px;writing-mode:lr-tb;text-anchor:middle;fill:#ffffff;fill-opacity:1;stroke:none;font-family:Roboto Condensed;-inkscape-font-specification:'Roboto Condensed, Condensed'"
       id="text3061">
      <path
         d="m 417.75931,155.2408 0.043,1.07422 c 0.70898,-0.85937 1.64355,-1.28905 2.80371,-1.28906 1.29621,1e-5 2.20214,0.56218 2.71777,1.68652 0.73046,-1.12434 1.74739,-1.68651 3.05078,-1.68652 2.14126,1e-5 3.23697,1.33562 3.28711,4.00683 l 0,7.83106 -1.89062,0 0,-7.64844 c -2e-5,-0.84505 -0.15041,-1.47167 -0.45118,-1.87988 -0.30079,-0.41536 -0.80925,-0.62304 -1.52539,-0.62305 -0.57292,1e-5 -1.03842,0.22201 -1.39648,0.66601 -0.35808,0.44402 -0.56576,1.00978 -0.62305,1.69727 l 0,7.78809 -1.91211,0 0,-7.73438 c -0.0215,-1.61132 -0.67676,-2.41698 -1.96582,-2.41699 -0.95964,1e-5 -1.63639,0.47983 -2.03027,1.43945 l 0,8.71192 -1.89063,0 0,-11.62305 1.78321,0"
         style=""
         id="path3209" />
      <path
         d="m 438.49173,166.86385 c -0.11459,-0.25065 -0.19695,-0.67318 -0.24707,-1.26758 -0.67318,0.98828 -1.53256,1.48242 -2.57813,1.48242 -1.05273,0 -1.8763,-0.29362 -2.4707,-0.88086 -0.58724,-0.5944 -0.88086,-1.42871 -0.88086,-2.50293 0,-1.18164 0.40104,-2.11979 1.20313,-2.81445 0.80208,-0.69466 1.90136,-1.04915 3.29785,-1.06348 l 1.39648,0 0,-1.23535 c 0,-0.69465 -0.15398,-1.18879 -0.46191,-1.48242 -0.30795,-0.29361 -0.77703,-0.44042 -1.40723,-0.44043 -0.57292,1e-5 -1.03841,0.17188 -1.39648,0.51562 -0.35808,0.3366 -0.53711,0.76629 -0.53711,1.28907 l -1.90137,0 c 0,-0.5944 0.17546,-1.16015 0.52637,-1.69727 0.35091,-0.54426 0.82356,-0.97037 1.41797,-1.27832 0.59439,-0.30793 1.25683,-0.4619 1.9873,-0.46191 1.1888,1e-5 2.09114,0.29721 2.70703,0.8916 0.62304,0.58725 0.94173,1.44662 0.95606,2.57812 l 0,5.86524 c 0.007,0.89518 0.12889,1.6722 0.36523,2.33105 l 0,0.17188 -1.97656,0 m -2.53516,-1.51465 c 0.46549,0 0.9095,-0.12891 1.33203,-0.38672 0.42252,-0.25781 0.73047,-0.58008 0.92383,-0.9668 l 0,-2.77148 -1.07422,0 c -0.90234,0.0143 -1.61491,0.21843 -2.13769,0.6123 -0.52279,0.38673 -0.78418,0.931 -0.78418,1.63281 0,0.65886 0.13248,1.13868 0.39746,1.43946 0.26497,0.29362 0.71256,0.44043 1.34277,0.44043"
         style=""
         id="path3211" />
      <path
         d="m 448.68607,163.88826 c -10e-6,-0.4082 -0.15398,-0.75911 -0.46192,-1.05273 -0.30795,-0.29362 -0.90235,-0.63737 -1.7832,-1.03125 -1.02409,-0.42253 -1.7474,-0.78418 -2.16992,-1.08497 -0.41537,-0.30077 -0.72689,-0.64094 -0.93457,-1.0205 -0.20769,-0.38671 -0.31153,-0.84505 -0.31153,-1.375 0,-0.94531 0.34375,-1.72949 1.03125,-2.35254 0.69466,-0.6302 1.5791,-0.9453 2.65332,-0.94531 1.13151,1e-5 2.04101,0.32943 2.72852,0.98828 0.68749,0.65886 1.03124,1.50391 1.03125,2.53515 l -1.89063,0 c 0,-0.52277 -0.17546,-0.96678 -0.52636,-1.33203 -0.35092,-0.37238 -0.79851,-0.55858 -1.34278,-0.55859 -0.5586,1e-5 -0.99902,0.14682 -1.32129,0.44043 -0.3151,0.28647 -0.47266,0.67318 -0.47265,1.16015 -1e-5,0.38673 0.11458,0.69825 0.34375,0.93457 0.23632,0.23634 0.7985,0.54786 1.68652,0.93457 1.4108,0.55144 2.37044,1.09213 2.87891,1.62207 0.50845,0.5228 0.76268,1.18881 0.76269,1.99805 -10e-6,1.00977 -0.34734,1.81901 -1.04199,2.42774 -0.69467,0.60156 -1.62566,0.90234 -2.79297,0.90234 -1.21029,0 -2.19141,-0.34733 -2.94336,-1.04199 -0.75195,-0.69466 -1.12793,-1.57552 -1.12793,-2.64258 l 1.91211,0 c 0.0215,0.64453 0.21842,1.14942 0.59082,1.51465 0.37239,0.36523 0.89518,0.54785 1.56836,0.54785 0.6302,0 1.11002,-0.13965 1.43946,-0.41895 0.32942,-0.28645 0.49413,-0.66959 0.49414,-1.14941"
         style=""
         id="path3213" />
      <path
         d="m 455.53958,152.42635 0,2.81445 1.75098,0 0,1.53613 -1.75098,0 0,7.20801 c 0,0.45834 0.0752,0.80567 0.22559,1.04199 0.15038,0.23633 0.4082,0.3545 0.77343,0.35449 0.25065,1e-5 0.50488,-0.043 0.7627,-0.1289 l -0.0215,1.61133 c -0.4297,0.14322 -0.87013,0.21484 -1.32129,0.21484 -0.75196,0 -1.32488,-0.26856 -1.71875,-0.80566 -0.39389,-0.53711 -0.59083,-1.29623 -0.59082,-2.27735 l 0,-7.21875 -1.77246,0 0,-1.53613 1.77246,0 0,-2.81445 1.89062,0"
         style=""
         id="path3215" />
      <path
         d="m 463.6929,167.07869 c -1.44662,0 -2.55664,-0.42969 -3.33008,-1.28906 -0.77344,-0.86654 -1.16732,-2.13411 -1.18164,-3.80274 l 0,-1.40722 c 0,-1.73307 0.37598,-3.09016 1.12793,-4.07129 0.75911,-0.98827 1.81543,-1.48241 3.16895,-1.48242 1.36067,1e-5 2.37759,0.43327 3.05078,1.2998 0.67317,0.86655 1.01692,2.21648 1.03125,4.0498 l 0,1.2461 -6.48828,0 0,0.26855 c -1e-5,1.2461 0.23274,2.15202 0.69824,2.71778 0.47265,0.56575 1.14941,0.84863 2.03027,0.84863 0.55859,0 1.04915,-0.10384 1.47168,-0.31152 0.42968,-0.21485 0.83072,-0.55143 1.20313,-1.00977 l 0.98828,1.20313 c -0.82358,1.16015 -2.08041,1.74023 -3.77051,1.74023 m -0.21484,-10.41992 c -0.78777,1e-5 -1.37143,0.27214 -1.75098,0.8164 -0.37956,0.53712 -0.5944,1.37501 -0.64453,2.51368 l 4.57617,0 0,-0.25782 c -0.0501,-1.10285 -0.25066,-1.89061 -0.60156,-2.36328 -0.34376,-0.47264 -0.87012,-0.70897 -1.5791,-0.70898"
         style=""
         id="path3217" />
      <path
         d="m 474.64993,157.024 c -0.26498,-0.0501 -0.55144,-0.0752 -0.85937,-0.0752 -0.97396,1e-5 -1.6543,0.53353 -2.04102,1.60058 l 0,8.31446 -1.90136,0 0,-11.62305 1.84765,0 0.0322,1.18164 c 0.50846,-0.93098 1.22818,-1.39647 2.15918,-1.39648 0.30077,1e-5 0.55142,0.0501 0.75195,0.15039 l 0.0107,1.84765"
         style=""
         id="path3219" />
    </g>
    <path
       style="fill:#7dbb62;fill-opacity:1;stroke:#67aa4a;stroke-width:3.24199057;stroke-miterlimit:4;stroke-opacity:0.97254902"
       d="m 399.67349,46.589806 91.30054,0 c 2.24508,0 4.05249,1.807409 4.05249,4.052488 l 0,31.156029 c 0,2.245078 -1.80741,4.052488 -4.05249,4.052488 l -91.30054,0 c -2.24508,0 -4.05249,-1.80741 -4.05249,-4.052488 l 0,-31.156029 c 0,-2.245079 1.80741,-4.052488 4.05249,-4.052488 z"
       id="rect3065" />
    <g
       style="font-size:20px;font-style:normal;font-variant:normal;font-weight:normal;font-stretch:condensed;text-align:center;line-height:125%;letter-spacing:0px;word-spacing:0px;writing-mode:lr-tb;text-anchor:middle;fill:#ffffff;fill-opacity:1;stroke:none;font-family:Roboto Condensed;-inkscape-font-specification:'Roboto Condensed, Condensed'"
       id="text3067">
      <path
         d="m 433.27786,74.040619 -1.79687,0 0,-6.572266 -5.72266,0 0,6.572266 -1.78711,0 0,-14.21875 1.78711,0 0,6.113281 5.72266,0 0,-6.113281 1.79687,0 0,14.21875"
         style=""
         id="path3223" />
      <path
         d="m 443.2095,67.468353 -5.02929,0 0,5.039063 5.85937,0 0,1.533203 -7.64648,0 0,-14.21875 7.54883,0 0,1.542969 -5.76172,0 0,4.570312 5.02929,0 0,1.533203"
         style=""
         id="path3225" />
      <path
         d="m 452.94583,70.329681 -4.80469,0 -1.10351,3.710938 -1.83594,0 4.58008,-14.21875 1.5332,0 4.58985,14.21875 -1.83594,0 -1.12305,-3.710938 m -4.33594,-1.542968 3.87696,0 -1.94336,-6.464844 -1.9336,6.464844"
         style=""
         id="path3227" />
      <path
         d="m 457.83841,74.040619 0,-14.21875 3.38867,0 c 1.66015,1.4e-5 2.94921,0.520847 3.86719,1.5625 0.91796,1.035168 1.37694,2.4935 1.37695,4.375 l 0,2.382812 c -1e-5,1.881515 -0.4655,3.336592 -1.39648,4.365235 -0.931,1.022136 -2.28191,1.533203 -4.05274,1.533203 l -3.18359,0 m 1.78711,-12.675781 0,11.142578 1.43555,0 c 1.2565,10e-7 2.17447,-0.358071 2.7539,-1.074219 0.57942,-0.722653 0.87564,-1.79036 0.88867,-3.203125 l 0,-2.519531 c 0,-1.497386 -0.28972,-2.59439 -0.86914,-3.291016 -0.57292,-0.703113 -1.44206,-1.054675 -2.60742,-1.054687 l -1.60156,0"
         style=""
         id="path3229" />
    </g>
    <path
       inkscape:connection-start-point="d4"
       inkscape:connection-start="#rect3065"
       sodipodi:nodetypes="cc"
       inkscape:connector-curvature="0"
       inkscape:connector-type="polyline"
       id="path3095"
       d="m 445.32376,85.850811 0,49.649189"
       style="fill:none;stroke:#666666;stroke-width:5;stroke-linecap:butt;stroke-linejoin:miter;stroke-miterlimit:4;stroke-opacity:1;stroke-dasharray:none;marker-end:url(#Arrow1SendV);display:inline"
       inkscape:connection-end="#rect3059"
       inkscape:connection-end-point="d4" />
    <path
       style="fill:none;stroke:#666666;stroke-width:5;stroke-linecap:butt;stroke-linejoin:miter;stroke-miterlimit:4;stroke-opacity:1;stroke-dasharray:none;marker-end:url(#Arrow1SendV);display:inline"
       d="m 445.32375,183.94062 0,45.05938"
       id="path3099"
       inkscape:connector-type="polyline"
       inkscape:connector-curvature="0"
       sodipodi:nodetypes="cc"
       inkscape:connection-start="#rect3059"
       inkscape:connection-start-point="d4"
       inkscape:connection-end="#rect3923"
       inkscape:connection-end-point="d4" />
    <g
       style="font-size:24px;font-style:normal;font-variant:normal;font-weight:normal;font-stretch:normal;text-align:center;line-height:125%;letter-spacing:0px;word-spacing:0px;writing-mode:lr-tb;text-anchor:middle;fill:#ff5050;fill-opacity:0.89803922;stroke:none;font-family:Roboto;-inkscape-font-specification:Roboto"
       id="text3101">
      <path
         d="m 192.27232,-22.059387 0,-11.003906 -2.0039,0 0,-1.675782 2.0039,0 0,-1.300781 c 0,-1.35936 0.36328,-2.41014 1.08985,-3.152344 0.72656,-0.742169 1.7539,-1.113263 3.08203,-1.113281 0.49999,1.8e-5 0.99608,0.06642 1.48828,0.199219 l -0.11719,1.757812 c -0.36719,-0.0703 -0.75782,-0.105452 -1.17187,-0.105468 -0.70313,1.6e-5 -1.2461,0.207047 -1.62891,0.621093 -0.38282,0.406266 -0.57422,0.992203 -0.57422,1.757813 l 0,1.335937 2.70703,0 0,1.675782 -2.70703,0 0,11.003906 -2.16797,0"
         style=""
         id="path3232" />
      <path
         d="m 207.37779,-22.059387 c -0.12501,-0.25 -0.22657,-0.695312 -0.30469,-1.335938 -1.00782,1.046876 -2.21094,1.570313 -3.60937,1.570313 -1.25,0 -2.27735,-0.351563 -3.08203,-1.054688 -0.79688,-0.710936 -1.19532,-1.609372 -1.19531,-2.695312 -10e-6,-1.320308 0.49999,-2.343744 1.5,-3.070313 1.0078,-0.734367 2.42187,-1.101555 4.24218,-1.101562 l 2.10938,0 0,-0.996094 c -1e-5,-0.757803 -0.22657,-1.359365 -0.67969,-1.804687 -0.45313,-0.453115 -1.1211,-0.679677 -2.00391,-0.679688 -0.77344,1.1e-5 -1.42188,0.195324 -1.94531,0.585938 -0.52344,0.390635 -0.78516,0.863291 -0.78515,1.417968 l -2.17969,0 c 0,-0.632802 0.22265,-1.242177 0.66797,-1.828125 0.45312,-0.593738 1.06249,-1.062488 1.82812,-1.40625 0.77344,-0.343737 1.62109,-0.515612 2.54297,-0.515625 1.46093,1.3e-5 2.60546,0.3672 3.43359,1.101563 0.82812,0.726573 1.25781,1.730479 1.28907,3.011719 l 0,5.835937 c -1e-5,1.164064 0.14842,2.089845 0.44531,2.777344 l 0,0.1875 -2.27344,0 m -3.59765,-1.652344 c 0.67968,2e-6 1.32421,-0.175779 1.93359,-0.527344 0.60937,-0.35156 1.05077,-0.80859 1.32422,-1.371093 l 0,-2.601563 -1.69922,0 c -2.65625,6e-6 -3.98438,0.777349 -3.98438,2.332031 0,0.679691 0.22656,1.21094 0.67969,1.59375 0.45312,0.382815 1.03515,0.574221 1.7461,0.574219"
         style=""
         id="path3234" />
      <path
         d="m 220.0106,-25.422668 c 0,-0.585934 -0.22266,-1.039059 -0.66796,-1.359375 -0.43751,-0.32812 -1.20704,-0.60937 -2.3086,-0.84375 -1.09375,-0.23437 -1.96485,-0.515619 -2.61328,-0.84375 -0.64063,-0.328119 -1.11719,-0.718743 -1.42969,-1.171875 -0.30469,-0.453117 -0.45703,-0.992179 -0.45703,-1.617188 0,-1.039052 0.4375,-1.917958 1.3125,-2.636719 0.88281,-0.718737 2.00781,-1.078112 3.375,-1.078125 1.43749,1.3e-5 2.60156,0.371107 3.49219,1.113282 0.89843,0.742198 1.34765,1.691416 1.34766,2.847656 l -2.17969,0 c -1e-5,-0.593741 -0.25392,-1.105459 -0.76172,-1.535156 -0.50001,-0.429677 -1.13282,-0.644521 -1.89844,-0.644532 -0.78907,1.1e-5 -1.40625,0.171886 -1.85156,0.515625 -0.44532,0.343761 -0.66797,0.792979 -0.66797,1.347657 0,0.523446 0.20703,0.917977 0.62109,1.183593 0.41406,0.265633 1.16016,0.519539 2.23829,0.761719 1.08593,0.242195 1.96483,0.531257 2.63671,0.867188 0.67187,0.335943 1.16796,0.742193 1.48829,1.21875 0.32811,0.468754 0.49217,1.042972 0.49218,1.722656 -1e-5,1.132815 -0.45313,2.04297 -1.35937,2.730469 -0.90626,0.679687 -2.08204,1.019531 -3.52735,1.019531 -1.01563,0 -1.91406,-0.179688 -2.69531,-0.539063 -0.78125,-0.359374 -1.39453,-0.859374 -1.83984,-1.5 -0.4375,-0.648435 -0.65625,-1.347653 -0.65625,-2.097656 l 2.16797,0 c 0.0391,0.726566 0.32812,1.30469 0.86718,1.734375 0.54688,0.421877 1.26562,0.632814 2.15625,0.632813 0.82031,1e-6 1.47656,-0.164061 1.96875,-0.492188 0.5,-0.335935 0.75,-0.781247 0.75,-1.335937"
         style=""
         id="path3236" />
      <path
         d="m 227.9442,-37.809387 0,3.070312 2.36719,0 0,1.675782 -2.36719,0 0,7.863281 c -1e-5,0.507815 0.10546,0.890627 0.3164,1.148437 0.21094,0.250002 0.57031,0.375002 1.07813,0.375 0.24999,2e-6 0.59374,-0.04687 1.03125,-0.140625 l 0,1.757813 c -0.57032,0.15625 -1.12501,0.234375 -1.66406,0.234375 -0.96876,0 -1.69923,-0.292969 -2.19141,-0.878906 -0.49219,-0.585937 -0.73828,-1.417967 -0.73828,-2.496094 l 0,-7.863281 -2.30859,0 0,-1.675782 2.30859,0 0,-3.070312 2.16797,0"
         style=""
         id="path3238" />
      <path
         d="m 237.34264,-28.422668 -5.71875,0 0,-1.769532 5.71875,0 0,1.769532"
         style=""
         id="path3240" />
      <path
         d="m 240.5067,-22.059387 0,-11.003906 -2.00391,0 0,-1.675782 2.00391,0 0,-1.300781 c 0,-1.35936 0.36328,-2.41014 1.08984,-3.152344 0.72656,-0.742169 1.7539,-1.113263 3.08203,-1.113281 0.5,1.8e-5 0.99609,0.06642 1.48828,0.199219 l -0.11718,1.757812 c -0.3672,-0.0703 -0.75782,-0.105452 -1.17188,-0.105468 -0.70313,1.6e-5 -1.2461,0.207047 -1.6289,0.621093 -0.38282,0.406266 -0.57423,0.992203 -0.57422,1.757813 l 0,1.335937 2.70703,0 0,1.675782 -2.70703,0 0,11.003906 -2.16797,0"
         style=""
         id="path3242" />
      <path
         d="m 247.20982,-28.516418 c 0,-1.24218 0.24219,-2.359367 0.72657,-3.351563 0.49218,-0.992177 1.17187,-1.757801 2.03906,-2.296875 0.87499,-0.53905 1.87109,-0.808581 2.98828,-0.808594 1.72655,1.3e-5 3.12108,0.597669 4.18359,1.792969 1.0703,1.195322 1.60546,2.785165 1.60547,4.769531 l 0,0.152344 c -1e-5,1.23438 -0.23829,2.343754 -0.71484,3.328125 -0.46876,0.976564 -1.14454,1.738282 -2.02735,2.285156 -0.875,0.546875 -1.88282,0.820313 -3.02343,0.820313 -1.71876,0 -3.11329,-0.597656 -4.1836,-1.792969 -1.0625,-1.19531 -1.59375,-2.777339 -1.59375,-4.746094 l 0,-0.152343 m 2.17969,0.257812 c 0,1.406255 0.32422,2.53516 0.97266,3.386719 0.65624,0.851564 1.53124,1.277345 2.625,1.277344 1.10155,1e-6 1.97655,-0.429686 2.625,-1.289063 0.64842,-0.867184 0.97264,-2.07812 0.97265,-3.632812 -10e-6,-1.390618 -0.33204,-2.515616 -0.99609,-3.375 -0.65626,-0.867177 -1.53126,-1.300771 -2.625,-1.300782 -1.07032,1.1e-5 -1.9336,0.425792 -2.58984,1.277344 -0.65626,0.851572 -0.98438,2.07032 -0.98438,3.65625"
         style=""
         id="path3244" />
      <path
         d="m 267.60045,-32.793762 c -0.32813,-0.05468 -0.6836,-0.08202 -1.06641,-0.08203 -1.42188,1e-5 -2.38672,0.605479 -2.89453,1.816406 l 0,9 -2.16797,0 0,-12.679688 2.10938,0 0.0351,1.464844 c 0.71094,-1.1328 1.71875,-1.699206 3.02344,-1.699219 0.42187,1.3e-5 0.74218,0.0547 0.96094,0.164063 l 0,2.015625"
         style=""
         id="path3246" />
      <path
         d="m 280.99498,-25.047668 2.4375,-9.691407 2.16797,0 -3.69141,12.679688 -1.75781,0 -3.08203,-9.609375 -3,9.609375 -1.75781,0 -3.67969,-12.679688 2.15625,0 2.49609,9.492188 2.95313,-9.492188 1.74609,0 3.01172,9.691407"
         style=""
         id="path3248" />
      <path
         d="m 295.64342,-22.059387 c -0.12501,-0.25 -0.22657,-0.695312 -0.30469,-1.335938 -1.00782,1.046876 -2.21094,1.570313 -3.60938,1.570313 -1.25,0 -2.27734,-0.351563 -3.08203,-1.054688 -0.79687,-0.710936 -1.19531,-1.609372 -1.19531,-2.695312 0,-1.320308 0.5,-2.343744 1.5,-3.070313 1.00781,-0.734367 2.42187,-1.101555 4.24219,-1.101562 l 2.10937,0 0,-0.996094 c -10e-6,-0.757803 -0.22657,-1.359365 -0.67968,-1.804687 -0.45314,-0.453115 -1.1211,-0.679677 -2.00391,-0.679688 -0.77344,1.1e-5 -1.42188,0.195324 -1.94531,0.585938 -0.52344,0.390635 -0.78516,0.863291 -0.78516,1.417968 l -2.17969,0 c 0,-0.632802 0.22266,-1.242177 0.66797,-1.828125 0.45312,-0.593738 1.0625,-1.062488 1.82813,-1.40625 0.77343,-0.343737 1.62109,-0.515612 2.54297,-0.515625 1.46093,1.3e-5 2.60546,0.3672 3.43359,1.101563 0.82811,0.726573 1.2578,1.730479 1.28906,3.011719 l 0,5.835937 c -1e-5,1.164064 0.14843,2.089845 0.44531,2.777344 l 0,0.1875 -2.27343,0 m -3.59766,-1.652344 c 0.67968,2e-6 1.32421,-0.175779 1.93359,-0.527344 0.60937,-0.35156 1.05078,-0.80859 1.32422,-1.371093 l 0,-2.601563 -1.69922,0 c -2.65625,6e-6 -3.98437,0.777349 -3.98437,2.332031 0,0.679691 0.22656,1.21094 0.67969,1.59375 0.45312,0.382815 1.03515,0.574221 1.74609,0.574219"
         style=""
         id="path3250" />
      <path
         d="m 307.02232,-32.793762 c -0.32813,-0.05468 -0.6836,-0.08202 -1.0664,-0.08203 -1.42188,1e-5 -2.38673,0.605479 -2.89453,1.816406 l 0,9 -2.16797,0 0,-12.679688 2.10937,0 0.0352,1.464844 c 0.71093,-1.1328 1.71874,-1.699206 3.02344,-1.699219 0.42186,1.3e-5 0.74218,0.0547 0.96093,0.164063 l 0,2.015625"
         style=""
         id="path3252" />
      <path
         d="m 308.24107,-28.5047 c 0,-1.945304 0.46094,-3.507802 1.38282,-4.6875 0.92187,-1.187487 2.1289,-1.781237 3.62109,-1.78125 1.48437,1.3e-5 2.66015,0.507825 3.52734,1.523438 l 0,-6.609375 2.16797,0 0,18 -1.99219,0 -0.10546,-1.359375 c -0.8672,1.0625 -2.07423,1.59375 -3.6211,1.59375 -1.46875,0 -2.66797,-0.601562 -3.59765,-1.804688 -0.92188,-1.203122 -1.38282,-2.773433 -1.38282,-4.710937 l 0,-0.164063 m 2.16797,0.246094 c 0,1.437505 0.29687,2.562504 0.89063,3.375 0.59374,0.812502 1.41405,1.218752 2.46093,1.21875 1.375,2e-6 2.3789,-0.617185 3.01172,-1.851562 l 0,-5.824219 c -0.64844,-1.195302 -1.64454,-1.792958 -2.98828,-1.792969 -1.0625,1.1e-5 -1.89063,0.410167 -2.48437,1.230469 -0.59376,0.820321 -0.89063,2.035164 -0.89063,3.644531"
         style=""
         id="path3254" />
    </g>
    <path
       inkscape:connector-curvature="0"
       id="path3105"
       d="m 62.9782,30.587409 c 0,0 195.70719,-86.377032 379.24607,0"
       style="fill:none;stroke:#ff5050;stroke-width:5;stroke-linecap:butt;stroke-linejoin:miter;stroke-miterlimit:4;stroke-opacity:0.89803922;stroke-dasharray:none;marker-end:url(#Arrow1SendfzF)" />
  </g>
</svg>
