<?xml version="1.0" encoding="UTF-8" standalone="no"?>
<!-- Created with Inkscape (http://www.inkscape.org/) -->

<svg
   xmlns:dc="http://purl.org/dc/elements/1.1/"
   xmlns:cc="http://creativecommons.org/ns#"
   xmlns:rdf="http://www.w3.org/1999/02/22-rdf-syntax-ns#"
   xmlns:svg="http://www.w3.org/2000/svg"
   xmlns="http://www.w3.org/2000/svg"
   xmlns:sodipodi="http://sodipodi.sourceforge.net/DTD/sodipodi-0.dtd"
   xmlns:inkscape="http://www.inkscape.org/namespaces/inkscape"
   width="725.12585"
   height="457.28799"
   id="svg2"
   version="1.1"
   inkscape:version="0.48.4 r9939"
   sodipodi:docname="fetch-no-ff.svg">
  <sodipodi:namedview
     id="base"
     pagecolor="#ffffff"
     bordercolor="#666666"
     borderopacity="1.0"
     inkscape:pageopacity="0.0"
     inkscape:pageshadow="2"
     inkscape:zoom="1"
     inkscape:cx="396.88136"
     inkscape:cy="247.04113"
     inkscape:document-units="px"
     inkscape:current-layer="layer1"
     showgrid="false"
     inkscape:window-width="1366"
     inkscape:window-height="744"
     inkscape:window-x="0"
     inkscape:window-y="24"
     inkscape:window-maximized="1"
     fit-margin-top="0"
     fit-margin-left="0"
     fit-margin-right="0"
     fit-margin-bottom="0" />
  <defs
     id="defs4">
    <marker
       style="overflow:visible"
       id="Arrow1Mend"
       refX="0"
       refY="0"
       orient="auto"
       inkscape:stockid="Arrow1Mend">
      <path
         transform="matrix(-0.4,0,0,-0.4,-4,0)"
         style="fill-rule:evenodd;stroke:#000000;stroke-width:1pt"
         d="M 0,0 5,-5 -12.5,0 5,5 0,0 z"
         id="path3869"
         inkscape:connector-curvature="0" />
    </marker>
    <marker
       style="overflow:visible"
       id="Arrow1SendXj"
       refX="0"
       refY="0"
       orient="auto"
       inkscape:stockid="Arrow1SendXj">
      <path
         transform="matrix(-0.2,0,0,-0.2,-1.2,0)"
         style="fill:#666666;fill-rule:evenodd;stroke:#666666;stroke-width:1pt"
         d="M 0,0 5,-5 -12.5,0 5,5 0,0 z"
         id="path5637"
         inkscape:connector-curvature="0" />
    </marker>
    <marker
       style="overflow:visible"
       id="Arrow1SendX"
       refX="0"
       refY="0"
       orient="auto"
       inkscape:stockid="Arrow1SendX">
      <path
         transform="matrix(-0.2,0,0,-0.2,-1.2,0)"
         style="fill:#666666;fill-rule:evenodd;stroke:#666666;stroke-width:1pt"
         d="M 0,0 5,-5 -12.5,0 5,5 0,0 z"
         id="path5634"
         inkscape:connector-curvature="0" />
    </marker>
    <marker
       style="overflow:visible"
       id="Arrow1SendV"
       refX="0"
       refY="0"
       orient="auto"
       inkscape:stockid="Arrow1SendV">
      <path
         transform="matrix(-0.2,0,0,-0.2,-1.2,0)"
         style="fill:#666666;fill-rule:evenodd;stroke:#666666;stroke-width:1pt"
         d="M 0,0 5,-5 -12.5,0 5,5 0,0 z"
         id="path5631"
         inkscape:connector-curvature="0" />
    </marker>
    <marker
       style="overflow:visible"
       id="Arrow1Send"
       refX="0"
       refY="0"
       orient="auto"
       inkscape:stockid="Arrow1Send">
      <path
         transform="matrix(-0.2,0,0,-0.2,-1.2,0)"
         style="fill-rule:evenodd;stroke:#000000;stroke-width:1pt"
         d="M 0,0 5,-5 -12.5,0 5,5 0,0 z"
         id="path4825"
         inkscape:connector-curvature="0" />
    </marker>
    <marker
       style="overflow:visible"
       id="Arrow1SendV-0"
       refX="0"
       refY="0"
       orient="auto"
       inkscape:stockid="Arrow1SendV">
      <path
         transform="matrix(-0.2,0,0,-0.2,-1.2,0)"
         style="fill:#666666;fill-rule:evenodd;stroke:#666666;stroke-width:1pt"
         d="M 0,0 5,-5 -12.5,0 5,5 0,0 z"
         id="path5631-5"
         inkscape:connector-curvature="0" />
    </marker>
    <marker
       style="overflow:visible"
       id="Arrow1Sendf"
       refX="0"
       refY="0"
       orient="auto"
       inkscape:stockid="Arrow1Sendf">
      <path
         transform="matrix(-0.2,0,0,-0.2,-1.2,0)"
         style="fill:#4d4d4d;fill-rule:evenodd;stroke:#4d4d4d;stroke-width:1pt"
         d="M 0,0 5,-5 -12.5,0 5,5 0,0 z"
         id="path4517"
         inkscape:connector-curvature="0" />
    </marker>
    <marker
       style="overflow:visible"
       id="Arrow1SendfE"
       refX="0"
       refY="0"
       orient="auto"
       inkscape:stockid="Arrow1SendfE">
      <path
         transform="matrix(-0.2,0,0,-0.2,-1.2,0)"
         style="fill:#5098ff;fill-rule:evenodd;stroke:#5098ff;stroke-width:1pt"
         d="M 0,0 5,-5 -12.5,0 5,5 0,0 z"
         id="path4775"
         inkscape:connector-curvature="0" />
    </marker>
    <marker
       style="overflow:visible"
       id="Arrow1Sendfz"
       refX="0"
       refY="0"
       orient="auto"
       inkscape:stockid="Arrow1Sendfz">
      <path
         transform="matrix(-0.2,0,0,-0.2,-1.2,0)"
         style="fill:#5099ff;fill-rule:evenodd;stroke:#5099ff;stroke-width:1pt"
         d="M 0,0 5,-5 -12.5,0 5,5 0,0 z"
         id="path4948"
         inkscape:connector-curvature="0" />
    </marker>
    <marker
       style="overflow:visible"
       id="Arrow1SendfE-7"
       refX="0"
       refY="0"
       orient="auto"
       inkscape:stockid="Arrow1SendfE">
      <path
         transform="matrix(-0.2,0,0,-0.2,-1.2,0)"
         style="fill:#5098ff;fill-rule:evenodd;stroke:#5098ff;stroke-width:1pt"
         d="M 0,0 5,-5 -12.5,0 5,5 0,0 z"
         id="path4775-3"
         inkscape:connector-curvature="0" />
    </marker>
    <marker
       style="overflow:visible"
       id="Arrow1SendV-3"
       refX="0"
       refY="0"
       orient="auto"
       inkscape:stockid="Arrow1SendV">
      <path
         transform="matrix(-0.2,0,0,-0.2,-1.2,0)"
         style="fill:#666666;fill-rule:evenodd;stroke:#666666;stroke-width:1pt"
         d="M 0,0 5,-5 -12.5,0 5,5 0,0 z"
         id="path5631-7"
         inkscape:connector-curvature="0" />
    </marker>
    <marker
       style="overflow:visible"
       id="marker5117"
       refX="0"
       refY="0"
       orient="auto"
       inkscape:stockid="Arrow1SendV">
      <path
         transform="matrix(-0.2,0,0,-0.2,-1.2,0)"
         style="fill:#666666;fill-rule:evenodd;stroke:#666666;stroke-width:1pt"
         d="M 0,0 5,-5 -12.5,0 5,5 0,0 z"
         id="path5119"
         inkscape:connector-curvature="0" />
    </marker>
    <marker
       style="overflow:visible"
       id="marker5121"
       refX="0"
       refY="0"
       orient="auto"
       inkscape:stockid="Arrow1SendV">
      <path
         transform="matrix(-0.2,0,0,-0.2,-1.2,0)"
         style="fill:#666666;fill-rule:evenodd;stroke:#666666;stroke-width:1pt"
         d="M 0,0 5,-5 -12.5,0 5,5 0,0 z"
         id="path5123"
         inkscape:connector-curvature="0" />
    </marker>
    <marker
       style="overflow:visible"
       id="marker5125"
       refX="0"
       refY="0"
       orient="auto"
       inkscape:stockid="Arrow1SendV">
      <path
         transform="matrix(-0.2,0,0,-0.2,-1.2,0)"
         style="fill:#666666;fill-rule:evenodd;stroke:#666666;stroke-width:1pt"
         d="M 0,0 5,-5 -12.5,0 5,5 0,0 z"
         id="path5127"
         inkscape:connector-curvature="0" />
    </marker>
    <marker
       style="overflow:visible"
       id="marker5129"
       refX="0"
       refY="0"
       orient="auto"
       inkscape:stockid="Arrow1SendV">
      <path
         transform="matrix(-0.2,0,0,-0.2,-1.2,0)"
         style="fill:#666666;fill-rule:evenodd;stroke:#666666;stroke-width:1pt"
         d="M 0,0 5,-5 -12.5,0 5,5 0,0 z"
         id="path5131"
         inkscape:connector-curvature="0" />
    </marker>
    <marker
       style="overflow:visible"
       id="marker5133"
       refX="0"
       refY="0"
       orient="auto"
       inkscape:stockid="Arrow1SendV">
      <path
         transform="matrix(-0.2,0,0,-0.2,-1.2,0)"
         style="fill:#666666;fill-rule:evenodd;stroke:#666666;stroke-width:1pt"
         d="M 0,0 5,-5 -12.5,0 5,5 0,0 z"
         id="path5135"
         inkscape:connector-curvature="0" />
    </marker>
    <marker
       style="overflow:visible"
       id="marker5137"
       refX="0"
       refY="0"
       orient="auto"
       inkscape:stockid="Arrow1SendV">
      <path
         transform="matrix(-0.2,0,0,-0.2,-1.2,0)"
         style="fill:#666666;fill-rule:evenodd;stroke:#666666;stroke-width:1pt"
         d="M 0,0 5,-5 -12.5,0 5,5 0,0 z"
         id="path5139"
         inkscape:connector-curvature="0" />
    </marker>
    <marker
       style="overflow:visible"
       id="Arrow1SendV-03"
       refX="0"
       refY="0"
       orient="auto"
       inkscape:stockid="Arrow1SendV">
      <path
         transform="matrix(-0.2,0,0,-0.2,-1.2,0)"
         style="fill:#666666;fill-rule:evenodd;stroke:#666666;stroke-width:1pt"
         d="M 0,0 5,-5 -12.5,0 5,5 0,0 z"
         id="path5631-4"
         inkscape:connector-curvature="0" />
    </marker>
  </defs>
  <metadata
     id="metadata7">
    <rdf:RDF>
      <cc:Work
         rdf:about="">
        <dc:format>image/svg+xml</dc:format>
        <dc:type
           rdf:resource="http://purl.org/dc/dcmitype/StillImage" />
        <dc:title />
      </cc:Work>
    </rdf:RDF>
  </metadata>
  <g
     id="layer1"
     inkscape:groupmode="layer"
     inkscape:label="Layer 1"
     transform="translate(-0.67626953,-45.700805)">
    <path
       style="opacity:0.1;color:#000000;fill:#ffffff;fill-opacity:0.98431373;fill-rule:nonzero;stroke:none;stroke-width:5.3958354;marker:none;visibility:visible;display:inline;overflow:visible;enable-background:accumulate"
       d="m 364.8805,305.38464 356.23903,0 c 2.59414,0 4.68256,2.08843 4.68256,4.68257 l 0,188.23903 c 0,2.59414 -2.08842,4.68256 -4.68256,4.68256 l -356.23903,0 c -2.59414,0 -4.68256,-2.08842 -4.68256,-4.68256 l 0,-188.23903 c 0,-2.59414 2.08842,-4.68257 4.68256,-4.68257 z"
       id="rect5563" />
    <path
       style="fill:#999999;fill-opacity:1;stroke:#808080;stroke-width:4;stroke-miterlimit:4;stroke-opacity:0.97254902"
       d="m 7.6762695,229.73199 112.6475105,0 c 2.77,0 5,2.23 5,5 l 0,38.44062 c 0,2.77 -2.23,5 -5,5 l -112.6475105,0 c -2.77,0 -5,-2.23 -5,-5 l 0,-38.44062 c 0,-2.77 2.23,-5 5,-5 z"
       id="rect4665" />
    <g
       style="font-size:22px;font-style:normal;font-variant:normal;font-weight:normal;font-stretch:condensed;text-align:center;line-height:125%;letter-spacing:0px;word-spacing:0px;writing-mode:lr-tb;text-anchor:middle;fill:#ffffff;fill-opacity:1;stroke:none;font-family:Roboto Condensed;-inkscape-font-specification:'Roboto Condensed, Condensed'"
       id="text4667">
      <path
         d="m 44.594238,255.5368 c -0.759121,0.96681 -1.647141,1.4502 -2.664062,1.4502 -1.138676,0 -2.044599,-0.47981 -2.717774,-1.43945 -0.673178,-0.95963 -1.009766,-2.21647 -1.009765,-3.77051 -1e-6,-1.6328 0.365233,-2.94335 1.095703,-3.93164 0.737627,-0.98827 1.74023,-1.48241 3.007812,-1.48242 1.317702,1e-5 2.34537,0.57293 3.083008,1.71875 0.744783,1.13868 1.117178,2.71778 1.117188,4.7373 l 0,0.59082 c -1e-5,1.73308 -0.132497,3.13673 -0.397461,4.21094 -0.257822,1.07422 -0.640959,1.94076 -1.149414,2.59961 -0.508471,0.65885 -1.156583,1.16016 -1.944336,1.5039 -0.787766,0.33659 -1.772465,0.50489 -2.954102,0.50489 l 0,-1.67578 0.333008,0 c 1.346349,-0.0286 2.366856,-0.43685 3.061523,-1.22461 0.701816,-0.79492 1.081373,-2.05892 1.138672,-3.792 m -2.341797,-0.19336 c 0.458328,1e-5 0.905919,-0.18977 1.342774,-0.56933 0.436842,-0.38671 0.777011,-0.89159 1.020508,-1.51465 l 0,-0.83789 c -8e-6,-1.29621 -0.225594,-2.35253 -0.676758,-3.16895 -0.451178,-0.82355 -0.995449,-1.23533 -1.632813,-1.23535 -0.687504,2e-5 -1.235355,0.34019 -1.643554,1.02051 -0.401045,0.67319 -0.601566,1.55047 -0.601563,2.63184 -3e-6,1.08139 0.196937,1.96583 0.59082,2.65332 0.393877,0.68034 0.927405,1.02051 1.600586,1.0205"
         style=""
         id="path3259" />
      <path
         d="m 55.830566,246.56708 0,1.68652 -0.311523,0 c -1.267584,0.0287 -2.259445,0.45835 -2.975586,1.28906 -0.71615,0.82358 -1.127933,2.06609 -1.235352,3.72754 0.694658,-0.87369 1.582678,-1.31053 2.664063,-1.31054 1.152988,10e-6 2.066073,0.47624 2.739258,1.42871 0.680329,0.94532 1.020498,2.18783 1.020508,3.72754 -1e-5,1.63997 -0.375986,2.9362 -1.12793,3.88867 -0.7448,0.95247 -1.747403,1.42871 -3.007813,1.42871 -1.267582,0 -2.288089,-0.56218 -3.061523,-1.68652 -0.773439,-1.12435 -1.160158,-2.61751 -1.160156,-4.4795 l 0,-0.76269 c -2e-6,-2.14843 0.232745,-3.86002 0.698242,-5.13477 0.465492,-1.27472 1.149411,-2.22004 2.051758,-2.83594 0.9095,-0.62303 2.037428,-0.94529 3.383789,-0.96679 l 0.322265,0 m -2.180664,7.04687 c -0.51563,1e-5 -0.991866,0.19695 -1.428711,0.59082 -0.436852,0.39389 -0.751956,0.89519 -0.945312,1.50391 l 0,0.78418 c -3e-6,1.26758 0.222002,2.30241 0.666016,3.10449 0.451167,0.79492 1.002599,1.19239 1.654296,1.19238 0.708978,10e-6 1.263991,-0.32584 1.665039,-0.97754 0.401034,-0.65885 0.601555,-1.52538 0.601563,-2.5996 -8e-6,-1.05989 -0.200529,-1.92285 -0.601563,-2.58887 -0.401048,-0.67317 -0.938157,-1.00976 -1.611328,-1.00977"
         style=""
         id="path3261" />
      <path
         d="m 59.848145,255.88055 c -1e-6,-1.79035 0.333006,-3.15461 0.999023,-4.09277 0.673174,-0.93814 1.63639,-1.40721 2.889648,-1.40723 1.11002,2e-5 1.976556,0.45119 2.59961,1.35352 l 0,-6.01563 1.901367,0 0,16.5 -1.740234,0 -0.09668,-1.24609 c -0.623054,0.97396 -1.514655,1.46094 -2.674805,1.46094 -1.203128,0 -2.14844,-0.4655 -2.835937,-1.39649 -0.68034,-0.93814 -1.027671,-2.25943 -1.041992,-3.96386 l 0,-1.19239 m 1.901367,1.08497 c -3e-6,1.30338 0.193356,2.26302 0.580078,2.8789 0.386715,0.60873 1.016922,0.91309 1.890625,0.91309 0.945306,0 1.650709,-0.47624 2.116211,-1.42871 l 0,-5.86524 c -0.486986,-0.93098 -1.188809,-1.39647 -2.105469,-1.39648 -0.873702,1e-5 -1.50391,0.30795 -1.890625,0.92383 -0.386722,0.60873 -0.583662,1.54688 -0.59082,2.81445 l 0,1.16016"
         style=""
         id="path3263" />
      <path
         d="m 77.143066,262.21844 c -0.11459,-0.25065 -0.196947,-0.67317 -0.24707,-1.26757 -0.673183,0.98828 -1.532558,1.48242 -2.578125,1.48242 -1.052738,0 -1.876305,-0.29362 -2.470703,-0.88086 -0.587241,-0.5944 -0.880861,-1.42871 -0.880859,-2.50293 -2e-6,-1.18164 0.40104,-2.11979 1.203125,-2.81445 0.80208,-0.69466 1.901362,-1.04915 3.297851,-1.06348 l 1.396485,0 0,-1.23535 c -8e-6,-0.69465 -0.153979,-1.18879 -0.461915,-1.48242 -0.307949,-0.29361 -0.777024,-0.44042 -1.407226,-0.44043 -0.572921,1e-5 -1.038416,0.17188 -1.396484,0.51562 -0.358077,0.3366 -0.537113,0.76629 -0.53711,1.28906 l -1.901367,0 c -10e-7,-0.59439 0.175454,-1.16014 0.526367,-1.69726 0.350909,-0.54426 0.823565,-0.97037 1.417969,-1.27832 0.594397,-0.30793 1.256831,-0.4619 1.987305,-0.46192 1.188795,2e-5 2.091138,0.29722 2.707031,0.89161 0.623038,0.58725 0.941723,1.44662 0.956055,2.57812 l 0,5.86524 c 0.0072,0.89518 0.128897,1.6722 0.365234,2.33105 l 0,0.17187 -1.976563,0 M 74.60791,260.7038 c 0.46549,0 0.9095,-0.12891 1.332031,-0.38672 0.42252,-0.25781 0.730462,-0.58008 0.923829,-0.9668 l 0,-2.77148 -1.074219,0 c -0.902349,0.0143 -1.614914,0.21843 -2.137696,0.6123 -0.522789,0.38672 -0.784182,0.93099 -0.784179,1.63281 -3e-6,0.65886 0.132484,1.13868 0.397461,1.43946 0.26497,0.29362 0.712561,0.44043 1.342773,0.44043"
         style=""
         id="path3265" />
      <path
         d="m 89.883301,255.54755 c -1e-5,2.30599 -0.336598,4.0319 -1.009766,5.17773 -0.673185,1.13867 -1.729499,1.70801 -3.168945,1.70801 -1.396489,0 -2.43848,-0.54785 -3.125977,-1.64356 -0.687501,-1.0957 -1.045574,-2.74283 -1.074218,-4.9414 l 0,-2.68555 c -2e-6,-2.28449 0.336587,-3.98892 1.009765,-5.11328 0.680336,-1.12433 1.73665,-1.68651 3.168945,-1.68652 1.410801,1e-5 2.452792,0.53354 3.125977,1.60058 0.680329,1.06707 1.038402,2.68198 1.074219,4.84473 l 0,2.73926 m -1.901367,-2.71778 c -8e-6,-1.65428 -0.182625,-2.87173 -0.547852,-3.65234 -0.365241,-0.78775 -0.948899,-1.18163 -1.750977,-1.18164 -0.780603,1e-5 -1.353519,0.38673 -1.71875,1.16015 -0.365237,0.76629 -0.555016,1.92645 -0.569335,3.48047 l 0,3.22266 c -4e-6,1.64714 0.189775,2.88607 0.569335,3.7168 0.379554,0.82357 0.959631,1.23535 1.740235,1.23535 0.773431,0 1.342767,-0.3903 1.708008,-1.1709 0.365227,-0.7806 0.555005,-1.97298 0.569336,-3.57715 l 0,-3.2334"
         style=""
         id="path3267" />
    </g>
    <path
       style="fill:#999999;fill-opacity:1;stroke:#808080;stroke-width:4;stroke-miterlimit:4;stroke-opacity:0.97254902"
       d="m 198.67627,229.73199 112.64751,0 c 2.77,0 5,2.23 5,5 l 0,38.44062 c 0,2.77 -2.23,5 -5,5 l -112.64751,0 c -2.77,0 -5,-2.23 -5,-5 l 0,-38.44062 c 0,-2.77 2.23,-5 5,-5 z"
       id="rect4671" />
    <path
       style="fill:#999999;fill-opacity:1;stroke:#808080;stroke-width:4;stroke-miterlimit:4;stroke-opacity:0.97254902"
       d="m 389.67627,229.73199 112.64751,0 c 2.77,0 5,2.23 5,5 l 0,38.44062 c 0,2.77 -2.23,5 -5,5 l -112.64751,0 c -2.77,0 -5,-2.23 -5,-5 l 0,-38.44062 c 0,-2.77 2.23,-5 5,-5 z"
       id="rect4673" />
    <g
       style="font-size:22px;font-style:normal;font-variant:normal;font-weight:normal;font-stretch:condensed;text-align:center;line-height:125%;letter-spacing:0px;word-spacing:0px;writing-mode:lr-tb;text-anchor:middle;fill:#ffffff;fill-opacity:1;stroke:none;font-family:Roboto Condensed;-inkscape-font-specification:'Roboto Condensed, Condensed'"
       id="text4675">
      <path
         d="m 232.38232,262.21844 0,-10.08691 -1.51464,0 0,-1.53613 1.51464,0 0,-1.34278 c 0.0215,-1.18162 0.31869,-2.10187 0.89161,-2.76074 0.58007,-0.666 1.39648,-0.999 2.44921,-0.99902 0.37956,2e-5 0.76269,0.0609 1.14942,0.18262 l -0.0967,1.61132 c -0.27214,-0.0644 -0.56218,-0.0967 -0.87012,-0.0967 -1.08138,2e-5 -1.62207,0.76988 -1.62207,2.30957 l 0,1.09571 1.98731,0 0,1.53613 -1.98731,0 0,10.08691 -1.90137,0"
         style=""
         id="path3272" />
      <path
         d="m 246.70166,255.54755 c -1e-5,2.30599 -0.3366,4.0319 -1.00977,5.17773 -0.67318,1.13867 -1.72949,1.70801 -3.16894,1.70801 -1.39649,0 -2.43848,-0.54785 -3.12598,-1.64356 -0.6875,-1.0957 -1.04557,-2.74283 -1.07422,-4.9414 l 0,-2.68555 c 0,-2.28449 0.33659,-3.98892 1.00977,-5.11328 0.68034,-1.12433 1.73665,-1.68651 3.16894,-1.68652 1.41081,1e-5 2.4528,0.53354 3.12598,1.60058 0.68033,1.06707 1.0384,2.68198 1.07422,4.84473 l 0,2.73926 m -1.90137,-2.71778 c 0,-1.65428 -0.18262,-2.87173 -0.54785,-3.65234 -0.36524,-0.78775 -0.9489,-1.18163 -1.75098,-1.18164 -0.7806,1e-5 -1.35351,0.38673 -1.71875,1.16015 -0.36523,0.76629 -0.55501,1.92645 -0.56933,3.48047 l 0,3.22266 c 0,1.64714 0.18977,2.88607 0.56933,3.7168 0.37956,0.82357 0.95964,1.23535 1.74024,1.23535 0.77343,0 1.34277,-0.3903 1.70801,-1.1709 0.36522,-0.7806 0.555,-1.97298 0.56933,-3.57715 l 0,-3.2334"
         style=""
         id="path3274" />
      <path
         d="m 248.979,255.88055 c 0,-1.79035 0.33301,-3.15461 0.99903,-4.09277 0.67317,-0.93814 1.63639,-1.40721 2.88965,-1.40723 1.11002,2e-5 1.97655,0.45119 2.59961,1.35352 l 0,-6.01563 1.90136,0 0,16.5 -1.74023,0 -0.0967,-1.24609 c -0.62306,0.97396 -1.51466,1.46094 -2.67481,1.46094 -1.20313,0 -2.14844,-0.4655 -2.83593,-1.39649 -0.68034,-0.93814 -1.02767,-2.25943 -1.042,-3.96386 l 0,-1.19239 m 1.90137,1.08497 c 0,1.30338 0.19336,2.26302 0.58008,2.8789 0.38671,0.60873 1.01692,0.91309 1.89062,0.91309 0.94531,0 1.65071,-0.47624 2.11622,-1.42871 l 0,-5.86524 c -0.48699,-0.93098 -1.18881,-1.39647 -2.10547,-1.39648 -0.87371,1e-5 -1.50391,0.30795 -1.89063,0.92383 -0.38672,0.60873 -0.58366,1.54688 -0.59082,2.81445 l 0,1.16016"
         style=""
         id="path3276" />
      <path
         d="m 259.89307,255.88055 c 0,-1.79035 0.333,-3.15461 0.99902,-4.09277 0.67317,-0.93814 1.63639,-1.40721 2.88965,-1.40723 1.11002,2e-5 1.97655,0.45119 2.59961,1.35352 l 0,-6.01563 1.90136,0 0,16.5 -1.74023,0 -0.0967,-1.24609 c -0.62305,0.97396 -1.51465,1.46094 -2.6748,1.46094 -1.20313,0 -2.14844,-0.4655 -2.83594,-1.39649 -0.68034,-0.93814 -1.02767,-2.25943 -1.04199,-3.96386 l 0,-1.19239 m 1.90136,1.08497 c 0,1.30338 0.19336,2.26302 0.58008,2.8789 0.38672,0.60873 1.01692,0.91309 1.89063,0.91309 0.9453,0 1.65071,-0.47624 2.11621,-1.42871 l 0,-5.86524 c -0.48699,-0.93098 -1.18881,-1.39647 -2.10547,-1.39648 -0.8737,1e-5 -1.50391,0.30795 -1.89063,0.92383 -0.38672,0.60873 -0.58366,1.54688 -0.59082,2.81445 l 0,1.16016"
         style=""
         id="path3278" />
      <path
         d="m 275.36182,262.43329 c -1.44662,0 -2.55665,-0.42969 -3.33008,-1.28906 -0.77344,-0.86654 -1.16732,-2.13412 -1.18164,-3.80274 l 0,-1.40722 c 0,-1.73307 0.37597,-3.09016 1.12793,-4.07129 0.75911,-0.98827 1.81542,-1.48241 3.16894,-1.48243 1.36067,2e-5 2.3776,0.43328 3.05078,1.29981 0.67317,0.86655 1.01692,2.21648 1.03125,4.0498 l 0,1.2461 -6.48828,0 0,0.26855 c 0,1.2461 0.23275,2.15202 0.69824,2.71778 0.47266,0.56575 1.14941,0.84863 2.03028,0.84863 0.55859,0 1.04915,-0.10384 1.47168,-0.31153 0.42968,-0.21484 0.83072,-0.55143 1.20312,-1.00976 l 0.98828,1.20312 c -0.82357,1.16016 -2.08041,1.74024 -3.7705,1.74024 m -0.21485,-10.41992 c -0.78776,1e-5 -1.37142,0.27214 -1.75097,0.8164 -0.37956,0.53712 -0.59441,1.37501 -0.64454,2.51367 l 4.57618,0 0,-0.25781 c -0.0501,-1.10285 -0.25066,-1.89061 -0.60157,-2.36328 -0.34375,-0.47265 -0.87012,-0.70897 -1.5791,-0.70898"
         style=""
         id="path3280" />
    </g>
    <g
       style="font-size:22px;font-style:normal;font-variant:normal;font-weight:normal;font-stretch:condensed;text-align:center;line-height:125%;letter-spacing:0px;word-spacing:0px;writing-mode:lr-tb;text-anchor:middle;fill:#ffffff;fill-opacity:1;stroke:none;font-family:Roboto Condensed;-inkscape-font-specification:'Roboto Condensed, Condensed'"
       id="text4679">
      <path
         d="m 424.25244,255.88055 c 0,-1.79035 0.33301,-3.15461 0.99902,-4.09277 0.67318,-0.93814 1.63639,-1.40721 2.88965,-1.40723 1.11002,2e-5 1.97656,0.45119 2.59961,1.35352 l 0,-6.01563 1.90137,0 0,16.5 -1.74023,0 -0.0967,-1.24609 c -0.62306,0.97396 -1.51466,1.46094 -2.67481,1.46094 -1.20313,0 -2.14844,-0.4655 -2.83594,-1.39649 -0.68034,-0.93814 -1.02767,-2.25943 -1.04199,-3.96386 l 0,-1.19239 m 1.90137,1.08497 c 0,1.30338 0.19335,2.26302 0.58008,2.8789 0.38671,0.60873 1.01692,0.91309 1.89062,0.91309 0.94531,0 1.65071,-0.47624 2.11621,-1.42871 l 0,-5.86524 c -0.48698,-0.93098 -1.18881,-1.39647 -2.10547,-1.39648 -0.8737,1e-5 -1.50391,0.30795 -1.89062,0.92383 -0.38672,0.60873 -0.58366,1.54688 -0.59082,2.81445 l 0,1.16016"
         style=""
         id="path3283" />
      <path
         d="m 441.65479,255.5368 c -0.75913,0.96681 -1.64715,1.4502 -2.66407,1.4502 -1.13867,0 -2.0446,-0.47981 -2.71777,-1.43945 -0.67318,-0.95963 -1.00977,-2.21647 -1.00977,-3.77051 0,-1.6328 0.36524,-2.94335 1.09571,-3.93164 0.73762,-0.98827 1.74023,-1.48241 3.00781,-1.48242 1.3177,1e-5 2.34537,0.57293 3.08301,1.71875 0.74478,1.13868 1.11718,2.71778 1.11718,4.7373 l 0,0.59082 c 0,1.73308 -0.13249,3.13673 -0.39746,4.21094 -0.25782,1.07422 -0.64096,1.94076 -1.14941,2.59961 -0.50847,0.65885 -1.15658,1.16016 -1.94434,1.5039 -0.78776,0.33659 -1.77246,0.50489 -2.9541,0.50489 l 0,-1.67578 0.33301,0 c 1.34635,-0.0286 2.36686,-0.43685 3.06152,-1.22461 0.70182,-0.79492 1.08138,-2.05892 1.13868,-3.792 m -2.3418,-0.19336 c 0.45833,1e-5 0.90592,-0.18977 1.34277,-0.56933 0.43684,-0.38671 0.77701,-0.89159 1.02051,-1.51465 l 0,-0.83789 c -10e-6,-1.29621 -0.22559,-2.35253 -0.67676,-3.16895 -0.45118,-0.82355 -0.99545,-1.23533 -1.63281,-1.23535 -0.68751,2e-5 -1.23536,0.34019 -1.64356,1.02051 -0.40104,0.67319 -0.60156,1.55047 -0.60156,2.63184 0,1.08139 0.19694,1.96583 0.59082,2.65332 0.39388,0.68034 0.92741,1.02051 1.60059,1.0205"
         style=""
         id="path3285" />
      <path
         d="m 447.27295,262.21844 0,-10.08691 -1.51465,0 0,-1.53613 1.51465,0 0,-1.34278 c 0.0215,-1.18162 0.31868,-2.10187 0.8916,-2.76074 0.58008,-0.666 1.39648,-0.999 2.44922,-0.99902 0.37955,2e-5 0.76269,0.0609 1.14941,0.18262 l -0.0967,1.61132 c -0.27214,-0.0644 -0.56218,-0.0967 -0.87011,-0.0967 -1.08139,2e-5 -1.62208,0.76988 -1.62207,2.30957 l 0,1.09571 1.9873,0 0,1.53613 -1.9873,0 0,10.08691 -1.90137,0"
         style=""
         id="path3287" />
      <path
         d="m 454.23389,262.21844 0,-10.08691 -1.51465,0 0,-1.53613 1.51465,0 0,-1.34278 c 0.0215,-1.18162 0.31868,-2.10187 0.8916,-2.76074 0.58007,-0.666 1.39648,-0.999 2.44922,-0.99902 0.37955,2e-5 0.76269,0.0609 1.14941,0.18262 l -0.0967,1.61132 c -0.27214,-0.0644 -0.56218,-0.0967 -0.87012,-0.0967 -1.08138,2e-5 -1.62207,0.76988 -1.62207,2.30957 l 0,1.09571 1.98731,0 0,1.53613 -1.98731,0 0,10.08691 -1.90136,0"
         style=""
         id="path3289" />
      <path
         d="m 464.25635,262.43329 c -1.44662,0 -2.55665,-0.42969 -3.33008,-1.28906 -0.77344,-0.86654 -1.16732,-2.13412 -1.18164,-3.80274 l 0,-1.40722 c 0,-1.73307 0.37597,-3.09016 1.12793,-4.07129 0.75911,-0.98827 1.81542,-1.48241 3.16894,-1.48243 1.36067,2e-5 2.3776,0.43328 3.05079,1.29981 0.67316,0.86655 1.01691,2.21648 1.03125,4.0498 l 0,1.2461 -6.48829,0 0,0.26855 c 0,1.2461 0.23275,2.15202 0.69825,2.71778 0.47265,0.56575 1.14941,0.84863 2.03027,0.84863 0.55859,0 1.04915,-0.10384 1.47168,-0.31153 0.42968,-0.21484 0.83072,-0.55143 1.20312,-1.00976 l 0.98829,1.20312 c -0.82358,1.16016 -2.08042,1.74024 -3.77051,1.74024 m -0.21485,-10.41992 c -0.78776,1e-5 -1.37142,0.27214 -1.75097,0.8164 -0.37956,0.53712 -0.59441,1.37501 -0.64453,2.51367 l 4.57617,0 0,-0.25781 c -0.0501,-1.10285 -0.25066,-1.89061 -0.60156,-2.36328 -0.34376,-0.47265 -0.87013,-0.70897 -1.57911,-0.70898"
         style=""
         id="path3291" />
    </g>
    <path
       style="fill:none;stroke:#666666;stroke-width:5;stroke-linecap:butt;stroke-linejoin:miter;stroke-miterlimit:4;stroke-opacity:1;stroke-dasharray:none;marker-end:url(#Arrow1SendV);display:inline"
       d="m 193.67627,253.9523 -68.35249,0"
       id="path4683"
       inkscape:connector-type="polyline"
       inkscape:connector-curvature="0"
       sodipodi:nodetypes="cc"
       inkscape:connection-end="#rect4665"
       inkscape:connection-end-point="d4"
       inkscape:connection-start="#rect4671"
       inkscape:connection-start-point="d4" />
    <path
       sodipodi:nodetypes="cc"
       inkscape:connector-curvature="0"
       inkscape:connector-type="polyline"
       id="path4685"
       d="m 384.67627,253.9523 -68.35249,0"
       style="fill:none;stroke:#666666;stroke-width:5;stroke-linecap:butt;stroke-linejoin:miter;stroke-miterlimit:4;stroke-opacity:1;stroke-dasharray:none;marker-end:url(#Arrow1SendV);display:inline"
       inkscape:connection-end="#rect4671"
       inkscape:connection-end-point="d4"
       inkscape:connection-start="#rect4673"
       inkscape:connection-start-point="d4" />
    <path
       style="fill:#d43c00;fill-opacity:1;stroke:#aa3000;stroke-width:4;stroke-miterlimit:4;stroke-opacity:0.97254902"
       d="m 389.67627,136.23199 112.64751,0 c 2.77,0 5,2.23 5,5 l 0,38.44062 c 0,2.77 -2.23,5 -5,5 l -112.64751,0 c -2.77,0 -5,-2.23 -5,-5 l 0,-38.44062 c 0,-2.77 2.23,-5 5,-5 z"
       id="rect4693" />
    <g
       style="font-size:22px;font-style:normal;font-variant:normal;font-weight:normal;font-stretch:condensed;text-align:center;line-height:125%;letter-spacing:0px;word-spacing:0px;writing-mode:lr-tb;text-anchor:middle;fill:#ffffff;fill-opacity:1;stroke:none;font-family:Roboto Condensed;-inkscape-font-specification:'Roboto Condensed, Condensed'"
       id="text4695">
      <path
         d="m 418.43555,155.97278 0.043,1.07422 c 0.70898,-0.85937 1.64355,-1.28905 2.80371,-1.28907 1.29621,2e-5 2.20214,0.56219 2.71777,1.68653 0.73046,-1.12434 1.74739,-1.68651 3.05078,-1.68653 2.14126,2e-5 3.23697,1.33563 3.28711,4.00684 l 0,7.83106 -1.89062,0 0,-7.64844 c -2e-5,-0.84505 -0.15041,-1.47167 -0.45118,-1.87989 -0.30079,-0.41535 -0.80925,-0.62303 -1.52539,-0.62304 -0.57292,1e-5 -1.03842,0.22201 -1.39648,0.66601 -0.35808,0.44402 -0.56577,1.00978 -0.62305,1.69727 l 0,7.78809 -1.91211,0 0,-7.73438 c -0.0215,-1.61132 -0.67676,-2.41698 -1.96582,-2.41699 -0.95964,1e-5 -1.63639,0.47983 -2.03027,1.43945 l 0,8.71192 -1.89063,0 0,-11.62305 1.78321,0"
         style=""
         id="path3295" />
      <path
         d="m 439.16797,167.59583 c -0.11459,-0.25066 -0.19695,-0.67318 -0.24707,-1.26758 -0.67319,0.98828 -1.53256,1.48242 -2.57813,1.48242 -1.05273,0 -1.8763,-0.29362 -2.4707,-0.88086 -0.58724,-0.5944 -0.88086,-1.42871 -0.88086,-2.50293 0,-1.18164 0.40104,-2.11979 1.20313,-2.81445 0.80208,-0.69466 1.90136,-1.04915 3.29785,-1.06348 l 1.39648,0 0,-1.23535 c -10e-6,-0.69465 -0.15398,-1.18879 -0.46191,-1.48242 -0.30795,-0.29361 -0.77703,-0.44042 -1.40723,-0.44043 -0.57292,1e-5 -1.03841,0.17188 -1.39648,0.51562 -0.35808,0.3366 -0.53712,0.76629 -0.53711,1.28906 l -1.90137,0 c 0,-0.59439 0.17545,-1.16014 0.52637,-1.69726 0.35091,-0.54426 0.82356,-0.97037 1.41797,-1.27832 0.59439,-0.30793 1.25683,-0.4619 1.9873,-0.46192 1.1888,2e-5 2.09114,0.29722 2.70703,0.89161 0.62304,0.58725 0.94172,1.44662 0.95606,2.57812 l 0,5.86524 c 0.007,0.89518 0.12889,1.6722 0.36523,2.33105 l 0,0.17188 -1.97656,0 m -2.53516,-1.51465 c 0.46549,0 0.9095,-0.12891 1.33203,-0.38672 0.42252,-0.25781 0.73047,-0.58008 0.92383,-0.9668 l 0,-2.77148 -1.07422,0 c -0.90235,0.0143 -1.61491,0.21843 -2.13769,0.6123 -0.52279,0.38672 -0.78419,0.931 -0.78418,1.63281 -1e-5,0.65886 0.13248,1.13868 0.39746,1.43946 0.26497,0.29362 0.71256,0.44043 1.34277,0.44043"
         style=""
         id="path3297" />
      <path
         d="m 449.3623,164.62024 c 0,-0.4082 -0.15397,-0.75911 -0.46191,-1.05274 -0.30795,-0.29361 -0.90235,-0.63736 -1.7832,-1.03125 -1.02409,-0.42252 -1.7474,-0.78417 -2.16992,-1.08496 -0.41537,-0.30077 -0.72689,-0.64094 -0.93457,-1.0205 -0.20769,-0.38672 -0.31153,-0.84505 -0.31153,-1.375 0,-0.94531 0.34375,-1.72949 1.03125,-2.35254 0.69466,-0.6302 1.5791,-0.9453 2.65332,-0.94532 1.13151,2e-5 2.04101,0.32944 2.72852,0.98829 0.68749,0.65886 1.03124,1.50391 1.03125,2.53515 l -1.89063,0 c 0,-0.52278 -0.17546,-0.96679 -0.52636,-1.33203 -0.35092,-0.37238 -0.79851,-0.55858 -1.34278,-0.55859 -0.5586,1e-5 -0.99903,0.14682 -1.32129,0.44043 -0.3151,0.28646 -0.47266,0.67318 -0.47265,1.16015 -10e-6,0.38673 0.11458,0.69825 0.34375,0.93457 0.23632,0.23634 0.7985,0.54786 1.68652,0.93457 1.4108,0.55144 2.37044,1.09213 2.87891,1.62207 0.50845,0.52279 0.76268,1.18881 0.76269,1.99805 -10e-6,1.00977 -0.34734,1.81901 -1.04199,2.42774 -0.69467,0.60156 -1.62566,0.90234 -2.79297,0.90234 -1.21029,0 -2.19141,-0.34733 -2.94336,-1.04199 -0.75195,-0.69466 -1.12793,-1.57552 -1.12793,-2.64258 l 1.91211,0 c 0.0215,0.64453 0.21842,1.14942 0.59082,1.51465 0.37239,0.36523 0.89518,0.54785 1.56836,0.54785 0.6302,0 1.11002,-0.13965 1.43945,-0.41895 0.32942,-0.28645 0.49414,-0.66959 0.49414,-1.14941"
         style=""
         id="path3299" />
      <path
         d="m 456.21582,153.15833 0,2.81445 1.75098,0 0,1.53613 -1.75098,0 0,7.20801 c 0,0.45833 0.0752,0.80567 0.22559,1.04199 0.15038,0.23633 0.40819,0.35449 0.77343,0.35449 0.25065,0 0.50488,-0.043 0.7627,-0.1289 l -0.0215,1.61133 c -0.42969,0.14322 -0.87012,0.21484 -1.32128,0.21484 -0.75196,0 -1.32488,-0.26856 -1.71875,-0.80567 -0.39389,-0.5371 -0.59083,-1.29622 -0.59082,-2.27734 l 0,-7.21875 -1.77247,0 0,-1.53613 1.77247,0 0,-2.81445 1.89062,0"
         style=""
         id="path3301" />
      <path
         d="m 464.36914,167.81067 c -1.44662,0 -2.55664,-0.42969 -3.33008,-1.28906 -0.77344,-0.86654 -1.16732,-2.13411 -1.18164,-3.80274 l 0,-1.40722 c 0,-1.73307 0.37598,-3.09016 1.12793,-4.07129 0.75911,-0.98827 1.81543,-1.48241 3.16895,-1.48243 1.36067,2e-5 2.37759,0.43328 3.05078,1.29981 0.67317,0.86655 1.01692,2.21648 1.03125,4.0498 l 0,1.2461 -6.48828,0 0,0.26855 c -10e-6,1.2461 0.23274,2.15202 0.69824,2.71778 0.47265,0.56575 1.14941,0.84863 2.03027,0.84863 0.55859,0 1.04915,-0.10384 1.47168,-0.31152 0.42968,-0.21485 0.83072,-0.55143 1.20313,-1.00977 l 0.98828,1.20312 c -0.82358,1.16016 -2.08041,1.74024 -3.77051,1.74024 m -0.21484,-10.41992 c -0.78777,1e-5 -1.37143,0.27214 -1.75098,0.8164 -0.37956,0.53712 -0.5944,1.37501 -0.64453,2.51368 l 4.57617,0 0,-0.25782 c -0.0501,-1.10285 -0.25066,-1.89061 -0.60156,-2.36328 -0.34376,-0.47264 -0.87012,-0.70897 -1.5791,-0.70898"
         style=""
         id="path3303" />
      <path
         d="m 475.32617,157.75598 c -0.26498,-0.0501 -0.55144,-0.0752 -0.85937,-0.0752 -0.97397,1e-5 -1.6543,0.53353 -2.04102,1.60058 l 0,8.31446 -1.90137,0 0,-11.62305 1.84766,0 0.0322,1.18164 c 0.50846,-0.93098 1.22818,-1.39647 2.15918,-1.39649 0.30077,2e-5 0.55142,0.0502 0.75195,0.1504 l 0.0107,1.84765"
         style=""
         id="path3305" />
    </g>
    <path
       style="fill:#7dbb62;fill-opacity:1;stroke:#67aa4a;stroke-width:3.24199057;stroke-miterlimit:4;stroke-opacity:0.97254902"
       d="m 400.34973,47.3218 91.30054,0 c 2.24508,0 4.05249,1.80741 4.05249,4.052489 l 0,31.156028 c 0,2.245079 -1.80741,4.052489 -4.05249,4.052489 l -91.30054,0 c -2.24508,0 -4.05249,-1.80741 -4.05249,-4.052489 l 0,-31.156028 c 0,-2.245079 1.80741,-4.052489 4.05249,-4.052489 z"
       id="rect4699" />
    <g
       style="font-size:20px;font-style:normal;font-variant:normal;font-weight:normal;font-stretch:condensed;text-align:center;line-height:125%;letter-spacing:0px;word-spacing:0px;writing-mode:lr-tb;text-anchor:middle;fill:#ffffff;fill-opacity:1;stroke:none;font-family:Roboto Condensed;-inkscape-font-specification:'Roboto Condensed, Condensed'"
       id="text4701">
      <path
         d="m 433.9541,74.772614 -1.79687,0 0,-6.572266 -5.72266,0 0,6.572266 -1.78711,0 0,-14.21875 1.78711,0 0,6.113281 5.72266,0 0,-6.113281 1.79687,0 0,14.21875"
         style=""
         id="path3309" />
      <path
         d="m 443.88574,68.200348 -5.02929,0 0,5.039062 5.85937,0 0,1.533204 -7.64648,0 0,-14.21875 7.54882,0 0,1.542968 -5.76171,0 0,4.570313 5.02929,0 0,1.533203"
         style=""
         id="path3311" />
      <path
         d="m 453.62207,71.061676 -4.80469,0 -1.10351,3.710938 -1.83594,0 4.58008,-14.21875 1.5332,0 4.58984,14.21875 -1.83593,0 -1.12305,-3.710938 m -4.33594,-1.542969 3.87696,0 -1.94336,-6.464843 -1.9336,6.464843"
         style=""
         id="path3313" />
      <path
         d="m 458.51465,74.772614 0,-14.21875 3.38867,0 c 1.66015,1.4e-5 2.94921,0.520847 3.86719,1.5625 0.91796,1.035167 1.37694,2.493499 1.37695,4.375 l 0,2.382812 c -1e-5,1.881514 -0.4655,3.336591 -1.39648,4.365234 -0.931,1.022136 -2.28191,1.533204 -4.05274,1.533204 l -3.18359,0 m 1.78711,-12.675782 0,11.142578 1.43554,0 c 1.25651,2e-6 2.17448,-0.358071 2.75391,-1.074218 0.57942,-0.722653 0.87564,-1.790361 0.88867,-3.203125 l 0,-2.519532 c -1e-5,-1.497386 -0.28972,-2.59439 -0.86914,-3.291015 -0.57292,-0.703113 -1.44206,-1.054675 -2.60742,-1.054688 l -1.60156,0"
         style=""
         id="path3315" />
    </g>
    <path
       style="fill:none;stroke:#666666;stroke-width:5;stroke-linecap:butt;stroke-linejoin:miter;stroke-miterlimit:4;stroke-opacity:1;stroke-dasharray:none;marker-end:url(#Arrow1SendV);display:inline"
       d="m 446,86.582806 2e-5,49.649184"
       id="path4705"
       inkscape:connector-type="polyline"
       inkscape:connector-curvature="0"
       sodipodi:nodetypes="cc"
       inkscape:connection-end="#rect4693"
       inkscape:connection-end-point="d4"
       inkscape:connection-start="#rect4699"
       inkscape:connection-start-point="d4" />
    <path
       style="fill:none;stroke:#666666;stroke-width:5;stroke-linecap:butt;stroke-linejoin:miter;stroke-miterlimit:4;stroke-opacity:1;stroke-dasharray:none;marker-end:url(#Arrow1SendV);display:inline"
       d="m 446.00002,184.67261 0,45.05938"
       id="path4707"
       inkscape:connector-type="polyline"
       inkscape:connector-curvature="0"
       sodipodi:nodetypes="cc"
       inkscape:connection-start="#rect4693"
       inkscape:connection-start-point="d4"
       inkscape:connection-end="#rect4673"
       inkscape:connection-end-point="d4" />
    <path
       style="fill:#999999;fill-opacity:1;stroke:#808080;stroke-width:4;stroke-miterlimit:4;stroke-opacity:0.97254902"
       d="m 389.67627,328.73199 112.64751,0 c 2.77,0 5,2.23 5,5 l 0,38.44062 c 0,2.77 -2.23,5 -5,5 l -112.64751,0 c -2.77,0 -5,-2.23 -5,-5 l 0,-38.44062 c 0,-2.77 2.23,-5 5,-5 z"
       id="rect4727" />
    <g
       style="font-size:22px;font-style:normal;font-variant:normal;font-weight:normal;font-stretch:condensed;text-align:center;line-height:125%;letter-spacing:0px;word-spacing:0px;writing-mode:lr-tb;text-anchor:middle;fill:#ffffff;fill-opacity:1;stroke:none;font-family:Roboto Condensed;-inkscape-font-specification:'Roboto Condensed, Condensed'"
       id="text4729">
      <path
         d="m 423.26416,353.37665 0.67676,-7.79883 6.7998,0 0,1.83691 -5.19922,0 -0.36523,4.26465 c 0.64453,-0.45116 1.33919,-0.67675 2.08398,-0.67676 1.21744,1e-5 2.1735,0.47267 2.86817,1.41797 0.69465,0.94532 1.04198,2.21648 1.04199,3.81348 -1e-5,1.61849 -0.37957,2.88965 -1.13867,3.81348 -0.75196,0.92382 -1.78679,1.38574 -3.10449,1.38574 -1.17449,0 -2.13054,-0.38314 -2.86817,-1.14942 -0.73763,-0.76627 -1.16016,-1.82616 -1.26758,-3.17968 l 1.78321,0 c 0.10742,0.89518 0.36165,1.57194 0.76269,2.03027 0.4082,0.45117 0.93815,0.67676 1.58985,0.67676 0.73762,0 1.31412,-0.31868 1.72949,-0.95606 0.41536,-0.64452 0.62304,-1.51106 0.62305,-2.59961 -10e-6,-1.02408 -0.2256,-1.85839 -0.67676,-2.50293 -0.44402,-0.64452 -1.04558,-0.96678 -1.80469,-0.96679 -0.63021,1e-5 -1.1351,0.16472 -1.51465,0.49414 l -0.50488,0.50488 -1.51465,-0.4082"
         style=""
         id="path3319" />
      <path
         d="m 434.13525,353.37665 0.67676,-7.79883 6.79981,0 0,1.83691 -5.19922,0 -0.36524,4.26465 c 0.64453,-0.45116 1.33919,-0.67675 2.08399,-0.67676 1.21744,1e-5 2.17349,0.47267 2.86816,1.41797 0.69465,0.94532 1.04198,2.21648 1.04199,3.81348 -10e-6,1.61849 -0.37956,2.88965 -1.13867,3.81348 -0.75196,0.92382 -1.78679,1.38574 -3.10449,1.38574 -1.17448,0 -2.13054,-0.38314 -2.86816,-1.14942 -0.73764,-0.76627 -1.16016,-1.82616 -1.26758,-3.17968 l 1.7832,0 c 0.10742,0.89518 0.36165,1.57194 0.7627,2.03027 0.40819,0.45117 0.93814,0.67676 1.58984,0.67676 0.73762,0 1.31412,-0.31868 1.72949,-0.95606 0.41536,-0.64452 0.62304,-1.51106 0.62305,-2.59961 -10e-6,-1.02408 -0.22559,-1.85839 -0.67676,-2.50293 -0.44402,-0.64452 -1.04558,-0.96678 -1.80469,-0.96679 -0.63021,1e-5 -1.13509,0.16472 -1.51464,0.49414 l -0.50489,0.50488 -1.51465,-0.4082"
         style=""
         id="path3321" />
      <path
         d="m 448.43311,359.81122 c 0.6302,0 1.13508,-0.19336 1.51464,-0.58008 0.37955,-0.39388 0.58724,-0.95247 0.62305,-1.67578 l 1.79395,0 c -0.043,1.11719 -0.44044,2.0446 -1.19239,2.78223 -0.7448,0.73046 -1.65788,1.0957 -2.73925,1.0957 -1.43946,0 -2.53874,-0.45117 -3.29786,-1.35352 -0.75195,-0.9095 -1.12793,-2.25943 -1.12793,-4.0498 l 0,-1.27832 c 0,-1.75455 0.37598,-3.08658 1.12793,-3.9961 0.75195,-0.91665 1.84766,-1.37498 3.28711,-1.375 1.1888,2e-5 2.13053,0.37599 2.8252,1.12793 0.70181,0.75197 1.07421,1.77964 1.11719,3.08301 l -1.79395,0 c -0.043,-0.85936 -0.25066,-1.5039 -0.62305,-1.93359 -0.36524,-0.42968 -0.8737,-0.64452 -1.52539,-0.64453 -0.84505,10e-6 -1.47168,0.2793 -1.87988,0.83789 -0.40821,0.55144 -0.61947,1.46094 -0.63379,2.72851 l 0,1.48242 c 0,1.36785 0.20052,2.33464 0.60156,2.9004 0.4082,0.56575 1.04915,0.84863 1.92286,0.84863"
         style=""
         id="path3323" />
      <path
         d="m 455.41553,361.21844 0,-10.08691 -1.51465,0 0,-1.53613 1.51465,0 0,-1.34278 c 0.0215,-1.18162 0.31868,-2.10187 0.8916,-2.76074 0.58007,-0.666 1.39648,-0.999 2.44922,-0.99902 0.37955,2e-5 0.76269,0.0609 1.14941,0.18262 l -0.0967,1.61132 c -0.27214,-0.0644 -0.56218,-0.0967 -0.87012,-0.0967 -1.08138,2e-5 -1.62207,0.76988 -1.62207,2.30957 l 0,1.09571 1.98731,0 0,1.53613 -1.98731,0 0,10.08691 -1.90136,0"
         style=""
         id="path3325" />
      <path
         d="m 467.62939,354.5368 c -0.75912,0.96681 -1.64714,1.4502 -2.66406,1.4502 -1.13867,0 -2.0446,-0.47981 -2.71777,-1.43945 -0.67318,-0.95963 -1.00977,-2.21647 -1.00977,-3.77051 0,-1.6328 0.36524,-2.94335 1.09571,-3.93164 0.73762,-0.98827 1.74023,-1.48241 3.00781,-1.48242 1.3177,1e-5 2.34537,0.57293 3.08301,1.71875 0.74478,1.13868 1.11717,2.71778 1.11718,4.7373 l 0,0.59082 c -10e-6,1.73308 -0.13249,3.13673 -0.39746,4.21094 -0.25782,1.07422 -0.64096,1.94076 -1.14941,2.59961 -0.50847,0.65885 -1.15658,1.16016 -1.94434,1.5039 -0.78776,0.33659 -1.77246,0.50489 -2.9541,0.50489 l 0,-1.67578 0.33301,0 c 1.34635,-0.0286 2.36686,-0.43685 3.06152,-1.22461 0.70182,-0.79492 1.08138,-2.05892 1.13867,-3.792 m -2.34179,-0.19336 c 0.45833,1e-5 0.90592,-0.18977 1.34277,-0.56933 0.43684,-0.38671 0.77701,-0.89159 1.02051,-1.51465 l 0,-0.83789 c -10e-6,-1.29621 -0.22559,-2.35253 -0.67676,-3.16895 -0.45118,-0.82355 -0.99545,-1.23533 -1.63281,-1.23535 -0.68751,2e-5 -1.23536,0.34019 -1.64356,1.02051 -0.40104,0.67319 -0.60156,1.55047 -0.60156,2.63184 0,1.08139 0.19694,1.96583 0.59082,2.65332 0.39388,0.68034 0.92741,1.02051 1.60059,1.0205"
         style=""
         id="path3327" />
    </g>
    <path
       style="fill:none;stroke:#666666;stroke-width:5;stroke-linecap:butt;stroke-linejoin:miter;stroke-miterlimit:4;stroke-opacity:1;stroke-dasharray:none;marker-end:url(#Arrow1SendV);display:inline"
       d="M 399.27195,328.73199 301.72809,278.17261"
       id="path4733"
       inkscape:connector-type="polyline"
       inkscape:connector-curvature="0"
       sodipodi:nodetypes="cc"
       inkscape:connection-end="#rect4671"
       inkscape:connection-end-point="d4"
       inkscape:connection-start="#rect4727"
       inkscape:connection-start-point="d4" />
    <path
       style="opacity:0.5;fill:#b380ff;fill-opacity:1;stroke:#9955ff;stroke-width:4;stroke-miterlimit:4;stroke-dasharray:8, 4;stroke-dashoffset:0;stroke-opacity:0.97254902"
       d="m 198.67627,328.23199 112.64751,0 c 2.77,0 5,2.23 5,5 l 0,38.44062 c 0,2.77 -2.23,5 -5,5 l -112.64751,0 c -2.77,0 -5,-2.23 -5,-5 l 0,-38.44062 c 0,-2.77 2.23,-5 5,-5 z"
       id="rect4735" />
    <g
       style="font-size:22px;font-style:normal;font-variant:normal;font-weight:normal;font-stretch:condensed;text-align:center;line-height:125%;letter-spacing:0px;word-spacing:0px;writing-mode:lr-tb;text-anchor:middle;opacity:0.5;fill:#ffffff;fill-opacity:1;stroke:none;font-family:Roboto Condensed;-inkscape-font-specification:'Roboto Condensed, Condensed'"
       id="text4737">
      <path
         d="m 196.73437,352.13541 c 0,-1.6901 0.40821,-3.02571 1.22461,-4.00684 0.82357,-0.98827 1.90853,-1.48241 3.25489,-1.48242 1.34634,1e-5 2.42772,0.47983 3.24414,1.43945 0.82356,0.95965 1.24608,2.26661 1.26758,3.9209 l 0,1.22461 c -1e-5,1.68295 -0.40822,3.01498 -1.22461,3.99609 -0.81642,0.98112 -1.90496,1.47168 -3.26563,1.47168 -1.34636,0 -2.42774,-0.47623 -3.24414,-1.42871 -0.80925,-0.95247 -1.22819,-2.24153 -1.25684,-3.86719 l 0,-1.26757 m 1.90137,1.0957 c 0,1.19597 0.23275,2.1377 0.69824,2.82519 0.47266,0.68035 1.10644,1.02051 1.90137,1.02051 1.67578,0 2.53873,-1.21028 2.58887,-3.63086 l 0,-1.31054 c -1e-5,-1.1888 -0.23634,-2.12695 -0.70899,-2.81446 -0.47266,-0.69465 -1.10645,-1.04198 -1.90136,-1.04199 -0.78061,1e-5 -1.40723,0.34734 -1.87989,1.04199 -0.46549,0.68751 -0.69824,1.62208 -0.69824,2.80371 l 0,1.10645"
         style=""
         id="path3331" />
      <path
         d="m 212.97656,348.6442 c -0.26498,-0.0501 -0.55144,-0.0752 -0.85937,-0.0752 -0.97397,10e-6 -1.6543,0.53354 -2.04102,1.60059 l 0,8.31445 -1.90137,0 0,-11.62305 1.84766,0 0.0322,1.18164 c 0.50846,-0.93098 1.22818,-1.39647 2.15918,-1.39648 0.30077,1e-5 0.55142,0.0501 0.75195,0.15039 l 0.0107,1.84766"
         style=""
         id="path3333" />
      <path
         d="m 216.92969,358.48404 -1.90137,0 0,-11.62305 1.90137,0 0,11.62305 m 0.15039,-14.70606 c -1e-5,0.32228 -0.0895,0.59084 -0.26856,0.80567 -0.17904,0.21486 -0.45117,0.32228 -0.8164,0.32226 -0.35808,2e-5 -0.62663,-0.1074 -0.80567,-0.32226 -0.17903,-0.21483 -0.26855,-0.48339 -0.26855,-0.80567 0,-0.32225 0.0895,-0.59438 0.26855,-0.8164 0.17904,-0.22199 0.44759,-0.33299 0.80567,-0.33301 0.35807,2e-5 0.62662,0.1146 0.80566,0.34375 0.1862,0.22202 0.27929,0.49058 0.2793,0.80566"
         style=""
         id="path3335" />
      <path
         d="m 219.5293,352.14615 c 0,-1.81184 0.32942,-3.17968 0.98828,-4.10352 0.65885,-0.93098 1.62206,-1.39647 2.88965,-1.39648 1.18163,1e-5 2.08039,0.50489 2.69629,1.51465 l 0.0967,-1.29981 1.71875,0 0,11.73047 c -1e-5,1.43945 -0.36883,2.54232 -1.10645,3.30859 -0.73764,0.77344 -1.76531,1.16016 -3.08301,1.16016 -0.57292,0 -1.21745,-0.14323 -1.93359,-0.42969 -0.70899,-0.2793 -1.24252,-0.62663 -1.60059,-1.04199 l 0.77344,-1.31055 c 0.78776,0.77344 1.65787,1.16016 2.61035,1.16016 1.58268,0 2.3955,-0.86296 2.43848,-2.58887 l 0,-1.51464 c -0.61589,0.9095 -1.48959,1.36425 -2.6211,1.36425 -1.20312,0 -2.14127,-0.45117 -2.81445,-1.35351 -0.67318,-0.90951 -1.02409,-2.21289 -1.05273,-3.91016 l 0,-1.28906 m 1.90136,1.08496 c 0,1.30339 0.18978,2.26302 0.56934,2.87891 0.38671,0.60872 1.01692,0.91308 1.89062,0.91308 0.94531,0 1.65429,-0.48339 2.12696,-1.45019 l 0,-5.81153 c -0.49415,-0.95246 -1.19597,-1.4287 -2.10547,-1.42871 -0.8737,10e-6 -1.50391,0.30795 -1.89063,0.92383 -0.38672,0.60873 -0.58366,1.54688 -0.59082,2.81445 l 0,1.16016"
         style=""
         id="path3337" />
      <path
         d="m 232.78516,358.48404 -1.90137,0 0,-11.62305 1.90137,0 0,11.62305 m 0.15039,-14.70606 c -1e-5,0.32228 -0.0895,0.59084 -0.26856,0.80567 -0.17904,0.21486 -0.45117,0.32228 -0.8164,0.32226 -0.35808,2e-5 -0.62663,-0.1074 -0.80567,-0.32226 -0.17904,-0.21483 -0.26855,-0.48339 -0.26855,-0.80567 0,-0.32225 0.0895,-0.59438 0.26855,-0.8164 0.17904,-0.22199 0.44759,-0.33299 0.80567,-0.33301 0.35807,2e-5 0.62662,0.1146 0.80566,0.34375 0.18619,0.22202 0.27929,0.49058 0.2793,0.80566"
         style=""
         id="path3339" />
      <path
         d="m 237.55469,346.86099 0.0537,1.25684 c 0.73762,-0.98111 1.67936,-1.47167 2.82519,-1.47168 2.05533,1e-5 3.09733,1.37143 3.12598,4.11426 l 0,7.72363 -1.89062,0 0,-7.6377 c -1e-5,-0.90949 -0.15398,-1.55402 -0.46192,-1.93359 -0.30079,-0.38671 -0.75554,-0.58007 -1.36426,-0.58008 -0.47266,10e-6 -0.89876,0.15756 -1.27832,0.47266 -0.3724,0.31511 -0.67318,0.7269 -0.90234,1.23535 l 0,8.44336 -1.90137,0 0,-11.62305 1.79395,0"
         style=""
         id="path3341" />
      <path
         d="m 246.94336,359.82681 -1.61133,0 5.48926,-16.9834 1.60058,0 -5.47851,16.9834"
         style=""
         id="path3343" />
      <path
         d="m 256.375,346.86099 0.043,1.07422 c 0.70898,-0.85936 1.64355,-1.28905 2.80371,-1.28906 1.29622,1e-5 2.20214,0.56218 2.71777,1.68652 0.73046,-1.12434 1.74739,-1.68651 3.05078,-1.68652 2.14127,1e-5 3.23697,1.33562 3.28711,4.00683 l 0,7.83106 -1.89062,0 0,-7.64844 c -1e-5,-0.84504 -0.1504,-1.47167 -0.45117,-1.87988 -0.3008,-0.41536 -0.80926,-0.62304 -1.52539,-0.62305 -0.57293,10e-6 -1.03843,0.22202 -1.39649,0.66602 -0.35808,0.44402 -0.56576,1.00977 -0.62305,1.69726 l 0,7.78809 -1.9121,0 0,-7.73438 c -0.0215,-1.61131 -0.67677,-2.41698 -1.96582,-2.41699 -0.95964,10e-6 -1.6364,0.47983 -2.03028,1.43946 l 0,8.71191 -1.89062,0 0,-11.62305 1.7832,0"
         style=""
         id="path3345" />
      <path
         d="m 277.10742,358.48404 c -0.11459,-0.25065 -0.19695,-0.67318 -0.24707,-1.26758 -0.67318,0.98828 -1.53256,1.48242 -2.57812,1.48242 -1.05274,0 -1.87631,-0.29362 -2.47071,-0.88086 -0.58724,-0.5944 -0.88086,-1.42871 -0.88086,-2.50293 0,-1.18163 0.40104,-2.11978 1.20313,-2.81445 0.80208,-0.69465 1.90136,-1.04915 3.29785,-1.06348 l 1.39648,0 0,-1.23535 c 0,-0.69465 -0.15397,-1.18879 -0.46191,-1.48242 -0.30795,-0.29361 -0.77702,-0.44042 -1.40723,-0.44043 -0.57292,1e-5 -1.03841,0.17189 -1.39648,0.51563 -0.35808,0.33659 -0.53711,0.76628 -0.53711,1.28906 l -1.90137,0 c 0,-0.59439 0.17546,-1.16015 0.52637,-1.69727 0.35091,-0.54426 0.82357,-0.97036 1.41797,-1.27832 0.5944,-0.30793 1.25683,-0.4619 1.9873,-0.46191 1.1888,1e-5 2.09114,0.29721 2.70704,0.8916 0.62303,0.58725 0.94172,1.44662 0.95605,2.57813 l 0,5.86523 c 0.007,0.89518 0.1289,1.6722 0.36523,2.33105 l 0,0.17188 -1.97656,0 m -2.53515,-1.51465 c 0.46549,0 0.9095,-0.1289 1.33203,-0.38672 0.42252,-0.25781 0.73046,-0.58007 0.92382,-0.96679 l 0,-2.77149 -1.07421,0 c -0.90235,0.0143 -1.61492,0.21843 -2.1377,0.61231 -0.52279,0.38672 -0.78418,0.93099 -0.78418,1.63281 0,0.65885 0.13248,1.13867 0.39746,1.43945 0.26497,0.29362 0.71256,0.44043 1.34278,0.44043"
         style=""
         id="path3347" />
      <path
         d="m 287.30176,355.50845 c -10e-6,-0.4082 -0.15398,-0.75911 -0.46192,-1.05273 -0.30795,-0.29362 -0.90235,-0.63737 -1.7832,-1.03125 -1.02409,-0.42252 -1.7474,-0.78417 -2.16992,-1.08496 -0.41537,-0.30078 -0.72689,-0.64095 -0.93457,-1.02051 -0.20769,-0.38671 -0.31153,-0.84504 -0.31153,-1.375 0,-0.9453 0.34375,-1.72948 1.03125,-2.35254 0.69466,-0.6302 1.5791,-0.9453 2.65333,-0.94531 1.1315,1e-5 2.041,0.32944 2.72851,0.98828 0.68749,0.65886 1.03124,1.50392 1.03125,2.53516 l -1.89062,0 c -1e-5,-0.52278 -0.17547,-0.96679 -0.52637,-1.33204 -0.35092,-0.37238 -0.79851,-0.55858 -1.34277,-0.55859 -0.5586,1e-5 -0.99903,0.14682 -1.32129,0.44043 -0.31511,0.28647 -0.47266,0.67319 -0.47266,1.16016 0,0.38672 0.11458,0.69825 0.34375,0.93457 0.23632,0.23633 0.7985,0.54786 1.68652,0.93457 1.4108,0.55144 2.37044,1.09213 2.87891,1.62207 0.50845,0.52279 0.76269,1.1888 0.76269,1.99804 0,1.00977 -0.34733,1.81902 -1.04199,2.42774 -0.69467,0.60156 -1.62565,0.90234 -2.79297,0.90234 -1.21029,0 -2.19141,-0.34733 -2.94336,-1.04199 -0.75195,-0.69466 -1.12793,-1.57552 -1.12793,-2.64258 l 1.91211,0 c 0.0215,0.64454 0.21843,1.14942 0.59082,1.51465 0.3724,0.36524 0.89518,0.54785 1.56836,0.54785 0.63021,0 1.11002,-0.13964 1.43946,-0.41894 0.32942,-0.28646 0.49413,-0.6696 0.49414,-1.14942"
         style=""
         id="path3349" />
      <path
         d="m 294.15527,344.04654 0,2.81445 1.75098,0 0,1.53614 -1.75098,0 0,7.208 c 0,0.45834 0.0752,0.80567 0.22559,1.042 0.15039,0.23632 0.4082,0.35449 0.77344,0.35449 0.25064,0 0.50487,-0.043 0.76269,-0.12891 l -0.0215,1.61133 c -0.42969,0.14323 -0.87012,0.21484 -1.32129,0.21484 -0.75196,0 -1.32487,-0.26855 -1.71875,-0.80566 -0.39388,-0.53711 -0.59082,-1.29622 -0.59082,-2.27734 l 0,-7.21875 -1.77246,0 0,-1.53614 1.77246,0 0,-2.81445 1.89062,0"
         style=""
         id="path3351" />
      <path
         d="m 302.30859,358.69888 c -1.44661,0 -2.55664,-0.42968 -3.33007,-1.28906 -0.77344,-0.86653 -1.16732,-2.13411 -1.18165,-3.80273 l 0,-1.40723 c 0,-1.73307 0.37598,-3.09016 1.12793,-4.07129 0.75912,-0.98827 1.81543,-1.48241 3.16895,-1.48242 1.36067,1e-5 2.3776,0.43328 3.05078,1.2998 0.67317,0.86655 1.01692,2.21648 1.03125,4.04981 l 0,1.24609 -6.48828,0 0,0.26856 c 0,1.24609 0.23274,2.15202 0.69824,2.71777 0.47265,0.56576 1.14941,0.84863 2.03028,0.84863 0.55858,0 1.04914,-0.10384 1.47168,-0.31152 0.42968,-0.21484 0.83072,-0.55143 1.20312,-1.00977 l 0.98828,1.20313 c -0.82357,1.16016 -2.08041,1.74023 -3.77051,1.74023 m -0.21484,-10.41992 c -0.78776,1e-5 -1.37142,0.27215 -1.75098,0.81641 -0.37956,0.53712 -0.5944,1.37501 -0.64453,2.51367 l 4.57617,0 0,-0.25781 c -0.0501,-1.10286 -0.25065,-1.89062 -0.60156,-2.36328 -0.34376,-0.47265 -0.87012,-0.70898 -1.5791,-0.70899"
         style=""
         id="path3353" />
      <path
         d="m 313.26562,348.6442 c -0.26497,-0.0501 -0.55143,-0.0752 -0.85937,-0.0752 -0.97396,10e-6 -1.6543,0.53354 -2.04102,1.60059 l 0,8.31445 -1.90136,0 0,-11.62305 1.84765,0 0.0322,1.18164 c 0.50846,-0.93098 1.22819,-1.39647 2.15918,-1.39648 0.30078,1e-5 0.55143,0.0501 0.75195,0.15039 l 0.0107,1.84766"
         style=""
         id="path3355" />
    </g>
    <path
       style="fill:none;stroke:#666666;stroke-width:5;stroke-linecap:butt;stroke-linejoin:miter;stroke-miterlimit:4;stroke-opacity:1;stroke-dasharray:none;marker-end:url(#Arrow1SendV);display:inline"
       d="m 255.00002,328.23199 0,-50.05938"
       id="path4741"
       inkscape:connector-type="polyline"
       inkscape:connector-curvature="0"
       sodipodi:nodetypes="cc"
       inkscape:connection-end="#rect4671"
       inkscape:connection-end-point="d4"
       inkscape:connection-start="#rect4735"
       inkscape:connection-start-point="d4" />
    <path
       style="fill:#b380ff;fill-opacity:1;stroke:#9955ff;stroke-width:4;stroke-miterlimit:4;stroke-opacity:0.97254902"
       d="m 583.67627,428.23199 112.64751,0 c 2.77,0 5,2.23 5,5 l 0,38.44062 c 0,2.77 -2.23,5 -5,5 l -112.64751,0 c -2.77,0 -5,-2.23 -5,-5 l 0,-38.44062 c 0,-2.77 2.23,-5 5,-5 z"
       id="rect4743" />
    <g
       style="font-size:22px;font-style:normal;font-variant:normal;font-weight:normal;font-stretch:condensed;text-align:center;line-height:125%;letter-spacing:0px;word-spacing:0px;writing-mode:lr-tb;text-anchor:middle;fill:#ffffff;fill-opacity:1;stroke:none;font-family:Roboto Condensed;-inkscape-font-specification:'Roboto Condensed, Condensed'"
       id="text4745">
      <path
         d="m 581.73437,452.13541 c 0,-1.6901 0.40821,-3.02571 1.22461,-4.00684 0.82357,-0.98827 1.90853,-1.48241 3.25489,-1.48242 1.34634,1e-5 2.42772,0.47983 3.24414,1.43945 0.82356,0.95965 1.24608,2.26661 1.26758,3.9209 l 0,1.22461 c -10e-6,1.68295 -0.40822,3.01498 -1.22461,3.99609 -0.81642,0.98112 -1.90496,1.47168 -3.26563,1.47168 -1.34636,0 -2.42774,-0.47623 -3.24414,-1.42871 -0.80925,-0.95247 -1.22819,-2.24153 -1.25684,-3.86719 l 0,-1.26757 m 1.90137,1.0957 c 0,1.19597 0.23275,2.1377 0.69824,2.82519 0.47266,0.68035 1.10644,1.02051 1.90137,1.02051 1.67578,0 2.53873,-1.21028 2.58887,-3.63086 l 0,-1.31054 c -10e-6,-1.1888 -0.23634,-2.12695 -0.70899,-2.81446 -0.47266,-0.69465 -1.10645,-1.04198 -1.90136,-1.04199 -0.78061,1e-5 -1.40723,0.34734 -1.87989,1.04199 -0.46549,0.68751 -0.69824,1.62208 -0.69824,2.80371 l 0,1.10645"
         style=""
         id="path3359" />
      <path
         d="m 597.97656,448.6442 c -0.26498,-0.0501 -0.55144,-0.0752 -0.85937,-0.0752 -0.97397,10e-6 -1.6543,0.53354 -2.04102,1.60059 l 0,8.31445 -1.90137,0 0,-11.62305 1.84766,0 0.0322,1.18164 c 0.50846,-0.93098 1.22818,-1.39647 2.15918,-1.39648 0.30077,1e-5 0.55142,0.0501 0.75195,0.15039 l 0.0107,1.84766"
         style=""
         id="path3361" />
      <path
         d="m 601.92969,458.48404 -1.90137,0 0,-11.62305 1.90137,0 0,11.62305 m 0.15039,-14.70606 c -10e-6,0.32228 -0.0895,0.59084 -0.26856,0.80567 -0.17904,0.21486 -0.45117,0.32228 -0.8164,0.32226 -0.35808,2e-5 -0.62663,-0.1074 -0.80567,-0.32226 -0.17903,-0.21483 -0.26855,-0.48339 -0.26855,-0.80567 0,-0.32225 0.0895,-0.59438 0.26855,-0.8164 0.17904,-0.22199 0.44759,-0.33299 0.80567,-0.33301 0.35807,2e-5 0.62662,0.1146 0.80566,0.34375 0.1862,0.22202 0.27929,0.49058 0.2793,0.80566"
         style=""
         id="path3363" />
      <path
         d="m 604.5293,452.14615 c 0,-1.81184 0.32942,-3.17968 0.98828,-4.10352 0.65885,-0.93098 1.62206,-1.39647 2.88965,-1.39648 1.18163,1e-5 2.08039,0.50489 2.69629,1.51465 l 0.0967,-1.29981 1.71875,0 0,11.73047 c -10e-6,1.43945 -0.36883,2.54232 -1.10645,3.30859 -0.73764,0.77344 -1.76531,1.16016 -3.08301,1.16016 -0.57292,0 -1.21745,-0.14323 -1.93359,-0.42969 -0.70899,-0.2793 -1.24252,-0.62663 -1.60059,-1.04199 l 0.77344,-1.31055 c 0.78776,0.77344 1.65787,1.16016 2.61035,1.16016 1.58268,0 2.3955,-0.86296 2.43848,-2.58887 l 0,-1.51464 c -0.61589,0.9095 -1.48959,1.36425 -2.6211,1.36425 -1.20312,0 -2.14127,-0.45117 -2.81445,-1.35351 -0.67318,-0.90951 -1.02409,-2.21289 -1.05273,-3.91016 l 0,-1.28906 m 1.90136,1.08496 c 0,1.30339 0.18978,2.26302 0.56934,2.87891 0.38671,0.60872 1.01692,0.91308 1.89062,0.91308 0.94531,0 1.65429,-0.48339 2.12696,-1.45019 l 0,-5.81153 c -0.49415,-0.95246 -1.19597,-1.4287 -2.10547,-1.42871 -0.8737,10e-6 -1.50391,0.30795 -1.89063,0.92383 -0.38672,0.60873 -0.58366,1.54688 -0.59082,2.81445 l 0,1.16016"
         style=""
         id="path3365" />
      <path
         d="m 617.78516,458.48404 -1.90137,0 0,-11.62305 1.90137,0 0,11.62305 m 0.15039,-14.70606 c -1e-5,0.32228 -0.0895,0.59084 -0.26856,0.80567 -0.17904,0.21486 -0.45117,0.32228 -0.8164,0.32226 -0.35808,2e-5 -0.62663,-0.1074 -0.80567,-0.32226 -0.17904,-0.21483 -0.26855,-0.48339 -0.26855,-0.80567 0,-0.32225 0.0895,-0.59438 0.26855,-0.8164 0.17904,-0.22199 0.44759,-0.33299 0.80567,-0.33301 0.35807,2e-5 0.62662,0.1146 0.80566,0.34375 0.18619,0.22202 0.27929,0.49058 0.2793,0.80566"
         style=""
         id="path3367" />
      <path
         d="m 622.55469,446.86099 0.0537,1.25684 c 0.73762,-0.98111 1.67936,-1.47167 2.82519,-1.47168 2.05533,1e-5 3.09733,1.37143 3.12598,4.11426 l 0,7.72363 -1.89062,0 0,-7.6377 c -10e-6,-0.90949 -0.15398,-1.55402 -0.46192,-1.93359 -0.30079,-0.38671 -0.75554,-0.58007 -1.36426,-0.58008 -0.47266,10e-6 -0.89876,0.15756 -1.27832,0.47266 -0.3724,0.31511 -0.67318,0.7269 -0.90234,1.23535 l 0,8.44336 -1.90137,0 0,-11.62305 1.79395,0"
         style=""
         id="path3369" />
      <path
         d="m 631.94336,459.82681 -1.61133,0 5.48926,-16.9834 1.60058,0 -5.47851,16.9834"
         style=""
         id="path3371" />
      <path
         d="m 641.375,446.86099 0.043,1.07422 c 0.70898,-0.85936 1.64355,-1.28905 2.80371,-1.28906 1.29622,1e-5 2.20214,0.56218 2.71777,1.68652 0.73046,-1.12434 1.74739,-1.68651 3.05078,-1.68652 2.14127,1e-5 3.23697,1.33562 3.28711,4.00683 l 0,7.83106 -1.89062,0 0,-7.64844 c -10e-6,-0.84504 -0.1504,-1.47167 -0.45117,-1.87988 -0.3008,-0.41536 -0.80926,-0.62304 -1.52539,-0.62305 -0.57293,10e-6 -1.03843,0.22202 -1.39649,0.66602 -0.35808,0.44402 -0.56576,1.00977 -0.62305,1.69726 l 0,7.78809 -1.9121,0 0,-7.73438 c -0.0215,-1.61131 -0.67677,-2.41698 -1.96582,-2.41699 -0.95964,10e-6 -1.6364,0.47983 -2.03028,1.43946 l 0,8.71191 -1.89062,0 0,-11.62305 1.7832,0"
         style=""
         id="path3373" />
      <path
         d="m 662.10742,458.48404 c -0.11459,-0.25065 -0.19695,-0.67318 -0.24707,-1.26758 -0.67318,0.98828 -1.53256,1.48242 -2.57812,1.48242 -1.05274,0 -1.87631,-0.29362 -2.47071,-0.88086 -0.58724,-0.5944 -0.88086,-1.42871 -0.88086,-2.50293 0,-1.18163 0.40104,-2.11978 1.20313,-2.81445 0.80208,-0.69465 1.90136,-1.04915 3.29785,-1.06348 l 1.39648,0 0,-1.23535 c 0,-0.69465 -0.15397,-1.18879 -0.46191,-1.48242 -0.30795,-0.29361 -0.77702,-0.44042 -1.40723,-0.44043 -0.57292,1e-5 -1.03841,0.17189 -1.39648,0.51563 -0.35808,0.33659 -0.53711,0.76628 -0.53711,1.28906 l -1.90137,0 c 0,-0.59439 0.17546,-1.16015 0.52637,-1.69727 0.35091,-0.54426 0.82357,-0.97036 1.41797,-1.27832 0.5944,-0.30793 1.25683,-0.4619 1.9873,-0.46191 1.1888,1e-5 2.09114,0.29721 2.70704,0.8916 0.62303,0.58725 0.94172,1.44662 0.95605,2.57813 l 0,5.86523 c 0.007,0.89518 0.1289,1.6722 0.36523,2.33105 l 0,0.17188 -1.97656,0 m -2.53515,-1.51465 c 0.46549,0 0.9095,-0.1289 1.33203,-0.38672 0.42252,-0.25781 0.73046,-0.58007 0.92382,-0.96679 l 0,-2.77149 -1.07421,0 c -0.90235,0.0143 -1.61492,0.21843 -2.1377,0.61231 -0.52279,0.38672 -0.78418,0.93099 -0.78418,1.63281 0,0.65885 0.13248,1.13867 0.39746,1.43945 0.26497,0.29362 0.71256,0.44043 1.34278,0.44043"
         style=""
         id="path3375" />
      <path
         d="m 672.30176,455.50845 c -10e-6,-0.4082 -0.15398,-0.75911 -0.46192,-1.05273 -0.30795,-0.29362 -0.90235,-0.63737 -1.7832,-1.03125 -1.02409,-0.42252 -1.7474,-0.78417 -2.16992,-1.08496 -0.41537,-0.30078 -0.72689,-0.64095 -0.93457,-1.02051 -0.20769,-0.38671 -0.31153,-0.84504 -0.31153,-1.375 0,-0.9453 0.34375,-1.72948 1.03125,-2.35254 0.69466,-0.6302 1.5791,-0.9453 2.65333,-0.94531 1.1315,1e-5 2.041,0.32944 2.72851,0.98828 0.68749,0.65886 1.03124,1.50392 1.03125,2.53516 l -1.89062,0 c -10e-6,-0.52278 -0.17547,-0.96679 -0.52637,-1.33204 -0.35092,-0.37238 -0.79851,-0.55858 -1.34277,-0.55859 -0.5586,1e-5 -0.99903,0.14682 -1.32129,0.44043 -0.31511,0.28647 -0.47266,0.67319 -0.47266,1.16016 0,0.38672 0.11458,0.69825 0.34375,0.93457 0.23632,0.23633 0.7985,0.54786 1.68652,0.93457 1.4108,0.55144 2.37044,1.09213 2.87891,1.62207 0.50845,0.52279 0.76269,1.1888 0.76269,1.99804 0,1.00977 -0.34733,1.81902 -1.04199,2.42774 -0.69467,0.60156 -1.62565,0.90234 -2.79297,0.90234 -1.21029,0 -2.19141,-0.34733 -2.94336,-1.04199 -0.75195,-0.69466 -1.12793,-1.57552 -1.12793,-2.64258 l 1.91211,0 c 0.0215,0.64454 0.21843,1.14942 0.59082,1.51465 0.3724,0.36524 0.89518,0.54785 1.56836,0.54785 0.63021,0 1.11002,-0.13964 1.43946,-0.41894 0.32942,-0.28646 0.49413,-0.6696 0.49414,-1.14942"
         style=""
         id="path3377" />
      <path
         d="m 679.15527,444.04654 0,2.81445 1.75098,0 0,1.53614 -1.75098,0 0,7.208 c 0,0.45834 0.0752,0.80567 0.22559,1.042 0.15039,0.23632 0.4082,0.35449 0.77344,0.35449 0.25064,0 0.50487,-0.043 0.76269,-0.12891 l -0.0215,1.61133 c -0.42969,0.14323 -0.87012,0.21484 -1.32129,0.21484 -0.75196,0 -1.32487,-0.26855 -1.71875,-0.80566 -0.39388,-0.53711 -0.59082,-1.29622 -0.59082,-2.27734 l 0,-7.21875 -1.77246,0 0,-1.53614 1.77246,0 0,-2.81445 1.89062,0"
         style=""
         id="path3379" />
      <path
         d="m 687.30859,458.69888 c -1.44661,0 -2.55664,-0.42968 -3.33007,-1.28906 -0.77344,-0.86653 -1.16732,-2.13411 -1.18165,-3.80273 l 0,-1.40723 c 0,-1.73307 0.37598,-3.09016 1.12793,-4.07129 0.75912,-0.98827 1.81543,-1.48241 3.16895,-1.48242 1.36067,1e-5 2.3776,0.43328 3.05078,1.2998 0.67317,0.86655 1.01692,2.21648 1.03125,4.04981 l 0,1.24609 -6.48828,0 0,0.26856 c 0,1.24609 0.23274,2.15202 0.69824,2.71777 0.47265,0.56576 1.14941,0.84863 2.03028,0.84863 0.55858,0 1.04914,-0.10384 1.47168,-0.31152 0.42968,-0.21484 0.83072,-0.55143 1.20312,-1.00977 l 0.98828,1.20313 c -0.82357,1.16016 -2.08041,1.74023 -3.77051,1.74023 m -0.21484,-10.41992 c -0.78776,1e-5 -1.37142,0.27215 -1.75098,0.81641 -0.37956,0.53712 -0.5944,1.37501 -0.64453,2.51367 l 4.57617,0 0,-0.25781 c -0.0501,-1.10286 -0.25065,-1.89062 -0.60156,-2.36328 -0.34376,-0.47265 -0.87012,-0.70898 -1.5791,-0.70899"
         style=""
         id="path3381" />
      <path
         d="m 698.26562,448.6442 c -0.26497,-0.0501 -0.55143,-0.0752 -0.85937,-0.0752 -0.97396,10e-6 -1.6543,0.53354 -2.04102,1.60059 l 0,8.31445 -1.90136,0 0,-11.62305 1.84765,0 0.0322,1.18164 c 0.50846,-0.93098 1.22819,-1.39647 2.15918,-1.39648 0.30078,1e-5 0.55143,0.0501 0.75195,0.15039 l 0.0107,1.84766"
         style=""
         id="path3383" />
    </g>
    <path
       sodipodi:nodetypes="cc"
       inkscape:connector-curvature="0"
       inkscape:connector-type="polyline"
       id="path4749"
       d="m 640.00002,428.23199 0,-51.05938"
       style="fill:none;stroke:#666666;stroke-width:5;stroke-linecap:butt;stroke-linejoin:miter;stroke-miterlimit:4;stroke-opacity:1;stroke-dasharray:none;marker-end:url(#Arrow1SendV);display:inline"
       inkscape:connection-start="#rect4743"
       inkscape:connection-start-point="d4"
       inkscape:connection-end="#rect5481"
       inkscape:connection-end-point="d4" />
    <g
       transform="translate(-21.5,21.5)"
       style="font-size:24px;font-style:normal;font-variant:normal;font-weight:normal;font-stretch:normal;text-align:center;line-height:125%;letter-spacing:0px;word-spacing:0px;writing-mode:lr-tb;text-anchor:middle;fill:#5098ff;fill-opacity:0.98431373;stroke:none;font-family:Roboto;-inkscape-font-specification:Roboto"
       id="text4751">
      <path
         d="m 378.1817,438.64129 2.4382,-10.73039 -1.95409,-0.44402 0.37131,-1.63412 1.9541,0.44402 0.28822,-1.26845 c 0.3012,-1.32557 0.88827,-2.26974 1.76123,-2.83251 0.87295,-0.56273 1.95698,-0.69697 3.2521,-0.4027 0.48756,0.1108 0.95661,0.28548 1.40715,0.52403 l -0.50377,1.68816 c -0.34249,-0.14991 -0.71561,-0.27075 -1.11937,-0.36251 -0.68566,-0.15578 -1.261,-0.0742 -1.72604,0.24473 -0.46332,0.31134 -0.7798,0.8403 -0.94943,1.58688 l -0.29601,1.30273 2.63974,0.59982 -0.37131,1.63412 -2.63975,-0.59981 -2.4382,10.73039 -2.11408,-0.48037"
         style=""
         id="path3386" />
      <path
         d="m 390.11018,441.48479 c -1.68262,-0.35062 -2.9369,-1.18657 -3.76285,-2.50785 -0.82437,-1.32892 -1.04371,-2.91881 -0.65803,-4.76968 l 0.0813,-0.39006 c 0.25658,-1.23136 0.71855,-2.28027 1.38591,-3.14674 0.67658,-0.8725 1.49211,-1.49261 2.44657,-1.86034 0.96369,-0.37375 1.93885,-0.45784 2.92548,-0.25227 1.61376,0.33629 2.7573,1.12921 3.43063,2.37877 0.6733,1.24957 0.80357,2.8648 0.39081,4.84568 l -0.18407,0.88337 -8.40921,-1.75229 c -0.22441,1.23009 -0.0752,2.29464 0.44776,3.19365 0.53215,0.89296 1.32596,1.44941 2.38142,1.66934 0.74951,0.15619 1.41619,0.1355 2.00002,-0.0621 0.58382,-0.19755 1.12336,-0.50808 1.61861,-0.93158 l 1.086,1.2797 c -1.37325,1.38173 -3.10003,1.85585 -5.18033,1.42236 m 2.05499,-11.18314 c -0.85661,-0.17849 -1.64088,-0.0147 -2.35282,0.4913 -0.71036,0.49839 -1.25151,1.29538 -1.62345,2.39098 l 6.218,1.29569 0.0335,-0.16061 c 0.16351,-1.09115 0.0466,-1.98536 -0.35076,-2.68265 -0.39577,-0.70493 -1.03726,-1.14983 -1.92444,-1.33471"
         style=""
         id="path3388" />
      <path
         d="m 403.29312,427.80481 -0.5753,3.01593 2.32526,0.44355 -0.314,1.6461 -2.32526,-0.44355 -1.47338,7.72401 c -0.0951,0.49882 -0.0633,0.89462 0.0956,1.18739 0.16035,0.28509 0.48994,0.47522 0.98876,0.57037 0.24557,0.0468 0.59201,0.0652 1.03934,0.0551 l -0.32937,1.72668 c -0.5895,0.0466 -1.149,0.0194 -1.67851,-0.0816 -0.95159,-0.18152 -1.61423,-0.60617 -1.98791,-1.27395 -0.37368,-0.66778 -0.45951,-1.53119 -0.2575,-2.59022 l 1.47338,-7.72401 -2.26771,-0.43257 0.314,-1.6461 2.26771,0.43257 0.5753,-3.01593 2.12957,0.40622"
         style=""
         id="path3390" />
      <path
         d="m 410.42253,443.545 c 0.76195,0.13278 1.46793,0.0179 2.11796,-0.34465 0.65,-0.36254 1.06615,-0.88479 1.24844,-1.56675 l 2.02033,0.35207 c -0.16322,0.70907 -0.52821,1.34729 -1.09495,1.91467 -0.56677,0.56738 -1.26465,0.97709 -2.09366,1.22913 -0.82132,0.25339 -1.65529,0.30632 -2.5019,0.15879 -1.70093,-0.29641 -2.95694,-1.09815 -3.76802,-2.40524 -0.80206,-1.31344 -1.03141,-2.95531 -0.68806,-4.92562 l 0.0624,-0.35789 c 0.21191,-1.21604 0.62354,-2.2585 1.23491,-3.12739 0.61136,-0.86888 1.37826,-1.49257 2.30069,-1.8711 0.93011,-0.37716 1.96472,-0.46649 3.10381,-0.26801 1.40075,0.24411 2.48983,0.86609 3.26723,1.86595 0.78508,1.00121 1.09172,2.17677 0.91994,3.52669 l -2.02034,-0.35207 c 0.0793,-0.81885 -0.11327,-1.5344 -0.57755,-2.14664 -0.45526,-0.61858 -1.08695,-0.99829 -1.89508,-1.13912 -1.08521,-0.1891 -1.99638,0.0566 -2.7335,0.73698 -0.7281,0.67408 -1.2209,1.74999 -1.47841,3.22771 l -0.0704,0.40407 c -0.25081,1.43925 -0.14763,2.59918 0.30954,3.4798 0.45717,0.88062 1.23606,1.41683 2.33666,1.60862"
         style=""
         id="path3392" />
      <path
         d="m 421.37495,435.62872 c 1.12987,-1.01903 2.4553,-1.41099 3.97631,-1.17589 2.64822,0.40938 3.75297,2.10983 3.31427,5.10135 l -1.28002,8.28056 -2.14253,-0.3312 1.28182,-8.29214 c 0.1319,-0.90451 0.0267,-1.60459 -0.31568,-2.10022 -0.33465,-0.49441 -0.93048,-0.80786 -1.78748,-0.94035 -0.69488,-0.10741 -1.33346,-0.0164 -1.91576,0.27304 -0.58231,0.28945 -1.0667,0.7126 -1.45318,1.26946 l -1.38027,8.92911 -2.14252,-0.3312 2.74981,-17.78872 2.14252,0.3312 -1.04729,6.775"
         style=""
         id="path3394" />
    </g>
    <path
       style="fill:none;stroke:#5098ff;stroke-width:5;stroke-linecap:butt;stroke-linejoin:miter;stroke-miterlimit:4;stroke-opacity:1;stroke-dasharray:none;marker-end:url(#Arrow1SendfE)"
       d="m 256.67625,387.6726 c 0,0 73.46828,69 302.00005,69"
       id="path4755"
       inkscape:connector-curvature="0"
       sodipodi:nodetypes="cc" />
    <path
       style="fill:#999999;fill-opacity:1;stroke:#808080;stroke-width:4;stroke-miterlimit:4;stroke-opacity:0.97254902"
       d="m 583.67627,328.73199 112.64751,0 c 2.77,0 5,2.23 5,5 l 0,38.44062 c 0,2.77 -2.23,5 -5,5 l -112.64751,0 c -2.77,0 -5,-2.23 -5,-5 l 0,-38.44062 c 0,-2.77 2.23,-5 5,-5 z"
       id="rect5481" />
    <g
       style="font-size:22px;font-style:normal;font-variant:normal;font-weight:normal;font-stretch:condensed;text-align:center;line-height:125%;letter-spacing:0px;word-spacing:0px;writing-mode:lr-tb;text-anchor:middle;fill:#ffffff;fill-opacity:1;stroke:none;font-family:Roboto Condensed;-inkscape-font-specification:'Roboto Condensed, Condensed'"
       id="text5483">
      <path
         d="m 623.2583,354.54755 c -10e-6,2.30599 -0.3366,4.0319 -1.00976,5.17773 -0.67319,1.13867 -1.7295,1.70801 -3.16895,1.70801 -1.39649,0 -2.43848,-0.54785 -3.12598,-1.64356 -0.6875,-1.0957 -1.04557,-2.74283 -1.07422,-4.9414 l 0,-2.68555 c 0,-2.28449 0.33659,-3.98892 1.00977,-5.11328 0.68034,-1.12433 1.73665,-1.68651 3.16895,-1.68652 1.4108,1e-5 2.45279,0.53354 3.12597,1.60058 0.68033,1.06707 1.0384,2.68198 1.07422,4.84473 l 0,2.73926 m -1.90137,-2.71778 c 0,-1.65428 -0.18262,-2.87173 -0.54785,-3.65234 -0.36524,-0.78775 -0.9489,-1.18163 -1.75097,-1.18164 -0.78061,10e-6 -1.35352,0.38673 -1.71875,1.16015 -0.36524,0.76629 -0.55502,1.92645 -0.56934,3.48047 l 0,3.22266 c 0,1.64714 0.18977,2.88607 0.56934,3.7168 0.37955,0.82357 0.95963,1.23535 1.74023,1.23535 0.77343,0 1.34277,-0.3903 1.70801,-1.1709 0.36522,-0.7806 0.555,-1.97298 0.56933,-3.57715 l 0,-3.2334"
         style=""
         id="path3398" />
      <path
         d="m 626.771,361.21844 0,-10.08691 -1.51465,0 0,-1.53613 1.51465,0 0,-1.34278 c 0.0215,-1.18162 0.31868,-2.10187 0.8916,-2.76074 0.58007,-0.666 1.39648,-0.999 2.44922,-0.99902 0.37955,2e-5 0.76269,0.0609 1.14941,0.18262 l -0.0967,1.61132 c -0.27214,-0.0644 -0.56218,-0.0967 -0.87012,-0.0967 -1.08138,2e-5 -1.62207,0.76988 -1.62207,2.30957 l 0,1.09571 1.98731,0 0,1.53613 -1.98731,0 0,10.08691 -1.90136,0"
         style=""
         id="path3400" />
      <path
         d="m 635.16064,352.43134 1.21387,0 c 0.78059,0 1.38216,-0.2399 1.80469,-0.71973 0.42252,-0.47981 0.63378,-1.13508 0.63379,-1.96582 -10e-6,-1.83332 -0.70899,-2.74999 -2.12695,-2.75 -0.68035,10e-6 -1.21388,0.24708 -1.60059,0.74121 -0.38672,0.49415 -0.58008,1.14226 -0.58008,1.94434 l -1.89062,0 c -10e-6,-1.25325 0.37955,-2.2845 1.13867,-3.09375 0.76627,-0.8164 1.74381,-1.2246 2.93262,-1.22461 1.23176,1e-5 2.2093,0.38673 2.93261,1.16015 0.7233,0.76629 1.08495,1.85483 1.08496,3.26563 -10e-6,0.72332 -0.18978,1.40007 -0.56933,2.03027 -0.37241,0.62306 -0.85939,1.08139 -1.46094,1.375 1.47525,0.54428 2.21288,1.76531 2.21289,3.66309 -10e-6,1.39648 -0.39031,2.51009 -1.1709,3.34082 -0.77344,0.82356 -1.78679,1.23535 -3.04004,1.23535 -1.23893,0 -2.24154,-0.3903 -3.00781,-1.1709 -0.75912,-0.78776 -1.13867,-1.84407 -1.13867,-3.16895 l 1.90137,0 c -10e-6,0.83074 0.20051,1.49317 0.60156,1.98731 0.40104,0.48698 0.94889,0.73047 1.64355,0.73047 0.70898,0 1.27116,-0.23991 1.68653,-0.71973 0.42252,-0.47981 0.63378,-1.21028 0.63379,-2.1914 -1e-5,-1.89778 -0.89877,-2.84668 -2.69629,-2.84668 l -1.13868,0 0,-1.62207"
         style=""
         id="path3402" />
      <path
         d="m 647.92236,361.43329 c -1.44662,0 -2.55664,-0.42969 -3.33007,-1.28906 -0.77344,-0.86654 -1.16732,-2.13412 -1.18165,-3.80274 l 0,-1.40722 c 0,-1.73307 0.37598,-3.09016 1.12793,-4.07129 0.75912,-0.98827 1.81543,-1.48241 3.16895,-1.48243 1.36067,2e-5 2.3776,0.43328 3.05078,1.29981 0.67317,0.86655 1.01692,2.21648 1.03125,4.0498 l 0,1.2461 -6.48828,0 0,0.26855 c 0,1.2461 0.23274,2.15202 0.69824,2.71778 0.47265,0.56575 1.14941,0.84863 2.03028,0.84863 0.55858,0 1.04914,-0.10384 1.47167,-0.31153 0.42968,-0.21484 0.83073,-0.55143 1.20313,-1.00976 l 0.98828,1.20312 c -0.82358,1.16016 -2.08041,1.74024 -3.77051,1.74024 m -0.21484,-10.41992 c -0.78777,10e-6 -1.37142,0.27214 -1.75098,0.8164 -0.37956,0.53712 -0.5944,1.37501 -0.64453,2.51367 l 4.57617,0 0,-0.25781 c -0.0501,-1.10285 -0.25065,-1.89061 -0.60156,-2.36328 -0.34376,-0.47265 -0.87012,-0.70897 -1.5791,-0.70898"
         style=""
         id="path3404" />
      <path
         d="m 654.91553,361.21844 0,-10.08691 -1.51465,0 0,-1.53613 1.51465,0 0,-1.34278 c 0.0215,-1.18162 0.31868,-2.10187 0.8916,-2.76074 0.58007,-0.666 1.39648,-0.999 2.44922,-0.99902 0.37955,2e-5 0.76269,0.0609 1.14941,0.18262 l -0.0967,1.61132 c -0.27214,-0.0644 -0.56218,-0.0967 -0.87012,-0.0967 -1.08138,2e-5 -1.62207,0.76988 -1.62207,2.30957 l 0,1.09571 1.98731,0 0,1.53613 -1.98731,0 0,10.08691 -1.90136,0"
         style=""
         id="path3406" />
      <path
         d="m 661.87646,361.21844 0,-10.08691 -1.51464,0 0,-1.53613 1.51464,0 0,-1.34278 c 0.0215,-1.18162 0.31869,-2.10187 0.89161,-2.76074 0.58007,-0.666 1.39648,-0.999 2.44922,-0.99902 0.37955,2e-5 0.76268,0.0609 1.14941,0.18262 l -0.0967,1.61132 c -0.27214,-0.0644 -0.56218,-0.0967 -0.87012,-0.0967 -1.08138,2e-5 -1.62207,0.76988 -1.62207,2.30957 l 0,1.09571 1.98731,0 0,1.53613 -1.98731,0 0,10.08691 -1.90137,0"
         style=""
         id="path3408" />
    </g>
    <path
       sodipodi:nodetypes="cc"
       inkscape:connector-curvature="0"
       inkscape:connector-type="polyline"
       id="path4749-8"
       d="m 578.67627,352.9523 -71.35249,0"
       style="fill:none;stroke:#666666;stroke-width:5;stroke-linecap:butt;stroke-linejoin:miter;stroke-miterlimit:4;stroke-opacity:1;stroke-dasharray:none;marker-end:url(#Arrow1SendV);display:inline"
       inkscape:connection-end="#rect4727"
       inkscape:connection-end-point="d4"
       inkscape:connection-start="#rect5481"
       inkscape:connection-start-point="d4" />
  </g>
</svg>
