<?xml version="1.0" encoding="UTF-8" standalone="no"?>
<!-- Created with Inkscape (http://www.inkscape.org/) -->

<svg
   xmlns:dc="http://purl.org/dc/elements/1.1/"
   xmlns:cc="http://creativecommons.org/ns#"
   xmlns:rdf="http://www.w3.org/1999/02/22-rdf-syntax-ns#"
   xmlns:svg="http://www.w3.org/2000/svg"
   xmlns="http://www.w3.org/2000/svg"
   xmlns:sodipodi="http://sodipodi.sourceforge.net/DTD/sodipodi-0.dtd"
   xmlns:inkscape="http://www.inkscape.org/namespaces/inkscape"
   width="702.625"
   height="234.5"
   id="svg2"
   version="1.1"
   inkscape:version="0.48.4 r9939"
   sodipodi:docname="merge-01.svg">
  <sodipodi:namedview
     id="base"
     pagecolor="#ffffff"
     bordercolor="#666666"
     borderopacity="1.0"
     inkscape:pageopacity="0.0"
     inkscape:pageshadow="2"
     inkscape:zoom="1"
     inkscape:cx="556.64968"
     inkscape:cy="-9.0823068"
     inkscape:document-units="px"
     inkscape:current-layer="layer1"
     showgrid="false"
     inkscape:window-width="1366"
     inkscape:window-height="744"
     inkscape:window-x="0"
     inkscape:window-y="24"
     inkscape:window-maximized="1"
     fit-margin-top="0"
     fit-margin-left="0"
     fit-margin-right="0"
     fit-margin-bottom="0"
     inkscape:snap-bbox="true"
     inkscape:bbox-paths="true"
     showguides="true"
     inkscape:guide-bbox="true"
     inkscape:bbox-nodes="true"
     inkscape:snap-global="false" />
  <defs
     id="defs4">
    <marker
       inkscape:stockid="Arrow1Mend"
       orient="auto"
       refY="0"
       refX="0"
       id="Arrow1Mend"
       style="overflow:visible">
      <path
         inkscape:connector-curvature="0"
         id="path3869"
         d="M 0,0 5,-5 -12.5,0 5,5 0,0 z"
         style="fill-rule:evenodd;stroke:#000000;stroke-width:1pt"
         transform="matrix(-0.4,0,0,-0.4,-4,0)" />
    </marker>
    <marker
       inkscape:stockid="Arrow1SendXj"
       orient="auto"
       refY="0"
       refX="0"
       id="Arrow1SendXj"
       style="overflow:visible">
      <path
         inkscape:connector-curvature="0"
         id="path5637"
         d="M 0,0 5,-5 -12.5,0 5,5 0,0 z"
         style="fill:#666666;fill-rule:evenodd;stroke:#666666;stroke-width:1pt"
         transform="matrix(-0.2,0,0,-0.2,-1.2,0)" />
    </marker>
    <marker
       inkscape:stockid="Arrow1SendX"
       orient="auto"
       refY="0"
       refX="0"
       id="Arrow1SendX"
       style="overflow:visible">
      <path
         inkscape:connector-curvature="0"
         id="path5634"
         d="M 0,0 5,-5 -12.5,0 5,5 0,0 z"
         style="fill:#666666;fill-rule:evenodd;stroke:#666666;stroke-width:1pt"
         transform="matrix(-0.2,0,0,-0.2,-1.2,0)" />
    </marker>
    <marker
       inkscape:stockid="Arrow1SendV"
       orient="auto"
       refY="0"
       refX="0"
       id="Arrow1SendV"
       style="overflow:visible">
      <path
         inkscape:connector-curvature="0"
         id="path5631"
         d="M 0,0 5,-5 -12.5,0 5,5 0,0 z"
         style="fill:#666666;fill-rule:evenodd;stroke:#666666;stroke-width:1pt"
         transform="matrix(-0.2,0,0,-0.2,-1.2,0)" />
    </marker>
    <marker
       inkscape:stockid="Arrow1Send"
       orient="auto"
       refY="0"
       refX="0"
       id="Arrow1Send"
       style="overflow:visible">
      <path
         inkscape:connector-curvature="0"
         id="path4825"
         d="M 0,0 5,-5 -12.5,0 5,5 0,0 z"
         style="fill-rule:evenodd;stroke:#000000;stroke-width:1pt"
         transform="matrix(-0.2,0,0,-0.2,-1.2,0)" />
    </marker>
    <marker
       inkscape:stockid="Arrow1SendV"
       orient="auto"
       refY="0"
       refX="0"
       id="Arrow1SendV-0"
       style="overflow:visible">
      <path
         inkscape:connector-curvature="0"
         id="path5631-5"
         d="M 0,0 5,-5 -12.5,0 5,5 0,0 z"
         style="fill:#666666;fill-rule:evenodd;stroke:#666666;stroke-width:1pt"
         transform="matrix(-0.2,0,0,-0.2,-1.2,0)" />
    </marker>
    <marker
       inkscape:stockid="Arrow1Sendf"
       orient="auto"
       refY="0"
       refX="0"
       id="Arrow1Sendf"
       style="overflow:visible">
      <path
         inkscape:connector-curvature="0"
         id="path4517"
         d="M 0,0 5,-5 -12.5,0 5,5 0,0 z"
         style="fill:#4d4d4d;fill-rule:evenodd;stroke:#4d4d4d;stroke-width:1pt"
         transform="matrix(-0.2,0,0,-0.2,-1.2,0)" />
    </marker>
    <marker
       inkscape:stockid="Arrow1SendfE"
       orient="auto"
       refY="0"
       refX="0"
       id="Arrow1SendfE"
       style="overflow:visible">
      <path
         inkscape:connector-curvature="0"
         id="path4775"
         d="M 0,0 5,-5 -12.5,0 5,5 0,0 z"
         style="fill:#5098ff;fill-rule:evenodd;stroke:#5098ff;stroke-width:1pt"
         transform="matrix(-0.2,0,0,-0.2,-1.2,0)" />
    </marker>
    <marker
       inkscape:stockid="Arrow1Sendfz"
       orient="auto"
       refY="0"
       refX="0"
       id="Arrow1Sendfz"
       style="overflow:visible">
      <path
         inkscape:connector-curvature="0"
         id="path4948"
         d="M 0,0 5,-5 -12.5,0 5,5 0,0 z"
         style="fill:#5099ff;fill-rule:evenodd;stroke:#5099ff;stroke-width:1pt"
         transform="matrix(-0.2,0,0,-0.2,-1.2,0)" />
    </marker>
    <marker
       inkscape:stockid="Arrow1SendfE"
       orient="auto"
       refY="0"
       refX="0"
       id="Arrow1SendfE-7"
       style="overflow:visible">
      <path
         inkscape:connector-curvature="0"
         id="path4775-3"
         d="M 0,0 5,-5 -12.5,0 5,5 0,0 z"
         style="fill:#5098ff;fill-rule:evenodd;stroke:#5098ff;stroke-width:1pt"
         transform="matrix(-0.2,0,0,-0.2,-1.2,0)" />
    </marker>
    <marker
       inkscape:stockid="Arrow1SendV"
       orient="auto"
       refY="0"
       refX="0"
       id="Arrow1SendV-3"
       style="overflow:visible">
      <path
         inkscape:connector-curvature="0"
         id="path5631-7"
         d="M 0,0 5,-5 -12.5,0 5,5 0,0 z"
         style="fill:#666666;fill-rule:evenodd;stroke:#666666;stroke-width:1pt"
         transform="matrix(-0.2,0,0,-0.2,-1.2,0)" />
    </marker>
    <marker
       inkscape:stockid="Arrow1SendV"
       orient="auto"
       refY="0"
       refX="0"
       id="marker5117"
       style="overflow:visible">
      <path
         inkscape:connector-curvature="0"
         id="path5119"
         d="M 0,0 5,-5 -12.5,0 5,5 0,0 z"
         style="fill:#666666;fill-rule:evenodd;stroke:#666666;stroke-width:1pt"
         transform="matrix(-0.2,0,0,-0.2,-1.2,0)" />
    </marker>
    <marker
       inkscape:stockid="Arrow1SendV"
       orient="auto"
       refY="0"
       refX="0"
       id="marker5121"
       style="overflow:visible">
      <path
         inkscape:connector-curvature="0"
         id="path5123"
         d="M 0,0 5,-5 -12.5,0 5,5 0,0 z"
         style="fill:#666666;fill-rule:evenodd;stroke:#666666;stroke-width:1pt"
         transform="matrix(-0.2,0,0,-0.2,-1.2,0)" />
    </marker>
    <marker
       inkscape:stockid="Arrow1SendV"
       orient="auto"
       refY="0"
       refX="0"
       id="marker5125"
       style="overflow:visible">
      <path
         inkscape:connector-curvature="0"
         id="path5127"
         d="M 0,0 5,-5 -12.5,0 5,5 0,0 z"
         style="fill:#666666;fill-rule:evenodd;stroke:#666666;stroke-width:1pt"
         transform="matrix(-0.2,0,0,-0.2,-1.2,0)" />
    </marker>
    <marker
       inkscape:stockid="Arrow1SendV"
       orient="auto"
       refY="0"
       refX="0"
       id="marker5129"
       style="overflow:visible">
      <path
         inkscape:connector-curvature="0"
         id="path5131"
         d="M 0,0 5,-5 -12.5,0 5,5 0,0 z"
         style="fill:#666666;fill-rule:evenodd;stroke:#666666;stroke-width:1pt"
         transform="matrix(-0.2,0,0,-0.2,-1.2,0)" />
    </marker>
    <marker
       inkscape:stockid="Arrow1SendV"
       orient="auto"
       refY="0"
       refX="0"
       id="marker5133"
       style="overflow:visible">
      <path
         inkscape:connector-curvature="0"
         id="path5135"
         d="M 0,0 5,-5 -12.5,0 5,5 0,0 z"
         style="fill:#666666;fill-rule:evenodd;stroke:#666666;stroke-width:1pt"
         transform="matrix(-0.2,0,0,-0.2,-1.2,0)" />
    </marker>
    <marker
       inkscape:stockid="Arrow1SendV"
       orient="auto"
       refY="0"
       refX="0"
       id="marker5137"
       style="overflow:visible">
      <path
         inkscape:connector-curvature="0"
         id="path5139"
         d="M 0,0 5,-5 -12.5,0 5,5 0,0 z"
         style="fill:#666666;fill-rule:evenodd;stroke:#666666;stroke-width:1pt"
         transform="matrix(-0.2,0,0,-0.2,-1.2,0)" />
    </marker>
    <marker
       inkscape:stockid="Arrow1SendV"
       orient="auto"
       refY="0"
       refX="0"
       id="Arrow1SendV-03"
       style="overflow:visible">
      <path
         inkscape:connector-curvature="0"
         id="path5631-4"
         d="M 0,0 5,-5 -12.5,0 5,5 0,0 z"
         style="fill:#666666;fill-rule:evenodd;stroke:#666666;stroke-width:1pt"
         transform="matrix(-0.2,0,0,-0.2,-1.2,0)" />
    </marker>
    <marker
       inkscape:stockid="Arrow1SendV"
       orient="auto"
       refY="0"
       refX="0"
       id="Arrow1SendV-8"
       style="overflow:visible">
      <path
         inkscape:connector-curvature="0"
         id="path5631-2"
         d="M 0,0 5,-5 -12.5,0 5,5 0,0 z"
         style="fill:#666666;fill-rule:evenodd;stroke:#666666;stroke-width:1pt"
         transform="matrix(-0.2,0,0,-0.2,-1.2,0)" />
    </marker>
    <marker
       inkscape:stockid="Arrow1SendV"
       orient="auto"
       refY="0"
       refX="0"
       id="Arrow1SendV-5"
       style="overflow:visible">
      <path
         inkscape:connector-curvature="0"
         id="path5631-29"
         d="M 0,0 5,-5 -12.5,0 5,5 0,0 z"
         style="fill:#666666;fill-rule:evenodd;stroke:#666666;stroke-width:1pt"
         transform="matrix(-0.2,0,0,-0.2,-1.2,0)" />
    </marker>
    <marker
       inkscape:stockid="Arrow1SendV"
       orient="auto"
       refY="0"
       refX="0"
       id="Arrow1SendV-4"
       style="overflow:visible">
      <path
         inkscape:connector-curvature="0"
         id="path5631-20"
         d="M 0,0 5,-5 -12.5,0 5,5 0,0 z"
         style="fill:#666666;fill-rule:evenodd;stroke:#666666;stroke-width:1pt"
         transform="matrix(-0.2,0,0,-0.2,-1.2,0)" />
    </marker>
    <marker
       inkscape:stockid="Arrow1SendVr"
       orient="auto"
       refY="0"
       refX="0"
       id="Arrow1SendVr"
       style="overflow:visible">
      <path
         inkscape:connector-curvature="0"
         id="path4101"
         d="M 0,0 5,-5 -12.5,0 5,5 0,0 z"
         style="fill:#6262ff;fill-rule:evenodd;stroke:#6262ff;stroke-width:1pt"
         transform="matrix(-0.2,0,0,-0.2,-1.2,0)" />
    </marker>
  </defs>
  <metadata
     id="metadata7">
    <rdf:RDF>
      <cc:Work
         rdf:about="">
        <dc:format>image/svg+xml</dc:format>
        <dc:type
           rdf:resource="http://purl.org/dc/dcmitype/StillImage" />
        <dc:title />
      </cc:Work>
    </rdf:RDF>
  </metadata>
  <g
     transform="translate(-0.6875,-45.6875)"
     inkscape:label="Layer 1"
     inkscape:groupmode="layer"
     id="layer1">
    <path
       inkscape:connector-curvature="0"
       id="rect4673"
       d="m 389.67627,229.73199 112.64751,0 c 2.77,0 5,2.23 5,5 l 0,38.44062 c 0,2.77 -2.23,5 -5,5 l -112.64751,0 c -2.77,0 -5,-2.23 -5,-5 l 0,-38.44062 c 0,-2.77 2.23,-5 5,-5 z"
       style="fill:#999999;fill-opacity:1;stroke:#808080;stroke-width:4;stroke-miterlimit:4;stroke-opacity:0.97254902" />
    <path
       inkscape:connector-curvature="0"
       id="rect4665"
       d="m 7.6762695,229.73199 112.6475105,0 c 2.77,0 5,2.23 5,5 l 0,38.44062 c 0,2.77 -2.23,5 -5,5 l -112.6475105,0 c -2.77,0 -5,-2.23 -5,-5 l 0,-38.44062 c 0,-2.77 2.23,-5 5,-5 z"
       style="fill:#999999;fill-opacity:1;stroke:#808080;stroke-width:4;stroke-miterlimit:4;stroke-opacity:0.97254902" />
    <g
       id="text4667"
       style="font-size:22px;font-style:normal;font-variant:normal;font-weight:normal;font-stretch:condensed;text-align:center;line-height:125%;letter-spacing:0px;word-spacing:0px;writing-mode:lr-tb;text-anchor:middle;fill:#ffffff;fill-opacity:1;stroke:none;font-family:Roboto Condensed;-inkscape-font-specification:'Roboto Condensed, Condensed'">
      <path
         inkscape:connector-curvature="0"
         id="path3259"
         d="m 44.594238,255.5368 c -0.759121,0.96681 -1.647141,1.4502 -2.664062,1.4502 -1.138676,0 -2.044599,-0.47981 -2.717774,-1.43945 -0.673178,-0.95963 -1.009766,-2.21647 -1.009765,-3.77051 -1e-6,-1.6328 0.365233,-2.94335 1.095703,-3.93164 0.737627,-0.98827 1.74023,-1.48241 3.007812,-1.48242 1.317702,1e-5 2.34537,0.57293 3.083008,1.71875 0.744783,1.13868 1.117178,2.71778 1.117188,4.7373 l 0,0.59082 c -1e-5,1.73308 -0.132497,3.13673 -0.397461,4.21094 -0.257822,1.07422 -0.640959,1.94076 -1.149414,2.59961 -0.508471,0.65885 -1.156583,1.16016 -1.944336,1.5039 -0.787766,0.33659 -1.772465,0.50489 -2.954102,0.50489 l 0,-1.67578 0.333008,0 c 1.346349,-0.0286 2.366856,-0.43685 3.061523,-1.22461 0.701816,-0.79492 1.081373,-2.05892 1.138672,-3.792 m -2.341797,-0.19336 c 0.458328,1e-5 0.905919,-0.18977 1.342774,-0.56933 0.436842,-0.38671 0.777011,-0.89159 1.020508,-1.51465 l 0,-0.83789 c -8e-6,-1.29621 -0.225594,-2.35253 -0.676758,-3.16895 -0.451178,-0.82355 -0.995449,-1.23533 -1.632813,-1.23535 -0.687504,2e-5 -1.235355,0.34019 -1.643554,1.02051 -0.401045,0.67319 -0.601566,1.55047 -0.601563,2.63184 -3e-6,1.08139 0.196937,1.96583 0.59082,2.65332 0.393877,0.68034 0.927405,1.02051 1.600586,1.0205" />
      <path
         inkscape:connector-curvature="0"
         id="path3261"
         d="m 55.830566,246.56708 0,1.68652 -0.311523,0 c -1.267584,0.0287 -2.259445,0.45835 -2.975586,1.28906 -0.71615,0.82358 -1.127933,2.06609 -1.235352,3.72754 0.694658,-0.87369 1.582678,-1.31053 2.664063,-1.31054 1.152988,10e-6 2.066073,0.47624 2.739258,1.42871 0.680329,0.94532 1.020498,2.18783 1.020508,3.72754 -1e-5,1.63997 -0.375986,2.9362 -1.12793,3.88867 -0.7448,0.95247 -1.747403,1.42871 -3.007813,1.42871 -1.267582,0 -2.288089,-0.56218 -3.061523,-1.68652 -0.773439,-1.12435 -1.160158,-2.61751 -1.160156,-4.4795 l 0,-0.76269 c -2e-6,-2.14843 0.232745,-3.86002 0.698242,-5.13477 0.465492,-1.27472 1.149411,-2.22004 2.051758,-2.83594 0.9095,-0.62303 2.037428,-0.94529 3.383789,-0.96679 l 0.322265,0 m -2.180664,7.04687 c -0.51563,1e-5 -0.991866,0.19695 -1.428711,0.59082 -0.436852,0.39389 -0.751956,0.89519 -0.945312,1.50391 l 0,0.78418 c -3e-6,1.26758 0.222002,2.30241 0.666016,3.10449 0.451167,0.79492 1.002599,1.19239 1.654296,1.19238 0.708978,10e-6 1.263991,-0.32584 1.665039,-0.97754 0.401034,-0.65885 0.601555,-1.52538 0.601563,-2.5996 -8e-6,-1.05989 -0.200529,-1.92285 -0.601563,-2.58887 -0.401048,-0.67317 -0.938157,-1.00976 -1.611328,-1.00977" />
      <path
         inkscape:connector-curvature="0"
         id="path3263"
         d="m 59.848145,255.88055 c -1e-6,-1.79035 0.333006,-3.15461 0.999023,-4.09277 0.673174,-0.93814 1.63639,-1.40721 2.889648,-1.40723 1.11002,2e-5 1.976556,0.45119 2.59961,1.35352 l 0,-6.01563 1.901367,0 0,16.5 -1.740234,0 -0.09668,-1.24609 c -0.623054,0.97396 -1.514655,1.46094 -2.674805,1.46094 -1.203128,0 -2.14844,-0.4655 -2.835937,-1.39649 -0.68034,-0.93814 -1.027671,-2.25943 -1.041992,-3.96386 l 0,-1.19239 m 1.901367,1.08497 c -3e-6,1.30338 0.193356,2.26302 0.580078,2.8789 0.386715,0.60873 1.016922,0.91309 1.890625,0.91309 0.945306,0 1.650709,-0.47624 2.116211,-1.42871 l 0,-5.86524 c -0.486986,-0.93098 -1.188809,-1.39647 -2.105469,-1.39648 -0.873702,1e-5 -1.50391,0.30795 -1.890625,0.92383 -0.386722,0.60873 -0.583662,1.54688 -0.59082,2.81445 l 0,1.16016" />
      <path
         inkscape:connector-curvature="0"
         id="path3265"
         d="m 77.143066,262.21844 c -0.11459,-0.25065 -0.196947,-0.67317 -0.24707,-1.26757 -0.673183,0.98828 -1.532558,1.48242 -2.578125,1.48242 -1.052738,0 -1.876305,-0.29362 -2.470703,-0.88086 -0.587241,-0.5944 -0.880861,-1.42871 -0.880859,-2.50293 -2e-6,-1.18164 0.40104,-2.11979 1.203125,-2.81445 0.80208,-0.69466 1.901362,-1.04915 3.297851,-1.06348 l 1.396485,0 0,-1.23535 c -8e-6,-0.69465 -0.153979,-1.18879 -0.461915,-1.48242 -0.307949,-0.29361 -0.777024,-0.44042 -1.407226,-0.44043 -0.572921,1e-5 -1.038416,0.17188 -1.396484,0.51562 -0.358077,0.3366 -0.537113,0.76629 -0.53711,1.28906 l -1.901367,0 c -10e-7,-0.59439 0.175454,-1.16014 0.526367,-1.69726 0.350909,-0.54426 0.823565,-0.97037 1.417969,-1.27832 0.594397,-0.30793 1.256831,-0.4619 1.987305,-0.46192 1.188795,2e-5 2.091138,0.29722 2.707031,0.89161 0.623038,0.58725 0.941723,1.44662 0.956055,2.57812 l 0,5.86524 c 0.0072,0.89518 0.128897,1.6722 0.365234,2.33105 l 0,0.17187 -1.976563,0 M 74.60791,260.7038 c 0.46549,0 0.9095,-0.12891 1.332031,-0.38672 0.42252,-0.25781 0.730462,-0.58008 0.923829,-0.9668 l 0,-2.77148 -1.074219,0 c -0.902349,0.0143 -1.614914,0.21843 -2.137696,0.6123 -0.522789,0.38672 -0.784182,0.93099 -0.784179,1.63281 -3e-6,0.65886 0.132484,1.13868 0.397461,1.43946 0.26497,0.29362 0.712561,0.44043 1.342773,0.44043" />
      <path
         inkscape:connector-curvature="0"
         id="path3267"
         d="m 89.883301,255.54755 c -1e-5,2.30599 -0.336598,4.0319 -1.009766,5.17773 -0.673185,1.13867 -1.729499,1.70801 -3.168945,1.70801 -1.396489,0 -2.43848,-0.54785 -3.125977,-1.64356 -0.687501,-1.0957 -1.045574,-2.74283 -1.074218,-4.9414 l 0,-2.68555 c -2e-6,-2.28449 0.336587,-3.98892 1.009765,-5.11328 0.680336,-1.12433 1.73665,-1.68651 3.168945,-1.68652 1.410801,1e-5 2.452792,0.53354 3.125977,1.60058 0.680329,1.06707 1.038402,2.68198 1.074219,4.84473 l 0,2.73926 m -1.901367,-2.71778 c -8e-6,-1.65428 -0.182625,-2.87173 -0.547852,-3.65234 -0.365241,-0.78775 -0.948899,-1.18163 -1.750977,-1.18164 -0.780603,1e-5 -1.353519,0.38673 -1.71875,1.16015 -0.365237,0.76629 -0.555016,1.92645 -0.569335,3.48047 l 0,3.22266 c -4e-6,1.64714 0.189775,2.88607 0.569335,3.7168 0.379554,0.82357 0.959631,1.23535 1.740235,1.23535 0.773431,0 1.342767,-0.3903 1.708008,-1.1709 0.365227,-0.7806 0.555005,-1.97298 0.569336,-3.57715 l 0,-3.2334" />
    </g>
    <path
       inkscape:connector-curvature="0"
       id="rect4671"
       d="m 198.67627,229.73199 112.64751,0 c 2.77,0 5,2.23 5,5 l 0,38.44062 c 0,2.77 -2.23,5 -5,5 l -112.64751,0 c -2.77,0 -5,-2.23 -5,-5 l 0,-38.44062 c 0,-2.77 2.23,-5 5,-5 z"
       style="fill:#999999;fill-opacity:1;stroke:#808080;stroke-width:4;stroke-miterlimit:4;stroke-opacity:0.97254902" />
    <g
       id="text4675"
       style="font-size:22px;font-style:normal;font-variant:normal;font-weight:normal;font-stretch:condensed;text-align:center;line-height:125%;letter-spacing:0px;word-spacing:0px;writing-mode:lr-tb;text-anchor:middle;fill:#ffffff;fill-opacity:1;stroke:none;font-family:Roboto Condensed;-inkscape-font-specification:'Roboto Condensed, Condensed'">
      <path
         inkscape:connector-curvature="0"
         id="path3272"
         d="m 232.38232,262.21844 0,-10.08691 -1.51464,0 0,-1.53613 1.51464,0 0,-1.34278 c 0.0215,-1.18162 0.31869,-2.10187 0.89161,-2.76074 0.58007,-0.666 1.39648,-0.999 2.44921,-0.99902 0.37956,2e-5 0.76269,0.0609 1.14942,0.18262 l -0.0967,1.61132 c -0.27214,-0.0644 -0.56218,-0.0967 -0.87012,-0.0967 -1.08138,2e-5 -1.62207,0.76988 -1.62207,2.30957 l 0,1.09571 1.98731,0 0,1.53613 -1.98731,0 0,10.08691 -1.90137,0" />
      <path
         inkscape:connector-curvature="0"
         id="path3274"
         d="m 246.70166,255.54755 c -1e-5,2.30599 -0.3366,4.0319 -1.00977,5.17773 -0.67318,1.13867 -1.72949,1.70801 -3.16894,1.70801 -1.39649,0 -2.43848,-0.54785 -3.12598,-1.64356 -0.6875,-1.0957 -1.04557,-2.74283 -1.07422,-4.9414 l 0,-2.68555 c 0,-2.28449 0.33659,-3.98892 1.00977,-5.11328 0.68034,-1.12433 1.73665,-1.68651 3.16894,-1.68652 1.41081,1e-5 2.4528,0.53354 3.12598,1.60058 0.68033,1.06707 1.0384,2.68198 1.07422,4.84473 l 0,2.73926 m -1.90137,-2.71778 c 0,-1.65428 -0.18262,-2.87173 -0.54785,-3.65234 -0.36524,-0.78775 -0.9489,-1.18163 -1.75098,-1.18164 -0.7806,1e-5 -1.35351,0.38673 -1.71875,1.16015 -0.36523,0.76629 -0.55501,1.92645 -0.56933,3.48047 l 0,3.22266 c 0,1.64714 0.18977,2.88607 0.56933,3.7168 0.37956,0.82357 0.95964,1.23535 1.74024,1.23535 0.77343,0 1.34277,-0.3903 1.70801,-1.1709 0.36522,-0.7806 0.555,-1.97298 0.56933,-3.57715 l 0,-3.2334" />
      <path
         inkscape:connector-curvature="0"
         id="path3276"
         d="m 248.979,255.88055 c 0,-1.79035 0.33301,-3.15461 0.99903,-4.09277 0.67317,-0.93814 1.63639,-1.40721 2.88965,-1.40723 1.11002,2e-5 1.97655,0.45119 2.59961,1.35352 l 0,-6.01563 1.90136,0 0,16.5 -1.74023,0 -0.0967,-1.24609 c -0.62306,0.97396 -1.51466,1.46094 -2.67481,1.46094 -1.20313,0 -2.14844,-0.4655 -2.83593,-1.39649 -0.68034,-0.93814 -1.02767,-2.25943 -1.042,-3.96386 l 0,-1.19239 m 1.90137,1.08497 c 0,1.30338 0.19336,2.26302 0.58008,2.8789 0.38671,0.60873 1.01692,0.91309 1.89062,0.91309 0.94531,0 1.65071,-0.47624 2.11622,-1.42871 l 0,-5.86524 c -0.48699,-0.93098 -1.18881,-1.39647 -2.10547,-1.39648 -0.87371,1e-5 -1.50391,0.30795 -1.89063,0.92383 -0.38672,0.60873 -0.58366,1.54688 -0.59082,2.81445 l 0,1.16016" />
      <path
         inkscape:connector-curvature="0"
         id="path3278"
         d="m 259.89307,255.88055 c 0,-1.79035 0.333,-3.15461 0.99902,-4.09277 0.67317,-0.93814 1.63639,-1.40721 2.88965,-1.40723 1.11002,2e-5 1.97655,0.45119 2.59961,1.35352 l 0,-6.01563 1.90136,0 0,16.5 -1.74023,0 -0.0967,-1.24609 c -0.62305,0.97396 -1.51465,1.46094 -2.6748,1.46094 -1.20313,0 -2.14844,-0.4655 -2.83594,-1.39649 -0.68034,-0.93814 -1.02767,-2.25943 -1.04199,-3.96386 l 0,-1.19239 m 1.90136,1.08497 c 0,1.30338 0.19336,2.26302 0.58008,2.8789 0.38672,0.60873 1.01692,0.91309 1.89063,0.91309 0.9453,0 1.65071,-0.47624 2.11621,-1.42871 l 0,-5.86524 c -0.48699,-0.93098 -1.18881,-1.39647 -2.10547,-1.39648 -0.8737,1e-5 -1.50391,0.30795 -1.89063,0.92383 -0.38672,0.60873 -0.58366,1.54688 -0.59082,2.81445 l 0,1.16016" />
      <path
         inkscape:connector-curvature="0"
         id="path3280"
         d="m 275.36182,262.43329 c -1.44662,0 -2.55665,-0.42969 -3.33008,-1.28906 -0.77344,-0.86654 -1.16732,-2.13412 -1.18164,-3.80274 l 0,-1.40722 c 0,-1.73307 0.37597,-3.09016 1.12793,-4.07129 0.75911,-0.98827 1.81542,-1.48241 3.16894,-1.48243 1.36067,2e-5 2.3776,0.43328 3.05078,1.29981 0.67317,0.86655 1.01692,2.21648 1.03125,4.0498 l 0,1.2461 -6.48828,0 0,0.26855 c 0,1.2461 0.23275,2.15202 0.69824,2.71778 0.47266,0.56575 1.14941,0.84863 2.03028,0.84863 0.55859,0 1.04915,-0.10384 1.47168,-0.31153 0.42968,-0.21484 0.83072,-0.55143 1.20312,-1.00976 l 0.98828,1.20312 c -0.82357,1.16016 -2.08041,1.74024 -3.7705,1.74024 m -0.21485,-10.41992 c -0.78776,1e-5 -1.37142,0.27214 -1.75097,0.8164 -0.37956,0.53712 -0.59441,1.37501 -0.64454,2.51367 l 4.57618,0 0,-0.25781 c -0.0501,-1.10285 -0.25066,-1.89061 -0.60157,-2.36328 -0.34375,-0.47265 -0.87012,-0.70897 -1.5791,-0.70898" />
    </g>
    <g
       id="text4679"
       style="font-size:22px;font-style:normal;font-variant:normal;font-weight:normal;font-stretch:condensed;text-align:center;line-height:125%;letter-spacing:0px;word-spacing:0px;writing-mode:lr-tb;text-anchor:middle;fill:#ffffff;fill-opacity:1;stroke:none;font-family:Roboto Condensed;-inkscape-font-specification:'Roboto Condensed, Condensed'">
      <path
         inkscape:connector-curvature="0"
         id="path3283"
         d="m 424.25244,255.88055 c 0,-1.79035 0.33301,-3.15461 0.99902,-4.09277 0.67318,-0.93814 1.63639,-1.40721 2.88965,-1.40723 1.11002,2e-5 1.97656,0.45119 2.59961,1.35352 l 0,-6.01563 1.90137,0 0,16.5 -1.74023,0 -0.0967,-1.24609 c -0.62306,0.97396 -1.51466,1.46094 -2.67481,1.46094 -1.20313,0 -2.14844,-0.4655 -2.83594,-1.39649 -0.68034,-0.93814 -1.02767,-2.25943 -1.04199,-3.96386 l 0,-1.19239 m 1.90137,1.08497 c 0,1.30338 0.19335,2.26302 0.58008,2.8789 0.38671,0.60873 1.01692,0.91309 1.89062,0.91309 0.94531,0 1.65071,-0.47624 2.11621,-1.42871 l 0,-5.86524 c -0.48698,-0.93098 -1.18881,-1.39647 -2.10547,-1.39648 -0.8737,1e-5 -1.50391,0.30795 -1.89062,0.92383 -0.38672,0.60873 -0.58366,1.54688 -0.59082,2.81445 l 0,1.16016" />
      <path
         inkscape:connector-curvature="0"
         id="path3285"
         d="m 441.65479,255.5368 c -0.75913,0.96681 -1.64715,1.4502 -2.66407,1.4502 -1.13867,0 -2.0446,-0.47981 -2.71777,-1.43945 -0.67318,-0.95963 -1.00977,-2.21647 -1.00977,-3.77051 0,-1.6328 0.36524,-2.94335 1.09571,-3.93164 0.73762,-0.98827 1.74023,-1.48241 3.00781,-1.48242 1.3177,1e-5 2.34537,0.57293 3.08301,1.71875 0.74478,1.13868 1.11718,2.71778 1.11718,4.7373 l 0,0.59082 c 0,1.73308 -0.13249,3.13673 -0.39746,4.21094 -0.25782,1.07422 -0.64096,1.94076 -1.14941,2.59961 -0.50847,0.65885 -1.15658,1.16016 -1.94434,1.5039 -0.78776,0.33659 -1.77246,0.50489 -2.9541,0.50489 l 0,-1.67578 0.33301,0 c 1.34635,-0.0286 2.36686,-0.43685 3.06152,-1.22461 0.70182,-0.79492 1.08138,-2.05892 1.13868,-3.792 m -2.3418,-0.19336 c 0.45833,1e-5 0.90592,-0.18977 1.34277,-0.56933 0.43684,-0.38671 0.77701,-0.89159 1.02051,-1.51465 l 0,-0.83789 c -10e-6,-1.29621 -0.22559,-2.35253 -0.67676,-3.16895 -0.45118,-0.82355 -0.99545,-1.23533 -1.63281,-1.23535 -0.68751,2e-5 -1.23536,0.34019 -1.64356,1.02051 -0.40104,0.67319 -0.60156,1.55047 -0.60156,2.63184 0,1.08139 0.19694,1.96583 0.59082,2.65332 0.39388,0.68034 0.92741,1.02051 1.60059,1.0205" />
      <path
         inkscape:connector-curvature="0"
         id="path3287"
         d="m 447.27295,262.21844 0,-10.08691 -1.51465,0 0,-1.53613 1.51465,0 0,-1.34278 c 0.0215,-1.18162 0.31868,-2.10187 0.8916,-2.76074 0.58008,-0.666 1.39648,-0.999 2.44922,-0.99902 0.37955,2e-5 0.76269,0.0609 1.14941,0.18262 l -0.0967,1.61132 c -0.27214,-0.0644 -0.56218,-0.0967 -0.87011,-0.0967 -1.08139,2e-5 -1.62208,0.76988 -1.62207,2.30957 l 0,1.09571 1.9873,0 0,1.53613 -1.9873,0 0,10.08691 -1.90137,0" />
      <path
         inkscape:connector-curvature="0"
         id="path3289"
         d="m 454.23389,262.21844 0,-10.08691 -1.51465,0 0,-1.53613 1.51465,0 0,-1.34278 c 0.0215,-1.18162 0.31868,-2.10187 0.8916,-2.76074 0.58007,-0.666 1.39648,-0.999 2.44922,-0.99902 0.37955,2e-5 0.76269,0.0609 1.14941,0.18262 l -0.0967,1.61132 c -0.27214,-0.0644 -0.56218,-0.0967 -0.87012,-0.0967 -1.08138,2e-5 -1.62207,0.76988 -1.62207,2.30957 l 0,1.09571 1.98731,0 0,1.53613 -1.98731,0 0,10.08691 -1.90136,0" />
      <path
         inkscape:connector-curvature="0"
         id="path3291"
         d="m 464.25635,262.43329 c -1.44662,0 -2.55665,-0.42969 -3.33008,-1.28906 -0.77344,-0.86654 -1.16732,-2.13412 -1.18164,-3.80274 l 0,-1.40722 c 0,-1.73307 0.37597,-3.09016 1.12793,-4.07129 0.75911,-0.98827 1.81542,-1.48241 3.16894,-1.48243 1.36067,2e-5 2.3776,0.43328 3.05079,1.29981 0.67316,0.86655 1.01691,2.21648 1.03125,4.0498 l 0,1.2461 -6.48829,0 0,0.26855 c 0,1.2461 0.23275,2.15202 0.69825,2.71778 0.47265,0.56575 1.14941,0.84863 2.03027,0.84863 0.55859,0 1.04915,-0.10384 1.47168,-0.31153 0.42968,-0.21484 0.83072,-0.55143 1.20312,-1.00976 l 0.98829,1.20312 c -0.82358,1.16016 -2.08042,1.74024 -3.77051,1.74024 m -0.21485,-10.41992 c -0.78776,1e-5 -1.37142,0.27214 -1.75097,0.8164 -0.37956,0.53712 -0.59441,1.37501 -0.64453,2.51367 l 4.57617,0 0,-0.25781 c -0.0501,-1.10285 -0.25066,-1.89061 -0.60156,-2.36328 -0.34376,-0.47265 -0.87013,-0.70897 -1.57911,-0.70898" />
    </g>
    <path
       inkscape:connection-start-point="d4"
       inkscape:connection-start="#rect4671"
       inkscape:connection-end-point="d4"
       inkscape:connection-end="#rect4665"
       sodipodi:nodetypes="cc"
       inkscape:connector-curvature="0"
       inkscape:connector-type="polyline"
       id="path4683"
       d="m 193.67627,253.93899 -68.35249,0"
       style="fill:none;stroke:#666666;stroke-width:5;stroke-linecap:butt;stroke-linejoin:miter;stroke-miterlimit:4;stroke-opacity:1;stroke-dasharray:none;marker-end:url(#Arrow1SendV);display:inline" />
    <path
       inkscape:connection-start-point="d4"
       inkscape:connection-start="#rect4673"
       inkscape:connection-end-point="d4"
       inkscape:connection-end="#rect4671"
       style="fill:none;stroke:#666666;stroke-width:5;stroke-linecap:butt;stroke-linejoin:miter;stroke-miterlimit:4;stroke-opacity:1;stroke-dasharray:none;marker-end:url(#Arrow1SendV);display:inline"
       d="m 384.67627,253.939 -68.35249,-1e-5"
       id="path4685"
       inkscape:connector-type="polyline"
       inkscape:connector-curvature="0"
       sodipodi:nodetypes="cc" />
    <path
       inkscape:connector-curvature="0"
       id="rect4727"
       d="m 389.67627,348.73199 112.64751,0 c 2.77,0 5,2.23 5,5 l 0,38.44062 c 0,2.77 -2.23,5 -5,5 l -112.64751,0 c -2.77,0 -5,-2.23 -5,-5 l 0,-38.44062 c 0,-2.77 2.23,-5 5,-5 z"
       style="fill:#999999;fill-opacity:1;stroke:#808080;stroke-width:4;stroke-miterlimit:4;stroke-opacity:0.97254902" />
    <g
       id="text4729"
       style="font-size:22px;font-style:normal;font-variant:normal;font-weight:normal;font-stretch:condensed;text-align:center;line-height:125%;letter-spacing:0px;word-spacing:0px;writing-mode:lr-tb;text-anchor:middle;fill:#ffffff;fill-opacity:1;stroke:none;font-family:Roboto Condensed;-inkscape-font-specification:'Roboto Condensed, Condensed'"
       transform="translate(0,20)">
      <path
         inkscape:connector-curvature="0"
         id="path3319"
         d="m 423.26416,353.37665 0.67676,-7.79883 6.7998,0 0,1.83691 -5.19922,0 -0.36523,4.26465 c 0.64453,-0.45116 1.33919,-0.67675 2.08398,-0.67676 1.21744,1e-5 2.1735,0.47267 2.86817,1.41797 0.69465,0.94532 1.04198,2.21648 1.04199,3.81348 -1e-5,1.61849 -0.37957,2.88965 -1.13867,3.81348 -0.75196,0.92382 -1.78679,1.38574 -3.10449,1.38574 -1.17449,0 -2.13054,-0.38314 -2.86817,-1.14942 -0.73763,-0.76627 -1.16016,-1.82616 -1.26758,-3.17968 l 1.78321,0 c 0.10742,0.89518 0.36165,1.57194 0.76269,2.03027 0.4082,0.45117 0.93815,0.67676 1.58985,0.67676 0.73762,0 1.31412,-0.31868 1.72949,-0.95606 0.41536,-0.64452 0.62304,-1.51106 0.62305,-2.59961 -10e-6,-1.02408 -0.2256,-1.85839 -0.67676,-2.50293 -0.44402,-0.64452 -1.04558,-0.96678 -1.80469,-0.96679 -0.63021,1e-5 -1.1351,0.16472 -1.51465,0.49414 l -0.50488,0.50488 -1.51465,-0.4082" />
      <path
         inkscape:connector-curvature="0"
         id="path3321"
         d="m 434.13525,353.37665 0.67676,-7.79883 6.79981,0 0,1.83691 -5.19922,0 -0.36524,4.26465 c 0.64453,-0.45116 1.33919,-0.67675 2.08399,-0.67676 1.21744,1e-5 2.17349,0.47267 2.86816,1.41797 0.69465,0.94532 1.04198,2.21648 1.04199,3.81348 -10e-6,1.61849 -0.37956,2.88965 -1.13867,3.81348 -0.75196,0.92382 -1.78679,1.38574 -3.10449,1.38574 -1.17448,0 -2.13054,-0.38314 -2.86816,-1.14942 -0.73764,-0.76627 -1.16016,-1.82616 -1.26758,-3.17968 l 1.7832,0 c 0.10742,0.89518 0.36165,1.57194 0.7627,2.03027 0.40819,0.45117 0.93814,0.67676 1.58984,0.67676 0.73762,0 1.31412,-0.31868 1.72949,-0.95606 0.41536,-0.64452 0.62304,-1.51106 0.62305,-2.59961 -10e-6,-1.02408 -0.22559,-1.85839 -0.67676,-2.50293 -0.44402,-0.64452 -1.04558,-0.96678 -1.80469,-0.96679 -0.63021,1e-5 -1.13509,0.16472 -1.51464,0.49414 l -0.50489,0.50488 -1.51465,-0.4082" />
      <path
         inkscape:connector-curvature="0"
         id="path3323"
         d="m 448.43311,359.81122 c 0.6302,0 1.13508,-0.19336 1.51464,-0.58008 0.37955,-0.39388 0.58724,-0.95247 0.62305,-1.67578 l 1.79395,0 c -0.043,1.11719 -0.44044,2.0446 -1.19239,2.78223 -0.7448,0.73046 -1.65788,1.0957 -2.73925,1.0957 -1.43946,0 -2.53874,-0.45117 -3.29786,-1.35352 -0.75195,-0.9095 -1.12793,-2.25943 -1.12793,-4.0498 l 0,-1.27832 c 0,-1.75455 0.37598,-3.08658 1.12793,-3.9961 0.75195,-0.91665 1.84766,-1.37498 3.28711,-1.375 1.1888,2e-5 2.13053,0.37599 2.8252,1.12793 0.70181,0.75197 1.07421,1.77964 1.11719,3.08301 l -1.79395,0 c -0.043,-0.85936 -0.25066,-1.5039 -0.62305,-1.93359 -0.36524,-0.42968 -0.8737,-0.64452 -1.52539,-0.64453 -0.84505,10e-6 -1.47168,0.2793 -1.87988,0.83789 -0.40821,0.55144 -0.61947,1.46094 -0.63379,2.72851 l 0,1.48242 c 0,1.36785 0.20052,2.33464 0.60156,2.9004 0.4082,0.56575 1.04915,0.84863 1.92286,0.84863" />
      <path
         inkscape:connector-curvature="0"
         id="path3325"
         d="m 455.41553,361.21844 0,-10.08691 -1.51465,0 0,-1.53613 1.51465,0 0,-1.34278 c 0.0215,-1.18162 0.31868,-2.10187 0.8916,-2.76074 0.58007,-0.666 1.39648,-0.999 2.44922,-0.99902 0.37955,2e-5 0.76269,0.0609 1.14941,0.18262 l -0.0967,1.61132 c -0.27214,-0.0644 -0.56218,-0.0967 -0.87012,-0.0967 -1.08138,2e-5 -1.62207,0.76988 -1.62207,2.30957 l 0,1.09571 1.98731,0 0,1.53613 -1.98731,0 0,10.08691 -1.90136,0" />
      <path
         inkscape:connector-curvature="0"
         id="path3327"
         d="m 467.62939,354.5368 c -0.75912,0.96681 -1.64714,1.4502 -2.66406,1.4502 -1.13867,0 -2.0446,-0.47981 -2.71777,-1.43945 -0.67318,-0.95963 -1.00977,-2.21647 -1.00977,-3.77051 0,-1.6328 0.36524,-2.94335 1.09571,-3.93164 0.73762,-0.98827 1.74023,-1.48241 3.00781,-1.48242 1.3177,1e-5 2.34537,0.57293 3.08301,1.71875 0.74478,1.13868 1.11717,2.71778 1.11718,4.7373 l 0,0.59082 c -10e-6,1.73308 -0.13249,3.13673 -0.39746,4.21094 -0.25782,1.07422 -0.64096,1.94076 -1.14941,2.59961 -0.50847,0.65885 -1.15658,1.16016 -1.94434,1.5039 -0.78776,0.33659 -1.77246,0.50489 -2.9541,0.50489 l 0,-1.67578 0.33301,0 c 1.34635,-0.0286 2.36686,-0.43685 3.06152,-1.22461 0.70182,-0.79492 1.08138,-2.05892 1.13867,-3.792 m -2.34179,-0.19336 c 0.45833,1e-5 0.90592,-0.18977 1.34277,-0.56933 0.43684,-0.38671 0.77701,-0.89159 1.02051,-1.51465 l 0,-0.83789 c -10e-6,-1.29621 -0.22559,-2.35253 -0.67676,-3.16895 -0.45118,-0.82355 -0.99545,-1.23533 -1.63281,-1.23535 -0.68751,2e-5 -1.23536,0.34019 -1.64356,1.02051 -0.40104,0.67319 -0.60156,1.55047 -0.60156,2.63184 0,1.08139 0.19694,1.96583 0.59082,2.65332 0.39388,0.68034 0.92741,1.02051 1.60059,1.0205" />
    </g>
    <path
       inkscape:connection-start-point="d4"
       inkscape:connection-start="#rect4727"
       sodipodi:nodetypes="cc"
       inkscape:connector-curvature="0"
       inkscape:connector-type="polyline"
       id="path4733"
       d="M 399.27195,348.73199 301.7281,298.17261"
       style="fill:none;stroke:#666666;stroke-width:5;stroke-linecap:butt;stroke-linejoin:miter;stroke-miterlimit:4;stroke-opacity:1;stroke-dasharray:none;marker-end:url(#Arrow1SendV);display:inline" />
    <path
       inkscape:connector-curvature="0"
       id="rect4743"
       d="m 583.67627,448.23199 112.64751,0 c 2.77,0 5,2.23 5,5 l 0,38.44062 c 0,2.77 -2.23,5 -5,5 l -112.64751,0 c -2.77,0 -5,-2.23 -5,-5 l 0,-38.44062 c 0,-2.77 2.23,-5 5,-5 z"
       style="fill:#b380ff;fill-opacity:1;stroke:#9955ff;stroke-width:4;stroke-miterlimit:4;stroke-opacity:0.97254902" />
    <g
       id="text4745"
       style="font-size:22px;font-style:normal;font-variant:normal;font-weight:normal;font-stretch:condensed;text-align:center;line-height:125%;letter-spacing:0px;word-spacing:0px;writing-mode:lr-tb;text-anchor:middle;fill:#ffffff;fill-opacity:1;stroke:none;font-family:Roboto Condensed;-inkscape-font-specification:'Roboto Condensed, Condensed'"
       transform="translate(0,20)">
      <path
         inkscape:connector-curvature="0"
         id="path3359"
         d="m 581.73437,452.13541 c 0,-1.6901 0.40821,-3.02571 1.22461,-4.00684 0.82357,-0.98827 1.90853,-1.48241 3.25489,-1.48242 1.34634,1e-5 2.42772,0.47983 3.24414,1.43945 0.82356,0.95965 1.24608,2.26661 1.26758,3.9209 l 0,1.22461 c -10e-6,1.68295 -0.40822,3.01498 -1.22461,3.99609 -0.81642,0.98112 -1.90496,1.47168 -3.26563,1.47168 -1.34636,0 -2.42774,-0.47623 -3.24414,-1.42871 -0.80925,-0.95247 -1.22819,-2.24153 -1.25684,-3.86719 l 0,-1.26757 m 1.90137,1.0957 c 0,1.19597 0.23275,2.1377 0.69824,2.82519 0.47266,0.68035 1.10644,1.02051 1.90137,1.02051 1.67578,0 2.53873,-1.21028 2.58887,-3.63086 l 0,-1.31054 c -10e-6,-1.1888 -0.23634,-2.12695 -0.70899,-2.81446 -0.47266,-0.69465 -1.10645,-1.04198 -1.90136,-1.04199 -0.78061,1e-5 -1.40723,0.34734 -1.87989,1.04199 -0.46549,0.68751 -0.69824,1.62208 -0.69824,2.80371 l 0,1.10645" />
      <path
         inkscape:connector-curvature="0"
         id="path3361"
         d="m 597.97656,448.6442 c -0.26498,-0.0501 -0.55144,-0.0752 -0.85937,-0.0752 -0.97397,10e-6 -1.6543,0.53354 -2.04102,1.60059 l 0,8.31445 -1.90137,0 0,-11.62305 1.84766,0 0.0322,1.18164 c 0.50846,-0.93098 1.22818,-1.39647 2.15918,-1.39648 0.30077,1e-5 0.55142,0.0501 0.75195,0.15039 l 0.0107,1.84766" />
      <path
         inkscape:connector-curvature="0"
         id="path3363"
         d="m 601.92969,458.48404 -1.90137,0 0,-11.62305 1.90137,0 0,11.62305 m 0.15039,-14.70606 c -10e-6,0.32228 -0.0895,0.59084 -0.26856,0.80567 -0.17904,0.21486 -0.45117,0.32228 -0.8164,0.32226 -0.35808,2e-5 -0.62663,-0.1074 -0.80567,-0.32226 -0.17903,-0.21483 -0.26855,-0.48339 -0.26855,-0.80567 0,-0.32225 0.0895,-0.59438 0.26855,-0.8164 0.17904,-0.22199 0.44759,-0.33299 0.80567,-0.33301 0.35807,2e-5 0.62662,0.1146 0.80566,0.34375 0.1862,0.22202 0.27929,0.49058 0.2793,0.80566" />
      <path
         inkscape:connector-curvature="0"
         id="path3365"
         d="m 604.5293,452.14615 c 0,-1.81184 0.32942,-3.17968 0.98828,-4.10352 0.65885,-0.93098 1.62206,-1.39647 2.88965,-1.39648 1.18163,1e-5 2.08039,0.50489 2.69629,1.51465 l 0.0967,-1.29981 1.71875,0 0,11.73047 c -10e-6,1.43945 -0.36883,2.54232 -1.10645,3.30859 -0.73764,0.77344 -1.76531,1.16016 -3.08301,1.16016 -0.57292,0 -1.21745,-0.14323 -1.93359,-0.42969 -0.70899,-0.2793 -1.24252,-0.62663 -1.60059,-1.04199 l 0.77344,-1.31055 c 0.78776,0.77344 1.65787,1.16016 2.61035,1.16016 1.58268,0 2.3955,-0.86296 2.43848,-2.58887 l 0,-1.51464 c -0.61589,0.9095 -1.48959,1.36425 -2.6211,1.36425 -1.20312,0 -2.14127,-0.45117 -2.81445,-1.35351 -0.67318,-0.90951 -1.02409,-2.21289 -1.05273,-3.91016 l 0,-1.28906 m 1.90136,1.08496 c 0,1.30339 0.18978,2.26302 0.56934,2.87891 0.38671,0.60872 1.01692,0.91308 1.89062,0.91308 0.94531,0 1.65429,-0.48339 2.12696,-1.45019 l 0,-5.81153 c -0.49415,-0.95246 -1.19597,-1.4287 -2.10547,-1.42871 -0.8737,10e-6 -1.50391,0.30795 -1.89063,0.92383 -0.38672,0.60873 -0.58366,1.54688 -0.59082,2.81445 l 0,1.16016" />
      <path
         inkscape:connector-curvature="0"
         id="path3367"
         d="m 617.78516,458.48404 -1.90137,0 0,-11.62305 1.90137,0 0,11.62305 m 0.15039,-14.70606 c -1e-5,0.32228 -0.0895,0.59084 -0.26856,0.80567 -0.17904,0.21486 -0.45117,0.32228 -0.8164,0.32226 -0.35808,2e-5 -0.62663,-0.1074 -0.80567,-0.32226 -0.17904,-0.21483 -0.26855,-0.48339 -0.26855,-0.80567 0,-0.32225 0.0895,-0.59438 0.26855,-0.8164 0.17904,-0.22199 0.44759,-0.33299 0.80567,-0.33301 0.35807,2e-5 0.62662,0.1146 0.80566,0.34375 0.18619,0.22202 0.27929,0.49058 0.2793,0.80566" />
      <path
         inkscape:connector-curvature="0"
         id="path3369"
         d="m 622.55469,446.86099 0.0537,1.25684 c 0.73762,-0.98111 1.67936,-1.47167 2.82519,-1.47168 2.05533,1e-5 3.09733,1.37143 3.12598,4.11426 l 0,7.72363 -1.89062,0 0,-7.6377 c -10e-6,-0.90949 -0.15398,-1.55402 -0.46192,-1.93359 -0.30079,-0.38671 -0.75554,-0.58007 -1.36426,-0.58008 -0.47266,10e-6 -0.89876,0.15756 -1.27832,0.47266 -0.3724,0.31511 -0.67318,0.7269 -0.90234,1.23535 l 0,8.44336 -1.90137,0 0,-11.62305 1.79395,0" />
      <path
         inkscape:connector-curvature="0"
         id="path3371"
         d="m 631.94336,459.82681 -1.61133,0 5.48926,-16.9834 1.60058,0 -5.47851,16.9834" />
      <path
         inkscape:connector-curvature="0"
         id="path3373"
         d="m 641.375,446.86099 0.043,1.07422 c 0.70898,-0.85936 1.64355,-1.28905 2.80371,-1.28906 1.29622,1e-5 2.20214,0.56218 2.71777,1.68652 0.73046,-1.12434 1.74739,-1.68651 3.05078,-1.68652 2.14127,1e-5 3.23697,1.33562 3.28711,4.00683 l 0,7.83106 -1.89062,0 0,-7.64844 c -10e-6,-0.84504 -0.1504,-1.47167 -0.45117,-1.87988 -0.3008,-0.41536 -0.80926,-0.62304 -1.52539,-0.62305 -0.57293,10e-6 -1.03843,0.22202 -1.39649,0.66602 -0.35808,0.44402 -0.56576,1.00977 -0.62305,1.69726 l 0,7.78809 -1.9121,0 0,-7.73438 c -0.0215,-1.61131 -0.67677,-2.41698 -1.96582,-2.41699 -0.95964,10e-6 -1.6364,0.47983 -2.03028,1.43946 l 0,8.71191 -1.89062,0 0,-11.62305 1.7832,0" />
      <path
         inkscape:connector-curvature="0"
         id="path3375"
         d="m 662.10742,458.48404 c -0.11459,-0.25065 -0.19695,-0.67318 -0.24707,-1.26758 -0.67318,0.98828 -1.53256,1.48242 -2.57812,1.48242 -1.05274,0 -1.87631,-0.29362 -2.47071,-0.88086 -0.58724,-0.5944 -0.88086,-1.42871 -0.88086,-2.50293 0,-1.18163 0.40104,-2.11978 1.20313,-2.81445 0.80208,-0.69465 1.90136,-1.04915 3.29785,-1.06348 l 1.39648,0 0,-1.23535 c 0,-0.69465 -0.15397,-1.18879 -0.46191,-1.48242 -0.30795,-0.29361 -0.77702,-0.44042 -1.40723,-0.44043 -0.57292,1e-5 -1.03841,0.17189 -1.39648,0.51563 -0.35808,0.33659 -0.53711,0.76628 -0.53711,1.28906 l -1.90137,0 c 0,-0.59439 0.17546,-1.16015 0.52637,-1.69727 0.35091,-0.54426 0.82357,-0.97036 1.41797,-1.27832 0.5944,-0.30793 1.25683,-0.4619 1.9873,-0.46191 1.1888,1e-5 2.09114,0.29721 2.70704,0.8916 0.62303,0.58725 0.94172,1.44662 0.95605,2.57813 l 0,5.86523 c 0.007,0.89518 0.1289,1.6722 0.36523,2.33105 l 0,0.17188 -1.97656,0 m -2.53515,-1.51465 c 0.46549,0 0.9095,-0.1289 1.33203,-0.38672 0.42252,-0.25781 0.73046,-0.58007 0.92382,-0.96679 l 0,-2.77149 -1.07421,0 c -0.90235,0.0143 -1.61492,0.21843 -2.1377,0.61231 -0.52279,0.38672 -0.78418,0.93099 -0.78418,1.63281 0,0.65885 0.13248,1.13867 0.39746,1.43945 0.26497,0.29362 0.71256,0.44043 1.34278,0.44043" />
      <path
         inkscape:connector-curvature="0"
         id="path3377"
         d="m 672.30176,455.50845 c -10e-6,-0.4082 -0.15398,-0.75911 -0.46192,-1.05273 -0.30795,-0.29362 -0.90235,-0.63737 -1.7832,-1.03125 -1.02409,-0.42252 -1.7474,-0.78417 -2.16992,-1.08496 -0.41537,-0.30078 -0.72689,-0.64095 -0.93457,-1.02051 -0.20769,-0.38671 -0.31153,-0.84504 -0.31153,-1.375 0,-0.9453 0.34375,-1.72948 1.03125,-2.35254 0.69466,-0.6302 1.5791,-0.9453 2.65333,-0.94531 1.1315,1e-5 2.041,0.32944 2.72851,0.98828 0.68749,0.65886 1.03124,1.50392 1.03125,2.53516 l -1.89062,0 c -10e-6,-0.52278 -0.17547,-0.96679 -0.52637,-1.33204 -0.35092,-0.37238 -0.79851,-0.55858 -1.34277,-0.55859 -0.5586,1e-5 -0.99903,0.14682 -1.32129,0.44043 -0.31511,0.28647 -0.47266,0.67319 -0.47266,1.16016 0,0.38672 0.11458,0.69825 0.34375,0.93457 0.23632,0.23633 0.7985,0.54786 1.68652,0.93457 1.4108,0.55144 2.37044,1.09213 2.87891,1.62207 0.50845,0.52279 0.76269,1.1888 0.76269,1.99804 0,1.00977 -0.34733,1.81902 -1.04199,2.42774 -0.69467,0.60156 -1.62565,0.90234 -2.79297,0.90234 -1.21029,0 -2.19141,-0.34733 -2.94336,-1.04199 -0.75195,-0.69466 -1.12793,-1.57552 -1.12793,-2.64258 l 1.91211,0 c 0.0215,0.64454 0.21843,1.14942 0.59082,1.51465 0.3724,0.36524 0.89518,0.54785 1.56836,0.54785 0.63021,0 1.11002,-0.13964 1.43946,-0.41894 0.32942,-0.28646 0.49413,-0.6696 0.49414,-1.14942" />
      <path
         inkscape:connector-curvature="0"
         id="path3379"
         d="m 679.15527,444.04654 0,2.81445 1.75098,0 0,1.53614 -1.75098,0 0,7.208 c 0,0.45834 0.0752,0.80567 0.22559,1.042 0.15039,0.23632 0.4082,0.35449 0.77344,0.35449 0.25064,0 0.50487,-0.043 0.76269,-0.12891 l -0.0215,1.61133 c -0.42969,0.14323 -0.87012,0.21484 -1.32129,0.21484 -0.75196,0 -1.32487,-0.26855 -1.71875,-0.80566 -0.39388,-0.53711 -0.59082,-1.29622 -0.59082,-2.27734 l 0,-7.21875 -1.77246,0 0,-1.53614 1.77246,0 0,-2.81445 1.89062,0" />
      <path
         inkscape:connector-curvature="0"
         id="path3381"
         d="m 687.30859,458.69888 c -1.44661,0 -2.55664,-0.42968 -3.33007,-1.28906 -0.77344,-0.86653 -1.16732,-2.13411 -1.18165,-3.80273 l 0,-1.40723 c 0,-1.73307 0.37598,-3.09016 1.12793,-4.07129 0.75912,-0.98827 1.81543,-1.48241 3.16895,-1.48242 1.36067,1e-5 2.3776,0.43328 3.05078,1.2998 0.67317,0.86655 1.01692,2.21648 1.03125,4.04981 l 0,1.24609 -6.48828,0 0,0.26856 c 0,1.24609 0.23274,2.15202 0.69824,2.71777 0.47265,0.56576 1.14941,0.84863 2.03028,0.84863 0.55858,0 1.04914,-0.10384 1.47168,-0.31152 0.42968,-0.21484 0.83072,-0.55143 1.20312,-1.00977 l 0.98828,1.20313 c -0.82357,1.16016 -2.08041,1.74023 -3.77051,1.74023 m -0.21484,-10.41992 c -0.78776,1e-5 -1.37142,0.27215 -1.75098,0.81641 -0.37956,0.53712 -0.5944,1.37501 -0.64453,2.51367 l 4.57617,0 0,-0.25781 c -0.0501,-1.10286 -0.25065,-1.89062 -0.60156,-2.36328 -0.34376,-0.47265 -0.87012,-0.70898 -1.5791,-0.70899" />
      <path
         inkscape:connector-curvature="0"
         id="path3383"
         d="m 698.26562,448.6442 c -0.26497,-0.0501 -0.55143,-0.0752 -0.85937,-0.0752 -0.97396,10e-6 -1.6543,0.53354 -2.04102,1.60059 l 0,8.31445 -1.90136,0 0,-11.62305 1.84765,0 0.0322,1.18164 c 0.50846,-0.93098 1.22819,-1.39647 2.15918,-1.39648 0.30078,1e-5 0.55143,0.0501 0.75195,0.15039 l 0.0107,1.84766" />
    </g>
    <path
       inkscape:connector-curvature="0"
       id="rect5481"
       d="m 583.67627,348.73199 112.64751,0 c 2.77,0 5,2.23 5,5 l 0,38.44062 c 0,2.77 -2.23,5 -5,5 l -112.64751,0 c -2.77,0 -5,-2.23 -5,-5 l 0,-38.44062 c 0,-2.77 2.23,-5 5,-5 z"
       style="fill:#999999;fill-opacity:1;stroke:#808080;stroke-width:4;stroke-miterlimit:4;stroke-opacity:0.97254902" />
    <g
       id="text5483"
       style="font-size:22px;font-style:normal;font-variant:normal;font-weight:normal;font-stretch:condensed;text-align:center;line-height:125%;letter-spacing:0px;word-spacing:0px;writing-mode:lr-tb;text-anchor:middle;fill:#ffffff;fill-opacity:1;stroke:none;font-family:Roboto Condensed;-inkscape-font-specification:'Roboto Condensed, Condensed'"
       transform="translate(0,20)">
      <path
         inkscape:connector-curvature="0"
         id="path3398"
         d="m 623.2583,354.54755 c -10e-6,2.30599 -0.3366,4.0319 -1.00976,5.17773 -0.67319,1.13867 -1.7295,1.70801 -3.16895,1.70801 -1.39649,0 -2.43848,-0.54785 -3.12598,-1.64356 -0.6875,-1.0957 -1.04557,-2.74283 -1.07422,-4.9414 l 0,-2.68555 c 0,-2.28449 0.33659,-3.98892 1.00977,-5.11328 0.68034,-1.12433 1.73665,-1.68651 3.16895,-1.68652 1.4108,1e-5 2.45279,0.53354 3.12597,1.60058 0.68033,1.06707 1.0384,2.68198 1.07422,4.84473 l 0,2.73926 m -1.90137,-2.71778 c 0,-1.65428 -0.18262,-2.87173 -0.54785,-3.65234 -0.36524,-0.78775 -0.9489,-1.18163 -1.75097,-1.18164 -0.78061,10e-6 -1.35352,0.38673 -1.71875,1.16015 -0.36524,0.76629 -0.55502,1.92645 -0.56934,3.48047 l 0,3.22266 c 0,1.64714 0.18977,2.88607 0.56934,3.7168 0.37955,0.82357 0.95963,1.23535 1.74023,1.23535 0.77343,0 1.34277,-0.3903 1.70801,-1.1709 0.36522,-0.7806 0.555,-1.97298 0.56933,-3.57715 l 0,-3.2334" />
      <path
         inkscape:connector-curvature="0"
         id="path3400"
         d="m 626.771,361.21844 0,-10.08691 -1.51465,0 0,-1.53613 1.51465,0 0,-1.34278 c 0.0215,-1.18162 0.31868,-2.10187 0.8916,-2.76074 0.58007,-0.666 1.39648,-0.999 2.44922,-0.99902 0.37955,2e-5 0.76269,0.0609 1.14941,0.18262 l -0.0967,1.61132 c -0.27214,-0.0644 -0.56218,-0.0967 -0.87012,-0.0967 -1.08138,2e-5 -1.62207,0.76988 -1.62207,2.30957 l 0,1.09571 1.98731,0 0,1.53613 -1.98731,0 0,10.08691 -1.90136,0" />
      <path
         inkscape:connector-curvature="0"
         id="path3402"
         d="m 635.16064,352.43134 1.21387,0 c 0.78059,0 1.38216,-0.2399 1.80469,-0.71973 0.42252,-0.47981 0.63378,-1.13508 0.63379,-1.96582 -10e-6,-1.83332 -0.70899,-2.74999 -2.12695,-2.75 -0.68035,10e-6 -1.21388,0.24708 -1.60059,0.74121 -0.38672,0.49415 -0.58008,1.14226 -0.58008,1.94434 l -1.89062,0 c -10e-6,-1.25325 0.37955,-2.2845 1.13867,-3.09375 0.76627,-0.8164 1.74381,-1.2246 2.93262,-1.22461 1.23176,1e-5 2.2093,0.38673 2.93261,1.16015 0.7233,0.76629 1.08495,1.85483 1.08496,3.26563 -10e-6,0.72332 -0.18978,1.40007 -0.56933,2.03027 -0.37241,0.62306 -0.85939,1.08139 -1.46094,1.375 1.47525,0.54428 2.21288,1.76531 2.21289,3.66309 -10e-6,1.39648 -0.39031,2.51009 -1.1709,3.34082 -0.77344,0.82356 -1.78679,1.23535 -3.04004,1.23535 -1.23893,0 -2.24154,-0.3903 -3.00781,-1.1709 -0.75912,-0.78776 -1.13867,-1.84407 -1.13867,-3.16895 l 1.90137,0 c -10e-6,0.83074 0.20051,1.49317 0.60156,1.98731 0.40104,0.48698 0.94889,0.73047 1.64355,0.73047 0.70898,0 1.27116,-0.23991 1.68653,-0.71973 0.42252,-0.47981 0.63378,-1.21028 0.63379,-2.1914 -1e-5,-1.89778 -0.89877,-2.84668 -2.69629,-2.84668 l -1.13868,0 0,-1.62207" />
      <path
         inkscape:connector-curvature="0"
         id="path3404"
         d="m 647.92236,361.43329 c -1.44662,0 -2.55664,-0.42969 -3.33007,-1.28906 -0.77344,-0.86654 -1.16732,-2.13412 -1.18165,-3.80274 l 0,-1.40722 c 0,-1.73307 0.37598,-3.09016 1.12793,-4.07129 0.75912,-0.98827 1.81543,-1.48241 3.16895,-1.48243 1.36067,2e-5 2.3776,0.43328 3.05078,1.29981 0.67317,0.86655 1.01692,2.21648 1.03125,4.0498 l 0,1.2461 -6.48828,0 0,0.26855 c 0,1.2461 0.23274,2.15202 0.69824,2.71778 0.47265,0.56575 1.14941,0.84863 2.03028,0.84863 0.55858,0 1.04914,-0.10384 1.47167,-0.31153 0.42968,-0.21484 0.83073,-0.55143 1.20313,-1.00976 l 0.98828,1.20312 c -0.82358,1.16016 -2.08041,1.74024 -3.77051,1.74024 m -0.21484,-10.41992 c -0.78777,10e-6 -1.37142,0.27214 -1.75098,0.8164 -0.37956,0.53712 -0.5944,1.37501 -0.64453,2.51367 l 4.57617,0 0,-0.25781 c -0.0501,-1.10285 -0.25065,-1.89061 -0.60156,-2.36328 -0.34376,-0.47265 -0.87012,-0.70897 -1.5791,-0.70898" />
      <path
         inkscape:connector-curvature="0"
         id="path3406"
         d="m 654.91553,361.21844 0,-10.08691 -1.51465,0 0,-1.53613 1.51465,0 0,-1.34278 c 0.0215,-1.18162 0.31868,-2.10187 0.8916,-2.76074 0.58007,-0.666 1.39648,-0.999 2.44922,-0.99902 0.37955,2e-5 0.76269,0.0609 1.14941,0.18262 l -0.0967,1.61132 c -0.27214,-0.0644 -0.56218,-0.0967 -0.87012,-0.0967 -1.08138,2e-5 -1.62207,0.76988 -1.62207,2.30957 l 0,1.09571 1.98731,0 0,1.53613 -1.98731,0 0,10.08691 -1.90136,0" />
      <path
         inkscape:connector-curvature="0"
         id="path3408"
         d="m 661.87646,361.21844 0,-10.08691 -1.51464,0 0,-1.53613 1.51464,0 0,-1.34278 c 0.0215,-1.18162 0.31869,-2.10187 0.89161,-2.76074 0.58007,-0.666 1.39648,-0.999 2.44922,-0.99902 0.37955,2e-5 0.76268,0.0609 1.14941,0.18262 l -0.0967,1.61132 c -0.27214,-0.0644 -0.56218,-0.0967 -0.87012,-0.0967 -1.08138,2e-5 -1.62207,0.76988 -1.62207,2.30957 l 0,1.09571 1.98731,0 0,1.53613 -1.98731,0 0,10.08691 -1.90137,0" />
    </g>
    <path
       inkscape:connection-start-point="d4"
       inkscape:connection-start="#rect5481"
       inkscape:connection-end-point="d4"
       inkscape:connection-end="#rect4727"
       style="fill:none;stroke:#666666;stroke-width:5;stroke-linecap:butt;stroke-linejoin:miter;stroke-miterlimit:4;stroke-opacity:1;stroke-dasharray:none;marker-end:url(#Arrow1SendV);display:inline"
       d="m 578.67627,372.9523 -71.35249,0"
       id="path4749-8"
       inkscape:connector-type="polyline"
       inkscape:connector-curvature="0"
       sodipodi:nodetypes="cc" />
    <path
       inkscape:connection-end="#rect4671"
       inkscape:connection-end-point="d4"
       inkscape:connection-start="#path3148"
       inkscape:connection-start-point="d4"
       sodipodi:nodetypes="cc"
       inkscape:connector-curvature="0"
       inkscape:connector-type="polyline"
       id="path4705-6"
       d="m 255.01126,184.67261 0,45.05938"
       style="fill:none;stroke:#666666;stroke-width:5;stroke-linecap:butt;stroke-linejoin:miter;stroke-miterlimit:4;stroke-opacity:1;stroke-dasharray:none;marker-end:url(#Arrow1SendV);display:inline" />
    <path
       inkscape:connection-end-point="d4"
       inkscape:connection-end="#rect5481"
       inkscape:connection-start-point="d4"
       inkscape:connection-start="#rect4743"
       style="fill:none;stroke:#666666;stroke-width:5;stroke-linecap:butt;stroke-linejoin:miter;stroke-miterlimit:4;stroke-opacity:1;stroke-dasharray:none;marker-end:url(#Arrow1SendV);display:inline"
       d="m 640.00003,448.23199 0,-51.05938"
       id="path4749"
       inkscape:connector-type="polyline"
       inkscape:connector-curvature="0"
       sodipodi:nodetypes="cc" />
    <path
       inkscape:connector-curvature="0"
       style="fill:#d43c00;fill-opacity:1;stroke:#aa3000;stroke-width:4;stroke-miterlimit:4;stroke-opacity:0.97254902"
       d="m 198.67627,136.23199 112.64751,0 c 2.77,0 5,2.23 5,5 l 0,38.44062 c 0,2.77 -2.23,5 -5,5 l -112.64751,0 c -2.77,0 -5,-2.23 -5,-5 l 0,-38.44062 c 0,-2.77 2.23,-5 5,-5 z"
       id="path3148" />
    <g
       transform="translate(-190.98924,0)"
       id="text4695"
       style="font-size:22px;font-style:normal;font-variant:normal;font-weight:normal;font-stretch:condensed;text-align:center;line-height:125%;letter-spacing:0px;word-spacing:0px;writing-mode:lr-tb;text-anchor:middle;fill:#ffffff;fill-opacity:1;stroke:none;font-family:Roboto Condensed;-inkscape-font-specification:'Roboto Condensed, Condensed'">
      <path
         inkscape:connector-curvature="0"
         id="path3295"
         d="m 418.43555,155.97278 0.043,1.07422 c 0.70898,-0.85937 1.64355,-1.28905 2.80371,-1.28907 1.29621,2e-5 2.20214,0.56219 2.71777,1.68653 0.73046,-1.12434 1.74739,-1.68651 3.05078,-1.68653 2.14126,2e-5 3.23697,1.33563 3.28711,4.00684 l 0,7.83106 -1.89062,0 0,-7.64844 c -2e-5,-0.84505 -0.15041,-1.47167 -0.45118,-1.87989 -0.30079,-0.41535 -0.80925,-0.62303 -1.52539,-0.62304 -0.57292,1e-5 -1.03842,0.22201 -1.39648,0.66601 -0.35808,0.44402 -0.56577,1.00978 -0.62305,1.69727 l 0,7.78809 -1.91211,0 0,-7.73438 c -0.0215,-1.61132 -0.67676,-2.41698 -1.96582,-2.41699 -0.95964,1e-5 -1.63639,0.47983 -2.03027,1.43945 l 0,8.71192 -1.89063,0 0,-11.62305 1.78321,0" />
      <path
         inkscape:connector-curvature="0"
         id="path3297"
         d="m 439.16797,167.59583 c -0.11459,-0.25066 -0.19695,-0.67318 -0.24707,-1.26758 -0.67319,0.98828 -1.53256,1.48242 -2.57813,1.48242 -1.05273,0 -1.8763,-0.29362 -2.4707,-0.88086 -0.58724,-0.5944 -0.88086,-1.42871 -0.88086,-2.50293 0,-1.18164 0.40104,-2.11979 1.20313,-2.81445 0.80208,-0.69466 1.90136,-1.04915 3.29785,-1.06348 l 1.39648,0 0,-1.23535 c -10e-6,-0.69465 -0.15398,-1.18879 -0.46191,-1.48242 -0.30795,-0.29361 -0.77703,-0.44042 -1.40723,-0.44043 -0.57292,1e-5 -1.03841,0.17188 -1.39648,0.51562 -0.35808,0.3366 -0.53712,0.76629 -0.53711,1.28906 l -1.90137,0 c 0,-0.59439 0.17545,-1.16014 0.52637,-1.69726 0.35091,-0.54426 0.82356,-0.97037 1.41797,-1.27832 0.59439,-0.30793 1.25683,-0.4619 1.9873,-0.46192 1.1888,2e-5 2.09114,0.29722 2.70703,0.89161 0.62304,0.58725 0.94172,1.44662 0.95606,2.57812 l 0,5.86524 c 0.007,0.89518 0.12889,1.6722 0.36523,2.33105 l 0,0.17188 -1.97656,0 m -2.53516,-1.51465 c 0.46549,0 0.9095,-0.12891 1.33203,-0.38672 0.42252,-0.25781 0.73047,-0.58008 0.92383,-0.9668 l 0,-2.77148 -1.07422,0 c -0.90235,0.0143 -1.61491,0.21843 -2.13769,0.6123 -0.52279,0.38672 -0.78419,0.931 -0.78418,1.63281 -1e-5,0.65886 0.13248,1.13868 0.39746,1.43946 0.26497,0.29362 0.71256,0.44043 1.34277,0.44043" />
      <path
         inkscape:connector-curvature="0"
         id="path3299"
         d="m 449.3623,164.62024 c 0,-0.4082 -0.15397,-0.75911 -0.46191,-1.05274 -0.30795,-0.29361 -0.90235,-0.63736 -1.7832,-1.03125 -1.02409,-0.42252 -1.7474,-0.78417 -2.16992,-1.08496 -0.41537,-0.30077 -0.72689,-0.64094 -0.93457,-1.0205 -0.20769,-0.38672 -0.31153,-0.84505 -0.31153,-1.375 0,-0.94531 0.34375,-1.72949 1.03125,-2.35254 0.69466,-0.6302 1.5791,-0.9453 2.65332,-0.94532 1.13151,2e-5 2.04101,0.32944 2.72852,0.98829 0.68749,0.65886 1.03124,1.50391 1.03125,2.53515 l -1.89063,0 c 0,-0.52278 -0.17546,-0.96679 -0.52636,-1.33203 -0.35092,-0.37238 -0.79851,-0.55858 -1.34278,-0.55859 -0.5586,1e-5 -0.99903,0.14682 -1.32129,0.44043 -0.3151,0.28646 -0.47266,0.67318 -0.47265,1.16015 -10e-6,0.38673 0.11458,0.69825 0.34375,0.93457 0.23632,0.23634 0.7985,0.54786 1.68652,0.93457 1.4108,0.55144 2.37044,1.09213 2.87891,1.62207 0.50845,0.52279 0.76268,1.18881 0.76269,1.99805 -10e-6,1.00977 -0.34734,1.81901 -1.04199,2.42774 -0.69467,0.60156 -1.62566,0.90234 -2.79297,0.90234 -1.21029,0 -2.19141,-0.34733 -2.94336,-1.04199 -0.75195,-0.69466 -1.12793,-1.57552 -1.12793,-2.64258 l 1.91211,0 c 0.0215,0.64453 0.21842,1.14942 0.59082,1.51465 0.37239,0.36523 0.89518,0.54785 1.56836,0.54785 0.6302,0 1.11002,-0.13965 1.43945,-0.41895 0.32942,-0.28645 0.49414,-0.66959 0.49414,-1.14941" />
      <path
         inkscape:connector-curvature="0"
         id="path3301"
         d="m 456.21582,153.15833 0,2.81445 1.75098,0 0,1.53613 -1.75098,0 0,7.20801 c 0,0.45833 0.0752,0.80567 0.22559,1.04199 0.15038,0.23633 0.40819,0.35449 0.77343,0.35449 0.25065,0 0.50488,-0.043 0.7627,-0.1289 l -0.0215,1.61133 c -0.42969,0.14322 -0.87012,0.21484 -1.32128,0.21484 -0.75196,0 -1.32488,-0.26856 -1.71875,-0.80567 -0.39389,-0.5371 -0.59083,-1.29622 -0.59082,-2.27734 l 0,-7.21875 -1.77247,0 0,-1.53613 1.77247,0 0,-2.81445 1.89062,0" />
      <path
         inkscape:connector-curvature="0"
         id="path3303"
         d="m 464.36914,167.81067 c -1.44662,0 -2.55664,-0.42969 -3.33008,-1.28906 -0.77344,-0.86654 -1.16732,-2.13411 -1.18164,-3.80274 l 0,-1.40722 c 0,-1.73307 0.37598,-3.09016 1.12793,-4.07129 0.75911,-0.98827 1.81543,-1.48241 3.16895,-1.48243 1.36067,2e-5 2.37759,0.43328 3.05078,1.29981 0.67317,0.86655 1.01692,2.21648 1.03125,4.0498 l 0,1.2461 -6.48828,0 0,0.26855 c -10e-6,1.2461 0.23274,2.15202 0.69824,2.71778 0.47265,0.56575 1.14941,0.84863 2.03027,0.84863 0.55859,0 1.04915,-0.10384 1.47168,-0.31152 0.42968,-0.21485 0.83072,-0.55143 1.20313,-1.00977 l 0.98828,1.20312 c -0.82358,1.16016 -2.08041,1.74024 -3.77051,1.74024 m -0.21484,-10.41992 c -0.78777,1e-5 -1.37143,0.27214 -1.75098,0.8164 -0.37956,0.53712 -0.5944,1.37501 -0.64453,2.51368 l 4.57617,0 0,-0.25782 c -0.0501,-1.10285 -0.25066,-1.89061 -0.60156,-2.36328 -0.34376,-0.47264 -0.87012,-0.70897 -1.5791,-0.70898" />
      <path
         inkscape:connector-curvature="0"
         id="path3305"
         d="m 475.32617,157.75598 c -0.26498,-0.0501 -0.55144,-0.0752 -0.85937,-0.0752 -0.97397,1e-5 -1.6543,0.53353 -2.04102,1.60058 l 0,8.31446 -1.90137,0 0,-11.62305 1.84766,0 0.0322,1.18164 c 0.50846,-0.93098 1.22818,-1.39647 2.15918,-1.39649 0.30077,2e-5 0.55142,0.0502 0.75195,0.1504 l 0.0107,1.84765" />
    </g>
    <path
       inkscape:connector-curvature="0"
       style="fill:#999999;fill-opacity:1;stroke:#808080;stroke-width:4;stroke-miterlimit:4;stroke-opacity:0.97254902"
       d="m 583.67627,229.73199 112.64751,0 c 2.77,0 5,2.23 5,5 l 0,38.44062 c 0,2.77 -2.23,5 -5,5 l -112.64751,0 c -2.77,0 -5,-2.23 -5,-5 l 0,-38.44062 c 0,-2.77 2.23,-5 5,-5 z"
       id="path3150" />
    <g
       transform="matrix(0.8836637,0,0,0.8836637,78.82827,82.42788)"
       id="text3164"
       style="font-size:24px;font-style:normal;font-variant:normal;font-weight:normal;font-stretch:normal;text-align:center;line-height:125%;letter-spacing:0px;word-spacing:0px;writing-mode:lr-tb;text-anchor:middle;fill:#ffffff;fill-opacity:1;stroke:none;font-family:Roboto Condensed;-inkscape-font-specification:'Roboto Condensed,'">
      <path
         inkscape:connector-curvature="0"
         id="path3169"
         style="line-height:125%;fill:#ffffff;font-family:Roboto Condensed;-inkscape-font-specification:'Roboto Condensed,'"
         d="m 607.82861,194.43411 0.73828,-8.50781 7.41797,0 0,2.00391 -5.67187,0 -0.39844,4.65234 c 0.70312,-0.49218 1.46093,-0.73827 2.27344,-0.73828 1.32812,1e-5 2.37108,0.51563 3.1289,1.54687 0.75781,1.03126 1.13671,2.41798 1.13672,4.16016 -10e-6,1.76563 -0.41407,3.15235 -1.24218,4.16016 -0.82033,1.00781 -1.94923,1.51171 -3.38672,1.51172 -1.28126,-1e-5 -2.32423,-0.41797 -3.12891,-1.25391 -0.80469,-0.83594 -1.26563,-1.99219 -1.38281,-3.46875 l 1.94531,0 c 0.11718,0.97656 0.39453,1.71485 0.83203,2.21484 0.44531,0.49219 1.02343,0.73829 1.73438,0.73828 0.80468,1e-5 1.43358,-0.34765 1.88672,-1.04296 0.45311,-0.70313 0.67967,-1.64844 0.67968,-2.83594 -10e-6,-1.11718 -0.2461,-2.02734 -0.73828,-2.73047 -0.48438,-0.70312 -1.14063,-1.05468 -1.96875,-1.05469 -0.6875,1e-5 -1.23828,0.1797 -1.65234,0.53906 l -0.55078,0.55079 -1.65235,-0.44532" />
      <path
         inkscape:connector-curvature="0"
         id="path3171"
         style="line-height:125%;fill:#ffffff;font-family:Roboto Condensed;-inkscape-font-specification:'Roboto Condensed,'"
         d="m 618.58643,196.07474 c -10e-6,-1.95312 0.36328,-3.4414 1.08984,-4.46485 0.73437,-1.02342 1.78515,-1.53514 3.15234,-1.53515 1.21093,1e-5 2.15625,0.4922 2.83594,1.47656 l 0,-6.5625 2.07422,0 0,18 -1.89844,0 -0.10547,-1.35937 c -0.67969,1.0625 -1.65235,1.59374 -2.91797,1.59375 -1.3125,-1e-5 -2.34375,-0.50782 -3.09375,-1.52344 -0.74218,-1.02344 -1.12109,-2.46484 -1.13671,-4.32422 l 0,-1.30078 m 2.07421,1.18359 c 0,1.42188 0.21094,2.46875 0.63282,3.14063 0.42187,0.66406 1.10937,0.99609 2.0625,0.99609 1.03124,0 1.80077,-0.51953 2.30859,-1.55859 l 0,-6.39844 c -0.53126,-1.01562 -1.29688,-1.52343 -2.29687,-1.52344 -0.95313,1e-5 -1.64063,0.33595 -2.0625,1.00781 -0.42188,0.66408 -0.63673,1.68751 -0.64454,3.07032 l 0,1.26562" />
      <path
         inkscape:connector-curvature="0"
         id="path3173"
         style="line-height:125%;fill:#ffffff;font-family:Roboto Condensed;-inkscape-font-specification:'Roboto Condensed,'"
         d="m 637.96924,185.91458 0,1.83985 -0.33985,0 c -1.38281,0.0313 -2.46485,0.50001 -3.24609,1.40625 -0.78125,0.89845 -1.23047,2.25391 -1.34766,4.0664 0.75781,-0.95311 1.72656,-1.42968 2.90625,-1.42969 1.25781,1e-5 2.2539,0.51955 2.98829,1.5586 0.74217,1.03126 1.11327,2.38672 1.11328,4.0664 -10e-6,1.78907 -0.41017,3.20313 -1.23047,4.24219 -0.81251,1.03906 -1.90626,1.55859 -3.28125,1.5586 -1.38282,-1e-5 -2.4961,-0.61329 -3.33985,-1.83985 -0.84375,-1.22656 -1.26562,-2.85546 -1.26562,-4.88672 l 0,-0.83203 c 0,-2.34374 0.2539,-4.21092 0.76172,-5.60156 0.50781,-1.39061 1.2539,-2.42186 2.23828,-3.09375 0.99218,-0.67967 2.22265,-1.03123 3.69141,-1.05469 l 0.35156,0 m -2.37891,7.6875 c -0.5625,1e-5 -1.08203,0.21485 -1.55859,0.64453 -0.47657,0.4297 -0.82032,0.97657 -1.03125,1.64063 l 0,0.85547 c -10e-6,1.38281 0.24218,2.51172 0.72656,3.38672 0.49218,0.86718 1.09375,1.30078 1.80469,1.30078 0.77343,0 1.3789,-0.35547 1.8164,-1.06641 0.4375,-0.71875 0.65625,-1.66406 0.65625,-2.83594 0,-1.15624 -0.21875,-2.09765 -0.65625,-2.82422 -0.4375,-0.73436 -1.02344,-1.10155 -1.75781,-1.10156" />
      <path
         inkscape:connector-curvature="0"
         id="path3175"
         style="line-height:125%;fill:#ffffff;font-family:Roboto Condensed;-inkscape-font-specification:'Roboto Condensed,'"
         d="m 647.3208,203.22318 c -1.57813,-1e-5 -2.78907,-0.46875 -3.63281,-1.40625 -0.84375,-0.94532 -1.27344,-2.32813 -1.28906,-4.14844 l 0,-1.53516 c -10e-6,-1.89061 0.41015,-3.37108 1.23046,-4.4414 0.82813,-1.07812 1.98047,-1.61718 3.45704,-1.61719 1.48436,1e-5 2.59374,0.47267 3.32812,1.41797 0.73437,0.94532 1.10937,2.41797 1.125,4.41797 l 0,1.35937 -7.07812,0 0,0.29297 c -10e-6,1.35938 0.2539,2.34766 0.76171,2.96484 0.51563,0.61719 1.25391,0.92579 2.21485,0.92578 0.60937,1e-5 1.14452,-0.11328 1.60547,-0.33984 0.46874,-0.23437 0.90624,-0.60156 1.3125,-1.10156 l 1.07812,1.3125 c -0.89844,1.26562 -2.26954,1.89843 -4.11328,1.89844 m -0.23437,-11.36719 c -0.85938,1e-5 -1.4961,0.29688 -1.91016,0.89062 -0.41407,0.58595 -0.64844,1.50001 -0.70313,2.74219 l 4.99219,0 0,-0.28125 c -0.0547,-1.20312 -0.27344,-2.06249 -0.65625,-2.57812 -0.37501,-0.51562 -0.94922,-0.77343 -1.72265,-0.77344" />
      <path
         inkscape:connector-curvature="0"
         id="path3177"
         style="line-height:125%;fill:#ffffff;font-family:Roboto Condensed;-inkscape-font-specification:'Roboto Condensed,'"
         d="m 658.5708,203.22318 c -1.57813,-1e-5 -2.78907,-0.46875 -3.63281,-1.40625 -0.84375,-0.94532 -1.27344,-2.32813 -1.28906,-4.14844 l 0,-1.53516 c -10e-6,-1.89061 0.41015,-3.37108 1.23046,-4.4414 0.82813,-1.07812 1.98047,-1.61718 3.45704,-1.61719 1.48436,1e-5 2.59374,0.47267 3.32812,1.41797 0.73437,0.94532 1.10937,2.41797 1.125,4.41797 l 0,1.35937 -7.07812,0 0,0.29297 c -10e-6,1.35938 0.2539,2.34766 0.76171,2.96484 0.51563,0.61719 1.25391,0.92579 2.21485,0.92578 0.60937,1e-5 1.14452,-0.11328 1.60547,-0.33984 0.46874,-0.23437 0.90624,-0.60156 1.3125,-1.10156 l 1.07812,1.3125 c -0.89844,1.26562 -2.26954,1.89843 -4.11328,1.89844 m -0.23437,-11.36719 c -0.85938,1e-5 -1.4961,0.29688 -1.91016,0.89062 -0.41407,0.58595 -0.64844,1.50001 -0.70313,2.74219 l 4.99219,0 0,-0.28125 c -0.0547,-1.20312 -0.27344,-2.06249 -0.65625,-2.57812 -0.37501,-0.51562 -0.94922,-0.77343 -1.72265,-0.77344" />
    </g>
    <path
       inkscape:connection-end-point="d4"
       inkscape:connection-end="#rect4673"
       inkscape:connection-start-point="d4"
       inkscape:connection-start="#path3150"
       style="fill:none;stroke:#666666;stroke-width:5;stroke-linecap:butt;stroke-linejoin:miter;stroke-miterlimit:4;stroke-opacity:1;stroke-dasharray:none;marker-end:url(#Arrow1SendV);display:inline"
       d="m 578.67627,253.939 -71.35249,0"
       id="path4749-8-4"
       inkscape:connector-type="polyline"
       inkscape:connector-curvature="0"
       sodipodi:nodetypes="cc" />
    <path
       style="fill:none;stroke:#666666;stroke-width:5;stroke-linecap:butt;stroke-linejoin:miter;stroke-miterlimit:4;stroke-opacity:1;stroke-dasharray:none;marker-end:url(#Arrow1SendV);display:inline"
       d="m 640.01126,160.43899 0,69.27969"
       id="path3217"
       inkscape:connector-type="polyline"
       inkscape:connector-curvature="0"
       sodipodi:nodetypes="cc" />
    <path
       id="path3219"
       d="m 583.67627,136.23199 112.64751,0 c 2.77,0 5,2.23 5,5 l 0,38.44062 c 0,2.77 -2.23,5 -5,5 l -112.64751,0 c -2.77,0 -5,-2.23 -5,-5 l 0,-38.44062 c 0,-2.77 2.23,-5 5,-5 z"
       style="fill:#d43c00;fill-opacity:1;stroke:#aa3000;stroke-width:4;stroke-miterlimit:4;stroke-opacity:0.97254902"
       inkscape:connector-curvature="0" />
    <path
       style="fill:none;stroke:#666666;stroke-width:5;stroke-linecap:butt;stroke-linejoin:miter;stroke-miterlimit:4;stroke-opacity:1;stroke-dasharray:none;marker-end:url(#Arrow1SendV);display:inline"
       d="m 255.01125,86.569501 1e-5,49.649179"
       id="path3215"
       inkscape:connector-type="polyline"
       inkscape:connector-curvature="0"
       sodipodi:nodetypes="cc" />
    <path
       inkscape:connector-curvature="0"
       style="fill:#7dbb62;fill-opacity:1;stroke:#67aa4a;stroke-width:3.24199057;stroke-miterlimit:4;stroke-opacity:0.97254902"
       d="m 209.34976,47.3218 91.30053,0 c 2.24508,0 4.05249,1.80741 4.05249,4.052489 l 0,31.156028 c 0,2.245079 -1.80741,4.052489 -4.05249,4.052489 l -91.30053,0 c -2.24509,0 -4.0525,-1.80741 -4.0525,-4.052489 l 0,-31.156028 c 0,-2.245079 1.80741,-4.052489 4.0525,-4.052489 z"
       id="path3203" />
    <g
       id="text3235"
       style="font-size:22.5px;font-style:normal;font-variant:normal;font-weight:normal;font-stretch:normal;text-align:start;line-height:125%;letter-spacing:0px;word-spacing:0px;writing-mode:lr-tb;text-anchor:start;fill:#ffffff;fill-opacity:1;stroke:none;font-family:Roboto Condensed;-inkscape-font-specification:'Roboto Condensed,'">
      <path
         inkscape:connector-curvature="0"
         id="path3244"
         d="m 618.13721,158.22757 c 0.73974,-0.95946 1.68456,-1.4392 2.83447,-1.43921 2.10204,10e-6 3.16771,1.4026 3.19702,4.20776 l 0,7.89917 -1.93359,0 0,-7.81128 c -10e-6,-0.93016 -0.15748,-1.58934 -0.47241,-1.97753 -0.30763,-0.3955 -0.77272,-0.59326 -1.39527,-0.59327 -0.4834,1e-5 -0.91919,0.16115 -1.30737,0.4834 -0.38086,0.32228 -0.68848,0.74342 -0.92285,1.26343 l 0,8.63525 -1.94458,0 0,-16.875 1.94458,0 0,6.20728" />
      <path
         inkscape:connector-curvature="0"
         id="path3246"
         d="m 626.64062,162.40237 c 0,-1.7285 0.41748,-3.09447 1.25245,-4.0979 0.84228,-1.01073 1.9519,-1.5161 3.32885,-1.51611 1.37695,10e-6 2.48291,0.49073 3.31787,1.47217 0.84228,0.98145 1.27441,2.31812 1.29639,4.01001 l 0,1.25244 c -10e-6,1.72119 -0.41749,3.0835 -1.25244,4.08691 -0.83497,1.00342 -1.94825,1.50513 -3.33984,1.50513 -1.37696,0 -2.48292,-0.48706 -3.31787,-1.46118 -0.82764,-0.97412 -1.25611,-2.29248 -1.28541,-3.95508 l 0,-1.29639 m 1.94459,1.12061 c -10e-6,1.22315 0.23803,2.18628 0.71411,2.8894 0.48339,0.69581 1.13158,1.04371 1.94458,1.04371 1.71386,0 2.59642,-1.2378 2.6477,-3.71338 l 0,-1.34034 c -1e-5,-1.21581 -0.24171,-2.17528 -0.7251,-2.87841 -0.4834,-0.71044 -1.13159,-1.06567 -1.94458,-1.06568 -0.79834,1e-5 -1.43921,0.35524 -1.9226,1.06568 -0.47608,0.70313 -0.71412,1.65894 -0.71411,2.86743 l 0,1.13159" />
      <path
         inkscape:connector-curvature="0"
         id="path3248"
         d="m 640.88989,154.12967 0,2.87842 1.79077,0 0,1.57104 -1.79077,0 0,7.37183 c 0,0.46875 0.0769,0.82397 0.23072,1.06567 0.1538,0.2417 0.41747,0.36255 0.79101,0.36255 0.25634,0 0.51635,-0.0439 0.78003,-0.13184 l -0.022,1.64795 c -0.43946,0.14649 -0.8899,0.21973 -1.35132,0.21973 -0.76905,0 -1.35498,-0.27466 -1.75781,-0.82397 -0.40284,-0.54932 -0.60425,-1.32569 -0.60425,-2.32911 l 0,-7.38281 -1.81275,0 0,-1.57104 1.81275,0 0,-2.87842 1.93359,0" />
      <path
         inkscape:connector-curvature="0"
         id="path3250"
         d="m 645.51514,168.89529 0,-10.31616 -1.54908,0 0,-1.57104 1.54908,0 0,-1.09864 c 0.0146,-1.29637 0.35156,-2.30711 1.01074,-3.03222 0.6665,-0.72508 1.59301,-1.08763 2.77954,-1.08765 0.46142,2e-5 0.90087,0.0659 1.31836,0.19776 0.41747,0.12452 0.85692,0.28199 1.31836,0.47241 l -0.32959,1.71386 c -0.71046,-0.36619 -1.42823,-0.5493 -2.15332,-0.54931 -0.73243,1e-5 -1.24879,0.1941 -1.54907,0.58227 -0.29298,0.3882 -0.43946,0.9778 -0.43946,1.7688 l 0,1.03272 1.92261,0 0,1.57104 -1.92261,0 0,10.31616 -1.95556,0 m 7.37182,0 -1.95556,0 0,-11.8872 1.95556,0 0,11.8872" />
      <path
         inkscape:connector-curvature="0"
         id="path3252"
         d="m 659.4458,161.34769 2.03247,-4.3396 2.2522,0 -3.22998,5.87768 3.30688,6.00952 -2.23022,0 -2.09839,-4.44946 -2.10938,4.44946 -2.24121,0 3.30689,-6.00952 -3.219,-5.87768 2.23023,0 1.99951,4.3396" />
    </g>
    <g
       transform="translate(-190.89743,0)"
       style="font-size:20px;font-style:normal;font-variant:normal;font-weight:normal;font-stretch:condensed;text-align:center;line-height:125%;letter-spacing:0px;word-spacing:0px;writing-mode:lr-tb;text-anchor:middle;fill:#ffffff;fill-opacity:1;stroke:none;font-family:Roboto Condensed;-inkscape-font-specification:'Roboto Condensed, Condensed'"
       id="g3205">
      <path
         inkscape:connector-curvature="0"
         d="m 433.9541,74.772614 -1.79687,0 0,-6.572266 -5.72266,0 0,6.572266 -1.78711,0 0,-14.21875 1.78711,0 0,6.113281 5.72266,0 0,-6.113281 1.79687,0 0,14.21875"
         id="path3207" />
      <path
         inkscape:connector-curvature="0"
         d="m 443.88574,68.200348 -5.02929,0 0,5.039062 5.85937,0 0,1.533204 -7.64648,0 0,-14.21875 7.54882,0 0,1.542968 -5.76171,0 0,4.570313 5.02929,0 0,1.533203"
         id="path3209" />
      <path
         inkscape:connector-curvature="0"
         d="m 453.62207,71.061676 -4.80469,0 -1.10351,3.710938 -1.83594,0 4.58008,-14.21875 1.5332,0 4.58984,14.21875 -1.83593,0 -1.12305,-3.710938 m -4.33594,-1.542969 3.87696,0 -1.94336,-6.464843 -1.9336,6.464843"
         id="path3211" />
      <path
         inkscape:connector-curvature="0"
         d="m 458.51465,74.772614 0,-14.21875 3.38867,0 c 1.66015,1.4e-5 2.94921,0.520847 3.86719,1.5625 0.91796,1.035167 1.37694,2.493499 1.37695,4.375 l 0,2.382812 c -1e-5,1.881514 -0.4655,3.336591 -1.39648,4.365234 -0.931,1.022136 -2.28191,1.533204 -4.05274,1.533204 l -3.18359,0 m 1.78711,-12.675782 0,11.142578 1.43554,0 c 1.25651,2e-6 2.17448,-0.358071 2.75391,-1.074218 0.57942,-0.722653 0.87564,-1.790361 0.88867,-3.203125 l 0,-2.519532 c -1e-5,-1.497386 -0.28972,-2.59439 -0.86914,-3.291015 -0.57292,-0.703113 -1.44206,-1.054675 -2.60742,-1.054688 l -1.60156,0"
         id="path3213" />
    </g>
    <path
       sodipodi:nodetypes="cc"
       inkscape:connector-curvature="0"
       inkscape:connector-type="polyline"
       id="path3111"
       d="m 640.01125,86.569501 10e-6,49.649179"
       style="opacity:0.3;fill:none;stroke:#666666;stroke-width:5;stroke-linecap:butt;stroke-linejoin:miter;stroke-miterlimit:4;stroke-opacity:1;stroke-dasharray:none;marker-end:url(#Arrow1SendV);display:inline" />
    <path
       id="path3113"
       d="m 594.34976,47.3218 91.30054,0 c 2.24508,0 4.05249,1.80741 4.05249,4.052489 l 0,31.156028 c 0,2.245079 -1.80741,4.052489 -4.05249,4.052489 l -91.30053,0 c -2.24509,0 -4.0525,-1.80741 -4.0525,-4.052489 l 0,-31.156028 c 0,-2.245079 1.80741,-4.052489 4.0525,-4.052489 z"
       style="opacity:0.3;fill:#7dbb62;fill-opacity:1;stroke:#67aa4a;stroke-width:3.24199057;stroke-miterlimit:4;stroke-opacity:0.97254902"
       inkscape:connector-curvature="0" />
    <g
       id="g3115"
       style="font-size:20px;font-style:normal;font-variant:normal;font-weight:normal;font-stretch:condensed;text-align:center;line-height:125%;letter-spacing:0px;word-spacing:0px;writing-mode:lr-tb;text-anchor:middle;opacity:0.3;fill:#ffffff;fill-opacity:1;stroke:none;font-family:Roboto Condensed;-inkscape-font-specification:'Roboto Condensed, Condensed'"
       transform="translate(194.10256,0)">
      <path
         id="path3117"
         d="m 433.9541,74.772614 -1.79687,0 0,-6.572266 -5.72266,0 0,6.572266 -1.78711,0 0,-14.21875 1.78711,0 0,6.113281 5.72266,0 0,-6.113281 1.79687,0 0,14.21875"
         inkscape:connector-curvature="0" />
      <path
         id="path3119"
         d="m 443.88574,68.200348 -5.02929,0 0,5.039062 5.85937,0 0,1.533204 -7.64648,0 0,-14.21875 7.54882,0 0,1.542968 -5.76171,0 0,4.570313 5.02929,0 0,1.533203"
         inkscape:connector-curvature="0" />
      <path
         id="path3121"
         d="m 453.62207,71.061676 -4.80469,0 -1.10351,3.710938 -1.83594,0 4.58008,-14.21875 1.5332,0 4.58984,14.21875 -1.83593,0 -1.12305,-3.710938 m -4.33594,-1.542969 3.87696,0 -1.94336,-6.464843 -1.9336,6.464843"
         inkscape:connector-curvature="0" />
      <path
         id="path3123"
         d="m 458.51465,74.772614 0,-14.21875 3.38867,0 c 1.66015,1.4e-5 2.94921,0.520847 3.86719,1.5625 0.91796,1.035167 1.37694,2.493499 1.37695,4.375 l 0,2.382812 c -1e-5,1.881514 -0.4655,3.336591 -1.39648,4.365234 -0.931,1.022136 -2.28191,1.533204 -4.05274,1.533204 l -3.18359,0 m 1.78711,-12.675782 0,11.142578 1.43554,0 c 1.25651,2e-6 2.17448,-0.358071 2.75391,-1.074218 0.57942,-0.722653 0.87564,-1.790361 0.88867,-3.203125 l 0,-2.519532 c -1e-5,-1.497386 -0.28972,-2.59439 -0.86914,-3.291015 -0.57292,-0.703113 -1.44206,-1.054675 -2.60742,-1.054688 l -1.60156,0"
         inkscape:connector-curvature="0" />
    </g>
    <path
       id="path4685-6"
       style="fill:none;stroke:#6262ff;stroke-width:5;stroke-linecap:butt;stroke-linejoin:miter;stroke-miterlimit:4;stroke-opacity:1;stroke-dasharray:none;marker-end:url(#Arrow1SendVr);display:inline"
       d="m 576.83622,66.938998 -247.33802,0"
       inkscape:connector-type="polyline"
       inkscape:connector-curvature="0"
       sodipodi:nodetypes="cc" />
    <g
       style="font-size:22px;font-style:normal;font-variant:normal;font-weight:normal;font-stretch:normal;text-align:start;line-height:125%;letter-spacing:0px;word-spacing:0px;writing-mode:lr-tb;text-anchor:start;fill:#6262ff;fill-opacity:1;stroke:none;font-family:Roboto Condensed;-inkscape-font-specification:'Roboto Condensed,'"
       id="text4051">
      <path
         d="m 416.48996,94.265381 c 0.6302,10e-7 1.13508,-0.193358 1.51465,-0.580078 0.37955,-0.393878 0.58723,-0.952471 0.62305,-1.675782 l 1.79394,0 c -0.043,1.117191 -0.44044,2.044598 -1.19238,2.782227 -0.7448,0.730469 -1.65789,1.095703 -2.73926,1.095703 -1.43946,0 -2.53874,-0.451171 -3.29785,-1.353515 -0.75196,-0.909504 -1.12793,-2.259437 -1.12793,-4.049805 l 0,-1.27832 c 0,-1.75455 0.37597,-3.086579 1.12793,-3.996094 0.75195,-0.916655 1.84765,-1.374988 3.28711,-1.375 1.18879,1.2e-5 2.13052,0.375988 2.82519,1.127929 0.70182,0.751964 1.07421,1.779632 1.11719,3.083008 l -1.79394,0 c -0.043,-0.859366 -0.25066,-1.503897 -0.62305,-1.933593 -0.36524,-0.429678 -0.87371,-0.644521 -1.52539,-0.644532 -0.84506,1.1e-5 -1.47169,0.279307 -1.87989,0.837891 -0.4082,0.551441 -0.61946,1.460945 -0.63378,2.728516 l 0,1.482421 c -1e-5,1.367843 0.20051,2.334639 0.60156,2.900391 0.4082,0.565757 1.04915,0.848634 1.92285,0.848633"
         id="path3486"
         inkscape:connector-curvature="0" />
      <path
         d="m 424.53586,85.241943 c 0.7233,-0.938139 1.64713,-1.407214 2.77148,-1.407226 2.05533,1.2e-5 3.09732,1.37143 3.12598,4.114258 l 0,7.723632 -1.89063,0 0,-7.637695 c 0,-0.909497 -0.15397,-1.554027 -0.46191,-1.933594 -0.30079,-0.386708 -0.75554,-0.580068 -1.36426,-0.580078 -0.47266,10e-6 -0.89877,0.157562 -1.27832,0.472656 -0.3724,0.315114 -0.67318,0.726897 -0.90234,1.235352 l 0,8.443359 -1.90137,0 0,-16.5 1.90137,0 0,6.069336"
         id="path3488"
         inkscape:connector-curvature="0" />
      <path
         d="m 437.405,95.887451 c -1.44662,0 -2.55664,-0.429687 -3.33008,-1.289062 -0.77344,-0.866535 -1.16732,-2.134112 -1.18164,-3.802735 l 0,-1.407226 c 0,-1.733065 0.37598,-3.09016 1.12793,-4.071289 0.75911,-0.98827 1.81543,-1.48241 3.16895,-1.482422 1.36067,1.2e-5 2.37759,0.433279 3.05078,1.299804 0.67316,0.866547 1.01691,2.21648 1.03125,4.049805 l 0,1.246094 -6.48828,0 0,0.268555 c -10e-6,1.246097 0.23274,2.152021 0.69824,2.717773 0.47265,0.565757 1.14941,0.848634 2.03027,0.848633 0.55859,10e-7 1.04915,-0.10384 1.47168,-0.311524 0.42968,-0.214841 0.83072,-0.55143 1.20313,-1.009765 l 0.98828,1.203125 c -0.82358,1.160156 -2.08041,1.740234 -3.77051,1.740234 m -0.21484,-10.419922 c -0.78777,1.1e-5 -1.37143,0.272146 -1.75098,0.816407 -0.37956,0.537118 -0.59441,1.375008 -0.64453,2.513671 l 4.57617,0 0,-0.257812 c -0.0501,-1.102856 -0.25066,-1.890616 -0.60156,-2.363281 -0.34376,-0.472647 -0.87013,-0.708974 -1.5791,-0.708985"
         id="path3490"
         inkscape:connector-curvature="0" />
      <path
         d="m 447.59933,94.265381 c 0.63021,10e-7 1.13509,-0.193358 1.51465,-0.580078 0.37955,-0.393878 0.58724,-0.952471 0.62305,-1.675782 l 1.79395,0 c -0.043,1.117191 -0.44044,2.044598 -1.19239,2.782227 -0.7448,0.730469 -1.65788,1.095703 -2.73926,1.095703 -1.43945,0 -2.53874,-0.451171 -3.29785,-1.353515 -0.75195,-0.909504 -1.12793,-2.259437 -1.12793,-4.049805 l 0,-1.27832 c 0,-1.75455 0.37598,-3.086579 1.12793,-3.996094 0.75195,-0.916655 1.84766,-1.374988 3.28711,-1.375 1.1888,1.2e-5 2.13053,0.375988 2.8252,1.127929 0.70181,0.751964 1.07421,1.779632 1.11719,3.083008 l -1.79395,0 c -0.043,-0.859366 -0.25066,-1.503897 -0.62305,-1.933593 -0.36524,-0.429678 -0.8737,-0.644521 -1.52539,-0.644532 -0.84505,1.1e-5 -1.47168,0.279307 -1.87988,0.837891 -0.40821,0.551441 -0.61947,1.460945 -0.63379,2.728516 l 0,1.482421 c 0,1.367843 0.20052,2.334639 0.60156,2.900391 0.4082,0.565757 1.04915,0.848634 1.92285,0.848633"
         id="path3492"
         inkscape:connector-curvature="0" />
      <path
         d="m 456.66574,90.355225 -1.00976,1.160156 0,4.157226 -1.90137,0 0,-16.5 1.90137,0 0,9.872071 3.62011,-4.995117 2.27735,0 -3.69532,4.855468 4.17871,6.767578 -2.21289,0 -3.1582,-5.317382"
         id="path3494"
         inkscape:connector-curvature="0" />
      <path
         d="m 463.27219,89.323975 c 0,-1.690097 0.4082,-3.025707 1.22461,-4.006836 0.82356,-0.98827 1.90852,-1.48241 3.25488,-1.482422 1.34635,1.2e-5 2.42772,0.479829 3.24414,1.439453 0.82356,0.959645 1.24608,2.26661 1.26758,3.920898 l 0,1.22461 c -10e-6,1.682946 -0.40822,3.014976 -1.22461,3.996093 -0.81642,0.981121 -1.90496,1.47168 -3.26563,1.47168 -1.34636,0 -2.42773,-0.476237 -3.24414,-1.428711 -0.80924,-0.952472 -1.22819,-2.241533 -1.25683,-3.867187 l 0,-1.267578 m 1.90136,1.095703 c 0,1.195967 0.23275,2.137698 0.69825,2.825195 0.47265,0.68034 1.10644,1.020509 1.90136,1.020508 1.67578,10e-7 2.53873,-1.210284 2.58887,-3.63086 l 0,-1.310546 c -1e-5,-1.188795 -0.23634,-2.126945 -0.70898,-2.814454 -0.47267,-0.694651 -1.10646,-1.041981 -1.90137,-1.041992 -0.78061,1.1e-5 -1.40723,0.347341 -1.87988,1.041992 -0.4655,0.687509 -0.69825,1.622078 -0.69825,2.803711 l 0,1.106446"
         id="path3496"
         inkscape:connector-curvature="0" />
      <path
         d="m 480.6423,94.6521 c -0.63021,0.823568 -1.55046,1.235351 -2.76074,1.235351 -1.05274,0 -1.84766,-0.361653 -2.38476,-1.084961 -0.53712,-0.730467 -0.80925,-1.790362 -0.81641,-3.179687 l 0,-7.573242 1.89062,0 0,7.433593 c 0,1.811852 0.54427,2.717775 1.63282,2.717774 1.15299,10e-7 1.94791,-0.515623 2.38476,-1.546875 l 0,-8.604492 1.90137,0 0,11.623046 -1.80469,0 -0.043,-1.020507"
         id="path3498"
         inkscape:connector-curvature="0" />
      <path
         d="m 487.86105,81.235107 0,2.814454 1.75098,0 0,1.536132 -1.75098,0 0,7.208008 c 0,0.458336 0.0752,0.805666 0.22559,1.041992 0.15039,0.23633 0.4082,0.354494 0.77344,0.354493 0.25064,10e-7 0.50487,-0.04297 0.76269,-0.128907 l -0.0215,1.611328 c -0.42969,0.143229 -0.87012,0.214844 -1.32129,0.214844 -0.75196,0 -1.32487,-0.268554 -1.71875,-0.805664 -0.39388,-0.537108 -0.59082,-1.296222 -0.59082,-2.277344 l 0,-7.21875 -1.77246,0 0,-1.536132 1.77246,0 0,-2.814454 1.89062,0"
         id="path3500"
         inkscape:connector-curvature="0" />
    </g>
  </g>
</svg>
