<?xml version="1.0" encoding="UTF-8" standalone="no"?>
<!-- Created with Inkscape (http://www.inkscape.org/) -->

<svg
   xmlns:dc="http://purl.org/dc/elements/1.1/"
   xmlns:cc="http://creativecommons.org/ns#"
   xmlns:rdf="http://www.w3.org/1999/02/22-rdf-syntax-ns#"
   xmlns:svg="http://www.w3.org/2000/svg"
   xmlns="http://www.w3.org/2000/svg"
   xmlns:sodipodi="http://sodipodi.sourceforge.net/DTD/sodipodi-0.dtd"
   xmlns:inkscape="http://www.inkscape.org/namespaces/inkscape"
   width="1086.6476"
   height="330.00302"
   id="svg2"
   version="1.1"
   inkscape:version="0.48.4 r9939"
   sodipodi:docname="rebase-04.svg">
  <sodipodi:namedview
     id="base"
     pagecolor="#ffffff"
     bordercolor="#666666"
     borderopacity="1.0"
     inkscape:pageopacity="0.0"
     inkscape:pageshadow="2"
     inkscape:zoom="1"
     inkscape:cx="567.4769"
     inkscape:cy="226.23424"
     inkscape:document-units="px"
     inkscape:current-layer="layer1"
     showgrid="false"
     inkscape:window-width="1366"
     inkscape:window-height="744"
     inkscape:window-x="0"
     inkscape:window-y="24"
     inkscape:window-maximized="1"
     fit-margin-top="0"
     fit-margin-left="0"
     fit-margin-right="0"
     fit-margin-bottom="0"
     inkscape:snap-bbox="true"
     inkscape:bbox-paths="true"
     showguides="true"
     inkscape:guide-bbox="true"
     inkscape:bbox-nodes="true"
     inkscape:snap-global="true">
    <sodipodi:guide
       orientation="0,1"
       position="203,292.46883"
       id="guide3262" />
    <sodipodi:guide
       orientation="0,1"
       position="576,194.00001"
       id="guide3185" />
    <sodipodi:guide
       orientation="0,1"
       position="702.64751,100.5"
       id="guide4166" />
  </sodipodi:namedview>
  <defs
     id="defs4">
    <marker
       style="overflow:visible"
       id="Arrow1Mend"
       refX="0"
       refY="0"
       orient="auto"
       inkscape:stockid="Arrow1Mend">
      <path
         transform="matrix(-0.4,0,0,-0.4,-4,0)"
         style="fill-rule:evenodd;stroke:#000000;stroke-width:1pt"
         d="M 0,0 5,-5 -12.5,0 5,5 0,0 z"
         id="path3869"
         inkscape:connector-curvature="0" />
    </marker>
    <marker
       style="overflow:visible"
       id="Arrow1SendXj"
       refX="0"
       refY="0"
       orient="auto"
       inkscape:stockid="Arrow1SendXj">
      <path
         transform="matrix(-0.2,0,0,-0.2,-1.2,0)"
         style="fill:#666666;fill-rule:evenodd;stroke:#666666;stroke-width:1pt"
         d="M 0,0 5,-5 -12.5,0 5,5 0,0 z"
         id="path5637"
         inkscape:connector-curvature="0" />
    </marker>
    <marker
       style="overflow:visible"
       id="Arrow1SendX"
       refX="0"
       refY="0"
       orient="auto"
       inkscape:stockid="Arrow1SendX">
      <path
         transform="matrix(-0.2,0,0,-0.2,-1.2,0)"
         style="fill:#666666;fill-rule:evenodd;stroke:#666666;stroke-width:1pt"
         d="M 0,0 5,-5 -12.5,0 5,5 0,0 z"
         id="path5634"
         inkscape:connector-curvature="0" />
    </marker>
    <marker
       style="overflow:visible"
       id="Arrow1SendV"
       refX="0"
       refY="0"
       orient="auto"
       inkscape:stockid="Arrow1SendV">
      <path
         transform="matrix(-0.2,0,0,-0.2,-1.2,0)"
         style="fill:#666666;fill-rule:evenodd;stroke:#666666;stroke-width:1pt"
         d="M 0,0 5,-5 -12.5,0 5,5 0,0 z"
         id="path5631"
         inkscape:connector-curvature="0" />
    </marker>
    <marker
       style="overflow:visible"
       id="Arrow1Send"
       refX="0"
       refY="0"
       orient="auto"
       inkscape:stockid="Arrow1Send">
      <path
         transform="matrix(-0.2,0,0,-0.2,-1.2,0)"
         style="fill-rule:evenodd;stroke:#000000;stroke-width:1pt"
         d="M 0,0 5,-5 -12.5,0 5,5 0,0 z"
         id="path4825"
         inkscape:connector-curvature="0" />
    </marker>
    <marker
       style="overflow:visible"
       id="Arrow1SendV-0"
       refX="0"
       refY="0"
       orient="auto"
       inkscape:stockid="Arrow1SendV">
      <path
         transform="matrix(-0.2,0,0,-0.2,-1.2,0)"
         style="fill:#666666;fill-rule:evenodd;stroke:#666666;stroke-width:1pt"
         d="M 0,0 5,-5 -12.5,0 5,5 0,0 z"
         id="path5631-5"
         inkscape:connector-curvature="0" />
    </marker>
    <marker
       style="overflow:visible"
       id="Arrow1Sendf"
       refX="0"
       refY="0"
       orient="auto"
       inkscape:stockid="Arrow1Sendf">
      <path
         transform="matrix(-0.2,0,0,-0.2,-1.2,0)"
         style="fill:#4d4d4d;fill-rule:evenodd;stroke:#4d4d4d;stroke-width:1pt"
         d="M 0,0 5,-5 -12.5,0 5,5 0,0 z"
         id="path4517"
         inkscape:connector-curvature="0" />
    </marker>
    <marker
       style="overflow:visible"
       id="Arrow1SendfE"
       refX="0"
       refY="0"
       orient="auto"
       inkscape:stockid="Arrow1SendfE">
      <path
         transform="matrix(-0.2,0,0,-0.2,-1.2,0)"
         style="fill:#5098ff;fill-rule:evenodd;stroke:#5098ff;stroke-width:1pt"
         d="M 0,0 5,-5 -12.5,0 5,5 0,0 z"
         id="path4775"
         inkscape:connector-curvature="0" />
    </marker>
    <marker
       style="overflow:visible"
       id="Arrow1Sendfz"
       refX="0"
       refY="0"
       orient="auto"
       inkscape:stockid="Arrow1Sendfz">
      <path
         transform="matrix(-0.2,0,0,-0.2,-1.2,0)"
         style="fill:#5099ff;fill-rule:evenodd;stroke:#5099ff;stroke-width:1pt"
         d="M 0,0 5,-5 -12.5,0 5,5 0,0 z"
         id="path4948"
         inkscape:connector-curvature="0" />
    </marker>
    <marker
       style="overflow:visible"
       id="Arrow1SendfE-7"
       refX="0"
       refY="0"
       orient="auto"
       inkscape:stockid="Arrow1SendfE">
      <path
         transform="matrix(-0.2,0,0,-0.2,-1.2,0)"
         style="fill:#5098ff;fill-rule:evenodd;stroke:#5098ff;stroke-width:1pt"
         d="M 0,0 5,-5 -12.5,0 5,5 0,0 z"
         id="path4775-3"
         inkscape:connector-curvature="0" />
    </marker>
    <marker
       style="overflow:visible"
       id="Arrow1SendV-3"
       refX="0"
       refY="0"
       orient="auto"
       inkscape:stockid="Arrow1SendV">
      <path
         transform="matrix(-0.2,0,0,-0.2,-1.2,0)"
         style="fill:#666666;fill-rule:evenodd;stroke:#666666;stroke-width:1pt"
         d="M 0,0 5,-5 -12.5,0 5,5 0,0 z"
         id="path5631-7"
         inkscape:connector-curvature="0" />
    </marker>
    <marker
       style="overflow:visible"
       id="marker5117"
       refX="0"
       refY="0"
       orient="auto"
       inkscape:stockid="Arrow1SendV">
      <path
         transform="matrix(-0.2,0,0,-0.2,-1.2,0)"
         style="fill:#666666;fill-rule:evenodd;stroke:#666666;stroke-width:1pt"
         d="M 0,0 5,-5 -12.5,0 5,5 0,0 z"
         id="path5119"
         inkscape:connector-curvature="0" />
    </marker>
    <marker
       style="overflow:visible"
       id="marker5121"
       refX="0"
       refY="0"
       orient="auto"
       inkscape:stockid="Arrow1SendV">
      <path
         transform="matrix(-0.2,0,0,-0.2,-1.2,0)"
         style="fill:#666666;fill-rule:evenodd;stroke:#666666;stroke-width:1pt"
         d="M 0,0 5,-5 -12.5,0 5,5 0,0 z"
         id="path5123"
         inkscape:connector-curvature="0" />
    </marker>
    <marker
       style="overflow:visible"
       id="marker5125"
       refX="0"
       refY="0"
       orient="auto"
       inkscape:stockid="Arrow1SendV">
      <path
         transform="matrix(-0.2,0,0,-0.2,-1.2,0)"
         style="fill:#666666;fill-rule:evenodd;stroke:#666666;stroke-width:1pt"
         d="M 0,0 5,-5 -12.5,0 5,5 0,0 z"
         id="path5127"
         inkscape:connector-curvature="0" />
    </marker>
    <marker
       style="overflow:visible"
       id="marker5129"
       refX="0"
       refY="0"
       orient="auto"
       inkscape:stockid="Arrow1SendV">
      <path
         transform="matrix(-0.2,0,0,-0.2,-1.2,0)"
         style="fill:#666666;fill-rule:evenodd;stroke:#666666;stroke-width:1pt"
         d="M 0,0 5,-5 -12.5,0 5,5 0,0 z"
         id="path5131"
         inkscape:connector-curvature="0" />
    </marker>
    <marker
       style="overflow:visible"
       id="marker5133"
       refX="0"
       refY="0"
       orient="auto"
       inkscape:stockid="Arrow1SendV">
      <path
         transform="matrix(-0.2,0,0,-0.2,-1.2,0)"
         style="fill:#666666;fill-rule:evenodd;stroke:#666666;stroke-width:1pt"
         d="M 0,0 5,-5 -12.5,0 5,5 0,0 z"
         id="path5135"
         inkscape:connector-curvature="0" />
    </marker>
    <marker
       style="overflow:visible"
       id="marker5137"
       refX="0"
       refY="0"
       orient="auto"
       inkscape:stockid="Arrow1SendV">
      <path
         transform="matrix(-0.2,0,0,-0.2,-1.2,0)"
         style="fill:#666666;fill-rule:evenodd;stroke:#666666;stroke-width:1pt"
         d="M 0,0 5,-5 -12.5,0 5,5 0,0 z"
         id="path5139"
         inkscape:connector-curvature="0" />
    </marker>
    <marker
       style="overflow:visible"
       id="Arrow1SendV-03"
       refX="0"
       refY="0"
       orient="auto"
       inkscape:stockid="Arrow1SendV">
      <path
         transform="matrix(-0.2,0,0,-0.2,-1.2,0)"
         style="fill:#666666;fill-rule:evenodd;stroke:#666666;stroke-width:1pt"
         d="M 0,0 5,-5 -12.5,0 5,5 0,0 z"
         id="path5631-4"
         inkscape:connector-curvature="0" />
    </marker>
    <marker
       style="overflow:visible"
       id="Arrow1SendV-8"
       refX="0"
       refY="0"
       orient="auto"
       inkscape:stockid="Arrow1SendV">
      <path
         transform="matrix(-0.2,0,0,-0.2,-1.2,0)"
         style="fill:#666666;fill-rule:evenodd;stroke:#666666;stroke-width:1pt"
         d="M 0,0 5,-5 -12.5,0 5,5 0,0 z"
         id="path5631-2"
         inkscape:connector-curvature="0" />
    </marker>
    <marker
       style="overflow:visible"
       id="Arrow1SendV-5"
       refX="0"
       refY="0"
       orient="auto"
       inkscape:stockid="Arrow1SendV">
      <path
         transform="matrix(-0.2,0,0,-0.2,-1.2,0)"
         style="fill:#666666;fill-rule:evenodd;stroke:#666666;stroke-width:1pt"
         d="M 0,0 5,-5 -12.5,0 5,5 0,0 z"
         id="path5631-29"
         inkscape:connector-curvature="0" />
    </marker>
    <marker
       inkscape:stockid="Arrow1SendVr"
       orient="auto"
       refY="0"
       refX="0"
       id="Arrow1SendVr"
       style="overflow:visible">
      <path
         inkscape:connector-curvature="0"
         id="path4101"
         d="M 0,0 5,-5 -12.5,0 5,5 0,0 z"
         style="fill:#6262ff;fill-rule:evenodd;stroke:#6262ff;stroke-width:1pt"
         transform="matrix(-0.2,0,0,-0.2,-1.2,0)" />
    </marker>
  </defs>
  <metadata
     id="metadata7">
    <rdf:RDF>
      <cc:Work
         rdf:about="">
        <dc:format>image/svg+xml</dc:format>
        <dc:type
           rdf:resource="http://purl.org/dc/dcmitype/StillImage" />
        <dc:title></dc:title>
      </cc:Work>
    </rdf:RDF>
  </metadata>
  <g
     id="layer1"
     inkscape:groupmode="layer"
     inkscape:label="Layer 1"
     transform="translate(-0.6762695,-50.669587)">
    <path
       style="fill:#999999;fill-opacity:1;stroke:#808080;stroke-width:4;stroke-miterlimit:4;stroke-opacity:0.97254902"
       d="m 7.6762695,229.73199 112.6475105,0 c 2.77,0 5,2.23 5,5 l 0,38.44062 c 0,2.77 -2.23,5 -5,5 l -112.6475105,0 c -2.77,0 -5,-2.23 -5,-5 l 0,-38.44062 c 0,-2.77 2.23,-5 5,-5 z"
       id="rect4665"
       inkscape:connector-curvature="0" />
    <g
       style="font-size:22px;font-style:normal;font-variant:normal;font-weight:normal;font-stretch:condensed;text-align:center;line-height:125%;letter-spacing:0px;word-spacing:0px;writing-mode:lr-tb;text-anchor:middle;fill:#ffffff;fill-opacity:1;stroke:none;font-family:Roboto Condensed;-inkscape-font-specification:'Roboto Condensed, Condensed'"
       id="text4667">
      <path
         d="m 44.594238,255.5368 c -0.759121,0.96681 -1.647141,1.4502 -2.664062,1.4502 -1.138676,0 -2.044599,-0.47981 -2.717774,-1.43945 -0.673178,-0.95963 -1.009766,-2.21647 -1.009765,-3.77051 -1e-6,-1.6328 0.365233,-2.94335 1.095703,-3.93164 0.737627,-0.98827 1.74023,-1.48241 3.007812,-1.48242 1.317702,1e-5 2.34537,0.57293 3.083008,1.71875 0.744783,1.13868 1.117178,2.71778 1.117188,4.7373 l 0,0.59082 c -1e-5,1.73308 -0.132497,3.13673 -0.397461,4.21094 -0.257822,1.07422 -0.640959,1.94076 -1.149414,2.59961 -0.508471,0.65885 -1.156583,1.16016 -1.944336,1.5039 -0.787766,0.33659 -1.772465,0.50489 -2.954102,0.50489 l 0,-1.67578 0.333008,0 c 1.346349,-0.0286 2.366856,-0.43685 3.061523,-1.22461 0.701816,-0.79492 1.081373,-2.05892 1.138672,-3.792 m -2.341797,-0.19336 c 0.458328,1e-5 0.905919,-0.18977 1.342774,-0.56933 0.436842,-0.38671 0.777011,-0.89159 1.020508,-1.51465 l 0,-0.83789 c -8e-6,-1.29621 -0.225594,-2.35253 -0.676758,-3.16895 -0.451178,-0.82355 -0.995449,-1.23533 -1.632813,-1.23535 -0.687504,2e-5 -1.235355,0.34019 -1.643554,1.02051 -0.401045,0.67319 -0.601566,1.55047 -0.601563,2.63184 -3e-6,1.08139 0.196937,1.96583 0.59082,2.65332 0.393877,0.68034 0.927405,1.02051 1.600586,1.0205"
         id="path3259"
         inkscape:connector-curvature="0" />
      <path
         d="m 55.830566,246.56708 0,1.68652 -0.311523,0 c -1.267584,0.0287 -2.259445,0.45835 -2.975586,1.28906 -0.71615,0.82358 -1.127933,2.06609 -1.235352,3.72754 0.694658,-0.87369 1.582678,-1.31053 2.664063,-1.31054 1.152988,10e-6 2.066073,0.47624 2.739258,1.42871 0.680329,0.94532 1.020498,2.18783 1.020508,3.72754 -1e-5,1.63997 -0.375986,2.9362 -1.12793,3.88867 -0.7448,0.95247 -1.747403,1.42871 -3.007813,1.42871 -1.267582,0 -2.288089,-0.56218 -3.061523,-1.68652 -0.773439,-1.12435 -1.160158,-2.61751 -1.160156,-4.4795 l 0,-0.76269 c -2e-6,-2.14843 0.232745,-3.86002 0.698242,-5.13477 0.465492,-1.27472 1.149411,-2.22004 2.051758,-2.83594 0.9095,-0.62303 2.037428,-0.94529 3.383789,-0.96679 l 0.322265,0 m -2.180664,7.04687 c -0.51563,1e-5 -0.991866,0.19695 -1.428711,0.59082 -0.436852,0.39389 -0.751956,0.89519 -0.945312,1.50391 l 0,0.78418 c -3e-6,1.26758 0.222002,2.30241 0.666016,3.10449 0.451167,0.79492 1.002599,1.19239 1.654296,1.19238 0.708978,10e-6 1.263991,-0.32584 1.665039,-0.97754 0.401034,-0.65885 0.601555,-1.52538 0.601563,-2.5996 -8e-6,-1.05989 -0.200529,-1.92285 -0.601563,-2.58887 -0.401048,-0.67317 -0.938157,-1.00976 -1.611328,-1.00977"
         id="path3261"
         inkscape:connector-curvature="0" />
      <path
         d="m 59.848145,255.88055 c -1e-6,-1.79035 0.333006,-3.15461 0.999023,-4.09277 0.673174,-0.93814 1.63639,-1.40721 2.889648,-1.40723 1.11002,2e-5 1.976556,0.45119 2.59961,1.35352 l 0,-6.01563 1.901367,0 0,16.5 -1.740234,0 -0.09668,-1.24609 c -0.623054,0.97396 -1.514655,1.46094 -2.674805,1.46094 -1.203128,0 -2.14844,-0.4655 -2.835937,-1.39649 -0.68034,-0.93814 -1.027671,-2.25943 -1.041992,-3.96386 l 0,-1.19239 m 1.901367,1.08497 c -3e-6,1.30338 0.193356,2.26302 0.580078,2.8789 0.386715,0.60873 1.016922,0.91309 1.890625,0.91309 0.945306,0 1.650709,-0.47624 2.116211,-1.42871 l 0,-5.86524 c -0.486986,-0.93098 -1.188809,-1.39647 -2.105469,-1.39648 -0.873702,1e-5 -1.50391,0.30795 -1.890625,0.92383 -0.386722,0.60873 -0.583662,1.54688 -0.59082,2.81445 l 0,1.16016"
         id="path3263"
         inkscape:connector-curvature="0" />
      <path
         d="m 77.143066,262.21844 c -0.11459,-0.25065 -0.196947,-0.67317 -0.24707,-1.26757 -0.673183,0.98828 -1.532558,1.48242 -2.578125,1.48242 -1.052738,0 -1.876305,-0.29362 -2.470703,-0.88086 -0.587241,-0.5944 -0.880861,-1.42871 -0.880859,-2.50293 -2e-6,-1.18164 0.40104,-2.11979 1.203125,-2.81445 0.80208,-0.69466 1.901362,-1.04915 3.297851,-1.06348 l 1.396485,0 0,-1.23535 c -8e-6,-0.69465 -0.153979,-1.18879 -0.461915,-1.48242 -0.307949,-0.29361 -0.777024,-0.44042 -1.407226,-0.44043 -0.572921,1e-5 -1.038416,0.17188 -1.396484,0.51562 -0.358077,0.3366 -0.537113,0.76629 -0.53711,1.28906 l -1.901367,0 c -10e-7,-0.59439 0.175454,-1.16014 0.526367,-1.69726 0.350909,-0.54426 0.823565,-0.97037 1.417969,-1.27832 0.594397,-0.30793 1.256831,-0.4619 1.987305,-0.46192 1.188795,2e-5 2.091138,0.29722 2.707031,0.89161 0.623038,0.58725 0.941723,1.44662 0.956055,2.57812 l 0,5.86524 c 0.0072,0.89518 0.128897,1.6722 0.365234,2.33105 l 0,0.17187 -1.976563,0 M 74.60791,260.7038 c 0.46549,0 0.9095,-0.12891 1.332031,-0.38672 0.42252,-0.25781 0.730462,-0.58008 0.923829,-0.9668 l 0,-2.77148 -1.074219,0 c -0.902349,0.0143 -1.614914,0.21843 -2.137696,0.6123 -0.522789,0.38672 -0.784182,0.93099 -0.784179,1.63281 -3e-6,0.65886 0.132484,1.13868 0.397461,1.43946 0.26497,0.29362 0.712561,0.44043 1.342773,0.44043"
         id="path3265"
         inkscape:connector-curvature="0" />
      <path
         d="m 89.883301,255.54755 c -1e-5,2.30599 -0.336598,4.0319 -1.009766,5.17773 -0.673185,1.13867 -1.729499,1.70801 -3.168945,1.70801 -1.396489,0 -2.43848,-0.54785 -3.125977,-1.64356 -0.687501,-1.0957 -1.045574,-2.74283 -1.074218,-4.9414 l 0,-2.68555 c -2e-6,-2.28449 0.336587,-3.98892 1.009765,-5.11328 0.680336,-1.12433 1.73665,-1.68651 3.168945,-1.68652 1.410801,1e-5 2.452792,0.53354 3.125977,1.60058 0.680329,1.06707 1.038402,2.68198 1.074219,4.84473 l 0,2.73926 m -1.901367,-2.71778 c -8e-6,-1.65428 -0.182625,-2.87173 -0.547852,-3.65234 -0.365241,-0.78775 -0.948899,-1.18163 -1.750977,-1.18164 -0.780603,1e-5 -1.353519,0.38673 -1.71875,1.16015 -0.365237,0.76629 -0.555016,1.92645 -0.569335,3.48047 l 0,3.22266 c -4e-6,1.64714 0.189775,2.88607 0.569335,3.7168 0.379554,0.82357 0.959631,1.23535 1.740235,1.23535 0.773431,0 1.342767,-0.3903 1.708008,-1.1709 0.365227,-0.7806 0.555005,-1.97298 0.569336,-3.57715 l 0,-3.2334"
         id="path3267"
         inkscape:connector-curvature="0" />
    </g>
    <path
       style="fill:#999999;fill-opacity:1;stroke:#808080;stroke-width:4;stroke-miterlimit:4;stroke-opacity:0.97254902"
       d="m 198.67627,229.73199 112.64751,0 c 2.77,0 5,2.23 5,5 l 0,38.44062 c 0,2.77 -2.23,5 -5,5 l -112.64751,0 c -2.77,0 -5,-2.23 -5,-5 l 0,-38.44062 c 0,-2.77 2.23,-5 5,-5 z"
       id="rect4671"
       inkscape:connector-curvature="0" />
    <g
       style="font-size:22px;font-style:normal;font-variant:normal;font-weight:normal;font-stretch:condensed;text-align:center;line-height:125%;letter-spacing:0px;word-spacing:0px;writing-mode:lr-tb;text-anchor:middle;fill:#ffffff;fill-opacity:1;stroke:none;font-family:Roboto Condensed;-inkscape-font-specification:'Roboto Condensed, Condensed'"
       id="text4675">
      <path
         d="m 232.38232,262.21844 0,-10.08691 -1.51464,0 0,-1.53613 1.51464,0 0,-1.34278 c 0.0215,-1.18162 0.31869,-2.10187 0.89161,-2.76074 0.58007,-0.666 1.39648,-0.999 2.44921,-0.99902 0.37956,2e-5 0.76269,0.0609 1.14942,0.18262 l -0.0967,1.61132 c -0.27214,-0.0644 -0.56218,-0.0967 -0.87012,-0.0967 -1.08138,2e-5 -1.62207,0.76988 -1.62207,2.30957 l 0,1.09571 1.98731,0 0,1.53613 -1.98731,0 0,10.08691 -1.90137,0"
         id="path3272"
         inkscape:connector-curvature="0" />
      <path
         d="m 246.70166,255.54755 c -1e-5,2.30599 -0.3366,4.0319 -1.00977,5.17773 -0.67318,1.13867 -1.72949,1.70801 -3.16894,1.70801 -1.39649,0 -2.43848,-0.54785 -3.12598,-1.64356 -0.6875,-1.0957 -1.04557,-2.74283 -1.07422,-4.9414 l 0,-2.68555 c 0,-2.28449 0.33659,-3.98892 1.00977,-5.11328 0.68034,-1.12433 1.73665,-1.68651 3.16894,-1.68652 1.41081,1e-5 2.4528,0.53354 3.12598,1.60058 0.68033,1.06707 1.0384,2.68198 1.07422,4.84473 l 0,2.73926 m -1.90137,-2.71778 c 0,-1.65428 -0.18262,-2.87173 -0.54785,-3.65234 -0.36524,-0.78775 -0.9489,-1.18163 -1.75098,-1.18164 -0.7806,1e-5 -1.35351,0.38673 -1.71875,1.16015 -0.36523,0.76629 -0.55501,1.92645 -0.56933,3.48047 l 0,3.22266 c 0,1.64714 0.18977,2.88607 0.56933,3.7168 0.37956,0.82357 0.95964,1.23535 1.74024,1.23535 0.77343,0 1.34277,-0.3903 1.70801,-1.1709 0.36522,-0.7806 0.555,-1.97298 0.56933,-3.57715 l 0,-3.2334"
         id="path3274"
         inkscape:connector-curvature="0" />
      <path
         d="m 248.979,255.88055 c 0,-1.79035 0.33301,-3.15461 0.99903,-4.09277 0.67317,-0.93814 1.63639,-1.40721 2.88965,-1.40723 1.11002,2e-5 1.97655,0.45119 2.59961,1.35352 l 0,-6.01563 1.90136,0 0,16.5 -1.74023,0 -0.0967,-1.24609 c -0.62306,0.97396 -1.51466,1.46094 -2.67481,1.46094 -1.20313,0 -2.14844,-0.4655 -2.83593,-1.39649 -0.68034,-0.93814 -1.02767,-2.25943 -1.042,-3.96386 l 0,-1.19239 m 1.90137,1.08497 c 0,1.30338 0.19336,2.26302 0.58008,2.8789 0.38671,0.60873 1.01692,0.91309 1.89062,0.91309 0.94531,0 1.65071,-0.47624 2.11622,-1.42871 l 0,-5.86524 c -0.48699,-0.93098 -1.18881,-1.39647 -2.10547,-1.39648 -0.87371,1e-5 -1.50391,0.30795 -1.89063,0.92383 -0.38672,0.60873 -0.58366,1.54688 -0.59082,2.81445 l 0,1.16016"
         id="path3276"
         inkscape:connector-curvature="0" />
      <path
         d="m 259.89307,255.88055 c 0,-1.79035 0.333,-3.15461 0.99902,-4.09277 0.67317,-0.93814 1.63639,-1.40721 2.88965,-1.40723 1.11002,2e-5 1.97655,0.45119 2.59961,1.35352 l 0,-6.01563 1.90136,0 0,16.5 -1.74023,0 -0.0967,-1.24609 c -0.62305,0.97396 -1.51465,1.46094 -2.6748,1.46094 -1.20313,0 -2.14844,-0.4655 -2.83594,-1.39649 -0.68034,-0.93814 -1.02767,-2.25943 -1.04199,-3.96386 l 0,-1.19239 m 1.90136,1.08497 c 0,1.30338 0.19336,2.26302 0.58008,2.8789 0.38672,0.60873 1.01692,0.91309 1.89063,0.91309 0.9453,0 1.65071,-0.47624 2.11621,-1.42871 l 0,-5.86524 c -0.48699,-0.93098 -1.18881,-1.39647 -2.10547,-1.39648 -0.8737,1e-5 -1.50391,0.30795 -1.89063,0.92383 -0.38672,0.60873 -0.58366,1.54688 -0.59082,2.81445 l 0,1.16016"
         id="path3278"
         inkscape:connector-curvature="0" />
      <path
         d="m 275.36182,262.43329 c -1.44662,0 -2.55665,-0.42969 -3.33008,-1.28906 -0.77344,-0.86654 -1.16732,-2.13412 -1.18164,-3.80274 l 0,-1.40722 c 0,-1.73307 0.37597,-3.09016 1.12793,-4.07129 0.75911,-0.98827 1.81542,-1.48241 3.16894,-1.48243 1.36067,2e-5 2.3776,0.43328 3.05078,1.29981 0.67317,0.86655 1.01692,2.21648 1.03125,4.0498 l 0,1.2461 -6.48828,0 0,0.26855 c 0,1.2461 0.23275,2.15202 0.69824,2.71778 0.47266,0.56575 1.14941,0.84863 2.03028,0.84863 0.55859,0 1.04915,-0.10384 1.47168,-0.31153 0.42968,-0.21484 0.83072,-0.55143 1.20312,-1.00976 l 0.98828,1.20312 c -0.82357,1.16016 -2.08041,1.74024 -3.7705,1.74024 m -0.21485,-10.41992 c -0.78776,1e-5 -1.37142,0.27214 -1.75097,0.8164 -0.37956,0.53712 -0.59441,1.37501 -0.64454,2.51367 l 4.57618,0 0,-0.25781 c -0.0501,-1.10285 -0.25066,-1.89061 -0.60157,-2.36328 -0.34375,-0.47265 -0.87012,-0.70897 -1.5791,-0.70898"
         id="path3280"
         inkscape:connector-curvature="0" />
    </g>
    <path
       style="fill:none;stroke:#666666;stroke-width:5;stroke-linecap:butt;stroke-linejoin:miter;stroke-miterlimit:4;stroke-opacity:1;stroke-dasharray:none;marker-end:url(#Arrow1SendV);display:inline"
       d="m 193.67627,253.9523 -68.35249,0"
       id="path4683"
       inkscape:connector-type="polyline"
       inkscape:connector-curvature="0"
       sodipodi:nodetypes="cc"
       inkscape:connection-start="#rect4671"
       inkscape:connection-start-point="d4"
       inkscape:connection-end="#rect4665"
       inkscape:connection-end-point="d4" />
    <path
       style="fill:#999999;fill-opacity:1;stroke:#808080;stroke-width:4;stroke-miterlimit:4;stroke-opacity:0.97254902"
       d="m 389.67627,229.73199 112.64751,0 c 2.77,0 5,2.23 5,5 l 0,38.44062 c 0,2.77 -2.23,5 -5,5 l -112.64751,0 c -2.77,0 -5,-2.23 -5,-5 l 0,-38.44062 c 0,-2.77 2.23,-5 5,-5 z"
       id="rect4727"
       inkscape:connector-curvature="0" />
    <g
       style="font-size:22px;font-style:normal;font-variant:normal;font-weight:normal;font-stretch:condensed;text-align:center;line-height:125%;letter-spacing:0px;word-spacing:0px;writing-mode:lr-tb;text-anchor:middle;fill:#ffffff;fill-opacity:1;stroke:none;font-family:Roboto Condensed;-inkscape-font-specification:'Roboto Condensed, Condensed'"
       id="text4729"
       transform="translate(0,-99.010775)">
      <path
         d="m 423.26416,353.37665 0.67676,-7.79883 6.7998,0 0,1.83691 -5.19922,0 -0.36523,4.26465 c 0.64453,-0.45116 1.33919,-0.67675 2.08398,-0.67676 1.21744,1e-5 2.1735,0.47267 2.86817,1.41797 0.69465,0.94532 1.04198,2.21648 1.04199,3.81348 -1e-5,1.61849 -0.37957,2.88965 -1.13867,3.81348 -0.75196,0.92382 -1.78679,1.38574 -3.10449,1.38574 -1.17449,0 -2.13054,-0.38314 -2.86817,-1.14942 -0.73763,-0.76627 -1.16016,-1.82616 -1.26758,-3.17968 l 1.78321,0 c 0.10742,0.89518 0.36165,1.57194 0.76269,2.03027 0.4082,0.45117 0.93815,0.67676 1.58985,0.67676 0.73762,0 1.31412,-0.31868 1.72949,-0.95606 0.41536,-0.64452 0.62304,-1.51106 0.62305,-2.59961 -10e-6,-1.02408 -0.2256,-1.85839 -0.67676,-2.50293 -0.44402,-0.64452 -1.04558,-0.96678 -1.80469,-0.96679 -0.63021,1e-5 -1.1351,0.16472 -1.51465,0.49414 l -0.50488,0.50488 -1.51465,-0.4082"
         id="path3319"
         inkscape:connector-curvature="0" />
      <path
         d="m 434.13525,353.37665 0.67676,-7.79883 6.79981,0 0,1.83691 -5.19922,0 -0.36524,4.26465 c 0.64453,-0.45116 1.33919,-0.67675 2.08399,-0.67676 1.21744,1e-5 2.17349,0.47267 2.86816,1.41797 0.69465,0.94532 1.04198,2.21648 1.04199,3.81348 -10e-6,1.61849 -0.37956,2.88965 -1.13867,3.81348 -0.75196,0.92382 -1.78679,1.38574 -3.10449,1.38574 -1.17448,0 -2.13054,-0.38314 -2.86816,-1.14942 -0.73764,-0.76627 -1.16016,-1.82616 -1.26758,-3.17968 l 1.7832,0 c 0.10742,0.89518 0.36165,1.57194 0.7627,2.03027 0.40819,0.45117 0.93814,0.67676 1.58984,0.67676 0.73762,0 1.31412,-0.31868 1.72949,-0.95606 0.41536,-0.64452 0.62304,-1.51106 0.62305,-2.59961 -10e-6,-1.02408 -0.22559,-1.85839 -0.67676,-2.50293 -0.44402,-0.64452 -1.04558,-0.96678 -1.80469,-0.96679 -0.63021,1e-5 -1.13509,0.16472 -1.51464,0.49414 l -0.50489,0.50488 -1.51465,-0.4082"
         id="path3321"
         inkscape:connector-curvature="0" />
      <path
         d="m 448.43311,359.81122 c 0.6302,0 1.13508,-0.19336 1.51464,-0.58008 0.37955,-0.39388 0.58724,-0.95247 0.62305,-1.67578 l 1.79395,0 c -0.043,1.11719 -0.44044,2.0446 -1.19239,2.78223 -0.7448,0.73046 -1.65788,1.0957 -2.73925,1.0957 -1.43946,0 -2.53874,-0.45117 -3.29786,-1.35352 -0.75195,-0.9095 -1.12793,-2.25943 -1.12793,-4.0498 l 0,-1.27832 c 0,-1.75455 0.37598,-3.08658 1.12793,-3.9961 0.75195,-0.91665 1.84766,-1.37498 3.28711,-1.375 1.1888,2e-5 2.13053,0.37599 2.8252,1.12793 0.70181,0.75197 1.07421,1.77964 1.11719,3.08301 l -1.79395,0 c -0.043,-0.85936 -0.25066,-1.5039 -0.62305,-1.93359 -0.36524,-0.42968 -0.8737,-0.64452 -1.52539,-0.64453 -0.84505,10e-6 -1.47168,0.2793 -1.87988,0.83789 -0.40821,0.55144 -0.61947,1.46094 -0.63379,2.72851 l 0,1.48242 c 0,1.36785 0.20052,2.33464 0.60156,2.9004 0.4082,0.56575 1.04915,0.84863 1.92286,0.84863"
         id="path3323"
         inkscape:connector-curvature="0" />
      <path
         d="m 455.41553,361.21844 0,-10.08691 -1.51465,0 0,-1.53613 1.51465,0 0,-1.34278 c 0.0215,-1.18162 0.31868,-2.10187 0.8916,-2.76074 0.58007,-0.666 1.39648,-0.999 2.44922,-0.99902 0.37955,2e-5 0.76269,0.0609 1.14941,0.18262 l -0.0967,1.61132 c -0.27214,-0.0644 -0.56218,-0.0967 -0.87012,-0.0967 -1.08138,2e-5 -1.62207,0.76988 -1.62207,2.30957 l 0,1.09571 1.98731,0 0,1.53613 -1.98731,0 0,10.08691 -1.90136,0"
         id="path3325"
         inkscape:connector-curvature="0" />
      <path
         d="m 467.62939,354.5368 c -0.75912,0.96681 -1.64714,1.4502 -2.66406,1.4502 -1.13867,0 -2.0446,-0.47981 -2.71777,-1.43945 -0.67318,-0.95963 -1.00977,-2.21647 -1.00977,-3.77051 0,-1.6328 0.36524,-2.94335 1.09571,-3.93164 0.73762,-0.98827 1.74023,-1.48241 3.00781,-1.48242 1.3177,1e-5 2.34537,0.57293 3.08301,1.71875 0.74478,1.13868 1.11717,2.71778 1.11718,4.7373 l 0,0.59082 c -10e-6,1.73308 -0.13249,3.13673 -0.39746,4.21094 -0.25782,1.07422 -0.64096,1.94076 -1.14941,2.59961 -0.50847,0.65885 -1.15658,1.16016 -1.94434,1.5039 -0.78776,0.33659 -1.77246,0.50489 -2.9541,0.50489 l 0,-1.67578 0.33301,0 c 1.34635,-0.0286 2.36686,-0.43685 3.06152,-1.22461 0.70182,-0.79492 1.08138,-2.05892 1.13867,-3.792 m -2.34179,-0.19336 c 0.45833,1e-5 0.90592,-0.18977 1.34277,-0.56933 0.43684,-0.38671 0.77701,-0.89159 1.02051,-1.51465 l 0,-0.83789 c -10e-6,-1.29621 -0.22559,-2.35253 -0.67676,-3.16895 -0.45118,-0.82355 -0.99545,-1.23533 -1.63281,-1.23535 -0.68751,2e-5 -1.23536,0.34019 -1.64356,1.02051 -0.40104,0.67319 -0.60156,1.55047 -0.60156,2.63184 0,1.08139 0.19694,1.96583 0.59082,2.65332 0.39388,0.68034 0.92741,1.02051 1.60059,1.0205"
         id="path3327"
         inkscape:connector-curvature="0" />
    </g>
    <path
       style="fill:none;stroke:#666666;stroke-width:5;stroke-linecap:butt;stroke-linejoin:miter;stroke-miterlimit:4;stroke-opacity:1;stroke-dasharray:none;marker-end:url(#Arrow1SendV);display:inline"
       d="m 384.67627,253.9523 -68.35249,0"
       id="path4733"
       inkscape:connector-type="polyline"
       inkscape:connector-curvature="0"
       sodipodi:nodetypes="cc"
       inkscape:connection-start-point="d4"
       inkscape:connection-start="#rect4727"
       inkscape:connection-end="#rect4671"
       inkscape:connection-end-point="d4" />
    <path
       style="fill:#b380ff;fill-opacity:1;stroke:#9955ff;stroke-width:4;stroke-miterlimit:4;stroke-opacity:0.97254902"
       d="m 583.67626,330.23199 112.64753,0 c 2.77,0 5,2.23 5,5 l 0,38.44062 c 0,2.77 -2.23,5 -5,5 l -112.64752,0 c -2.77,0 -5,-2.23 -5,-5 l 0,-38.44062 c 0,-2.77 2.23,-5 5,-5 z"
       id="rect4743"
       inkscape:connector-curvature="0" />
    <g
       style="font-size:22px;font-style:normal;font-variant:normal;font-weight:normal;font-stretch:condensed;text-align:center;line-height:125%;letter-spacing:0px;word-spacing:0px;writing-mode:lr-tb;text-anchor:middle;fill:#ffffff;fill-opacity:1;stroke:none;font-family:Roboto Condensed;-inkscape-font-specification:'Roboto Condensed, Condensed'"
       id="text4745"
       transform="translate(3e-5,-98)">
      <path
         d="m 581.73437,452.13541 c 0,-1.6901 0.40821,-3.02571 1.22461,-4.00684 0.82357,-0.98827 1.90853,-1.48241 3.25489,-1.48242 1.34634,1e-5 2.42772,0.47983 3.24414,1.43945 0.82356,0.95965 1.24608,2.26661 1.26758,3.9209 l 0,1.22461 c -10e-6,1.68295 -0.40822,3.01498 -1.22461,3.99609 -0.81642,0.98112 -1.90496,1.47168 -3.26563,1.47168 -1.34636,0 -2.42774,-0.47623 -3.24414,-1.42871 -0.80925,-0.95247 -1.22819,-2.24153 -1.25684,-3.86719 l 0,-1.26757 m 1.90137,1.0957 c 0,1.19597 0.23275,2.1377 0.69824,2.82519 0.47266,0.68035 1.10644,1.02051 1.90137,1.02051 1.67578,0 2.53873,-1.21028 2.58887,-3.63086 l 0,-1.31054 c -10e-6,-1.1888 -0.23634,-2.12695 -0.70899,-2.81446 -0.47266,-0.69465 -1.10645,-1.04198 -1.90136,-1.04199 -0.78061,1e-5 -1.40723,0.34734 -1.87989,1.04199 -0.46549,0.68751 -0.69824,1.62208 -0.69824,2.80371 l 0,1.10645"
         id="path3359"
         inkscape:connector-curvature="0" />
      <path
         d="m 597.97656,448.6442 c -0.26498,-0.0501 -0.55144,-0.0752 -0.85937,-0.0752 -0.97397,10e-6 -1.6543,0.53354 -2.04102,1.60059 l 0,8.31445 -1.90137,0 0,-11.62305 1.84766,0 0.0322,1.18164 c 0.50846,-0.93098 1.22818,-1.39647 2.15918,-1.39648 0.30077,1e-5 0.55142,0.0501 0.75195,0.15039 l 0.0107,1.84766"
         id="path3361"
         inkscape:connector-curvature="0" />
      <path
         d="m 601.92969,458.48404 -1.90137,0 0,-11.62305 1.90137,0 0,11.62305 m 0.15039,-14.70606 c -10e-6,0.32228 -0.0895,0.59084 -0.26856,0.80567 -0.17904,0.21486 -0.45117,0.32228 -0.8164,0.32226 -0.35808,2e-5 -0.62663,-0.1074 -0.80567,-0.32226 -0.17903,-0.21483 -0.26855,-0.48339 -0.26855,-0.80567 0,-0.32225 0.0895,-0.59438 0.26855,-0.8164 0.17904,-0.22199 0.44759,-0.33299 0.80567,-0.33301 0.35807,2e-5 0.62662,0.1146 0.80566,0.34375 0.1862,0.22202 0.27929,0.49058 0.2793,0.80566"
         id="path3363"
         inkscape:connector-curvature="0" />
      <path
         d="m 604.5293,452.14615 c 0,-1.81184 0.32942,-3.17968 0.98828,-4.10352 0.65885,-0.93098 1.62206,-1.39647 2.88965,-1.39648 1.18163,1e-5 2.08039,0.50489 2.69629,1.51465 l 0.0967,-1.29981 1.71875,0 0,11.73047 c -10e-6,1.43945 -0.36883,2.54232 -1.10645,3.30859 -0.73764,0.77344 -1.76531,1.16016 -3.08301,1.16016 -0.57292,0 -1.21745,-0.14323 -1.93359,-0.42969 -0.70899,-0.2793 -1.24252,-0.62663 -1.60059,-1.04199 l 0.77344,-1.31055 c 0.78776,0.77344 1.65787,1.16016 2.61035,1.16016 1.58268,0 2.3955,-0.86296 2.43848,-2.58887 l 0,-1.51464 c -0.61589,0.9095 -1.48959,1.36425 -2.6211,1.36425 -1.20312,0 -2.14127,-0.45117 -2.81445,-1.35351 -0.67318,-0.90951 -1.02409,-2.21289 -1.05273,-3.91016 l 0,-1.28906 m 1.90136,1.08496 c 0,1.30339 0.18978,2.26302 0.56934,2.87891 0.38671,0.60872 1.01692,0.91308 1.89062,0.91308 0.94531,0 1.65429,-0.48339 2.12696,-1.45019 l 0,-5.81153 c -0.49415,-0.95246 -1.19597,-1.4287 -2.10547,-1.42871 -0.8737,10e-6 -1.50391,0.30795 -1.89063,0.92383 -0.38672,0.60873 -0.58366,1.54688 -0.59082,2.81445 l 0,1.16016"
         id="path3365"
         inkscape:connector-curvature="0" />
      <path
         d="m 617.78516,458.48404 -1.90137,0 0,-11.62305 1.90137,0 0,11.62305 m 0.15039,-14.70606 c -1e-5,0.32228 -0.0895,0.59084 -0.26856,0.80567 -0.17904,0.21486 -0.45117,0.32228 -0.8164,0.32226 -0.35808,2e-5 -0.62663,-0.1074 -0.80567,-0.32226 -0.17904,-0.21483 -0.26855,-0.48339 -0.26855,-0.80567 0,-0.32225 0.0895,-0.59438 0.26855,-0.8164 0.17904,-0.22199 0.44759,-0.33299 0.80567,-0.33301 0.35807,2e-5 0.62662,0.1146 0.80566,0.34375 0.18619,0.22202 0.27929,0.49058 0.2793,0.80566"
         id="path3367"
         inkscape:connector-curvature="0" />
      <path
         d="m 622.55469,446.86099 0.0537,1.25684 c 0.73762,-0.98111 1.67936,-1.47167 2.82519,-1.47168 2.05533,1e-5 3.09733,1.37143 3.12598,4.11426 l 0,7.72363 -1.89062,0 0,-7.6377 c -10e-6,-0.90949 -0.15398,-1.55402 -0.46192,-1.93359 -0.30079,-0.38671 -0.75554,-0.58007 -1.36426,-0.58008 -0.47266,10e-6 -0.89876,0.15756 -1.27832,0.47266 -0.3724,0.31511 -0.67318,0.7269 -0.90234,1.23535 l 0,8.44336 -1.90137,0 0,-11.62305 1.79395,0"
         id="path3369"
         inkscape:connector-curvature="0" />
      <path
         d="m 631.94336,459.82681 -1.61133,0 5.48926,-16.9834 1.60058,0 -5.47851,16.9834"
         id="path3371"
         inkscape:connector-curvature="0" />
      <path
         d="m 641.375,446.86099 0.043,1.07422 c 0.70898,-0.85936 1.64355,-1.28905 2.80371,-1.28906 1.29622,1e-5 2.20214,0.56218 2.71777,1.68652 0.73046,-1.12434 1.74739,-1.68651 3.05078,-1.68652 2.14127,1e-5 3.23697,1.33562 3.28711,4.00683 l 0,7.83106 -1.89062,0 0,-7.64844 c -10e-6,-0.84504 -0.1504,-1.47167 -0.45117,-1.87988 -0.3008,-0.41536 -0.80926,-0.62304 -1.52539,-0.62305 -0.57293,10e-6 -1.03843,0.22202 -1.39649,0.66602 -0.35808,0.44402 -0.56576,1.00977 -0.62305,1.69726 l 0,7.78809 -1.9121,0 0,-7.73438 c -0.0215,-1.61131 -0.67677,-2.41698 -1.96582,-2.41699 -0.95964,10e-6 -1.6364,0.47983 -2.03028,1.43946 l 0,8.71191 -1.89062,0 0,-11.62305 1.7832,0"
         id="path3373"
         inkscape:connector-curvature="0" />
      <path
         d="m 662.10742,458.48404 c -0.11459,-0.25065 -0.19695,-0.67318 -0.24707,-1.26758 -0.67318,0.98828 -1.53256,1.48242 -2.57812,1.48242 -1.05274,0 -1.87631,-0.29362 -2.47071,-0.88086 -0.58724,-0.5944 -0.88086,-1.42871 -0.88086,-2.50293 0,-1.18163 0.40104,-2.11978 1.20313,-2.81445 0.80208,-0.69465 1.90136,-1.04915 3.29785,-1.06348 l 1.39648,0 0,-1.23535 c 0,-0.69465 -0.15397,-1.18879 -0.46191,-1.48242 -0.30795,-0.29361 -0.77702,-0.44042 -1.40723,-0.44043 -0.57292,1e-5 -1.03841,0.17189 -1.39648,0.51563 -0.35808,0.33659 -0.53711,0.76628 -0.53711,1.28906 l -1.90137,0 c 0,-0.59439 0.17546,-1.16015 0.52637,-1.69727 0.35091,-0.54426 0.82357,-0.97036 1.41797,-1.27832 0.5944,-0.30793 1.25683,-0.4619 1.9873,-0.46191 1.1888,1e-5 2.09114,0.29721 2.70704,0.8916 0.62303,0.58725 0.94172,1.44662 0.95605,2.57813 l 0,5.86523 c 0.007,0.89518 0.1289,1.6722 0.36523,2.33105 l 0,0.17188 -1.97656,0 m -2.53515,-1.51465 c 0.46549,0 0.9095,-0.1289 1.33203,-0.38672 0.42252,-0.25781 0.73046,-0.58007 0.92382,-0.96679 l 0,-2.77149 -1.07421,0 c -0.90235,0.0143 -1.61492,0.21843 -2.1377,0.61231 -0.52279,0.38672 -0.78418,0.93099 -0.78418,1.63281 0,0.65885 0.13248,1.13867 0.39746,1.43945 0.26497,0.29362 0.71256,0.44043 1.34278,0.44043"
         id="path3375"
         inkscape:connector-curvature="0" />
      <path
         d="m 672.30176,455.50845 c -10e-6,-0.4082 -0.15398,-0.75911 -0.46192,-1.05273 -0.30795,-0.29362 -0.90235,-0.63737 -1.7832,-1.03125 -1.02409,-0.42252 -1.7474,-0.78417 -2.16992,-1.08496 -0.41537,-0.30078 -0.72689,-0.64095 -0.93457,-1.02051 -0.20769,-0.38671 -0.31153,-0.84504 -0.31153,-1.375 0,-0.9453 0.34375,-1.72948 1.03125,-2.35254 0.69466,-0.6302 1.5791,-0.9453 2.65333,-0.94531 1.1315,1e-5 2.041,0.32944 2.72851,0.98828 0.68749,0.65886 1.03124,1.50392 1.03125,2.53516 l -1.89062,0 c -10e-6,-0.52278 -0.17547,-0.96679 -0.52637,-1.33204 -0.35092,-0.37238 -0.79851,-0.55858 -1.34277,-0.55859 -0.5586,1e-5 -0.99903,0.14682 -1.32129,0.44043 -0.31511,0.28647 -0.47266,0.67319 -0.47266,1.16016 0,0.38672 0.11458,0.69825 0.34375,0.93457 0.23632,0.23633 0.7985,0.54786 1.68652,0.93457 1.4108,0.55144 2.37044,1.09213 2.87891,1.62207 0.50845,0.52279 0.76269,1.1888 0.76269,1.99804 0,1.00977 -0.34733,1.81902 -1.04199,2.42774 -0.69467,0.60156 -1.62565,0.90234 -2.79297,0.90234 -1.21029,0 -2.19141,-0.34733 -2.94336,-1.04199 -0.75195,-0.69466 -1.12793,-1.57552 -1.12793,-2.64258 l 1.91211,0 c 0.0215,0.64454 0.21843,1.14942 0.59082,1.51465 0.3724,0.36524 0.89518,0.54785 1.56836,0.54785 0.63021,0 1.11002,-0.13964 1.43946,-0.41894 0.32942,-0.28646 0.49413,-0.6696 0.49414,-1.14942"
         id="path3377"
         inkscape:connector-curvature="0" />
      <path
         d="m 679.15527,444.04654 0,2.81445 1.75098,0 0,1.53614 -1.75098,0 0,7.208 c 0,0.45834 0.0752,0.80567 0.22559,1.042 0.15039,0.23632 0.4082,0.35449 0.77344,0.35449 0.25064,0 0.50487,-0.043 0.76269,-0.12891 l -0.0215,1.61133 c -0.42969,0.14323 -0.87012,0.21484 -1.32129,0.21484 -0.75196,0 -1.32487,-0.26855 -1.71875,-0.80566 -0.39388,-0.53711 -0.59082,-1.29622 -0.59082,-2.27734 l 0,-7.21875 -1.77246,0 0,-1.53614 1.77246,0 0,-2.81445 1.89062,0"
         id="path3379"
         inkscape:connector-curvature="0" />
      <path
         d="m 687.30859,458.69888 c -1.44661,0 -2.55664,-0.42968 -3.33007,-1.28906 -0.77344,-0.86653 -1.16732,-2.13411 -1.18165,-3.80273 l 0,-1.40723 c 0,-1.73307 0.37598,-3.09016 1.12793,-4.07129 0.75912,-0.98827 1.81543,-1.48241 3.16895,-1.48242 1.36067,1e-5 2.3776,0.43328 3.05078,1.2998 0.67317,0.86655 1.01692,2.21648 1.03125,4.04981 l 0,1.24609 -6.48828,0 0,0.26856 c 0,1.24609 0.23274,2.15202 0.69824,2.71777 0.47265,0.56576 1.14941,0.84863 2.03028,0.84863 0.55858,0 1.04914,-0.10384 1.47168,-0.31152 0.42968,-0.21484 0.83072,-0.55143 1.20312,-1.00977 l 0.98828,1.20313 c -0.82357,1.16016 -2.08041,1.74023 -3.77051,1.74023 m -0.21484,-10.41992 c -0.78776,1e-5 -1.37142,0.27215 -1.75098,0.81641 -0.37956,0.53712 -0.5944,1.37501 -0.64453,2.51367 l 4.57617,0 0,-0.25781 c -0.0501,-1.10286 -0.25065,-1.89062 -0.60156,-2.36328 -0.34376,-0.47265 -0.87012,-0.70898 -1.5791,-0.70899"
         id="path3381"
         inkscape:connector-curvature="0" />
      <path
         d="m 698.26562,448.6442 c -0.26497,-0.0501 -0.55143,-0.0752 -0.85937,-0.0752 -0.97396,10e-6 -1.6543,0.53354 -2.04102,1.60059 l 0,8.31445 -1.90136,0 0,-11.62305 1.84765,0 0.0322,1.18164 c 0.50846,-0.93098 1.22819,-1.39647 2.15918,-1.39648 0.30078,1e-5 0.55143,0.0501 0.75195,0.15039 l 0.0107,1.84766"
         id="path3383"
         inkscape:connector-curvature="0" />
    </g>
    <path
       style="fill:#999999;fill-opacity:1;stroke:#808080;stroke-width:4;stroke-miterlimit:4;stroke-opacity:0.97254902"
       d="m 583.67627,229.73199 112.64751,0 c 2.77,0 5,2.23 5,5 l 0,38.44062 c 0,2.77 -2.23,5 -5,5 l -112.64751,0 c -2.77,0 -5,-2.23 -5,-5 l 0,-38.44062 c 0,-2.77 2.23,-5 5,-5 z"
       id="rect5481"
       inkscape:connector-curvature="0" />
    <g
       style="font-size:22px;font-style:normal;font-variant:normal;font-weight:normal;font-stretch:condensed;text-align:center;line-height:125%;letter-spacing:0px;word-spacing:0px;writing-mode:lr-tb;text-anchor:middle;fill:#ffffff;fill-opacity:1;stroke:none;font-family:Roboto Condensed;-inkscape-font-specification:'Roboto Condensed, Condensed'"
       id="text5483"
       transform="translate(0,-99.010775)">
      <path
         d="m 623.2583,354.54755 c -10e-6,2.30599 -0.3366,4.0319 -1.00976,5.17773 -0.67319,1.13867 -1.7295,1.70801 -3.16895,1.70801 -1.39649,0 -2.43848,-0.54785 -3.12598,-1.64356 -0.6875,-1.0957 -1.04557,-2.74283 -1.07422,-4.9414 l 0,-2.68555 c 0,-2.28449 0.33659,-3.98892 1.00977,-5.11328 0.68034,-1.12433 1.73665,-1.68651 3.16895,-1.68652 1.4108,1e-5 2.45279,0.53354 3.12597,1.60058 0.68033,1.06707 1.0384,2.68198 1.07422,4.84473 l 0,2.73926 m -1.90137,-2.71778 c 0,-1.65428 -0.18262,-2.87173 -0.54785,-3.65234 -0.36524,-0.78775 -0.9489,-1.18163 -1.75097,-1.18164 -0.78061,10e-6 -1.35352,0.38673 -1.71875,1.16015 -0.36524,0.76629 -0.55502,1.92645 -0.56934,3.48047 l 0,3.22266 c 0,1.64714 0.18977,2.88607 0.56934,3.7168 0.37955,0.82357 0.95963,1.23535 1.74023,1.23535 0.77343,0 1.34277,-0.3903 1.70801,-1.1709 0.36522,-0.7806 0.555,-1.97298 0.56933,-3.57715 l 0,-3.2334"
         id="path3398"
         inkscape:connector-curvature="0" />
      <path
         d="m 626.771,361.21844 0,-10.08691 -1.51465,0 0,-1.53613 1.51465,0 0,-1.34278 c 0.0215,-1.18162 0.31868,-2.10187 0.8916,-2.76074 0.58007,-0.666 1.39648,-0.999 2.44922,-0.99902 0.37955,2e-5 0.76269,0.0609 1.14941,0.18262 l -0.0967,1.61132 c -0.27214,-0.0644 -0.56218,-0.0967 -0.87012,-0.0967 -1.08138,2e-5 -1.62207,0.76988 -1.62207,2.30957 l 0,1.09571 1.98731,0 0,1.53613 -1.98731,0 0,10.08691 -1.90136,0"
         id="path3400"
         inkscape:connector-curvature="0" />
      <path
         d="m 635.16064,352.43134 1.21387,0 c 0.78059,0 1.38216,-0.2399 1.80469,-0.71973 0.42252,-0.47981 0.63378,-1.13508 0.63379,-1.96582 -10e-6,-1.83332 -0.70899,-2.74999 -2.12695,-2.75 -0.68035,10e-6 -1.21388,0.24708 -1.60059,0.74121 -0.38672,0.49415 -0.58008,1.14226 -0.58008,1.94434 l -1.89062,0 c -10e-6,-1.25325 0.37955,-2.2845 1.13867,-3.09375 0.76627,-0.8164 1.74381,-1.2246 2.93262,-1.22461 1.23176,1e-5 2.2093,0.38673 2.93261,1.16015 0.7233,0.76629 1.08495,1.85483 1.08496,3.26563 -10e-6,0.72332 -0.18978,1.40007 -0.56933,2.03027 -0.37241,0.62306 -0.85939,1.08139 -1.46094,1.375 1.47525,0.54428 2.21288,1.76531 2.21289,3.66309 -10e-6,1.39648 -0.39031,2.51009 -1.1709,3.34082 -0.77344,0.82356 -1.78679,1.23535 -3.04004,1.23535 -1.23893,0 -2.24154,-0.3903 -3.00781,-1.1709 -0.75912,-0.78776 -1.13867,-1.84407 -1.13867,-3.16895 l 1.90137,0 c -10e-6,0.83074 0.20051,1.49317 0.60156,1.98731 0.40104,0.48698 0.94889,0.73047 1.64355,0.73047 0.70898,0 1.27116,-0.23991 1.68653,-0.71973 0.42252,-0.47981 0.63378,-1.21028 0.63379,-2.1914 -1e-5,-1.89778 -0.89877,-2.84668 -2.69629,-2.84668 l -1.13868,0 0,-1.62207"
         id="path3402"
         inkscape:connector-curvature="0" />
      <path
         d="m 647.92236,361.43329 c -1.44662,0 -2.55664,-0.42969 -3.33007,-1.28906 -0.77344,-0.86654 -1.16732,-2.13412 -1.18165,-3.80274 l 0,-1.40722 c 0,-1.73307 0.37598,-3.09016 1.12793,-4.07129 0.75912,-0.98827 1.81543,-1.48241 3.16895,-1.48243 1.36067,2e-5 2.3776,0.43328 3.05078,1.29981 0.67317,0.86655 1.01692,2.21648 1.03125,4.0498 l 0,1.2461 -6.48828,0 0,0.26855 c 0,1.2461 0.23274,2.15202 0.69824,2.71778 0.47265,0.56575 1.14941,0.84863 2.03028,0.84863 0.55858,0 1.04914,-0.10384 1.47167,-0.31153 0.42968,-0.21484 0.83073,-0.55143 1.20313,-1.00976 l 0.98828,1.20312 c -0.82358,1.16016 -2.08041,1.74024 -3.77051,1.74024 m -0.21484,-10.41992 c -0.78777,10e-6 -1.37142,0.27214 -1.75098,0.8164 -0.37956,0.53712 -0.5944,1.37501 -0.64453,2.51367 l 4.57617,0 0,-0.25781 c -0.0501,-1.10285 -0.25065,-1.89061 -0.60156,-2.36328 -0.34376,-0.47265 -0.87012,-0.70897 -1.5791,-0.70898"
         id="path3404"
         inkscape:connector-curvature="0" />
      <path
         d="m 654.91553,361.21844 0,-10.08691 -1.51465,0 0,-1.53613 1.51465,0 0,-1.34278 c 0.0215,-1.18162 0.31868,-2.10187 0.8916,-2.76074 0.58007,-0.666 1.39648,-0.999 2.44922,-0.99902 0.37955,2e-5 0.76269,0.0609 1.14941,0.18262 l -0.0967,1.61132 c -0.27214,-0.0644 -0.56218,-0.0967 -0.87012,-0.0967 -1.08138,2e-5 -1.62207,0.76988 -1.62207,2.30957 l 0,1.09571 1.98731,0 0,1.53613 -1.98731,0 0,10.08691 -1.90136,0"
         id="path3406"
         inkscape:connector-curvature="0" />
      <path
         d="m 661.87646,361.21844 0,-10.08691 -1.51464,0 0,-1.53613 1.51464,0 0,-1.34278 c 0.0215,-1.18162 0.31869,-2.10187 0.89161,-2.76074 0.58007,-0.666 1.39648,-0.999 2.44922,-0.99902 0.37955,2e-5 0.76268,0.0609 1.14941,0.18262 l -0.0967,1.61132 c -0.27214,-0.0644 -0.56218,-0.0967 -0.87012,-0.0967 -1.08138,2e-5 -1.62207,0.76988 -1.62207,2.30957 l 0,1.09571 1.98731,0 0,1.53613 -1.98731,0 0,10.08691 -1.90137,0"
         id="path3408"
         inkscape:connector-curvature="0" />
    </g>
    <path
       sodipodi:nodetypes="cc"
       inkscape:connector-curvature="0"
       inkscape:connector-type="polyline"
       id="path4749-8"
       d="m 578.67627,253.9523 -71.35249,0"
       style="fill:none;stroke:#666666;stroke-width:5;stroke-linecap:butt;stroke-linejoin:miter;stroke-miterlimit:4;stroke-opacity:1;stroke-dasharray:none;marker-end:url(#Arrow1SendV);display:inline"
       inkscape:connection-end="#rect4727"
       inkscape:connection-end-point="d4"
       inkscape:connection-start="#rect5481"
       inkscape:connection-start-point="d4" />
    <path
       sodipodi:nodetypes="cc"
       inkscape:connector-curvature="0"
       inkscape:connector-type="polyline"
       id="path4749"
       d="m 640.00003,330.23199 0,-51.05938"
       style="fill:none;stroke:#666666;stroke-width:5;stroke-linecap:butt;stroke-linejoin:miter;stroke-miterlimit:4;stroke-opacity:1;stroke-dasharray:none;marker-end:url(#Arrow1SendV);display:inline"
       inkscape:connection-start="#rect4743"
       inkscape:connection-start-point="d4" />
    <path
       inkscape:connector-curvature="0"
       id="path4134"
       d="m 773.67627,229.73199 112.64751,0 c 2.77,0 5,2.23 5,5 l 0,38.44062 c 0,2.77 -2.23,5 -5,5 l -112.64751,0 c -2.77,0 -5,-2.23 -5,-5 l 0,-38.44062 c 0,-2.77 2.23,-5 5,-5 z"
       style="fill:#999999;fill-opacity:1;stroke:#597ad9;stroke-width:4;stroke-miterlimit:4;stroke-opacity:1" />
    <path
       style="fill:none;stroke:#666666;stroke-width:5;stroke-linecap:butt;stroke-linejoin:miter;stroke-miterlimit:4;stroke-opacity:1;stroke-dasharray:none;marker-end:url(#Arrow1SendV);display:inline"
       d="m 768.67627,253.9523 -68.35249,0"
       id="path4148"
       inkscape:connector-type="polyline"
       inkscape:connector-curvature="0"
       sodipodi:nodetypes="cc" />
    <path
       inkscape:connector-curvature="0"
       style="fill:#999999;fill-opacity:1;stroke:#597ad9;stroke-width:4;stroke-miterlimit:4;stroke-opacity:1"
       d="m 967.6763,229.73199 112.6475,0 c 2.77,0 5,2.23 5,5 l 0,38.44062 c 0,2.77 -2.23,5 -5,5 l -112.6475,0 c -2.77,0 -5,-2.23 -5,-5 l 0,-38.44062 c 0,-2.77 2.23,-5 5,-5 z"
       id="path4150" />
    <path
       style="fill:none;stroke:#666666;stroke-width:5;stroke-linecap:butt;stroke-linejoin:miter;stroke-miterlimit:4;stroke-opacity:1;stroke-dasharray:none;marker-end:url(#Arrow1SendV);display:inline"
       d="m 962.6763,253.9523 -71.35252,0"
       id="path4164"
       inkscape:connector-type="polyline"
       inkscape:connector-curvature="0"
       sodipodi:nodetypes="cc" />
    <g
       id="g4496"
       transform="translate(0,-98.48438)">
      <path
         inkscape:connector-curvature="0"
         id="path4138"
         d="m 808.25244,354.86977 c 0,-1.79034 0.33301,-3.1546 0.99902,-4.09276 0.67318,-0.93815 1.63639,-1.40722 2.88965,-1.40724 1.11002,2e-5 1.97656,0.45119 2.59961,1.35352 l 0,-6.01562 1.90137,0 0,16.5 -1.74023,0 -0.0967,-1.24609 c -0.62306,0.97395 -1.51466,1.46093 -2.67481,1.46093 -1.20313,0 -2.14844,-0.4655 -2.83594,-1.39649 -0.68034,-0.93813 -1.02767,-2.25943 -1.04199,-3.96386 l 0,-1.19239 m 1.90137,1.08497 c 0,1.30338 0.19335,2.26302 0.58008,2.8789 0.38671,0.60873 1.01692,0.91309 1.89062,0.91309 0.94531,0 1.65071,-0.47624 2.11621,-1.42871 l 0,-5.86524 c -0.48698,-0.93098 -1.18881,-1.39647 -2.10547,-1.39648 -0.8737,10e-6 -1.50391,0.30795 -1.89062,0.92383 -0.38672,0.60873 -0.58366,1.54688 -0.59082,2.81445 l 0,1.16016"
         style="font-size:22px;font-style:normal;font-variant:normal;font-weight:normal;font-stretch:condensed;text-align:center;line-height:125%;letter-spacing:0px;word-spacing:0px;writing-mode:lr-tb;text-anchor:middle;fill:#ffffff;fill-opacity:1;stroke:none;font-family:Roboto Condensed;-inkscape-font-specification:'Roboto Condensed, Condensed'" />
      <path
         inkscape:connector-curvature="0"
         id="path4140"
         d="m 825.65479,354.52602 c -0.75913,0.96682 -1.64715,1.4502 -2.66407,1.4502 -1.13867,0 -2.0446,-0.4798 -2.71777,-1.43944 -0.67318,-0.95963 -1.00977,-2.21647 -1.00977,-3.77051 0,-1.63281 0.36524,-2.94335 1.09571,-3.93164 0.73762,-0.98827 1.74023,-1.48241 3.00781,-1.48242 1.3177,10e-6 2.34537,0.57293 3.08301,1.71875 0.74478,1.13868 1.11718,2.71778 1.11718,4.7373 l 0,0.59082 c 0,1.73308 -0.13249,3.13673 -0.39746,4.21094 -0.25782,1.07422 -0.64096,1.94076 -1.14941,2.59961 -0.50847,0.65884 -1.15658,1.16016 -1.94434,1.50389 -0.78776,0.33659 -1.77246,0.5049 -2.9541,0.5049 l 0,-1.67578 0.33301,0 c 1.34635,-0.0286 2.36686,-0.43685 3.06152,-1.22461 0.70182,-0.79492 1.08138,-2.05892 1.13868,-3.792 m -2.3418,-0.19336 c 0.45833,10e-6 0.90592,-0.18977 1.34277,-0.56933 0.43684,-0.38671 0.77701,-0.89159 1.02051,-1.51465 l 0,-0.83789 c -1e-5,-1.29621 -0.22559,-2.35253 -0.67676,-3.16895 -0.45118,-0.82355 -0.99545,-1.23533 -1.63281,-1.23535 -0.68751,2e-5 -1.23536,0.34019 -1.64356,1.02051 -0.40104,0.67319 -0.60156,1.55047 -0.60156,2.63184 0,1.08139 0.19694,1.96583 0.59082,2.65332 0.39388,0.68034 0.92741,1.02051 1.60059,1.0205"
         style="font-size:22px;font-style:normal;font-variant:normal;font-weight:normal;font-stretch:condensed;text-align:center;line-height:125%;letter-spacing:0px;word-spacing:0px;writing-mode:lr-tb;text-anchor:middle;fill:#ffffff;fill-opacity:1;stroke:none;font-family:Roboto Condensed;-inkscape-font-specification:'Roboto Condensed, Condensed'" />
      <path
         inkscape:connector-curvature="0"
         id="path4142"
         d="m 831.27295,361.20767 0,-10.08691 -1.51465,0 0,-1.53614 1.51465,0 0,-1.34278 c 0.0215,-1.18162 0.31868,-2.10187 0.8916,-2.76074 0.58008,-0.66599 1.39648,-0.999 2.44922,-0.99902 0.37955,2e-5 0.76269,0.0609 1.14941,0.18263 l -0.0967,1.61131 c -0.27214,-0.0644 -0.56218,-0.0967 -0.87011,-0.0967 -1.08139,2e-5 -1.62208,0.76988 -1.62207,2.30958 l 0,1.0957 1.9873,0 0,1.53613 -1.9873,0 0,10.08691 -1.90137,0"
         style="font-size:22px;font-style:normal;font-variant:normal;font-weight:normal;font-stretch:condensed;text-align:center;line-height:125%;letter-spacing:0px;word-spacing:0px;writing-mode:lr-tb;text-anchor:middle;fill:#ffffff;fill-opacity:1;stroke:none;font-family:Roboto Condensed;-inkscape-font-specification:'Roboto Condensed, Condensed'" />
      <path
         inkscape:connector-curvature="0"
         id="path4144"
         d="m 838.23389,361.20767 0,-10.08691 -1.51465,0 0,-1.53614 1.51465,0 0,-1.34278 c 0.0215,-1.18162 0.31868,-2.10187 0.8916,-2.76074 0.58007,-0.66599 1.39648,-0.999 2.44922,-0.99902 0.37955,2e-5 0.76269,0.0609 1.14941,0.18263 l -0.0967,1.61131 c -0.27214,-0.0644 -0.56218,-0.0967 -0.87012,-0.0967 -1.08138,2e-5 -1.62207,0.76988 -1.62207,2.30958 l 0,1.0957 1.98731,0 0,1.53613 -1.98731,0 0,10.08691 -1.90136,0"
         style="font-size:22px;font-style:normal;font-variant:normal;font-weight:normal;font-stretch:condensed;text-align:center;line-height:125%;letter-spacing:0px;word-spacing:0px;writing-mode:lr-tb;text-anchor:middle;fill:#ffffff;fill-opacity:1;stroke:none;font-family:Roboto Condensed;-inkscape-font-specification:'Roboto Condensed, Condensed'" />
      <path
         inkscape:connector-curvature="0"
         id="path4146"
         d="m 848.25635,361.42251 c -1.44662,0 -2.55665,-0.42968 -3.33008,-1.28905 -0.77344,-0.86654 -1.16732,-2.13413 -1.18164,-3.80274 l 0,-1.40723 c 0,-1.73307 0.37597,-3.09015 1.12793,-4.07128 0.75911,-0.98827 1.81542,-1.48241 3.16894,-1.48244 1.36067,3e-5 2.3776,0.43329 3.05079,1.29982 0.67316,0.86655 1.01691,2.21648 1.03125,4.0498 l 0,1.2461 -6.48829,0 0,0.26855 c 0,1.2461 0.23275,2.15202 0.69825,2.71777 0.47265,0.56575 1.14941,0.84864 2.03027,0.84864 0.55859,0 1.04915,-0.10384 1.47168,-0.31153 0.42968,-0.21484 0.83072,-0.55143 1.20312,-1.00976 l 0.98829,1.20312 c -0.82358,1.16016 -2.08042,1.74024 -3.77051,1.74024 M 848.0415,351.0026 c -0.78776,1e-5 -1.37142,0.27214 -1.75097,0.8164 -0.37956,0.53712 -0.59441,1.37501 -0.64453,2.51367 l 4.57617,0 0,-0.25781 c -0.0501,-1.10285 -0.25066,-1.89061 -0.60156,-2.36328 -0.34376,-0.47265 -0.87013,-0.70897 -1.57911,-0.70898"
         style="font-size:22px;font-style:normal;font-variant:normal;font-weight:normal;font-stretch:condensed;text-align:center;line-height:125%;letter-spacing:0px;word-spacing:0px;writing-mode:lr-tb;text-anchor:middle;fill:#ffffff;fill-opacity:1;stroke:none;font-family:Roboto Condensed;-inkscape-font-specification:'Roboto Condensed, Condensed'" />
      <path
         d="m 858.12354,345.02994 -0.31153,4.33984 -1.96582,0 0,-5.91894 2.27735,0 0,1.5791"
         id="path4177"
         inkscape:connector-curvature="0"
         style="font-size:22px;font-style:normal;font-variant:normal;font-weight:bold;font-stretch:normal;line-height:125%;letter-spacing:0px;word-spacing:0px;fill:#ffffff;fill-opacity:1;stroke:none;font-family:Roboto;-inkscape-font-specification:Roboto Bold" />
    </g>
    <g
       id="g4510"
       transform="translate(0,-98.277535)">
      <path
         inkscape:connector-curvature="0"
         id="path4154"
         style="font-size:24px;font-style:normal;font-variant:normal;font-weight:normal;font-stretch:normal;text-align:center;line-height:125%;letter-spacing:0px;word-spacing:0px;writing-mode:lr-tb;text-anchor:middle;fill:#ffffff;fill-opacity:1;stroke:none;font-family:Roboto Condensed;-inkscape-font-specification:'Roboto Condensed,'"
         d="m 999.94435,353.24225 0.65235,-7.51805 6.555,0 0,1.77078 -5.012,0 -0.3521,4.11111 c 0.6213,-0.43492 1.291,-0.65238 2.009,-0.65239 1.1736,10e-6 2.0952,0.45564 2.7649,1.36691 0.6696,0.91129 1.0044,2.13668 1.0044,3.67618 0,1.56023 -0.3659,2.78562 -1.0976,3.67619 -0.7249,0.89056 -1.7225,1.33584 -2.9927,1.33585 -1.1322,-10e-6 -2.0539,-0.36935 -2.7649,-1.10804 -0.71112,-0.73869 -1.11844,-1.76042 -1.22199,-3.06521 l 1.71899,0 c 0.1036,0.86295 0.3486,1.51535 0.7352,1.95718 0.3936,0.43493 0.9044,0.6524 1.5327,0.65239 0.711,10e-6 1.2668,-0.30721 1.6672,-0.92163 0.4004,-0.62133 0.6006,-1.45666 0.6006,-2.50601 0,-0.98722 -0.2175,-1.79149 -0.6524,-2.41282 -0.428,-0.62132 -1.0079,-0.93198 -1.7397,-0.93199 -0.6075,10e-6 -1.0942,0.15879 -1.4601,0.47635 l -0.4867,0.48671 -1.46015,-0.39351" />
      <path
         inkscape:connector-curvature="0"
         id="path4156"
         style="font-size:24px;font-style:normal;font-variant:normal;font-weight:normal;font-stretch:normal;text-align:center;line-height:125%;letter-spacing:0px;word-spacing:0px;writing-mode:lr-tb;text-anchor:middle;fill:#ffffff;fill-opacity:1;stroke:none;font-family:Roboto Condensed;-inkscape-font-specification:'Roboto Condensed,'"
         d="m 1009.4506,354.69201 c 0,-1.7259 0.3211,-3.04104 0.9631,-3.94543 0.6489,-0.90435 1.5775,-1.35654 2.7856,-1.35655 1.0701,10e-6 1.9054,0.43494 2.506,1.30478 l 0,-5.79904 1.8329,0 0,15.90594 -1.6775,0 -0.093,-1.20122 c -0.6007,0.93889 -1.4602,1.40833 -2.5786,1.40834 -1.1598,-10e-6 -2.071,-0.44874 -2.7338,-1.34621 -0.6558,-0.90438 -0.9907,-2.17809 -1.0045,-3.82116 l 0,-1.14945 m 1.8329,1.0459 c 0,1.25646 0.1864,2.18154 0.5592,2.77526 0.3728,0.5868 0.9804,0.88021 1.8226,0.88021 0.9113,0 1.5913,-0.45909 2.04,-1.37727 l 0,-5.65407 c -0.4694,-0.89747 -1.146,-1.3462 -2.0296,-1.34621 -0.8423,1e-5 -1.4498,0.29686 -1.8226,0.89056 -0.3728,0.58683 -0.5627,1.49119 -0.5696,2.71313 l 0,1.11839" />
      <path
         inkscape:connector-curvature="0"
         id="path4158"
         style="font-size:24px;font-style:normal;font-variant:normal;font-weight:normal;font-stretch:normal;text-align:center;line-height:125%;letter-spacing:0px;word-spacing:0px;writing-mode:lr-tb;text-anchor:middle;fill:#ffffff;fill-opacity:1;stroke:none;font-family:Roboto Condensed;-inkscape-font-specification:'Roboto Condensed,'"
         d="m 1026.5785,345.71385 0,1.6258 -0.3003,0 c -1.2219,0.0277 -2.1781,0.44184 -2.8684,1.24266 -0.6904,0.79392 -1.0874,1.99169 -1.1909,3.59333 0.6696,-0.84223 1.5257,-1.26336 2.5681,-1.26337 1.1115,1e-5 1.9917,0.45911 2.6407,1.37728 0.6558,0.91129 0.9837,2.10906 0.9837,3.59333 0,1.58094 -0.3624,2.83049 -1.0873,3.74867 -0.718,0.91818 -1.6845,1.37727 -2.8995,1.37728 -1.2219,-10e-6 -2.2057,-0.54194 -2.9513,-1.62581 -0.7456,-1.08387 -1.1184,-2.52327 -1.1184,-4.31822 l 0,-0.73523 c 0,-2.07108 0.2244,-3.72104 0.6731,-4.9499 0.4487,-1.22883 1.108,-2.14011 1.9779,-2.73383 0.8768,-0.6006 1.9641,-0.91126 3.262,-0.93199 l 0.3106,0 m -2.1021,6.79316 c -0.4971,1e-5 -0.9562,0.18986 -1.3773,0.56955 -0.4211,0.37971 -0.7249,0.86296 -0.9113,1.44976 l 0,0.75595 c 0,1.22194 0.214,2.21952 0.6421,2.99272 0.4349,0.7663 0.9665,1.14945 1.5947,1.14945 0.6835,0 1.2185,-0.31411 1.6051,-0.94234 0.3866,-0.63514 0.5799,-1.47047 0.5799,-2.50602 0,-1.02173 -0.1933,-1.85362 -0.5799,-2.49566 -0.3866,-0.64893 -0.9044,-0.9734 -1.5533,-0.97341" />
      <path
         inkscape:connector-curvature="0"
         id="path4160"
         style="font-size:24px;font-style:normal;font-variant:normal;font-weight:normal;font-stretch:normal;text-align:center;line-height:125%;letter-spacing:0px;word-spacing:0px;writing-mode:lr-tb;text-anchor:middle;fill:#ffffff;fill-opacity:1;stroke:none;font-family:Roboto Condensed;-inkscape-font-specification:'Roboto Condensed,'"
         d="m 1034.8422,361.00883 c -1.3946,-10e-6 -2.4646,-0.41422 -3.2102,-1.24265 -0.7456,-0.83535 -1.1253,-2.05729 -1.1391,-3.66583 l 0,-1.35657 c 0,-1.67066 0.3624,-2.9789 1.0873,-3.9247 0.7318,-0.9527 1.7501,-1.42904 3.0549,-1.42905 1.3116,10e-6 2.292,0.41768 2.9409,1.25301 0.6489,0.83534 0.9803,2.13667 0.9941,3.904 l 0,1.20122 -6.2547,0 0,0.25889 c 0,1.20123 0.2244,2.07454 0.6731,2.61992 0.4557,0.54539 1.1081,0.81809 1.9572,0.81808 0.5385,10e-6 1.0114,-0.1001 1.4187,-0.30031 0.4142,-0.2071 0.8008,-0.53157 1.1598,-0.9734 l 0.9527,1.1598 c -0.7939,1.11839 -2.0055,1.67758 -3.6347,1.67759 m -0.2071,-10.04478 c -0.7594,1e-5 -1.3221,0.26235 -1.688,0.78701 -0.3659,0.51779 -0.573,1.32551 -0.6213,2.42318 l 4.4114,0 0,-0.24853 c -0.048,-1.06316 -0.2416,-1.82255 -0.5799,-2.2782 -0.3314,-0.45563 -0.8388,-0.68345 -1.5222,-0.68346" />
      <path
         inkscape:connector-curvature="0"
         id="path4162"
         style="font-size:24px;font-style:normal;font-variant:normal;font-weight:normal;font-stretch:normal;text-align:center;line-height:125%;letter-spacing:0px;word-spacing:0px;writing-mode:lr-tb;text-anchor:middle;fill:#ffffff;fill-opacity:1;stroke:none;font-family:Roboto Condensed;-inkscape-font-specification:'Roboto Condensed,'"
         d="m 1044.7834,361.00883 c -1.3946,-10e-6 -2.4646,-0.41422 -3.2102,-1.24265 -0.7456,-0.83535 -1.1253,-2.05729 -1.1391,-3.66583 l 0,-1.35657 c 0,-1.67066 0.3624,-2.9789 1.0873,-3.9247 0.7318,-0.9527 1.7501,-1.42904 3.0549,-1.42905 1.3117,10e-6 2.292,0.41768 2.9409,1.25301 0.649,0.83534 0.9803,2.13667 0.9941,3.904 l 0,1.20122 -6.2546,0 0,0.25889 c -10e-5,1.20123 0.2243,2.07454 0.6731,2.61992 0.4556,0.54539 1.108,0.81809 1.9571,0.81808 0.5385,10e-6 1.0114,-0.1001 1.4187,-0.30031 0.4142,-0.2071 0.8008,-0.53157 1.1598,-0.9734 l 0.9527,1.1598 c -0.7939,1.11839 -2.0055,1.67758 -3.6347,1.67759 m -0.2071,-10.04478 c -0.7594,1e-5 -1.3221,0.26235 -1.688,0.78701 -0.3659,0.51779 -0.573,1.32551 -0.6213,2.42318 l 4.4114,0 0,-0.24853 c -0.048,-1.06316 -0.2416,-1.82255 -0.5799,-2.2782 -0.3314,-0.45563 -0.8388,-0.68345 -1.5222,-0.68346" />
      <path
         d="m 1054.1235,345.02994 -0.3115,4.33984 -1.9658,0 0,-5.91894 2.2773,0 0,1.5791"
         id="path4180"
         inkscape:connector-curvature="0"
         style="font-size:22px;font-style:normal;font-variant:normal;font-weight:bold;font-stretch:normal;line-height:125%;letter-spacing:0px;word-spacing:0px;fill:#ffffff;fill-opacity:1;stroke:none;font-family:Roboto;-inkscape-font-specification:Roboto Bold" />
    </g>
    <path
       sodipodi:nodetypes="cc"
       inkscape:connector-curvature="0"
       inkscape:connector-type="polyline"
       id="path3215"
       d="m 1024,181.0516 10e-5,49.64918"
       style="fill:none;stroke:#666666;stroke-width:5;stroke-linecap:butt;stroke-linejoin:miter;stroke-miterlimit:4;stroke-opacity:1;stroke-dasharray:none;marker-end:url(#Arrow1SendV);display:inline" />
    <path
       style="fill:none;stroke:#666666;stroke-width:5;stroke-linecap:butt;stroke-linejoin:miter;stroke-miterlimit:4;stroke-opacity:1;stroke-dasharray:none;marker-end:url(#Arrow1SendV);display:inline"
       d="m 1024,88.020402 0,49.649178"
       id="path3164"
       inkscape:connector-type="polyline"
       inkscape:connector-curvature="0"
       sodipodi:nodetypes="cc" />
    <path
       id="path3148"
       d="m 967.67629,136.23198 112.64751,0 c 2.77,0 5,2.23 5,5 l 0,38.44062 c 0,2.77 -2.23,5 -5,5 l -112.64751,0 c -2.77,0 -5,-2.23 -5,-5 l 0,-38.44062 c 0,-2.77 2.23,-5 5,-5 z"
       style="fill:#d43c00;fill-opacity:1;stroke:#aa3000;stroke-width:4;stroke-miterlimit:4;stroke-opacity:0.97254902"
       inkscape:connector-curvature="0" />
    <g
       style="font-size:22px;font-style:normal;font-variant:normal;font-weight:normal;font-stretch:condensed;text-align:center;line-height:125%;letter-spacing:0px;word-spacing:0px;writing-mode:lr-tb;text-anchor:middle;fill:#ffffff;fill-opacity:1;stroke:none;font-family:Roboto Condensed;-inkscape-font-specification:'Roboto Condensed, Condensed'"
       id="text4695"
       transform="translate(578.01078,-1.3759766e-5)">
      <path
         d="m 418.43555,155.97278 0.043,1.07422 c 0.70898,-0.85937 1.64355,-1.28905 2.80371,-1.28907 1.29621,2e-5 2.20214,0.56219 2.71777,1.68653 0.73046,-1.12434 1.74739,-1.68651 3.05078,-1.68653 2.14126,2e-5 3.23697,1.33563 3.28711,4.00684 l 0,7.83106 -1.89062,0 0,-7.64844 c -2e-5,-0.84505 -0.15041,-1.47167 -0.45118,-1.87989 -0.30079,-0.41535 -0.80925,-0.62303 -1.52539,-0.62304 -0.57292,1e-5 -1.03842,0.22201 -1.39648,0.66601 -0.35808,0.44402 -0.56577,1.00978 -0.62305,1.69727 l 0,7.78809 -1.91211,0 0,-7.73438 c -0.0215,-1.61132 -0.67676,-2.41698 -1.96582,-2.41699 -0.95964,1e-5 -1.63639,0.47983 -2.03027,1.43945 l 0,8.71192 -1.89063,0 0,-11.62305 1.78321,0"
         id="path3295"
         inkscape:connector-curvature="0" />
      <path
         d="m 439.16797,167.59583 c -0.11459,-0.25066 -0.19695,-0.67318 -0.24707,-1.26758 -0.67319,0.98828 -1.53256,1.48242 -2.57813,1.48242 -1.05273,0 -1.8763,-0.29362 -2.4707,-0.88086 -0.58724,-0.5944 -0.88086,-1.42871 -0.88086,-2.50293 0,-1.18164 0.40104,-2.11979 1.20313,-2.81445 0.80208,-0.69466 1.90136,-1.04915 3.29785,-1.06348 l 1.39648,0 0,-1.23535 c -10e-6,-0.69465 -0.15398,-1.18879 -0.46191,-1.48242 -0.30795,-0.29361 -0.77703,-0.44042 -1.40723,-0.44043 -0.57292,1e-5 -1.03841,0.17188 -1.39648,0.51562 -0.35808,0.3366 -0.53712,0.76629 -0.53711,1.28906 l -1.90137,0 c 0,-0.59439 0.17545,-1.16014 0.52637,-1.69726 0.35091,-0.54426 0.82356,-0.97037 1.41797,-1.27832 0.59439,-0.30793 1.25683,-0.4619 1.9873,-0.46192 1.1888,2e-5 2.09114,0.29722 2.70703,0.89161 0.62304,0.58725 0.94172,1.44662 0.95606,2.57812 l 0,5.86524 c 0.007,0.89518 0.12889,1.6722 0.36523,2.33105 l 0,0.17188 -1.97656,0 m -2.53516,-1.51465 c 0.46549,0 0.9095,-0.12891 1.33203,-0.38672 0.42252,-0.25781 0.73047,-0.58008 0.92383,-0.9668 l 0,-2.77148 -1.07422,0 c -0.90235,0.0143 -1.61491,0.21843 -2.13769,0.6123 -0.52279,0.38672 -0.78419,0.931 -0.78418,1.63281 -1e-5,0.65886 0.13248,1.13868 0.39746,1.43946 0.26497,0.29362 0.71256,0.44043 1.34277,0.44043"
         id="path3297"
         inkscape:connector-curvature="0" />
      <path
         d="m 449.3623,164.62024 c 0,-0.4082 -0.15397,-0.75911 -0.46191,-1.05274 -0.30795,-0.29361 -0.90235,-0.63736 -1.7832,-1.03125 -1.02409,-0.42252 -1.7474,-0.78417 -2.16992,-1.08496 -0.41537,-0.30077 -0.72689,-0.64094 -0.93457,-1.0205 -0.20769,-0.38672 -0.31153,-0.84505 -0.31153,-1.375 0,-0.94531 0.34375,-1.72949 1.03125,-2.35254 0.69466,-0.6302 1.5791,-0.9453 2.65332,-0.94532 1.13151,2e-5 2.04101,0.32944 2.72852,0.98829 0.68749,0.65886 1.03124,1.50391 1.03125,2.53515 l -1.89063,0 c 0,-0.52278 -0.17546,-0.96679 -0.52636,-1.33203 -0.35092,-0.37238 -0.79851,-0.55858 -1.34278,-0.55859 -0.5586,1e-5 -0.99903,0.14682 -1.32129,0.44043 -0.3151,0.28646 -0.47266,0.67318 -0.47265,1.16015 -10e-6,0.38673 0.11458,0.69825 0.34375,0.93457 0.23632,0.23634 0.7985,0.54786 1.68652,0.93457 1.4108,0.55144 2.37044,1.09213 2.87891,1.62207 0.50845,0.52279 0.76268,1.18881 0.76269,1.99805 -10e-6,1.00977 -0.34734,1.81901 -1.04199,2.42774 -0.69467,0.60156 -1.62566,0.90234 -2.79297,0.90234 -1.21029,0 -2.19141,-0.34733 -2.94336,-1.04199 -0.75195,-0.69466 -1.12793,-1.57552 -1.12793,-2.64258 l 1.91211,0 c 0.0215,0.64453 0.21842,1.14942 0.59082,1.51465 0.37239,0.36523 0.89518,0.54785 1.56836,0.54785 0.6302,0 1.11002,-0.13965 1.43945,-0.41895 0.32942,-0.28645 0.49414,-0.66959 0.49414,-1.14941"
         id="path3299"
         inkscape:connector-curvature="0" />
      <path
         d="m 456.21582,153.15833 0,2.81445 1.75098,0 0,1.53613 -1.75098,0 0,7.20801 c 0,0.45833 0.0752,0.80567 0.22559,1.04199 0.15038,0.23633 0.40819,0.35449 0.77343,0.35449 0.25065,0 0.50488,-0.043 0.7627,-0.1289 l -0.0215,1.61133 c -0.42969,0.14322 -0.87012,0.21484 -1.32128,0.21484 -0.75196,0 -1.32488,-0.26856 -1.71875,-0.80567 -0.39389,-0.5371 -0.59083,-1.29622 -0.59082,-2.27734 l 0,-7.21875 -1.77247,0 0,-1.53613 1.77247,0 0,-2.81445 1.89062,0"
         id="path3301"
         inkscape:connector-curvature="0" />
      <path
         d="m 464.36914,167.81067 c -1.44662,0 -2.55664,-0.42969 -3.33008,-1.28906 -0.77344,-0.86654 -1.16732,-2.13411 -1.18164,-3.80274 l 0,-1.40722 c 0,-1.73307 0.37598,-3.09016 1.12793,-4.07129 0.75911,-0.98827 1.81543,-1.48241 3.16895,-1.48243 1.36067,2e-5 2.37759,0.43328 3.05078,1.29981 0.67317,0.86655 1.01692,2.21648 1.03125,4.0498 l 0,1.2461 -6.48828,0 0,0.26855 c -10e-6,1.2461 0.23274,2.15202 0.69824,2.71778 0.47265,0.56575 1.14941,0.84863 2.03027,0.84863 0.55859,0 1.04915,-0.10384 1.47168,-0.31152 0.42968,-0.21485 0.83072,-0.55143 1.20313,-1.00977 l 0.98828,1.20312 c -0.82358,1.16016 -2.08041,1.74024 -3.77051,1.74024 m -0.21484,-10.41992 c -0.78777,1e-5 -1.37143,0.27214 -1.75098,0.8164 -0.37956,0.53712 -0.5944,1.37501 -0.64453,2.51368 l 4.57617,0 0,-0.25782 c -0.0501,-1.10285 -0.25066,-1.89061 -0.60156,-2.36328 -0.34376,-0.47264 -0.87012,-0.70897 -1.5791,-0.70898"
         id="path3303"
         inkscape:connector-curvature="0" />
      <path
         d="m 475.32617,157.75598 c -0.26498,-0.0501 -0.55144,-0.0752 -0.85937,-0.0752 -0.97397,1e-5 -1.6543,0.53353 -2.04102,1.60058 l 0,8.31446 -1.90137,0 0,-11.62305 1.84766,0 0.0322,1.18164 c 0.50846,-0.93098 1.22818,-1.39647 2.15918,-1.39649 0.30077,2e-5 0.55142,0.0502 0.75195,0.1504 l 0.0107,1.84765"
         id="path3305"
         inkscape:connector-curvature="0" />
    </g>
    <path
       id="path3203"
       d="m 978.34978,52.290582 91.30052,0 c 2.2451,0 4.0525,1.80741 4.0525,4.05249 l 0,31.15603 c 0,2.24508 -1.8074,4.05249 -4.0525,4.05249 l -91.30052,0 c -2.24509,0 -4.0525,-1.80741 -4.0525,-4.05249 l 0,-31.15603 c 0,-2.24508 1.80741,-4.05249 4.0525,-4.05249 z"
       style="fill:#7dbb62;fill-opacity:1;stroke:#67aa4a;stroke-width:3.24199057;stroke-miterlimit:4;stroke-opacity:0.97254902"
       inkscape:connector-curvature="0" />
    <g
       id="g3205"
       style="font-size:20px;font-style:normal;font-variant:normal;font-weight:normal;font-stretch:condensed;text-align:center;line-height:125%;letter-spacing:0px;word-spacing:0px;writing-mode:lr-tb;text-anchor:middle;fill:#ffffff;fill-opacity:1;stroke:none;font-family:Roboto Condensed;-inkscape-font-specification:'Roboto Condensed, Condensed'"
       transform="translate(578.10258,4.9687862)">
      <path
         id="path3207"
         d="m 433.9541,74.772614 -1.79687,0 0,-6.572266 -5.72266,0 0,6.572266 -1.78711,0 0,-14.21875 1.78711,0 0,6.113281 5.72266,0 0,-6.113281 1.79687,0 0,14.21875"
         inkscape:connector-curvature="0" />
      <path
         id="path3209"
         d="m 443.88574,68.200348 -5.02929,0 0,5.039062 5.85937,0 0,1.533204 -7.64648,0 0,-14.21875 7.54882,0 0,1.542968 -5.76171,0 0,4.570313 5.02929,0 0,1.533203"
         inkscape:connector-curvature="0" />
      <path
         id="path3211"
         d="m 453.62207,71.061676 -4.80469,0 -1.10351,3.710938 -1.83594,0 4.58008,-14.21875 1.5332,0 4.58984,14.21875 -1.83593,0 -1.12305,-3.710938 m -4.33594,-1.542969 3.87696,0 -1.94336,-6.464843 -1.9336,6.464843"
         inkscape:connector-curvature="0" />
      <path
         id="path3213"
         d="m 458.51465,74.772614 0,-14.21875 3.38867,0 c 1.66015,1.4e-5 2.94921,0.520847 3.86719,1.5625 0.91796,1.035167 1.37694,2.493499 1.37695,4.375 l 0,2.382812 c -1e-5,1.881514 -0.4655,3.336591 -1.39648,4.365234 -0.931,1.022136 -2.28191,1.533204 -4.05274,1.533204 l -3.18359,0 m 1.78711,-12.675782 0,11.142578 1.43554,0 c 1.25651,2e-6 2.17448,-0.358071 2.75391,-1.074218 0.57942,-0.722653 0.87564,-1.790361 0.88867,-3.203125 l 0,-2.519532 c -1e-5,-1.497386 -0.28972,-2.59439 -0.86914,-3.291015 -0.57292,-0.703113 -1.44206,-1.054675 -2.60742,-1.054688 l -1.60156,0"
         inkscape:connector-curvature="0" />
    </g>
  </g>
</svg>
