<?xml version="1.0" encoding="UTF-8" standalone="no"?>
<!-- Created with Inkscape (http://www.inkscape.org/) -->

<svg
   xmlns:dc="http://purl.org/dc/elements/1.1/"
   xmlns:cc="http://creativecommons.org/ns#"
   xmlns:rdf="http://www.w3.org/1999/02/22-rdf-syntax-ns#"
   xmlns:svg="http://www.w3.org/2000/svg"
   xmlns="http://www.w3.org/2000/svg"
   xmlns:sodipodi="http://sodipodi.sourceforge.net/DTD/sodipodi-0.dtd"
   xmlns:inkscape="http://www.inkscape.org/namespaces/inkscape"
   width="440.29144"
   height="374.46808"
   id="svg4227"
   version="1.1"
   inkscape:version="0.48.4 r9939"
   sodipodi:docname="tree-graph.svg">
  <sodipodi:namedview
     id="base"
     pagecolor="#ffffff"
     bordercolor="#666666"
     borderopacity="1.0"
     inkscape:pageopacity="0.0"
     inkscape:pageshadow="2"
     inkscape:zoom="1"
     inkscape:cx="195.99538"
     inkscape:cy="178.69075"
     inkscape:document-units="px"
     inkscape:current-layer="layer1"
     showgrid="false"
     showguides="true"
     inkscape:guide-bbox="true"
     inkscape:window-width="1366"
     inkscape:window-height="744"
     inkscape:window-x="0"
     inkscape:window-y="24"
     inkscape:window-maximized="1"
     fit-margin-top="0"
     fit-margin-left="0"
     fit-margin-right="0"
     fit-margin-bottom="0" />
  <defs
     id="defs4229">
    <marker
       style="overflow:visible"
       id="Arrow1Send"
       refX="0"
       refY="0"
       orient="auto"
       inkscape:stockid="Arrow1Send">
      <path
         transform="matrix(-0.2,0,0,-0.2,-1.2,0)"
         style="fill-rule:evenodd;stroke:#000000;stroke-width:1pt"
         d="M 0,0 5,-5 -12.5,0 5,5 0,0 z"
         id="path4825"
         inkscape:connector-curvature="0" />
    </marker>
    <marker
       style="overflow:visible"
       id="Arrow1SendV"
       refX="0"
       refY="0"
       orient="auto"
       inkscape:stockid="Arrow1SendV">
      <path
         transform="matrix(-0.2,0,0,-0.2,-1.2,0)"
         style="fill:#666666;fill-rule:evenodd;stroke:#666666;stroke-width:1pt"
         d="M 0,0 5,-5 -12.5,0 5,5 0,0 z"
         id="path5631"
         inkscape:connector-curvature="0" />
    </marker>
    <marker
       style="overflow:visible"
       id="Arrow1SendX"
       refX="0"
       refY="0"
       orient="auto"
       inkscape:stockid="Arrow1SendX">
      <path
         transform="matrix(-0.2,0,0,-0.2,-1.2,0)"
         style="fill:#666666;fill-rule:evenodd;stroke:#666666;stroke-width:1pt"
         d="M 0,0 5,-5 -12.5,0 5,5 0,0 z"
         id="path5634"
         inkscape:connector-curvature="0" />
    </marker>
    <marker
       style="overflow:visible"
       id="Arrow1SendXj"
       refX="0"
       refY="0"
       orient="auto"
       inkscape:stockid="Arrow1SendXj">
      <path
         transform="matrix(-0.2,0,0,-0.2,-1.2,0)"
         style="fill:#666666;fill-rule:evenodd;stroke:#666666;stroke-width:1pt"
         d="M 0,0 5,-5 -12.5,0 5,5 0,0 z"
         id="path5637"
         inkscape:connector-curvature="0" />
    </marker>
  </defs>
  <metadata
     id="metadata4232">
    <rdf:RDF>
      <cc:Work
         rdf:about="">
        <dc:format>image/svg+xml</dc:format>
        <dc:type
           rdf:resource="http://purl.org/dc/dcmitype/StillImage" />
        <dc:title></dc:title>
      </cc:Work>
    </rdf:RDF>
  </metadata>
  <g
     id="layer1"
     inkscape:groupmode="layer"
     inkscape:label="Layer 1"
     transform="translate(-117.85429,-38.842438)">
    <rect
       style="fill:#999999;fill-opacity:1;stroke:#808080;stroke-width:5;stroke-miterlimit:4;stroke-opacity:0.97254902;stroke-dasharray:none"
       id="rect4162"
       width="168.29141"
       height="66.46804"
       x="120.35429"
       y="189.34244"
       ry="15.556349" />
    <rect
       ry="15.556349"
       y="41.342438"
       x="253.85429"
       height="66.46804"
       width="168.29141"
       id="rect3124"
       style="fill:#7dbb62;fill-opacity:1;stroke:#67aa4a;stroke-width:5;stroke-miterlimit:4;stroke-opacity:0.97254902;stroke-dasharray:none" />
    <g
       style="font-size:28px;font-style:normal;font-variant:normal;font-weight:normal;font-stretch:condensed;text-align:center;line-height:125%;letter-spacing:0px;word-spacing:0px;writing-mode:lr-tb;text-anchor:middle;fill:#ffffff;fill-opacity:1;stroke:none;font-family:Roboto Condensed;-inkscape-font-specification:'Roboto Condensed, Condensed'"
       id="text4158">
      <path
         d="m 322.14062,65.19754 0,3.677735 2.31055,0 0,1.982422 -2.31055,0 0,8.804687 c 0,0.765628 0.11393,1.312503 0.3418,1.640625 0.22786,0.319012 0.52408,0.478518 0.88867,0.478516 0.21875,2e-6 0.41927,-0.01367 0.60157,-0.04102 0.1914,-0.02734 0.4147,-0.06836 0.66992,-0.123047 l 0.28711,1.914063 c -0.30991,0.127604 -0.66082,0.227864 -1.05274,0.300781 -0.38282,0.08203 -0.7793,0.123046 -1.18945,0.123047 -1.04818,-10e-7 -1.86394,-0.341797 -2.44727,-1.025391 -0.57422,-0.692707 -0.86133,-1.781898 -0.86132,-3.267578 l 0,-8.804687 -1.92774,0 0,-1.982422 1.92774,0 0,-3.677735 2.76171,0"
         style=""
         id="path5785" />
      <path
         d="m 333.55664,71.213165 -1.29883,-0.06836 c -0.57422,1.2e-5 -1.05274,0.173189 -1.43554,0.519531 -0.37371,0.346366 -0.66082,0.833996 -0.86133,1.462891 l 0,10.541015 -2.77539,0 0,-14.792968 2.52929,0 0.20508,2.228515 c 0.30989,-0.783841 0.71549,-1.394517 1.2168,-1.832031 0.50129,-0.4466 1.08007,-0.669907 1.73633,-0.669922 0.18228,1.5e-5 0.36913,0.01824 0.56054,0.05469 0.1914,0.02736 0.34179,0.06382 0.45118,0.109375 l -0.32813,2.447265"
         style=""
         id="path5787" />
      <path
         d="m 340.89844,83.955353 c -1.75912,-10e-7 -3.16732,-0.610677 -4.22461,-1.832031 -1.0573,-1.221352 -1.58594,-2.784501 -1.58594,-4.689454 l 0,-2.160156 c 0,-1.932281 0.51497,-3.527332 1.54492,-4.785156 1.03906,-1.257798 2.35612,-1.886704 3.95117,-1.886719 1.67708,1.5e-5 2.96679,0.574233 3.86914,1.722656 0.90234,1.139336 1.35351,2.675141 1.35352,4.607422 l 0,1.914063 -7.95703,0 0,0.58789 c 0,1.276047 0.27799,2.333338 0.83398,3.171875 0.5651,0.82943 1.36263,1.244143 2.39258,1.244141 0.76562,2e-6 1.42187,-0.118488 1.96875,-0.355469 0.54687,-0.246091 1.0664,-0.601559 1.5586,-1.066406 l 0.875,1.722656 c -0.46486,0.528647 -1.08921,0.961589 -1.87305,1.298828 -0.78386,0.33724 -1.68621,0.505859 -2.70703,0.50586 M 340.58398,70.73465 c -0.80208,1.3e-5 -1.44466,0.391939 -1.92773,1.175781 -0.48308,0.77475 -0.75196,1.759124 -0.80664,2.953125 l 5.20898,0 0,-0.560547 c -10e-6,-1.048167 -0.20964,-1.904937 -0.6289,-2.570312 -0.41928,-0.665352 -1.03452,-0.998034 -1.84571,-0.998047"
         style=""
         id="path5789" />
      <path
         d="m 353.64062,83.955353 c -1.75911,-10e-7 -3.16732,-0.610677 -4.2246,-1.832031 -1.0573,-1.221352 -1.58594,-2.784501 -1.58594,-4.689454 l 0,-2.160156 c 0,-1.932281 0.51497,-3.527332 1.54492,-4.785156 1.03906,-1.257798 2.35611,-1.886704 3.95117,-1.886719 1.67708,1.5e-5 2.96679,0.574233 3.86914,1.722656 0.90233,1.139336 1.35351,2.675141 1.35352,4.607422 l 0,1.914063 -7.95703,0 0,0.58789 c -10e-6,1.276047 0.27799,2.333338 0.83398,3.171875 0.5651,0.82943 1.36263,1.244143 2.39258,1.244141 0.76562,2e-6 1.42187,-0.118488 1.96875,-0.355469 0.54686,-0.246091 1.0664,-0.601559 1.55859,-1.066406 l 0.875,1.722656 c -0.46485,0.528647 -1.0892,0.961589 -1.87304,1.298828 -0.78387,0.33724 -1.68621,0.505859 -2.70704,0.50586 M 353.32617,70.73465 c -0.80209,1.3e-5 -1.44466,0.391939 -1.92773,1.175781 -0.48308,0.77475 -0.75196,1.759124 -0.80664,2.953125 l 5.20898,0 0,-0.560547 c -10e-6,-1.048167 -0.20964,-1.904937 -0.62891,-2.570312 -0.41927,-0.665352 -1.03451,-0.998034 -1.8457,-0.998047"
         style=""
         id="path5791" />
    </g>
    <g
       style="font-size:28px;font-style:normal;font-variant:normal;font-weight:normal;font-stretch:condensed;text-align:center;line-height:125%;letter-spacing:0px;word-spacing:0px;writing-mode:lr-tb;text-anchor:middle;fill:#ffffff;fill-opacity:1;stroke:none;font-family:Roboto Condensed;-inkscape-font-specification:'Roboto Condensed, Condensed'"
       id="text4164">
      <path
         d="m 193.18652,226.93095 c -1e-5,1.95964 -0.42384,3.52735 -1.27148,4.70313 -0.84767,1.16667 -2.04168,1.75 -3.58203,1.75 -0.77475,0 -1.45378,-0.16862 -2.03711,-0.50586 -0.57423,-0.34635 -1.0573,-0.85221 -1.44922,-1.51758 l -0.20508,1.73633 -2.40625,0 0,-21.32813 2.77539,0 0,8.09375 c 0.38281,-0.59243 0.84765,-1.0436 1.39453,-1.35351 0.54687,-0.319 1.18034,-0.4785 1.90039,-0.47852 1.55859,2e-5 2.76171,0.62892 3.60938,1.88672 0.84764,1.24871 1.27147,2.91668 1.27148,5.00391 l 0,2.00976 m -2.76172,-2.00976 c -1e-5,-1.42187 -0.22787,-2.56575 -0.68359,-3.43164 -0.44662,-0.86588 -1.15756,-1.29882 -2.13281,-1.29883 -0.6198,1e-5 -1.14844,0.18686 -1.58594,0.56055 -0.42839,0.36459 -0.76563,0.85678 -1.01172,1.47656 l 0,7.10937 c 0.24609,0.60157 0.58789,1.07097 1.02539,1.40821 0.4375,0.32812 0.9707,0.49219 1.59961,0.49218 0.97525,10e-6 1.68163,-0.38736 2.11914,-1.1621 0.44661,-0.77474 0.66991,-1.82292 0.66992,-3.14454 l 0,-2.00976"
         style=""
         id="path5717" />
      <path
         d="m 198.80566,233.09697 -2.77539,0 0,-21.32813 2.77539,0 0,21.32813"
         style=""
         id="path5719" />
      <path
         d="m 201.64941,224.7708 c 0,-1.95963 0.51042,-3.57291 1.53125,-4.83985 1.02995,-1.26691 2.43815,-1.90037 4.22461,-1.90039 1.77734,2e-5 3.18098,0.63348 4.21094,1.90039 1.02994,1.25783 1.54491,2.87111 1.54492,4.83985 l 0,1.88672 c -1e-5,1.97787 -0.51498,3.5957 -1.54492,4.85351 -1.02084,1.2487 -2.41993,1.87305 -4.19726,1.87305 -1.79558,0 -3.20834,-0.62435 -4.23829,-1.87305 -1.02083,-1.25781 -1.53125,-2.87564 -1.53125,-4.85351 l 0,-1.88672 m 2.77539,1.88672 c 0,1.34896 0.24609,2.45638 0.73829,3.32226 0.49218,0.86589 1.24413,1.29883 2.25586,1.29883 0.98436,0 1.72264,-0.43294 2.21484,-1.29883 0.50129,-0.86588 0.75194,-1.9733 0.75195,-3.32226 l 0,-1.88672 c -1e-5,-1.33072 -0.25066,-2.42903 -0.75195,-3.29492 -0.4922,-0.87499 -1.23503,-1.31249 -2.22852,-1.3125 -1.00261,1e-5 -1.75,0.43295 -2.24218,1.29882 -0.4922,0.8659 -0.73829,1.96876 -0.73829,3.3086 l 0,1.88672"
         style=""
         id="path5721" />
      <path
         d="m 226.76465,226.93095 c -10e-6,1.95964 -0.42384,3.52735 -1.27149,4.70313 -0.84766,1.16667 -2.04167,1.75 -3.58203,1.75 -0.77474,0 -1.45378,-0.16862 -2.03711,-0.50586 -0.57422,-0.34635 -1.05729,-0.85221 -1.44922,-1.51758 l -0.20507,1.73633 -2.40625,0 0,-21.32813 2.77539,0 0,8.09375 c 0.3828,-0.59243 0.84765,-1.0436 1.39453,-1.35351 0.54687,-0.319 1.18033,-0.4785 1.90039,-0.47852 1.55858,2e-5 2.76171,0.62892 3.60937,1.88672 0.84765,1.24871 1.27148,2.91668 1.27149,5.00391 l 0,2.00976 m -2.76172,-2.00976 c -1e-5,-1.42187 -0.22787,-2.56575 -0.68359,-3.43164 -0.44663,-0.86588 -1.15756,-1.29882 -2.13282,-1.29883 -0.61979,1e-5 -1.14844,0.18686 -1.58593,0.56055 -0.42839,0.36459 -0.76563,0.85678 -1.01172,1.47656 l 0,7.10937 c 0.24609,0.60157 0.58788,1.07097 1.02539,1.40821 0.43749,0.32812 0.97069,0.49219 1.59961,0.49218 0.97525,10e-6 1.68163,-0.38736 2.11914,-1.1621 0.4466,-0.77474 0.66991,-1.82292 0.66992,-3.14454 l 0,-2.00976"
         style=""
         id="path5723" />
    </g>
    <rect
       style="fill:#7dbb62;fill-opacity:1;stroke:#67aa4a;stroke-width:5;stroke-miterlimit:4;stroke-opacity:0.97254902;stroke-dasharray:none"
       id="rect4174"
       width="168.29141"
       height="66.46804"
       x="387.35431"
       y="189.34244"
       ry="15.556349" />
    <g
       style="font-size:28px;font-style:normal;font-variant:normal;font-weight:normal;font-stretch:condensed;text-align:center;line-height:125%;letter-spacing:0px;word-spacing:0px;writing-mode:lr-tb;text-anchor:middle;fill:#ffffff;fill-opacity:1;stroke:none;font-family:Roboto Condensed;-inkscape-font-specification:'Roboto Condensed, Condensed'"
       id="text4176">
      <path
         d="m 455.64062,213.19754 0,3.67773 2.31055,0 0,1.98243 -2.31055,0 0,8.80468 c 0,0.76563 0.11393,1.31251 0.3418,1.64063 0.22786,0.31901 0.52408,0.47852 0.88867,0.47851 0.21875,1e-5 0.41927,-0.0137 0.60157,-0.041 0.1914,-0.0273 0.4147,-0.0684 0.66992,-0.12305 l 0.28711,1.91406 c -0.30991,0.12761 -0.66082,0.22787 -1.05274,0.30079 -0.38282,0.082 -0.7793,0.12304 -1.18945,0.12304 -1.04818,0 -1.86394,-0.34179 -2.44727,-1.02539 -0.57422,-0.6927 -0.86133,-1.7819 -0.86132,-3.26758 l 0,-8.80468 -1.92774,0 0,-1.98243 1.92774,0 0,-3.67773 2.76171,0"
         style=""
         id="path5750" />
      <path
         d="m 467.05664,219.21317 -1.29883,-0.0684 c -0.57422,1e-5 -1.05274,0.17319 -1.43554,0.51953 -0.37371,0.34636 -0.66082,0.83399 -0.86133,1.46289 l 0,10.54101 -2.77539,0 0,-14.79297 2.52929,0 0.20508,2.22852 c 0.30989,-0.78384 0.71549,-1.39452 1.2168,-1.83203 0.50129,-0.4466 1.08007,-0.66991 1.73633,-0.66992 0.18228,1e-5 0.36913,0.0182 0.56054,0.0547 0.1914,0.0274 0.34179,0.0638 0.45118,0.10938 l -0.32813,2.44727"
         style=""
         id="path5752" />
      <path
         d="m 474.39844,231.95535 c -1.75912,0 -3.16732,-0.61067 -4.22461,-1.83203 -1.0573,-1.22135 -1.58594,-2.7845 -1.58594,-4.68945 l 0,-2.16016 c 0,-1.93228 0.51497,-3.52733 1.54492,-4.78515 1.03906,-1.2578 2.35612,-1.88671 3.95117,-1.88672 1.67708,1e-5 2.96679,0.57423 3.86914,1.72265 0.90234,1.13934 1.35351,2.67514 1.35352,4.60743 l 0,1.91406 -7.95703,0 0,0.58789 c 0,1.27605 0.27799,2.33334 0.83398,3.17187 0.5651,0.82943 1.36263,1.24415 2.39258,1.24414 0.76562,10e-6 1.42187,-0.11848 1.96875,-0.35546 0.54687,-0.2461 1.0664,-0.60156 1.5586,-1.06641 l 0.875,1.72266 c -0.46486,0.52864 -1.08921,0.96158 -1.87305,1.29882 -0.78386,0.33724 -1.68621,0.50586 -2.70703,0.50586 m -0.31446,-13.2207 c -0.80208,1e-5 -1.44466,0.39194 -1.92773,1.17578 -0.48308,0.77475 -0.75196,1.75913 -0.80664,2.95313 l 5.20898,0 0,-0.56055 c -10e-6,-1.04817 -0.20964,-1.90494 -0.6289,-2.57031 -0.41928,-0.66536 -1.03452,-0.99804 -1.84571,-0.99805"
         style=""
         id="path5754" />
      <path
         d="m 487.14062,231.95535 c -1.75911,0 -3.16732,-0.61067 -4.2246,-1.83203 -1.0573,-1.22135 -1.58594,-2.7845 -1.58594,-4.68945 l 0,-2.16016 c 0,-1.93228 0.51497,-3.52733 1.54492,-4.78515 1.03906,-1.2578 2.35611,-1.88671 3.95117,-1.88672 1.67708,1e-5 2.96679,0.57423 3.86914,1.72265 0.90233,1.13934 1.35351,2.67514 1.35352,4.60743 l 0,1.91406 -7.95703,0 0,0.58789 c -10e-6,1.27605 0.27799,2.33334 0.83398,3.17187 0.5651,0.82943 1.36263,1.24415 2.39258,1.24414 0.76562,10e-6 1.42187,-0.11848 1.96875,-0.35546 0.54686,-0.2461 1.0664,-0.60156 1.55859,-1.06641 l 0.875,1.72266 c -0.46485,0.52864 -1.0892,0.96158 -1.87304,1.29882 -0.78387,0.33724 -1.68621,0.50586 -2.70704,0.50586 m -0.31445,-13.2207 c -0.80209,1e-5 -1.44466,0.39194 -1.92773,1.17578 -0.48308,0.77475 -0.75196,1.75913 -0.80664,2.95313 l 5.20898,0 0,-0.56055 c -10e-6,-1.04817 -0.20964,-1.90494 -0.62891,-2.57031 -0.41927,-0.66536 -1.03451,-0.99804 -1.8457,-0.99805"
         style=""
         id="path5756" />
    </g>
    <rect
       ry="15.556349"
       y="344.34247"
       x="387.35431"
       height="66.46804"
       width="168.29141"
       id="rect4180"
       style="fill:#999999;fill-opacity:1;stroke:#808080;stroke-width:5;stroke-miterlimit:4;stroke-opacity:0.97254902;stroke-dasharray:none" />
    <g
       style="font-size:28px;font-style:normal;font-variant:normal;font-weight:normal;font-stretch:condensed;text-align:center;line-height:125%;letter-spacing:0px;word-spacing:0px;writing-mode:lr-tb;text-anchor:middle;fill:#ffffff;fill-opacity:1;stroke:none;font-family:Roboto Condensed;-inkscape-font-specification:'Roboto Condensed, Condensed'"
       id="text4182">
      <path
         d="m 460.18652,381.93097 c -10e-6,1.95964 -0.42384,3.52735 -1.27148,4.70312 -0.84767,1.16667 -2.04168,1.75 -3.58203,1.75 -0.77475,0 -1.45378,-0.16862 -2.03711,-0.50586 -0.57423,-0.34635 -1.0573,-0.85221 -1.44922,-1.51757 l -0.20508,1.73632 -2.40625,0 0,-21.32812 2.77539,0 0,8.09375 c 0.38281,-0.59243 0.84765,-1.04361 1.39453,-1.35352 0.54687,-0.31899 1.18034,-0.4785 1.90039,-0.47851 1.55859,1e-5 2.76171,0.62892 3.60938,1.88672 0.84764,1.24871 1.27147,2.91667 1.27148,5.0039 l 0,2.00977 m -2.76172,-2.00977 c -1e-5,-1.42186 -0.22787,-2.56574 -0.68359,-3.43164 -0.44662,-0.86587 -1.15756,-1.29881 -2.13281,-1.29883 -0.6198,2e-5 -1.14844,0.18687 -1.58594,0.56055 -0.42839,0.3646 -0.76563,0.85678 -1.01172,1.47656 l 0,7.10938 c 0.24609,0.60156 0.58789,1.07097 1.02539,1.4082 0.4375,0.32813 0.9707,0.49219 1.59961,0.49219 0.97525,0 1.68163,-0.38737 2.11914,-1.16211 0.44661,-0.77474 0.66991,-1.82291 0.66992,-3.14453 l 0,-2.00977"
         style=""
         id="path5726" />
      <path
         d="m 465.80566,388.09698 -2.77539,0 0,-21.32812 2.77539,0 0,21.32812"
         style=""
         id="path5728" />
      <path
         d="m 468.64941,379.77081 c 0,-1.95962 0.51042,-3.5729 1.53125,-4.83984 1.02995,-1.26691 2.43815,-1.90038 4.22461,-1.90039 1.77734,1e-5 3.18098,0.63348 4.21094,1.90039 1.02994,1.25782 1.54491,2.8711 1.54492,4.83984 l 0,1.88672 c -1e-5,1.97787 -0.51498,3.59571 -1.54492,4.85352 -1.02084,1.2487 -2.41993,1.87304 -4.19726,1.87304 -1.79558,0 -3.20834,-0.62434 -4.23829,-1.87304 -1.02083,-1.25781 -1.53125,-2.87565 -1.53125,-4.85352 l 0,-1.88672 m 2.77539,1.88672 c 0,1.34897 0.24609,2.45639 0.73829,3.32227 0.49218,0.86589 1.24413,1.29883 2.25586,1.29883 0.98436,0 1.72264,-0.43294 2.21484,-1.29883 0.50129,-0.86588 0.75194,-1.9733 0.75195,-3.32227 l 0,-1.88672 c -10e-6,-1.33072 -0.25066,-2.42902 -0.75195,-3.29492 -0.4922,-0.87499 -1.23503,-1.31249 -2.22852,-1.3125 -1.00261,1e-5 -1.75,0.43296 -2.24218,1.29883 -0.4922,0.8659 -0.73829,1.96876 -0.73829,3.30859 l 0,1.88672"
         style=""
         id="path5730" />
      <path
         d="m 493.76465,381.93097 c -1e-5,1.95964 -0.42384,3.52735 -1.27149,4.70312 -0.84766,1.16667 -2.04167,1.75 -3.58203,1.75 -0.77474,0 -1.45378,-0.16862 -2.03711,-0.50586 -0.57422,-0.34635 -1.05729,-0.85221 -1.44922,-1.51757 l -0.20507,1.73632 -2.40625,0 0,-21.32812 2.77539,0 0,8.09375 c 0.3828,-0.59243 0.84765,-1.04361 1.39453,-1.35352 0.54687,-0.31899 1.18033,-0.4785 1.90039,-0.47851 1.55858,1e-5 2.76171,0.62892 3.60937,1.88672 0.84765,1.24871 1.27148,2.91667 1.27149,5.0039 l 0,2.00977 m -2.76172,-2.00977 c -10e-6,-1.42186 -0.22787,-2.56574 -0.68359,-3.43164 -0.44663,-0.86587 -1.15756,-1.29881 -2.13282,-1.29883 -0.61979,2e-5 -1.14844,0.18687 -1.58593,0.56055 -0.42839,0.3646 -0.76563,0.85678 -1.01172,1.47656 l 0,7.10938 c 0.24609,0.60156 0.58788,1.07097 1.02539,1.4082 0.43749,0.32813 0.97069,0.49219 1.59961,0.49219 0.97525,0 1.68163,-0.38737 2.11914,-1.16211 0.4466,-0.77474 0.66991,-1.82291 0.66992,-3.14453 l 0,-2.00977"
         style=""
         id="path5732" />
    </g>
    <path
       inkscape:connection-end-point="d4"
       inkscape:connection-end="#rect4162"
       inkscape:connection-start-point="d4"
       inkscape:connection-start="#rect3124"
       inkscape:connector-curvature="0"
       inkscape:connector-type="polyline"
       id="path4264"
       d="m 308.02201,107.81048 -73.54403,81.53196"
       style="fill:none;stroke:#666666;stroke-width:5;stroke-linecap:butt;stroke-linejoin:miter;stroke-miterlimit:4;stroke-opacity:1;stroke-dasharray:none;marker-end:url(#Arrow1SendV)" />
    <path
       inkscape:connection-end-point="d4"
       inkscape:connection-end="#rect4174"
       inkscape:connection-start-point="d4"
       inkscape:connection-start="#rect3124"
       inkscape:connector-curvature="0"
       inkscape:connector-type="polyline"
       id="path4266"
       d="m 367.97799,107.81048 73.54404,81.53196"
       style="fill:none;stroke:#666666;stroke-width:5;stroke-linecap:butt;stroke-linejoin:miter;stroke-miterlimit:4;stroke-opacity:1;stroke-dasharray:none;marker-mid:none;marker-end:url(#Arrow1SendX)" />
    <path
       inkscape:connection-end-point="d4"
       inkscape:connection-end="#rect4180"
       inkscape:connection-start-point="d4"
       inkscape:connection-start="#rect4174"
       inkscape:connector-curvature="0"
       inkscape:connector-type="polyline"
       id="path4268"
       d="m 471.50002,255.81048 0,88.53199"
       style="fill:none;stroke:#666666;stroke-width:5;stroke-linecap:butt;stroke-linejoin:miter;stroke-miterlimit:4;stroke-opacity:1;stroke-dasharray:none;marker-mid:none;marker-end:url(#Arrow1SendXj)" />
    <g
       style="font-size:24px;font-style:normal;font-variant:normal;font-weight:normal;font-stretch:condensed;text-align:center;line-height:125%;letter-spacing:0px;word-spacing:0px;writing-mode:lr-tb;text-anchor:middle;fill:#ffffff;fill-opacity:1;stroke:none;font-family:Roboto Condensed;-inkscape-font-specification:'Roboto Condensed, Condensed'"
       id="text4274">
      <path
         d="m 215.50931,151.72215 0,7.34766 -2.37891,0 0,-17.05078 5.3086,0 c 1.61717,1e-5 2.86717,0.41798 3.75,1.2539 0.8828,0.83596 1.3242,2.03517 1.32421,3.59766 -10e-6,0.89064 -0.20704,1.66798 -0.62109,2.33203 -0.40626,0.66407 -0.9961,1.1836 -1.76953,1.5586 0.85155,0.28907 1.46483,0.78125 1.83984,1.47656 0.3828,0.6875 0.57421,1.53907 0.57422,2.55469 l 0,1.48828 c -1e-5,0.52344 0.0508,1.01172 0.15235,1.46484 0.10936,0.44531 0.29295,0.79688 0.55078,1.05469 l 0,0.26953 -2.44922,0 c -0.26564,-0.25781 -0.43751,-0.64453 -0.51563,-1.16016 -0.0703,-0.52343 -0.10548,-1.07421 -0.10547,-1.65234 l 0,-1.44141 c -10e-6,-0.95312 -0.21876,-1.70702 -0.65625,-2.26172 -0.42969,-0.55468 -1.02344,-0.83202 -1.78125,-0.83203 l -3.22265,0 m 0,-1.8164 2.8125,0 c 0.96093,10e-6 1.66796,-0.25781 2.12109,-0.77344 0.46093,-0.52343 0.6914,-1.26171 0.69141,-2.21484 -1e-5,-0.97655 -0.22267,-1.73437 -0.66797,-2.27344 -0.44532,-0.53905 -1.1211,-0.80858 -2.02734,-0.8086 l -2.92969,0 0,6.07032"
         style=""
         id="path5766" />
      <path
         d="m 235.47806,151.14793 -6.32813,0 0,6.11719 7.33594,0 0,1.80469 -9.71484,0 0,-17.0625 9.64453,0 0,1.82812 -7.26563,0 0,5.4961 6.32813,0 0,1.8164"
         style=""
         id="path5768" />
      <path
         d="m 246.48196,154.75731 -5.4375,0 -1.24218,4.3125 -2.41407,0 5.25,-17.0625 2.29688,0 5.20312,17.0625 -2.41406,0 -1.24219,-4.3125 m -4.88671,-1.88672 4.34765,0 -2.13281,-7.45312 -0.0703,0 -2.14453,7.45312"
         style=""
         id="path5770" />
      <path
         d="m 252.03665,159.06981 0,-17.0625 4.6875,0 c 1.81249,2e-5 3.28905,0.68361 4.42969,2.05078 1.14842,1.3672 1.72264,3.12501 1.72266,5.27344 l 0,2.42578 c -2e-5,2.15625 -0.57424,3.91406 -1.72266,5.27344 -1.14064,1.35937 -2.6172,2.03906 -4.42969,2.03906 l -4.6875,0 m 2.37891,-15.23438 0,13.42969 2.22656,0 c 1.19531,0 2.13671,-0.51171 2.82422,-1.53515 0.6953,-1.02344 1.04296,-2.34766 1.04297,-3.97266 l 0,-2.44922 c -1e-5,-1.60936 -0.34767,-2.92186 -1.04297,-3.9375 -0.68751,-1.02342 -1.62891,-1.53514 -2.82422,-1.53516 l -2.22656,0"
         style=""
         id="path5772" />
      <path
         d="m 268.58353,142.00731 3.98437,13.92187 0.0703,0 3.9961,-13.92187 3.07031,0 0,17.0625 -2.35547,0 0,-6.55078 0.21094,-6.5625 -0.0703,-0.0117 -4.10157,13.125 -1.57031,0 -4.08984,-13.11328 -0.0703,0.0117 0.22265,6.55078 0,6.55078 -2.35547,0 0,-17.0625 3.0586,0"
         style=""
         id="path5774" />
      <path
         d="m 291.68118,151.14793 -6.32812,0 0,6.11719 7.33594,0 0,1.80469 -9.71485,0 0,-17.0625 9.64453,0 0,1.82812 -7.26562,0 0,5.4961 6.32812,0 0,1.8164"
         style=""
         id="path5776" />
      <path
         d="m 297.27103,159.06981 -2.39063,0 0,-2.37891 2.39063,0 0,2.37891"
         style=""
         id="path5778" />
      <path
         d="m 302.61478,146.39012 0.1289,1.72266 c 0.34375,-0.62499 0.78125,-1.10546 1.3125,-1.44141 0.53125,-0.34374 1.15234,-0.51561 1.86328,-0.51562 0.69531,10e-6 1.29296,0.19532 1.79297,0.58593 0.49999,0.38283 0.8789,0.96877 1.13672,1.75782 0.32812,-0.73437 0.76562,-1.30859 1.3125,-1.72266 0.54686,-0.41405 1.1953,-0.62108 1.94531,-0.62109 1.07812,10e-6 1.92577,0.44532 2.54297,1.33593 0.62499,0.88283 0.93749,2.23048 0.9375,4.04297 l 0,7.53516 -2.3789,0 0,-7.54688 c -2e-5,-1.29686 -0.16017,-2.20702 -0.48047,-2.73046 -0.32033,-0.52343 -0.79298,-0.78515 -1.41797,-0.78516 -0.53908,1e-5 -0.9922,0.20704 -1.35938,0.62109 -0.35938,0.40626 -0.6211,0.94923 -0.78515,1.62891 -0.008,-0.0625 -0.004,0.0391 0.0117,0.30469 0.0156,0.25782 0.0234,0.44532 0.0234,0.5625 l 0,7.94531 -2.36718,0 0,-7.54688 c -10e-6,-1.2578 -0.16407,-2.15624 -0.49219,-2.69531 -0.32813,-0.54686 -0.80469,-0.8203 -1.42969,-0.82031 -0.5,1e-5 -0.92578,0.14063 -1.27734,0.42187 -0.35157,0.27345 -0.62501,0.65626 -0.82031,1.14844 l 0,9.49219 -2.36719,0 0,-12.67969 2.16797,0"
         style=""
         id="path5780" />
      <path
         d="m 317.86087,152.88231 c 0,-2.02343 0.36328,-3.64843 1.08984,-4.875 0.73438,-1.23436 1.76563,-1.85155 3.09375,-1.85156 0.59375,10e-6 1.12109,0.13282 1.58204,0.39843 0.46874,0.26564 0.87108,0.64845 1.20703,1.14844 l 0,-6.91406 2.36718,0 0,18.28125 -2.07421,0 -0.17579,-1.45313 c -0.33594,0.55469 -0.75,0.97657 -1.24218,1.26563 -0.48438,0.28906 -1.04298,0.43359 -1.67578,0.43359 -1.32032,0 -2.34766,-0.5625 -3.08204,-1.6875 -0.72656,-1.12499 -1.08984,-2.62499 -1.08984,-4.5 l 0,-0.24609 m 2.37891,0.24609 c -10e-6,1.33594 0.1914,2.39454 0.57422,3.17578 0.3828,0.78126 0.98827,1.17188 1.8164,1.17188 0.51562,0 0.95312,-0.14062 1.3125,-0.42188 0.36718,-0.28124 0.66406,-0.67577 0.89063,-1.18359 l 0,-6.16406 c -0.22657,-0.52343 -0.52345,-0.93749 -0.89063,-1.24219 -0.35938,-0.30468 -0.78907,-0.45702 -1.28906,-0.45703 -0.82813,1e-5 -1.43751,0.44923 -1.82813,1.34766 -0.39062,0.89844 -0.58594,2.07422 -0.58593,3.52734 l 0,0.24609"
         style=""
         id="path5782" />
    </g>
    <g
       style="font-size:24px;font-style:normal;font-variant:normal;font-weight:normal;font-stretch:condensed;text-align:center;line-height:125%;letter-spacing:0px;word-spacing:0px;writing-mode:lr-tb;text-anchor:middle;fill:#ffffff;fill-opacity:1;stroke:none;font-family:Roboto Condensed;-inkscape-font-specification:'Roboto Condensed, Condensed'"
       id="text4290">
      <path
         d="m 399.02841,153.21043 c -1e-5,-0.49218 -0.16407,-0.90624 -0.49219,-1.24218 -0.32031,-0.34375 -0.92969,-0.71875 -1.82812,-1.125 -1.30469,-0.50781 -2.27344,-1.04687 -2.90625,-1.61719 -0.625,-0.57812 -0.9375,-1.32421 -0.9375,-2.23828 0,-0.97655 0.38281,-1.80468 1.14844,-2.48438 0.77343,-0.68748 1.78515,-1.03123 3.03515,-1.03125 1.30468,2e-5 2.34375,0.37111 3.11719,1.11328 0.77343,0.73439 1.14452,1.65236 1.11328,2.75391 l -0.0234,0.0703 -2.28515,0 c -1e-5,-0.60155 -0.17188,-1.11717 -0.51563,-1.54687 -0.33594,-0.43749 -0.80469,-0.65624 -1.40625,-0.65625 -0.59375,1e-5 -1.05859,0.16798 -1.39453,0.5039 -0.32813,0.33595 -0.49219,0.73048 -0.49219,1.1836 0,0.48438 0.14063,0.86719 0.42188,1.14844 0.28906,0.28125 0.90624,0.64844 1.85156,1.10156 1.32812,0.47657 2.31249,1.01954 2.95313,1.6289 0.64843,0.60157 0.97264,1.37501 0.97265,2.32032 -10e-6,1.04687 -0.39844,1.89844 -1.19531,2.55468 -0.79688,0.65625 -1.84376,0.98438 -3.14062,0.98438 -1.39845,0 -2.50001,-0.39453 -3.30469,-1.18359 -0.80469,-0.79688 -1.1875,-1.72656 -1.14844,-2.78907 l 0.0234,-0.0703 2.21484,0 c 0.0312,0.82032 0.25781,1.41407 0.67969,1.78125 0.42187,0.35938 0.94531,0.53906 1.57031,0.53906 0.61718,0 1.09765,-0.15625 1.44141,-0.46875 0.35155,-0.32031 0.52733,-0.73046 0.52734,-1.23047"
         style=""
         id="path5759" />
      <path
         d="m 409.03622,145.71043 -1.11328,-0.0586 c -0.49219,1e-5 -0.90235,0.14845 -1.23047,0.44531 -0.32031,0.29689 -0.56641,0.71486 -0.73828,1.25391 l 0,9.03516 -2.3789,0 0,-12.67969 2.16797,0 0.17578,1.91015 c 0.26562,-0.67186 0.61327,-1.1953 1.04297,-1.57031 0.42968,-0.3828 0.92577,-0.5742 1.48828,-0.57422 0.15624,2e-5 0.3164,0.0156 0.48047,0.0469 0.16405,0.0235 0.29296,0.0547 0.38671,0.0937 l -0.28125,2.09765"
         style=""
         id="path5761" />
      <path
         d="m 415.15341,154.82762 c 0.59375,0 1.09375,-0.22656 1.5,-0.67969 0.40624,-0.46093 0.60937,-1.07421 0.60938,-1.83984 l 2.13281,0 0.0234,0.0703 c 0.0312,1.19532 -0.37501,2.20313 -1.21875,3.02344 -0.83595,0.82031 -1.85157,1.23047 -3.04688,1.23047 -1.57813,0 -2.78906,-0.53516 -3.63281,-1.60547 -0.83594,-1.07031 -1.25391,-2.43359 -1.25391,-4.08984 l 0,-1.7461 c 0,-1.65624 0.41797,-3.02342 1.25391,-4.10156 0.84375,-1.07811 2.05078,-1.61717 3.62109,-1.61719 1.28125,2e-5 2.32031,0.4297 3.11719,1.28907 0.80468,0.85157 1.1953,1.95704 1.17188,3.3164 l -0.0352,0.0703 -2.13281,0 c -10e-6,-0.84374 -0.19532,-1.52733 -0.58594,-2.05078 -0.38282,-0.53124 -0.89454,-0.79686 -1.53516,-0.79687 -0.90625,1e-5 -1.55078,0.3672 -1.93359,1.10156 -0.375,0.73438 -0.5625,1.66407 -0.5625,2.78906 l 0,1.7461 c 0,1.14063 0.1875,2.07422 0.5625,2.80078 0.38281,0.72656 1.03124,1.08984 1.94531,1.08984"
         style=""
         id="path5763" />
    </g>
    <g
       style="font-size:24px;font-style:normal;font-variant:normal;font-weight:normal;font-stretch:condensed;text-align:center;line-height:125%;letter-spacing:0px;word-spacing:0px;writing-mode:lr-tb;text-anchor:middle;fill:#ffffff;fill-opacity:1;stroke:none;font-family:Roboto Condensed;-inkscape-font-specification:'Roboto Condensed, Condensed'"
       id="text4294">
      <path
         d="m 441.60547,309.0921 c -0.086,-0.28906 -0.15626,-0.57031 -0.21094,-0.84375 -0.0547,-0.28125 -0.0898,-0.5625 -0.10547,-0.84375 -0.35157,0.57032 -0.79297,1.03516 -1.32422,1.39453 -0.53125,0.35938 -1.1211,0.53907 -1.76953,0.53907 -1.07031,0 -1.91016,-0.33594 -2.51953,-1.00782 -0.60156,-0.67968 -0.90234,-1.58593 -0.90234,-2.71875 0,-1.21093 0.41015,-2.16015 1.23047,-2.84765 0.82812,-0.69531 1.98827,-1.04296 3.48046,-1.04297 l 1.76954,0 0,-1.30078 c -1e-5,-0.77343 -0.17189,-1.37499 -0.51563,-1.80469 -0.34376,-0.43749 -0.83204,-0.65624 -1.46484,-0.65625 -0.57032,10e-6 -1.03126,0.19532 -1.38282,0.58594 -0.34375,0.39063 -0.51562,0.87891 -0.51562,1.46484 l -2.26172,-0.0117 -0.0352,-0.0703 c -0.0391,-0.97655 0.35157,-1.84374 1.17188,-2.60156 0.82031,-0.76562 1.8789,-1.14843 3.17578,-1.14844 1.24999,10e-6 2.26171,0.37111 3.03516,1.11328 0.78124,0.73439 1.17186,1.78517 1.17187,3.15234 l 0,5.88282 c -1e-5,0.49219 0.0273,0.96875 0.082,1.42968 0.0625,0.45313 0.16015,0.89844 0.29297,1.33594 l -2.40234,0 m -2.8711,-1.58203 c 0.55469,0 1.05859,-0.16406 1.51172,-0.49219 0.46093,-0.32812 0.79687,-0.73828 1.00782,-1.23047 l 0,-2.58984 -1.80469,0 c -0.72657,1e-5 -1.29297,0.23438 -1.69922,0.70313 -0.39844,0.46094 -0.59766,1.02734 -0.59766,1.69921 0,0.57032 0.13672,1.03126 0.41016,1.38282 0.27343,0.35156 0.66406,0.52734 1.17187,0.52734"
         style=""
         id="path5735" />
      <path
         d="m 455.72656,303.80695 c -1e-5,1.67187 -0.3672,3.01172 -1.10156,4.01953 -0.73438,1.00781 -1.75391,1.51172 -3.05859,1.51172 -0.6172,0 -1.16017,-0.1211 -1.62891,-0.36329 -0.46875,-0.24218 -0.8711,-0.59765 -1.20703,-1.0664 l 0,6.05859 -2.37891,0 0,-17.55469 2.1211,0 0.15234,1.45313 c 0.33593,-0.53905 0.74609,-0.95311 1.23047,-1.24219 0.48437,-0.29686 1.04687,-0.4453 1.6875,-0.44531 1.3203,10e-6 2.34765,0.5547 3.08203,1.66406 0.73436,1.10939 1.10155,2.57814 1.10156,4.40625 l 0,1.5586 m -2.3789,-1.5586 c -1e-5,-1.24218 -0.20704,-2.2539 -0.6211,-3.03515 -0.40625,-0.78906 -1.01563,-1.18359 -1.82812,-1.1836 -0.50782,10e-6 -0.94141,0.14454 -1.30078,0.4336 -0.35938,0.28907 -0.64845,0.6836 -0.86719,1.18359 l 0,6.41016 c 0.21093,0.47656 0.49609,0.84375 0.85547,1.10156 0.35937,0.25 0.80077,0.375 1.32422,0.375 0.8203,0 1.42968,-0.33984 1.82812,-1.01953 0.40624,-0.6875 0.60937,-1.58984 0.60938,-2.70703 l 0,-1.5586"
         style=""
         id="path5737" />
      <path
         d="m 467.39844,303.80695 c -10e-6,1.67187 -0.3672,3.01172 -1.10157,4.01953 -0.73438,1.00781 -1.75391,1.51172 -3.05859,1.51172 -0.61719,0 -1.16016,-0.1211 -1.62891,-0.36329 -0.46875,-0.24218 -0.87109,-0.59765 -1.20703,-1.0664 l 0,6.05859 -2.3789,0 0,-17.55469 2.12109,0 0.15234,1.45313 c 0.33594,-0.53905 0.74609,-0.95311 1.23047,-1.24219 0.48437,-0.29686 1.04687,-0.4453 1.6875,-0.44531 1.32031,10e-6 2.34765,0.5547 3.08203,1.66406 0.73437,1.10939 1.10156,2.57814 1.10157,4.40625 l 0,1.5586 m -2.37891,-1.5586 c -10e-6,-1.24218 -0.20704,-2.2539 -0.62109,-3.03515 -0.40626,-0.78906 -1.01563,-1.18359 -1.82813,-1.1836 -0.50782,10e-6 -0.94141,0.14454 -1.30078,0.4336 -0.35938,0.28907 -0.64844,0.6836 -0.86719,1.18359 l 0,6.41016 c 0.21094,0.47656 0.49609,0.84375 0.85547,1.10156 0.35937,0.25 0.80078,0.375 1.32422,0.375 0.82031,0 1.42968,-0.33984 1.82813,-1.01953 0.40624,-0.6875 0.60936,-1.58984 0.60937,-2.70703 l 0,-1.5586"
         style=""
         id="path5739" />
      <path
         d="m 472.33203,309.0921 -2.39062,0 0,-2.3789 2.39062,0 0,2.3789"
         style=""
         id="path5741" />
      <path
         d="m 484.88281,303.80695 c -1e-5,1.67187 -0.3672,3.01172 -1.10156,4.01953 -0.73438,1.00781 -1.75391,1.51172 -3.05859,1.51172 -0.6172,0 -1.16017,-0.1211 -1.62891,-0.36329 -0.46875,-0.24218 -0.8711,-0.59765 -1.20703,-1.0664 l 0,6.05859 -2.37891,0 0,-17.55469 2.1211,0 0.15234,1.45313 c 0.33593,-0.53905 0.74609,-0.95311 1.23047,-1.24219 0.48437,-0.29686 1.04687,-0.4453 1.6875,-0.44531 1.3203,10e-6 2.34765,0.5547 3.08203,1.66406 0.73436,1.10939 1.10155,2.57814 1.10156,4.40625 l 0,1.5586 m -2.3789,-1.5586 c -1e-5,-1.24218 -0.20704,-2.2539 -0.6211,-3.03515 -0.40625,-0.78906 -1.01563,-1.18359 -1.82812,-1.1836 -0.50782,10e-6 -0.94141,0.14454 -1.30078,0.4336 -0.35938,0.28907 -0.64845,0.6836 -0.86719,1.18359 l 0,6.41016 c 0.21093,0.47656 0.49609,0.84375 0.85547,1.10156 0.35937,0.25 0.80077,0.375 1.32422,0.375 0.8203,0 1.42968,-0.33984 1.82812,-1.01953 0.40624,-0.6875 0.60937,-1.58984 0.60938,-2.70703 l 0,-1.5586"
         style=""
         id="path5743" />
      <path
         d="m 489.52344,298.11163 c 0.35156,-0.60936 0.78515,-1.08202 1.30078,-1.41797 0.51562,-0.34373 1.08984,-0.51561 1.72265,-0.51562 1.14062,10e-6 2.02734,0.42189 2.66016,1.26562 0.6328,0.84377 0.94921,2.14064 0.94922,3.89063 l 0,7.75781 -2.37891,0 0,-7.78125 c 0,-1.16405 -0.17188,-1.99999 -0.51562,-2.50781 -0.33595,-0.51561 -0.83985,-0.77343 -1.51172,-0.77344 -0.48438,10e-6 -0.91797,0.14064 -1.30078,0.42188 -0.37501,0.27344 -0.6836,0.65235 -0.92578,1.13672 l 0,9.5039 -2.37891,0 0,-18.28125 2.37891,0 0,7.30078"
         style=""
         id="path5745" />
      <path
         d="m 508.22656,303.80695 c -1e-5,1.67187 -0.3672,3.01172 -1.10156,4.01953 -0.73438,1.00781 -1.75391,1.51172 -3.05859,1.51172 -0.6172,0 -1.16017,-0.1211 -1.62891,-0.36329 -0.46875,-0.24218 -0.8711,-0.59765 -1.20703,-1.0664 l 0,6.05859 -2.37891,0 0,-17.55469 2.1211,0 0.15234,1.45313 c 0.33593,-0.53905 0.74609,-0.95311 1.23047,-1.24219 0.48437,-0.29686 1.04687,-0.4453 1.6875,-0.44531 1.3203,10e-6 2.34765,0.5547 3.08203,1.66406 0.73436,1.10939 1.10155,2.57814 1.10156,4.40625 l 0,1.5586 m -2.3789,-1.5586 c -1e-5,-1.24218 -0.20704,-2.2539 -0.6211,-3.03515 -0.40625,-0.78906 -1.01563,-1.18359 -1.82812,-1.1836 -0.50782,10e-6 -0.94141,0.14454 -1.30078,0.4336 -0.35938,0.28907 -0.64845,0.6836 -0.86719,1.18359 l 0,6.41016 c 0.21093,0.47656 0.49609,0.84375 0.85547,1.10156 0.35937,0.25 0.80077,0.375 1.32422,0.375 0.8203,0 1.42968,-0.33984 1.82812,-1.01953 0.40624,-0.6875 0.60937,-1.58984 0.60938,-2.70703 l 0,-1.5586"
         style=""
         id="path5747" />
    </g>
  </g>
</svg>
